<svg xmlns="http://www.w3.org/2000/svg" width="45.645" height="45.811" viewBox="0 0 12.077 12.121"><path d="M3.54 12.12L0 10.019l8.7-5.027 3.377 1.737L3.54 12.12" fill="#8c8b8c"/><path d="M11.47 6.747l-.846.538V5.233l.846-.538v2.052" fill="#939494"/><path d="M11.47 4.695l-.24-.165-.85.538.244.165.846-.538" fill="#fafcfe"/><path d="M10.38 7.12l.244.165V5.233l-.244-.165V7.12" fill="#e4e4e1"/><path d="M4.207 11.267l-.85.538V9.753l.85-.538v2.052" fill="#939494"/><path d="M4.207 9.215l-.244-.165-.85.537.243.166.85-.538" fill="#fafcfe"/><path d="M3.113 11.64l.243.165V9.753l-.243-.166v2.052" fill="#e4e4e1"/><path d="M8.285 6.208l-.85.538V.703l.85-.538v6.043" fill="#939494"/><path d="M8.285.165L8.04 0l-.85.538.243.165.85-.538" fill="#fafcfe"/><path d="M7.191 6.58l.243.166V.703L7.191.538v6.043" fill="#e4e4e1"/><path d="M2.107 10.05l-.85.538V4.546l.85-.538v6.043" fill="#939494"/><path d="M2.107 4.008l-.243-.166-.85.538.243.166.85-.538" fill="#fafcfe"/><path d="M1.014 10.423l.243.165V4.546l-.243-.166v6.043" fill="#e4e4e1"/><path d="M.39 6.728l8.262-5.192.349.182L.71 6.93l-.32-.201" fill="#fafcfe"/><path d="M.39 6.728v1.334l.32.202V6.929l-.32-.201" fill="#e4e4e1"/><path d="M.71 6.93L9 1.717v1.335L.71 8.263V6.93" fill="#939494"/><path d="M.39 5.192L8.652 0 9 .182.71 5.393l-.32-.201" fill="#fafcfe"/><path d="M.39 5.192v1.334l.32.202V5.393l-.32-.201" fill="#e4e4e1"/><path d="M.71 5.393L9 .183v1.334L.71 6.727V5.394" fill="#939494"/><path d="M.823 8.233l8.259-5.191 1.351.689-8.29 5.211-1.32-.709" fill="#fafcfe"/><path d="M.823 8.233v.277l1.32.71v-.278l-1.32-.709" fill="#e4e4e1"/><path d="M2.143 8.942l8.29-5.211v.277L2.143 9.22v-.277" fill="#939494"/><path d="M2.273 9.032l8.259-5.191 1.351.689-8.29 5.211-1.32-.709" fill="#fafcfe"/><path d="M2.273 9.032v.277l1.32.71V9.74l-1.32-.709" fill="#e4e4e1"/><path d="M3.593 9.741l8.29-5.211v.277l-8.29 5.211v-.277" fill="#939494"/></svg>