<svg xmlns="http://www.w3.org/2000/svg" width="45.64" height="45.809" viewBox="0 0 12.076 12.12"><path d="M8.537 12.12L0 6.727l3.376-1.736 8.7 5.027-3.539 2.102" fill="#8c8b8c"/><path d="M.607 6.747l.85.538V5.233l-.85-.538v2.052" fill="#939494"/><path d="M.607 4.695l.24-.165.85.538-.24.165-.85-.538" fill="#fafcfe"/><path d="M1.697 7.12l-.24.165V5.233l.24-.165v2.051" fill="#e4e4e1"/><path d="M7.87 11.267l.85.537V9.753l-.85-.538v2.052" fill="#939494"/><path d="M7.87 9.215l.244-.166.85.538-.243.166-.85-.538" fill="#fafcfe"/><path d="M8.964 11.64l-.243.164V9.753l.243-.166v2.052" fill="#e4e4e1"/><path d="M3.792 6.208l.85.538V.703l-.85-.538v6.043" fill="#939494"/><path d="M3.792.165L4.036 0l.85.538-.243.165-.85-.538" fill="#fafcfe"/><path d="M4.886 6.58l-.243.166V.703l.243-.165V6.58" fill="#e4e4e1"/><path d="M9.97 10.05l.85.538V4.545l-.85-.537v6.042" fill="#939494"/><path d="M9.97 4.008l.243-.166.85.538-.243.165-.85-.537" fill="#fafcfe"/><path d="M11.063 10.423l-.243.165V4.545l.243-.165v6.043" fill="#e4e4e1"/><path d="M11.688 6.727L3.425 1.536l-.349.182 8.29 5.21.322-.2" fill="#fafcfe"/><path d="M11.688 6.727v1.335l-.321.201V6.93l.32-.202" fill="#e4e4e1"/><path d="M11.367 6.929l-8.29-5.21v1.334l8.29 5.21V6.93" fill="#939494"/><path d="M11.688 5.191L3.425 0l-.349.182 8.29 5.211.322-.202" fill="#fafcfe"/><path d="M11.688 5.191v1.335l-.321.201V5.393l.32-.202" fill="#e4e4e1"/><path d="M11.367 5.393L3.077.182v1.335l8.29 5.21V5.393" fill="#939494"/><path d="M11.254 8.233L2.995 3.042 1.64 3.73l8.294 5.21 1.32-.708" fill="#fafcfe"/><path d="M11.254 8.233v.277l-1.32.709v-.277l1.32-.71" fill="#e4e4e1"/><path d="M9.934 8.942L1.64 3.73v.277l8.294 5.21v-.276" fill="#939494"/><path d="M9.804 9.032L1.545 3.84l-1.351.69 8.29 5.21 1.32-.708" fill="#fafcfe"/><path d="M9.804 9.032v.277l-1.32.709V9.74l1.32-.71" fill="#e4e4e1"/><path d="M8.484 9.74L.194 4.53v.277l8.29 5.21v-.276" fill="#939494"/></svg>