<svg xmlns="http://www.w3.org/2000/svg" width="639.307" height="176.044" viewBox="0 0 169.15 46.578"><g fill="#e2ecf7"><path d="M143.983 13.913h-32.83a8.684 8.684 0 0 0-8.195-5.806H55.153A8.682 8.682 0 0 1 63.818 0h72.347a8.684 8.684 0 0 1 8.686 8.683v1.448a8.653 8.653 0 0 1-.868 3.782"/><path d="M79.435 23.312H23.562a8.662 8.662 0 0 1-1.633-5.074V16.79a8.683 8.683 0 0 1 8.682-8.683H102.958a8.684 8.684 0 0 1 8.195 5.806H88.117a8.683 8.683 0 0 0-8.682 8.683v.716"/><path d="M160.465 32.727h-49.601c-.65-5.306-5.175-9.415-10.657-9.415H79.435v-.716a8.683 8.683 0 0 1 8.682-8.683h72.348a8.684 8.684 0 0 1 8.685 8.683v1.447a8.684 8.684 0 0 1-8.685 8.684"/><path d="M100.207 46.578H10.735C4.805 46.578 0 41.77 0 35.84v-1.79c0-5.93 4.805-10.738 10.735-10.738H100.207c5.482 0 10.008 4.11 10.657 9.415.056.434.081.875.081 1.323v1.79c0 5.93-4.808 10.738-10.738 10.738"/></g></svg>