<svg xmlns="http://www.w3.org/2000/svg" width="245.771" height="232.513" viewBox="0 0 65.027 61.519"><path d="M2.425 42.62V13.66L32.48 32.557V61.52L2.425 42.62" fill="#dce8e3"/><path d="M62.537 13.66v28.96l-30.056 18.9V32.557L62.537 13.66" fill="#c7a493"/><path d="M32.514 34.104L0 13.659 18.282 1.784l15.513 9.378L47.88 2.877 65.027 13.66 32.514 34.104" fill="#3693a3"/><path d="M32.514 32.32v1.784l32.513-20.445v-1.784L32.514 32.319" fill="#24576d"/><path d="M0 11.875v1.784l32.514 20.445v-1.785L0 11.875M18.537 1.784v1.784l15.082 9.046v-1.785L18.537 1.784" fill="#2a7078"/><path d="M33.619 10.83v1.784l13.593-8.092V2.738L33.62 10.829M2.755 12.078l.2 1.655L18.537 3.568V1.784L2.755 12.078" fill="#24576d"/><path d="M47.212 2.738v1.784l14.785 9.298v-1.785L47.212 2.738" fill="#2a7078"/><path d="M62.007 12.04L47.212 2.739l-13.592 8.09-15.094-9.016L2.75 12.059l29.763 18.566zM32.514 32.32L0 11.874 18.282 0l15.513 9.378L47.88 1.093l17.146 10.782-32.513 20.444" fill="#3aa1a4"/><path d="M17.8 8.055L14.184 5.78l3.703-2.427 3.617 2.273L17.8 8.055" fill="#7da5a5"/><path d="M14.184 7.19V5.781L17.8 8.055v1.41L14.184 7.19" fill="#46787c"/><path d="M21.504 5.627v1.41L17.8 9.464v-1.41l3.704-2.427m-1.405.077c0 .686-1.01 1.241-2.255 1.241-1.245 0-2.256-.555-2.256-1.24 0-.686 1.01-1.242 2.256-1.242 1.245 0 2.255.556 2.255 1.241" fill="#2e555c"/><path d="M19.061 5.704c0 .37-.545.67-1.217.67-.673 0-1.218-.3-1.218-.67 0-.37.545-.67 1.218-.67.672 0 1.217.3 1.217.67" fill="#7da5a5"/><path d="M17.844 4.786c-.921 0-1.668.411-1.668.918 0 .508.747.918 1.668.918.92 0 1.668-.41 1.668-.918 0-.507-.747-.918-1.668-.918zm1.937.918c0 .589-.867 1.067-1.937 1.067s-1.938-.478-1.938-1.067.868-1.067 1.938-1.067c1.07 0 1.937.478 1.937 1.067m-6.831 5.401L9.332 8.831l3.703-2.427 3.616 2.274-3.703 2.427" fill="#7da5a5"/><path d="M9.333 10.24V8.831l3.616 2.274v1.41L9.333 10.24" fill="#46787c"/><path d="M16.652 8.678v1.41l-3.703 2.427v-1.41l3.703-2.427m-1.405.076c0 .686-1.01 1.242-2.254 1.242-1.245 0-2.255-.556-2.255-1.242 0-.685 1.01-1.24 2.255-1.24 1.245 0 2.254.555 2.254 1.24" fill="#2e555c"/><path d="M14.21 8.754c0 .37-.545.67-1.217.67-.673 0-1.218-.3-1.218-.67 0-.37.545-.67 1.218-.67.672 0 1.217.3 1.217.67" fill="#7da5a5"/><path d="M12.993 7.836c-.921 0-1.668.41-1.668.918s.747.918 1.668.918c.921 0 1.668-.41 1.668-.918 0-.507-.747-.918-1.668-.918zm1.937.918c0 .59-.867 1.067-1.937 1.067s-1.938-.477-1.938-1.067c0-.588.868-1.067 1.938-1.067 1.07 0 1.937.479 1.937 1.067" fill="#7da5a5"/><path d="M4.24 19.575v3.055l2.421 1.544v-3.056zm2.729 1.44v3.648l-3.035-1.93v-3.648l3.035 1.93" fill="#90551d"/><path d="M4.186 19.486v3.163l2.531 1.614v-3.164l-2.531-1.613" fill="#f5fcfd"/><path d="M3.933 19.083v3.65l3.037 1.933v-3.65zm3.404 1.809v4.358l-3.772-2.394v-4.358l3.772 2.394" fill="#f59014"/><path d="M8.985 22.65v3.056l2.42 1.543v-3.055zm2.728 1.44v3.65l-3.035-1.931V22.16l3.035 1.93" fill="#90551d"/><path d="M8.93 22.561v3.164l2.531 1.613v-3.163L8.93 22.561" fill="#f5fcfd"/><path d="M8.676 22.159v3.65l3.038 1.932v-3.65zm3.405 1.809v4.358L8.31 25.932v-4.358l3.772 2.394" fill="#f59014"/><path d="M13.729 25.638v3.056l2.42 1.544v-3.055zm2.727 1.441v3.649l-3.035-1.931v-3.648l3.035 1.93" fill="#90551d"/><path d="M13.673 25.55v3.163l2.532 1.614v-3.163l-2.532-1.614" fill="#f5fcfd"/><path d="M13.42 25.147v3.65l3.038 1.933v-3.65zm3.405 1.809v4.359l-3.772-2.394v-4.359l3.772 2.394" fill="#f59014"/><path d="M18.473 28.456v3.055l2.42 1.544v-3.056zm2.727 1.44v3.649l-3.035-1.93v-3.649l3.035 1.93" fill="#90551d"/><path d="M18.417 28.368v3.162l2.532 1.614V29.98l-2.532-1.613" fill="#f5fcfd"/><path d="M18.164 27.964v3.65l3.037 1.932v-3.65zm3.405 1.81v4.357l-3.773-2.393V27.38l3.773 2.393" fill="#f59014"/><path d="M23.216 31.532v3.055l2.42 1.544v-3.056zm2.728 1.44v3.648l-3.035-1.93v-3.648l3.035 1.93" fill="#90551d"/><path d="M23.16 31.443v3.162l2.532 1.614v-3.163l-2.532-1.613" fill="#f5fcfd"/><path d="M22.907 31.04v3.65l3.038 1.932v-3.65zm3.405 1.808v4.36l-3.772-2.395v-4.358l3.772 2.393" fill="#f59014"/><path d="M27.96 34.52v3.056l2.421 1.543v-3.055zm2.728 1.44v3.65l-3.035-1.932V34.03l3.035 1.93" fill="#90551d"/><path d="M27.906 34.432v3.162l2.53 1.614v-3.163l-2.53-1.613" fill="#f5fcfd"/><path d="M27.652 34.029v3.65l3.038 1.932v-3.65zm3.405 1.808v4.36l-3.773-2.395v-4.358l3.773 2.393" fill="#f59014"/><path d="M4.24 26.503v3.056l2.421 1.544v-3.056zm2.729 1.441v3.648l-3.035-1.93v-3.648l3.035 1.93" fill="#90551d"/><path d="M4.186 26.415v3.163l2.531 1.613V28.03l-2.531-1.614" fill="#f5fcfd"/><path d="M3.933 26.012v3.65l3.037 1.932v-3.65zm3.404 1.809v4.358l-3.772-2.393v-4.358l3.772 2.393" fill="#f59014"/><path d="M8.985 29.58v3.055l2.42 1.544v-3.056zm2.728 1.44v3.648l-3.035-1.93V29.09l3.035 1.93" fill="#90551d"/><path d="M8.93 29.49v3.164l2.531 1.613v-3.163L8.93 29.491" fill="#f5fcfd"/><path d="M8.676 29.088v3.65l3.038 1.932v-3.65zm3.405 1.808v4.358L8.31 32.861v-4.358l3.772 2.393" fill="#f59014"/><path d="M13.729 32.568v3.056l2.42 1.543v-3.056zm2.727 1.44v3.649l-3.035-1.93v-3.648l3.035 1.93" fill="#90551d"/><path d="M13.673 32.48v3.162l2.532 1.614v-3.163l-2.532-1.613" fill="#f5fcfd"/><path d="M13.42 32.077v3.65l3.038 1.932v-3.65zm3.405 1.808v4.358l-3.772-2.393v-4.358l3.772 2.393" fill="#f59014"/><path d="M18.473 35.385v3.055l2.42 1.545v-3.056zm2.727 1.44v3.649l-3.035-1.93v-3.649l3.035 1.93" fill="#90551d"/><path d="M18.417 35.296v3.163l2.532 1.614V36.91l-2.532-1.614" fill="#f5fcfd"/><path d="M18.164 34.893v3.65l3.037 1.932v-3.65zm3.405 1.809v4.358l-3.773-2.393v-4.359l3.773 2.394" fill="#f59014"/><path d="M23.216 38.46v3.056l2.42 1.544v-3.056zm2.728 1.441v3.648l-3.035-1.93V37.97l3.035 1.93" fill="#90551d"/><path d="M23.16 38.372v3.163l2.532 1.613v-3.163l-2.532-1.613" fill="#f5fcfd"/><path d="M22.907 37.97v3.649l3.038 1.932V39.9zm3.405 1.808v4.358l-3.772-2.394v-4.358l3.772 2.394" fill="#f59014"/><path d="M27.96 41.45v3.054l2.421 1.544v-3.056zm2.728 1.44v3.647l-3.035-1.93V40.96l3.035 1.93" fill="#90551d"/><path d="M27.906 41.36v3.163l2.53 1.614v-3.163l-2.53-1.614" fill="#f5fcfd"/><path d="M27.652 40.957v3.65l3.038 1.932v-3.65zm3.405 1.81v4.357l-3.773-2.393v-4.358l3.773 2.393" fill="#f59014"/><path d="M4.24 33.433v3.055l2.421 1.544v-3.056zm2.729 1.44v3.649l-3.035-1.93v-3.65l3.035 1.932" fill="#90551d"/><path d="M4.186 33.345v3.162l2.531 1.614v-3.164l-2.531-1.612" fill="#f5fcfd"/><path d="M3.933 32.941v3.65l3.037 1.932v-3.65zm3.404 1.81v4.357l-3.772-2.394v-4.358l3.772 2.394" fill="#f59014"/><path d="M8.985 36.508v3.056l2.42 1.544v-3.056zm2.728 1.441v3.648l-3.035-1.93v-3.648l3.035 1.93" fill="#90551d"/><path d="M8.93 36.42v3.163l2.531 1.614v-3.164L8.93 36.42" fill="#f5fcfd"/><path d="M8.676 36.017v3.65l3.038 1.932v-3.65zm3.405 1.809v4.358L8.31 39.79v-4.358l3.772 2.394" fill="#f59014"/><path d="M13.729 39.497v3.055l2.42 1.544V41.04zm2.727 1.44v3.648l-3.035-1.93v-3.648l3.035 1.93" fill="#90551d"/><path d="M13.673 39.408v3.163l2.532 1.613v-3.162l-2.532-1.614" fill="#f5fcfd"/><path d="M13.42 39.006v3.65l3.038 1.931v-3.65zm3.405 1.808v4.358l-3.772-2.393V38.42l3.772 2.394" fill="#f59014"/><path d="M18.473 42.314v3.055l2.42 1.544v-3.056zm2.727 1.44v3.648l-3.035-1.93v-3.648l3.035 1.93" fill="#90551d"/><path d="M18.417 42.225v3.163l2.532 1.614v-3.164l-2.532-1.613" fill="#f5fcfd"/><path d="M18.164 41.822v3.65l3.037 1.932v-3.65zm3.405 1.809v4.358l-3.773-2.394v-4.357l3.773 2.393" fill="#f59014"/><path d="M23.216 45.39v3.055l2.42 1.543v-3.055zm2.728 1.44v3.648l-3.035-1.93v-3.649l3.035 1.93" fill="#90551d"/><path d="M23.16 45.3v3.163l2.532 1.614v-3.163L23.16 45.3" fill="#f5fcfd"/><path d="M22.907 44.898v3.65l3.038 1.932v-3.65zm3.405 1.809v4.358L22.54 48.67v-4.358l3.772 2.394" fill="#f59014"/><path d="M27.96 48.377v3.056l2.421 1.544v-3.055zm2.728 1.441v3.649l-3.035-1.931v-3.648l3.035 1.93" fill="#90551d"/><path d="M27.906 48.289v3.163l2.53 1.614v-3.163l-2.53-1.614" fill="#f5fcfd"/><path d="M27.652 47.886v3.65l3.038 1.933v-3.65zm3.405 1.809v4.358l-3.773-2.394v-4.358l3.773 2.394" fill="#f59014"/><path d="M58.42 21.028v3.056l2.42-1.544v-3.056zm2.727-2.033v3.648l-3.035 1.93v-3.648l3.035-1.93" fill="#925a24"/><path d="M60.895 19.396v3.163l-2.532 1.613V21.01l2.532-1.613" fill="#cdedfb"/><path d="M58.11 20.925v3.65l3.039-1.932v-3.65zm3.406-2.517v4.358l-3.772 2.394v-4.358l3.772-2.394" fill="#f48515"/><path d="M53.675 24.103v3.056l2.421-1.543V22.56zm2.728-2.032v3.648l-3.035 1.93V24l3.035-1.93" fill="#925a24"/><path d="M56.151 22.472v3.162l-2.531 1.614v-3.163l2.531-1.613" fill="#cdedfb"/><path d="M53.367 24v3.65l3.037-1.931v-3.65zm3.404-2.516v4.358L53 28.235v-4.358l3.772-2.393" fill="#f48515"/><path d="M48.932 27.092v3.056l2.42-1.544v-3.055zm2.728-2.033v3.648l-3.036 1.93V26.99l3.036-1.931" fill="#925a24"/><path d="M51.408 25.46v3.163l-2.532 1.613v-3.162l2.532-1.614" fill="#cdedfb"/><path d="M48.623 26.989v3.65l3.038-1.932v-3.65zm3.405-2.516v4.358l-3.772 2.393v-4.358l3.772-2.393" fill="#f48515"/><path d="M44.188 29.909v3.056l2.42-1.543v-3.057zm2.727-2.033v3.648l-3.035 1.93v-3.648l3.035-1.93" fill="#925a24"/><path d="M46.664 28.277v3.162l-2.531 1.615V29.89l2.53-1.614" fill="#cdedfb"/><path d="M43.88 29.806v3.65l3.037-1.931v-3.65zm3.404-2.516v4.357l-3.772 2.394v-4.358l3.772-2.393" fill="#f48515"/><path d="M39.444 32.985v3.055l2.42-1.543v-3.056zm2.728-2.033V34.6l-3.035 1.93v-3.648l3.035-1.93" fill="#925a24"/><path d="M41.92 31.352v3.163l-2.53 1.615v-3.163l2.531-1.614" fill="#cdedfb"/><path d="M39.135 32.881v3.65l3.038-1.931v-3.65zm3.405-2.516v4.358l-3.772 2.394v-4.358l3.772-2.394" fill="#f48515"/><path d="M34.7 35.974v3.056l2.42-1.545V34.43zm2.729-2.034v3.648l-3.036 1.93V35.87l3.036-1.93" fill="#925a24"/><path d="M37.176 34.341v3.163l-2.531 1.614v-3.163l2.531-1.614" fill="#cdedfb"/><path d="M34.391 35.87v3.651l3.038-1.932v-3.65zm3.405-2.516v4.358l-3.771 2.394v-4.358l3.771-2.394" fill="#f48515"/><path d="M58.42 27.957v3.056l2.42-1.544v-3.055zm2.727-2.033v3.648l-3.035 1.93v-3.648l3.035-1.93" fill="#925a24"/><path d="M60.895 26.325v3.162l-2.532 1.614v-3.162l2.532-1.614" fill="#cdedfb"/><path d="M58.11 27.854v3.65l3.039-1.932v-3.65zm3.406-2.517v4.358l-3.772 2.394V27.73l3.772-2.393" fill="#f48515"/><path d="M53.675 31.033v3.056l2.421-1.545V29.49zm2.728-2.034v3.649l-3.035 1.93V30.93L56.403 29" fill="#925a24"/><path d="M56.151 29.4v3.163l-2.531 1.614v-3.163l2.531-1.613" fill="#cdedfb"/><path d="M53.367 30.93v3.65l3.037-1.932v-3.65zm3.404-2.517v4.358L53 35.165v-4.359l3.772-2.393" fill="#f48515"/><path d="M48.932 34.022v3.055l2.42-1.544v-3.055zm2.728-2.034v3.648l-3.036 1.93V33.92l3.036-1.93" fill="#925a24"/><path d="M51.408 32.39v3.162l-2.532 1.614v-3.163l2.532-1.613" fill="#cdedfb"/><path d="M48.623 33.919v3.65l3.038-1.932v-3.65zm3.405-2.518v4.358l-3.772 2.394v-4.358l3.772-2.394" fill="#f48515"/><path d="M44.188 36.839v3.055l2.42-1.544v-3.055zm2.727-2.034v3.648l-3.035 1.93v-3.648l3.035-1.93" fill="#925a24"/><path d="M46.664 35.206v3.163l-2.531 1.613V36.82l2.53-1.614" fill="#cdedfb"/><path d="M43.88 36.735v3.65l3.037-1.932v-3.65zm3.404-2.517v4.359l-3.772 2.394v-4.36l3.772-2.393" fill="#f48515"/><path d="M39.444 39.914v3.055l2.42-1.543V38.37zm2.728-2.033v3.648l-3.035 1.93V39.81l3.035-1.93" fill="#925a24"/><path d="M41.92 38.282v3.163l-2.531 1.613v-3.162l2.531-1.614" fill="#cdedfb"/><path d="M39.135 39.81v3.65l3.038-1.93v-3.651zm3.405-2.516v4.358l-3.772 2.394v-4.359l3.772-2.393" fill="#f48515"/><path d="M34.7 42.902v3.056l2.42-1.544v-3.055zm2.729-2.033v3.648l-3.036 1.93V42.8l3.036-1.93" fill="#925a24"/><path d="M37.176 41.27v3.163l-2.531 1.614v-3.163l2.531-1.613" fill="#cdedfb"/><path d="M34.391 42.799v3.65l3.038-1.931v-3.65zm3.405-2.516v4.357l-3.771 2.394v-4.357l3.771-2.394" fill="#f48515"/><path d="M58.42 34.887v3.055l2.42-1.544v-3.056zm2.727-2.034v3.648l-3.035 1.93v-3.648l3.035-1.93" fill="#925a24"/><path d="M60.895 33.254v3.163l-2.532 1.614v-3.164l2.532-1.613" fill="#cdedfb"/><path d="M58.11 34.783v3.65l3.039-1.931V32.85zm3.406-2.517v4.358l-3.772 2.394V34.66l3.772-2.394" fill="#f48515"/><path d="M53.675 37.962v3.056l2.421-1.544v-3.056zm2.728-2.033v3.648l-3.035 1.93V37.86l3.035-1.93" fill="#925a24"/><path d="M56.151 36.33v3.162l-2.531 1.614v-3.163l2.531-1.614" fill="#cdedfb"/><path d="M53.367 37.858v3.65l3.037-1.93v-3.651zm3.404-2.516V39.7L53 42.094v-4.358l3.772-2.394" fill="#f48515"/><path d="M48.932 40.95v3.056l2.42-1.544v-3.056zm2.728-2.033v3.648l-3.036 1.93v-3.647l3.036-1.93" fill="#925a24"/><path d="M51.408 39.318v3.163l-2.532 1.613v-3.162l2.532-1.614" fill="#cdedfb"/><path d="M48.623 40.847v3.65l3.038-1.932v-3.649zm3.405-2.516v4.358l-3.772 2.393v-4.357l3.772-2.394" fill="#f48515"/><path d="M2.425 42.62v-5.345L32.48 56.174v5.345L2.425 42.62" fill="#2a7078"/><path d="M62.537 42.62v-5.345L32.481 56.174v5.345L62.537 42.62" fill="#24576d"/><path d="M35.374 59.716V49.397l7.166-5.084v10.88l-7.166 4.523" fill="#90551d"/><path d="M35.374 59.716V49.351l.537-.054v10.067l-.537.352" fill="#f48515"/><path d="M38.869 57.544V47.18l.535-.055V57.19l-.535.354m3.135-1.987V45.19l.536-.054v10.066l-.536.355" fill="#f59014"/><path d="M40.505 52.186l-6.297-3.96 8.719-5.59 6.297 3.96-8.719 5.59" fill="#3693a3"/><path d="M34.208 49.772v-1.546l6.297 3.96v1.547l-6.297-3.96" fill="#2a7078"/><path d="M49.224 46.596v1.547l-8.719 5.59v-1.547l8.72-5.59" fill="#215163"/></svg>