<svg xmlns="http://www.w3.org/2000/svg" viewBox="0 0 45.49 38.875"><defs><clipPath clipPathUnits="userSpaceOnUse" id="a"><path d="M112.614 607.156h10.133v-22.519h-10.133z"/></clipPath><clipPath clipPathUnits="userSpaceOnUse" id="b"><path d="M133.347 594.354h10.132v-22.52h-10.132z"/></clipPath><clipPath clipPathUnits="userSpaceOnUse" id="c"><path d="M153.417 582.238h5.754v-19.851h-5.754z"/></clipPath></defs><path d="M22.204 38.875L0 24.913 22.947 9.605 45.49 23.906z" fill="#8a9f98"/><path d="M22.204 38.875v-1.55L45.49 22.797v1.11z" fill="#5e7570"/><path d="M22.204 37.326L0 23.364l22.947-14.75 22.543 14.3z" fill="#aececc"/><path d="M0 23.364v1.55l22.203 13.961v-1.55z" fill="#8aa29e"/><path d="M10.044.852l-.184 16.87 21.707 13.271.34-16.86z" fill="#fff0d5"/><path d="M45.15 13.961v2.301l-1.208.723v6.524l-12.375 7.484v-16.86z" fill="#c5a898"/><path d="M34.31 21.869l-2.743 1.64v-9.735h2.743zm4.688-2.849l-2.743 1.64v-7.056l2.743.022zm4.689-2.807l-2.744 1.64v-4.249h2.744z" fill="#a02524"/><path d="M27.016 20.704l2.744 1.64V12.61l-2.744-2.232zM21.8 17.557l2.744 1.64V9.463L21.8 7.231zm-5.217-3.253l2.745 1.64V6.21l-2.745-2.232zm-5.216-3.125l2.745 1.64V3.085L11.367.853z" fill="#d6453f"/><path d="M31.567 14.133L10.044.853 22.947 0 45.15 13.961z" fill="#cb3728"/><path d="M9.932 11.08l-.072 6.642 21.707 13.293v-6.654z" fill="#f59120"/><path d="M10.31 11.935v6.039l6.456 3.966v-6.05zm6.872 4.223l-.008 6.074 5.825 3.53v-6.05zm7.013 4.262l-.006 6.07 6.39 3.935v-6.05z" fill="#5c6268"/><path d="M10.509 17.82l-.236.154v-6.07l.236.154zm6.901 4.258l-.236.154v-6.07l.236.154zm7.016 4.258l-.237.154v-6.07l.237.154z" fill="#965f26"/><path d="M10.046 18.128l.463-.308 6.257 3.822v.399zm6.911 4.248l.463-.309L23 25.48v.399zm7.03 4.266l.463-.309 6.13 3.748v.4z" fill="#aececc"/><g clip-path="url(#a)" opacity=".3" transform="matrix(.35278 0 0 -.35278 -28.626 226.612)"><path d="M116.267 588.594l-3.652 18.562 5.922-3.626 4.21-18.893z" fill="#aececc"/></g><g clip-path="url(#b)" opacity=".3" transform="matrix(.35278 0 0 -.35278 -28.626 226.612)"><path d="M136.999 575.791l-3.652 18.562 5.922-3.626 4.21-18.893z" fill="#aececc"/></g><g clip-path="url(#c)" opacity=".3" transform="matrix(.35278 0 0 -.35278 -28.626 226.612)"><path d="M157.067 563.678l-3.65 18.56 1.96-1.255 3.794-18.596z" fill="#aececc"/></g><path d="M27.722 28.336l-.39-.24v-5.934l.39.244z" fill="#f59120"/><path d="M0 23.364l22.203 13.962.542-.338L.615 22.969z" fill="#d6edeb"/><path d="M5.234 23.437c0 .325-.546.588-1.22.588-.674 0-1.22-.263-1.22-.588 0-.325.546-.588 1.22-.588.674 0 1.22.263 1.22.588" fill="#f59120"/><path d="M2.793 21.875h2.442v1.562H2.793z" fill="#f59120"/><path d="M5.234 21.875c0 .325-.546.589-1.22.589-.674 0-1.22-.264-1.22-.589 0-.324.546-.588 1.22-.588.674 0 1.22.264 1.22.588" fill="#965f26"/><path d="M4.466 21.697a.448.448 0 0 1-.452.443.448.448 0 0 1-.452-.443c0-.246.202-.443.452-.443.249 0 .452.197.452.443" fill="#f59120"/><path d="M3.562 5.14h.904v16.557h-.904z" fill="#f59120"/><path d="M4.466 5.14a.448.448 0 0 1-.452.444.448.448 0 0 1-.452-.443c0-.245.202-.444.452-.444.249 0 .452.2.452.444" fill="#f59120"/><path d="M6.677 10.855l1.189-.853V8.17l-1.19.89z" fill="#a02524"/><path d="M.162 6.786V1.683L6.677 9.06v1.795z" fill="#f59120"/><path d="M.428 6.629v-4.36l6.06 6.877v1.411z" fill="#d6453f"/><path d="M.162 1.683L1.98.817 7.866 8.17l-1.19.89z" fill="#cb3728"/><path d="M.598 6.501V2.702l5.72 6.54v.959z" fill="#fff0d5"/><path d="M13.164 21.194l.35.246.351-.246v-2.908h-.701z" fill="#f59120"/><path d="M12.355 19.838l1.305.725 1.014-.76-1.362-.872z" fill="#a02524"/><path d="M12.008 19.838l1.362.87v-.289l-1.362-.87z" fill="#a02524"/><path d="M13.312 18.931l-1.304.618 1.362.87 1.304-.618z" fill="#cb3728"/><path d="M14.674 20.091l-1.304.619v-.29l1.304-.62z" fill="#d6453f"/><path d="M13.368 19.094l1.306.726V18.2l-1.362-.871z" fill="#a02524"/><path d="M13.02 19.094l1.362.87v-1.618l-1.362-.87z" fill="#a02524"/><path d="M13.312 17.33l-.292.146 1.363.87.29-.146z" fill="#cb3728"/><path d="M14.674 19.82l-.291.147v-1.621l.291-.146z" fill="#d6453f"/><path d="M8.558 21.206l-.35.245-.35-.245v-2.908h.7z" fill="#f59120"/><path d="M9.367 19.85l-1.305.725-1.014-.76 1.362-.872z" fill="#a02524"/><path d="M9.714 19.85l-1.36.869v-.288l1.36-.87z" fill="#a02524"/><path d="M8.41 18.943l1.304.618-1.361.87-1.305-.619z" fill="#cb3728"/><path d="M7.048 20.102l1.305.62v-.29l-1.305-.62z" fill="#d6453f"/><path d="M8.354 19.105l-1.306.727v-1.618l1.362-.873z" fill="#a02524"/><path d="M8.702 19.105l-1.362.87v-1.617l1.362-.871z" fill="#a02524"/><path d="M8.41 17.341l.292.146-1.363.87-.29-.145z" fill="#cb3728"/><path d="M7.048 19.832l.291.146v-1.62l-.291-.146z" fill="#d6453f"/><path d="M11.366 23.207l-.416.291-.416-.291v-3.456h.832z" fill="#f59120"/><path d="M13.34 21.091c0 .972-1.11 1.76-2.479 1.76-1.37 0-2.48-.788-2.48-1.76v-.607h4.96z" fill="#a02524"/><path d="M13.34 20.609c0 .973-1.11 1.761-2.479 1.761-1.37 0-2.48-.788-2.48-1.761 0-.973 1.11-1.76 2.48-1.76 1.37 0 2.48.787 2.48 1.76" fill="#cb3728"/><path d="M10.861 18.916c-1.317 0-2.385.758-2.385 1.693s1.068 1.693 2.385 1.693c1.317 0 2.385-.758 2.385-1.693s-1.068-1.693-2.385-1.693m2.48 1.693c0 .973-1.11 1.762-2.48 1.762-1.37 0-2.48-.79-2.48-1.762s1.11-1.76 2.48-1.76c1.37 0 2.48.788 2.48 1.76" fill="#e74139"/><path d="M13.657 24.158l-.35.245-.35-.245V22.43h.7z" fill="#f59120"/><path d="M14.466 22.8l-1.306.727-1.013-.76 1.362-.872z" fill="#a02524"/><path d="M14.814 22.8l-1.362.87v-.287l1.362-.87z" fill="#a02524"/><path d="M13.509 21.894l1.305.619-1.362.87-1.304-.619z" fill="#cb3728"/><path d="M12.147 23.054l1.305.619v-.29l-1.305-.619z" fill="#d6453f"/><path d="M14.467 22.506l-1.307.726v-1.619l1.362-.871z" fill="#a02524"/><path d="M14.814 22.506l-1.362.87v-1.618l1.362-.87z" fill="#a02524"/><path d="M14.522 20.742l.292.145-1.362.871-.292-.146z" fill="#cb3728"/><path d="M13.16 23.232l.292.146v-1.62l-.292-.146z" fill="#d6453f"/><path d="M8.412 24.378l.35.246.35-.246V22.65h-.7z" fill="#f59120"/><path d="M7.602 23.02l1.306.727 1.013-.761-1.362-.872z" fill="#a02524"/><path d="M7.255 23.02l1.362.87v-.288l-1.362-.87z" fill="#a02524"/><path d="M8.559 22.114l-1.304.618 1.362.87 1.304-.618z" fill="#cb3728"/><path d="M9.921 23.274l-1.304.619v-.29l1.304-.62z" fill="#d6453f"/><path d="M7.602 22.725l1.306.727v-1.619l-1.362-.871z" fill="#a02524"/><path d="M7.255 22.725l1.362.87v-1.618l-1.362-.87z" fill="#a02524"/><path d="M7.546 20.961l-.291.146 1.362.87.29-.146z" fill="#cb3728"/><path d="M8.908 23.452l-.291.145v-1.62l.29-.146z" fill="#d6453f"/><path d="M20.953 28.579l.35.245.351-.245V25.67h-.7z" fill="#f59120"/><path d="M20.144 27.221l1.306.727 1.013-.761-1.362-.873z" fill="#a02524"/><path d="M19.797 27.221l1.361.87v-.288l-1.361-.871z" fill="#a02524"/><path d="M21.101 26.314l-1.304.618 1.361.872 1.305-.62z" fill="#cb3728"/><path d="M22.463 27.475l-1.305.619v-.29l1.305-.62z" fill="#d6453f"/><path d="M21.157 26.476l1.306.728v-1.618l-1.362-.872z" fill="#a02524"/><path d="M20.81 26.476l1.362.872V25.73l-1.362-.87z" fill="#a02524"/><path d="M21.101 24.714l-.291.145 1.362.871.29-.146z" fill="#cb3728"/><path d="M22.463 27.204l-.291.146v-1.62l.29-.147z" fill="#d6453f"/><path d="M16.347 28.59l-.35.246-.35-.246v-2.908h.7z" fill="#f59120"/><path d="M17.157 27.233l-1.306.726-1.014-.761 1.362-.872z" fill="#a02524"/><path d="M17.504 27.233l-1.362.87v-.288l1.362-.87z" fill="#a02524"/><path d="M16.2 26.326l1.304.618-1.362.871-1.305-.618z" fill="#cb3728"/><path d="M14.837 27.487l1.305.618v-.29l-1.305-.618z" fill="#d6453f"/><path d="M16.144 26.489l-1.307.727v-1.618l1.362-.872z" fill="#a02524"/><path d="M16.49 26.489l-1.361.87v-1.617l1.361-.871z" fill="#a02524"/><path d="M16.2 24.726l.29.145-1.361.871-.292-.147z" fill="#cb3728"/><path d="M14.837 27.216l.292.145v-1.62l-.292-.146z" fill="#d6453f"/><path d="M19.155 30.591l-.416.292-.417-.292v-3.456h.833z" fill="#f59120"/><path d="M21.13 28.475c0 .973-1.11 1.761-2.48 1.761-1.37 0-2.48-.788-2.48-1.761v-.608h4.96z" fill="#a02524"/><path d="M21.13 27.993c0 .974-1.11 1.761-2.48 1.761-1.37 0-2.48-.787-2.48-1.761 0-.973 1.11-1.761 2.48-1.761 1.37 0 2.48.788 2.48 1.761" fill="#cb3728"/><path d="M18.65 26.3c-1.316 0-2.384.757-2.384 1.693s1.068 1.694 2.384 1.694c1.317 0 2.385-.758 2.385-1.694 0-.936-1.068-1.694-2.385-1.694m2.48 1.694c0 .974-1.11 1.761-2.48 1.761-1.37 0-2.48-.787-2.48-1.761 0-.973 1.11-1.761 2.48-1.761 1.37 0 2.48.788 2.48 1.761" fill="#e74139"/><path d="M21.446 31.543l-.35.245-.35-.245v-1.727h.7z" fill="#f59120"/><path d="M22.255 30.185l-1.305.726-1.013-.76 1.361-.872z" fill="#a02524"/><path d="M22.603 30.185l-1.362.87v-.287l1.362-.871z" fill="#a02524"/><path d="M21.298 29.279l1.304.618-1.36.87-1.305-.619z" fill="#cb3728"/><path d="M19.937 30.439l1.304.619v-.29l-1.304-.62z" fill="#d6453f"/><path d="M22.256 29.89l-1.306.726v-1.618l1.362-.873z" fill="#a02524"/><path d="M22.603 29.89l-1.362.87v-1.618l1.362-.87z" fill="#a02524"/><path d="M22.312 28.125l.29.146-1.36.871-.292-.146z" fill="#cb3728"/><path d="M20.95 30.616l.291.146v-1.62l-.291-.147z" fill="#d6453f"/><path d="M16.2 31.762l.35.245.352-.245v-1.727H16.2z" fill="#f59120"/><path d="M15.391 30.405l1.306.726 1.013-.76-1.362-.872z" fill="#a02524"/><path d="M15.044 30.405l1.362.87v-.288l-1.362-.87z" fill="#a02524"/><path d="M16.348 29.498l-1.304.619 1.362.87 1.304-.619z" fill="#cb3728"/><path d="M17.71 30.658l-1.304.619v-.29l1.305-.619z" fill="#d6453f"/><path d="M15.391 30.11l1.306.726v-1.619l-1.362-.872z" fill="#a02524"/><path d="M15.044 30.11l1.362.87v-1.618l-1.362-.872z" fill="#a02524"/><path d="M15.335 28.345l-.29.145 1.361.872.29-.146z" fill="#cb3728"/><path d="M16.697 30.836l-.29.146v-1.62l.29-.146z" fill="#d6453f"/></svg>