<?xml version="1.0" encoding="UTF-8" standalone="no"?>
<svg
   xmlns:dc="http://purl.org/dc/elements/1.1/"
   xmlns:cc="http://creativecommons.org/ns#"
   xmlns:rdf="http://www.w3.org/1999/02/22-rdf-syntax-ns#"
   xmlns:svg="http://www.w3.org/2000/svg"
   xmlns="http://www.w3.org/2000/svg"
   xmlns:sodipodi="http://sodipodi.sourceforge.net/DTD/sodipodi-0.dtd"
   xmlns:inkscape="http://www.inkscape.org/namespaces/inkscape"
   width="45.489777mm"
   height="38.875404mm"
   viewBox="0 0 45.489777 38.875404"
   version="1.1"
   id="svg50571"
   inkscape:version="1.0.2 (e86c870879, 2021-01-15)"
   sodipodi:docname="fast-food.svg">
  <defs
     id="defs50565">
    <clipPath
       clipPathUnits="userSpaceOnUse"
       id="clipPath28200">
      <path
         d="m 112.614,607.156 h 10.133 v -22.519 h -10.133 z"
         id="path28198" />
    </clipPath>
    <clipPath
       clipPathUnits="userSpaceOnUse"
       id="clipPath28216">
      <path
         d="m 133.347,594.354 h 10.132 v -22.52 h -10.132 z"
         id="path28214" />
    </clipPath>
    <clipPath
       clipPathUnits="userSpaceOnUse"
       id="clipPath28232">
      <path
         d="m 153.417,582.238 h 5.754 v -19.851 h -5.754 z"
         id="path28230" />
    </clipPath>
  </defs>
  <sodipodi:namedview
     id="base"
     pagecolor="#ffffff"
     bordercolor="#666666"
     borderopacity="1.0"
     inkscape:pageopacity="0.0"
     inkscape:pageshadow="2"
     inkscape:zoom="0.35"
     inkscape:cx="1697.3935"
     inkscape:cy="373.46534"
     inkscape:document-units="mm"
     inkscape:current-layer="layer1"
     inkscape:document-rotation="0"
     showgrid="false"
     inkscape:window-width="1920"
     inkscape:window-height="1016"
     inkscape:window-x="0"
     inkscape:window-y="0"
     inkscape:window-maximized="1" />
  <metadata
     id="metadata50568">
    <rdf:RDF>
      <cc:Work
         rdf:about="">
        <dc:format>image/svg+xml</dc:format>
        <dc:type
           rdf:resource="http://purl.org/dc/dcmitype/StillImage" />
        <dc:title></dc:title>
      </cc:Work>
    </rdf:RDF>
  </metadata>
  <g
     inkscape:label="Layer 1"
     inkscape:groupmode="layer"
     id="layer1"
     transform="translate(343.2687,-49.353961)">
    <g
       id="g50296"
       transform="matrix(0.35277777,0,0,-0.35277777,-371.89436,275.9663)">
      <g
         id="g28098"
         transform="translate(144.083,532.168)">
        <path
           d="M 0,0 -62.939,39.578 2.107,82.971 66.008,42.432 Z"
           style="fill:#8a9f98;fill-opacity:1;fill-rule:nonzero;stroke:none"
           id="path28100" />
      </g>
      <g
         id="g28102"
         transform="translate(144.083,532.168)">
        <path
           d="M 0,0 V 4.393 L 66.008,45.578 V 42.432 Z"
           style="fill:#5e7570;fill-opacity:1;fill-rule:nonzero;stroke:none"
           id="path28104" />
      </g>
      <g
         id="g28106"
         transform="translate(144.083,536.5605)">
        <path
           d="M 0,0 -62.939,39.576 2.107,81.389 66.008,40.848 Z"
           style="fill:#aececc;fill-opacity:1;fill-rule:nonzero;stroke:none"
           id="path28108" />
      </g>
      <g
         id="g28110"
         transform="translate(81.1436,576.1367)">
        <path
           d="m 0,0 v -4.391 l 62.939,-39.578 v 4.393 z"
           style="fill:#8aa29e;fill-opacity:1;fill-rule:nonzero;stroke:none"
           id="path28112" />
      </g>
      <g
         id="g28114"
         transform="translate(109.6143,639.9492)">
        <path
           d="m 0,0 -0.521,-47.82 61.531,-37.618 0.965,47.792 z"
           style="fill:#fff0d5;fill-opacity:1;fill-rule:nonzero;stroke:none"
           id="path28116" />
      </g>
      <g
         id="g28118"
         transform="translate(209.1279,602.791)">
        <path
           d="m 0,0 v -6.523 l -3.424,-2.049 v -18.492 l -35.08,-21.215 v 47.791 z"
           style="fill:#c5a898;fill-opacity:1;fill-rule:nonzero;stroke:none"
           id="path28120" />
      </g>
      <g
         id="g28122"
         transform="translate(178.4014,580.375)">
        <path
           d="M 0,0 -7.777,-4.648 V 22.945 H 0 Z"
           style="fill:#a02524;fill-opacity:1;fill-rule:nonzero;stroke:none"
           id="path28124" />
      </g>
      <g
         id="g28126"
         transform="translate(191.6904,588.4512)">
        <path
           d="m 0,0 -7.777,-4.648 v 20 L 0,15.291 Z"
           style="fill:#a02524;fill-opacity:1;fill-rule:nonzero;stroke:none"
           id="path28128" />
      </g>
      <g
         id="g28130"
         transform="translate(204.9814,596.4082)">
        <path
           d="M 0,0 -7.779,-4.648 V 7.395 H 0 Z"
           style="fill:#a02524;fill-opacity:1;fill-rule:nonzero;stroke:none"
           id="path28132" />
      </g>
      <g
         id="g28134"
         transform="translate(157.7236,583.6777)">
        <path
           d="M 0,0 7.779,-4.648 V 22.943 L 0,29.271 Z"
           style="fill:#d6453f;fill-opacity:1;fill-rule:nonzero;stroke:none"
           id="path28136" />
      </g>
      <g
         id="g28138"
         transform="translate(142.9385,592.5977)">
        <path
           d="M 0,0 7.779,-4.648 V 22.943 L 0,29.271 Z"
           style="fill:#d6453f;fill-opacity:1;fill-rule:nonzero;stroke:none"
           id="path28140" />
      </g>
      <g
         id="g28142"
         transform="translate(128.1514,601.8184)">
        <path
           d="M 0,0 7.779,-4.648 V 22.943 L 0,29.271 Z"
           style="fill:#d6453f;fill-opacity:1;fill-rule:nonzero;stroke:none"
           id="path28144" />
      </g>
      <g
         id="g28146"
         transform="translate(113.3662,610.6777)">
        <path
           d="M 0,0 7.779,-4.648 V 22.943 L 0,29.271 Z"
           style="fill:#d6453f;fill-opacity:1;fill-rule:nonzero;stroke:none"
           id="path28148" />
      </g>
      <g
         id="g28150"
         transform="translate(170.624,602.3027)">
        <path
           d="M 0,0 -61.01,37.646 -24.434,40.063 38.504,0.488 Z"
           style="fill:#cb3728;fill-opacity:1;fill-rule:nonzero;stroke:none"
           id="path28152" />
      </g>
      <g
         id="g28154"
         transform="translate(109.2979,610.959)">
        <path
           d="m 0,0 -0.205,-18.83 61.531,-37.68 v 18.862 z"
           style="fill:#f59120;fill-opacity:1;fill-rule:nonzero;stroke:none"
           id="path28156" />
      </g>
      <g
         id="g28158"
         transform="translate(110.3682,608.5332)">
        <path
           d="m 0,0 v -17.117 l 18.301,-11.242 v 17.148 z"
           style="fill:#5c6268;fill-opacity:1;fill-rule:nonzero;stroke:none"
           id="path28160" />
      </g>
      <g
         id="g28162"
         transform="translate(129.8486,596.5645)">
        <path
           d="M 0,0 -0.023,-17.219 16.49,-27.225 v 17.147 z"
           style="fill:#5c6268;fill-opacity:1;fill-rule:nonzero;stroke:none"
           id="path28164" />
      </g>
      <g
         id="g28166"
         transform="translate(149.7275,584.4805)">
        <path
           d="m 0,0 -0.016,-17.203 18.114,-11.156 v 17.148 z"
           style="fill:#5c6268;fill-opacity:1;fill-rule:nonzero;stroke:none"
           id="path28168" />
      </g>
      <g
         id="g28170"
         transform="translate(110.9326,591.8535)">
        <path
           d="M 0,0 -0.67,-0.437 V 16.77 L 0,16.332 Z"
           style="fill:#965f26;fill-opacity:1;fill-rule:nonzero;stroke:none"
           id="path28172" />
      </g>
      <g
         id="g28174"
         transform="translate(130.4951,579.7812)">
        <path
           d="M 0,0 -0.67,-0.436 V 16.771 L 0,16.334 Z"
           style="fill:#965f26;fill-opacity:1;fill-rule:nonzero;stroke:none"
           id="path28176" />
      </g>
      <g
         id="g28178"
         transform="translate(150.3818,567.7129)">
        <path
           d="M 0,0 -0.67,-0.436 V 16.768 L 0,16.332 Z"
           style="fill:#965f26;fill-opacity:1;fill-rule:nonzero;stroke:none"
           id="path28180" />
      </g>
      <g
         id="g28182"
         transform="translate(109.6201,590.9805)">
        <path
           d="M 0,0 1.312,0.873 19.049,-9.961 v -1.131 z"
           style="fill:#aececc;fill-opacity:1;fill-rule:nonzero;stroke:none"
           id="path28184" />
      </g>
      <g
         id="g28186"
         transform="translate(129.2119,578.9375)">
        <path
           d="M 0,0 1.312,0.875 17.127,-8.797 V -9.926 Z"
           style="fill:#aececc;fill-opacity:1;fill-rule:nonzero;stroke:none"
           id="path28188" />
      </g>
      <g
         id="g28190"
         transform="translate(149.1396,566.8457)">
        <path
           d="M 0,0 1.312,0.875 18.686,-9.75 v -1.131 z"
           style="fill:#aececc;fill-opacity:1;fill-rule:nonzero;stroke:none"
           id="path28192" />
      </g>
      <g
         id="g28194">
        <g
           id="g28196" />
        <g
           id="g28208">
          <g
             clip-path="url(#clipPath28200)"
             opacity="0.300003"
             id="g28206">
            <g
               transform="translate(116.2666,588.5937)"
               id="g28204">
              <path
                 d="M 0,0 -3.652,18.562 2.27,14.936 6.48,-3.957 Z"
                 style="fill:#aececc;fill-opacity:1;fill-rule:nonzero;stroke:none"
                 id="path28202" />
            </g>
          </g>
        </g>
      </g>
      <g
         id="g28210">
        <g
           id="g28212" />
        <g
           id="g28224">
          <g
             clip-path="url(#clipPath28216)"
             opacity="0.300003"
             id="g28222">
            <g
               transform="translate(136.999,575.791)"
               id="g28220">
              <path
                 d="M 0,0 -3.652,18.562 2.27,14.936 6.48,-3.957 Z"
                 style="fill:#aececc;fill-opacity:1;fill-rule:nonzero;stroke:none"
                 id="path28218" />
            </g>
          </g>
        </g>
      </g>
      <g
         id="g28226">
        <g
           id="g28228" />
        <g
           id="g28240">
          <g
             clip-path="url(#clipPath28232)"
             opacity="0.300003"
             id="g28238">
            <g
               transform="translate(157.0674,563.6777)"
               id="g28236">
              <path
                 d="M 0,0 -3.65,18.561 -1.691,17.305 2.104,-1.291 Z"
                 style="fill:#aececc;fill-opacity:1;fill-rule:nonzero;stroke:none"
                 id="path28234" />
            </g>
          </g>
        </g>
      </g>
      <g
         id="g28242"
         transform="translate(159.7256,562.043)">
        <path
           d="M 0,0 -1.107,0.678 V 17.502 L 0,16.809 Z"
           style="fill:#f59120;fill-opacity:1;fill-rule:nonzero;stroke:none"
           id="path28244" />
      </g>
      <g
         id="g28246"
         transform="translate(81.1436,576.1367)">
        <path
           d="m 0,0 62.939,-39.576 1.536,0.957 L 1.742,1.119 Z"
           style="fill:#d6edeb;fill-opacity:1;fill-rule:nonzero;stroke:none"
           id="path28248" />
      </g>
      <g
         id="g28250"
         transform="translate(95.9814,575.9297)">
        <path
           d="m 0,0 c 0,-0.92 -1.549,-1.666 -3.461,-1.666 -1.91,0 -3.459,0.746 -3.459,1.666 0,0.922 1.549,1.666 3.459,1.666 C -1.549,1.666 0,0.922 0,0"
           style="fill:#f59120;fill-opacity:1;fill-rule:nonzero;stroke:none"
           id="path28252" />
      </g>
      <path
         d="m 89.062,580.357 h 6.92 v -4.428 h -6.92 z"
         style="fill:#f59120;fill-opacity:1;fill-rule:nonzero;stroke:none"
         id="path28254" />
      <g
         id="g28256"
         transform="translate(95.9814,580.3574)">
        <path
           d="m 0,0 c 0,-0.922 -1.549,-1.668 -3.461,-1.668 -1.91,0 -3.459,0.746 -3.459,1.668 0,0.92 1.549,1.666 3.459,1.666 C -1.549,1.666 0,0.92 0,0"
           style="fill:#965f26;fill-opacity:1;fill-rule:nonzero;stroke:none"
           id="path28258" />
      </g>
      <g
         id="g28260"
         transform="translate(93.8018,580.8633)">
        <path
           d="m 0,0 c 0,-0.693 -0.574,-1.256 -1.281,-1.256 -0.707,0 -1.28,0.563 -1.28,1.256 0,0.695 0.573,1.256 1.28,1.256 C -0.574,1.256 0,0.695 0,0"
           style="fill:#f59120;fill-opacity:1;fill-rule:nonzero;stroke:none"
           id="path28262" />
      </g>
      <path
         d="m 91.241,627.793 h 2.561 v -46.93 h -2.561 z"
         style="fill:#f59120;fill-opacity:1;fill-rule:nonzero;stroke:none"
         id="path28264" />
      <g
         id="g28266"
         transform="translate(93.8018,627.793)">
        <path
           d="m 0,0 c 0,-0.693 -0.574,-1.256 -1.281,-1.256 -0.707,0 -1.28,0.563 -1.28,1.256 0,0.693 0.573,1.257 1.28,1.257 C -0.574,1.257 0,0.693 0,0"
           style="fill:#f59120;fill-opacity:1;fill-rule:nonzero;stroke:none"
           id="path28268" />
      </g>
      <g
         id="g28270"
         transform="translate(100.0693,611.5957)">
        <path
           d="M 0,0 3.371,2.418 V 7.611 L 0,5.088 Z"
           style="fill:#a02524;fill-opacity:1;fill-rule:nonzero;stroke:none"
           id="path28272" />
      </g>
      <g
         id="g28274"
         transform="translate(81.6025,623.1289)">
        <path
           d="m 0,0 v 14.465 l 18.467,-20.91 v -5.088 z"
           style="fill:#f59120;fill-opacity:1;fill-rule:nonzero;stroke:none"
           id="path28276" />
      </g>
      <g
         id="g28278"
         transform="translate(82.3564,623.5762)">
        <path
           d="m 0,0 v 12.355 l 17.178,-19.49 v -4.002 z"
           style="fill:#d6453f;fill-opacity:1;fill-rule:nonzero;stroke:none"
           id="path28280" />
      </g>
      <g
         id="g28282"
         transform="translate(81.6025,637.5937)">
        <path
           d="M 0,0 5.154,2.455 21.838,-18.387 18.467,-20.91 Z"
           style="fill:#cb3728;fill-opacity:1;fill-rule:nonzero;stroke:none"
           id="path28284" />
      </g>
      <g
         id="g28286"
         transform="translate(82.8389,623.9375)">
        <path
           d="m 0,0 v 10.769 l 16.213,-18.54 v -2.717 z"
           style="fill:#fff0d5;fill-opacity:1;fill-rule:nonzero;stroke:none"
           id="path28288" />
      </g>
      <g
         id="g28290"
         transform="translate(118.458,582.2871)">
        <path
           d="M 0,0 0.994,-0.695 1.988,0 V 8.244 H 0 Z"
           style="fill:#f59120;fill-opacity:1;fill-rule:nonzero;stroke:none"
           id="path28292" />
      </g>
      <g
         id="g28294"
         transform="translate(116.165,586.1328)">
        <path
           d="M 0,0 3.701,-2.057 6.574,0.098 2.713,2.57 Z"
           style="fill:#a02524;fill-opacity:1;fill-rule:nonzero;stroke:none"
           id="path28296" />
      </g>
      <g
         id="g28298"
         transform="translate(115.1807,586.1328)">
        <path
           d="m 0,0 3.861,-2.465 v 0.817 L 0,0.818 Z"
           style="fill:#a02524;fill-opacity:1;fill-rule:nonzero;stroke:none"
           id="path28300" />
      </g>
      <g
         id="g28302"
         transform="translate(118.8779,588.7031)">
        <path
           d="m 0,0 -3.697,-1.752 3.861,-2.467 3.697,1.754 z"
           style="fill:#cb3728;fill-opacity:1;fill-rule:nonzero;stroke:none"
           id="path28304" />
      </g>
      <g
         id="g28306"
         transform="translate(122.7393,585.4141)">
        <path
           d="M 0,0 -3.697,-1.754 V -0.93 L 0,0.824 Z"
           style="fill:#d6453f;fill-opacity:1;fill-rule:nonzero;stroke:none"
           id="path28308" />
      </g>
      <g
         id="g28310"
         transform="translate(119.0361,588.2422)">
        <path
           d="M 0,0 3.703,-2.059 V 2.529 L -0.158,5 Z"
           style="fill:#a02524;fill-opacity:1;fill-rule:nonzero;stroke:none"
           id="path28312" />
      </g>
      <g
         id="g28314"
         transform="translate(118.0518,588.2422)">
        <path
           d="M 0,0 3.861,-2.467 V 2.119 L 0,4.586 Z"
           style="fill:#a02524;fill-opacity:1;fill-rule:nonzero;stroke:none"
           id="path28316" />
      </g>
      <g
         id="g28318"
         transform="translate(118.8779,593.2422)">
        <path
           d="m 0,0 -0.826,-0.414 3.861,-2.467 0.826,0.414 z"
           style="fill:#cb3728;fill-opacity:1;fill-rule:nonzero;stroke:none"
           id="path28320" />
      </g>
      <g
         id="g28322"
         transform="translate(122.7393,586.1836)">
        <path
           d="M 0,0 -0.826,-0.416 V 4.178 L 0,4.592 Z"
           style="fill:#d6453f;fill-opacity:1;fill-rule:nonzero;stroke:none"
           id="path28324" />
      </g>
      <g
         id="g28326"
         transform="translate(105.4033,582.2539)">
        <path
           d="M 0,0 -0.994,-0.695 -1.986,0 V 8.244 H 0 Z"
           style="fill:#f59120;fill-opacity:1;fill-rule:nonzero;stroke:none"
           id="path28328" />
      </g>
      <g
         id="g28330"
         transform="translate(107.6963,586.0996)">
        <path
           d="M 0,0 -3.701,-2.057 -6.574,0.098 -2.713,2.57 Z"
           style="fill:#a02524;fill-opacity:1;fill-rule:nonzero;stroke:none"
           id="path28332" />
      </g>
      <g
         id="g28334"
         transform="translate(108.6807,586.0996)">
        <path
           d="m 0,0 -3.859,-2.465 v 0.817 L 0,0.818 Z"
           style="fill:#a02524;fill-opacity:1;fill-rule:nonzero;stroke:none"
           id="path28336" />
      </g>
      <g
         id="g28338"
         transform="translate(104.9834,588.6699)">
        <path
           d="m 0,0 3.697,-1.752 -3.859,-2.467 -3.699,1.754 z"
           style="fill:#cb3728;fill-opacity:1;fill-rule:nonzero;stroke:none"
           id="path28340" />
      </g>
      <g
         id="g28342"
         transform="translate(101.1221,585.3828)">
        <path
           d="m 0,0 3.699,-1.754 v 0.822 L 0,0.822 Z"
           style="fill:#d6453f;fill-opacity:1;fill-rule:nonzero;stroke:none"
           id="path28344" />
      </g>
      <g
         id="g28346"
         transform="translate(104.8252,588.209)">
        <path
           d="M 0,0 -3.703,-2.059 V 2.527 L 0.158,5 Z"
           style="fill:#a02524;fill-opacity:1;fill-rule:nonzero;stroke:none"
           id="path28348" />
      </g>
      <g
         id="g28350"
         transform="translate(105.8096,588.209)">
        <path
           d="M 0,0 -3.861,-2.467 V 2.119 L 0,4.588 Z"
           style="fill:#a02524;fill-opacity:1;fill-rule:nonzero;stroke:none"
           id="path28352" />
      </g>
      <g
         id="g28354"
         transform="translate(104.9834,593.209)">
        <path
           d="m 0,0 0.826,-0.412 -3.861,-2.469 -0.826,0.414 z"
           style="fill:#cb3728;fill-opacity:1;fill-rule:nonzero;stroke:none"
           id="path28356" />
      </g>
      <g
         id="g28358"
         transform="translate(101.1221,586.1504)">
        <path
           d="M 0,0 0.826,-0.416 V 4.178 L 0,4.592 Z"
           style="fill:#d6453f;fill-opacity:1;fill-rule:nonzero;stroke:none"
           id="path28360" />
      </g>
      <g
         id="g28362"
         transform="translate(113.3623,576.582)">
        <path
           d="M 0,0 -1.18,-0.826 -2.359,0 V 9.797 H 0 Z"
           style="fill:#f59120;fill-opacity:1;fill-rule:nonzero;stroke:none"
           id="path28364" />
      </g>
      <g
         id="g28366"
         transform="translate(118.96,582.5801)">
        <path
           d="m 0,0 c 0,-2.756 -3.146,-4.99 -7.029,-4.99 -3.883,0 -7.03,2.234 -7.03,4.99 V 1.721 H 0 Z"
           style="fill:#a02524;fill-opacity:1;fill-rule:nonzero;stroke:none"
           id="path28368" />
      </g>
      <g
         id="g28370"
         transform="translate(118.96,583.9473)">
        <path
           d="m 0,0 c 0,-2.758 -3.146,-4.994 -7.029,-4.994 -3.883,0 -7.03,2.236 -7.03,4.994 0,2.756 3.147,4.99 7.03,4.99 C -3.146,4.99 0,2.756 0,0"
           style="fill:#cb3728;fill-opacity:1;fill-rule:nonzero;stroke:none"
           id="path28372" />
      </g>
      <g
         id="g28374"
         transform="translate(111.9307,588.7461)">
        <path
           d="m 0,0 c -3.732,0 -6.76,-2.15 -6.76,-4.799 0,-2.652 3.028,-4.801 6.76,-4.801 3.734,0 6.76,2.149 6.76,4.801 C 6.76,-2.15 3.734,0 0,0 m 7.029,-4.799 c 0,-2.758 -3.146,-4.994 -7.029,-4.994 -3.883,0 -7.029,2.236 -7.029,4.994 0,2.756 3.146,4.99 7.029,4.99 3.883,0 7.029,-2.234 7.029,-4.99"
           style="fill:#e74139;fill-opacity:1;fill-rule:nonzero;stroke:none"
           id="path28376" />
      </g>
      <g
         id="g28378"
         transform="translate(119.8564,573.8867)">
        <path
           d="M 0,0 -0.992,-0.695 -1.986,0 V 4.895 H 0 Z"
           style="fill:#f59120;fill-opacity:1;fill-rule:nonzero;stroke:none"
           id="path28380" />
      </g>
      <g
         id="g28382"
         transform="translate(122.1494,577.7344)">
        <path
           d="m 0,0 -3.701,-2.059 -2.871,2.155 3.859,2.472 z"
           style="fill:#a02524;fill-opacity:1;fill-rule:nonzero;stroke:none"
           id="path28384" />
      </g>
      <g
         id="g28386"
         transform="translate(123.1357,577.7344)">
        <path
           d="M 0,0 -3.861,-2.467 V -1.65 L 0,0.816 Z"
           style="fill:#a02524;fill-opacity:1;fill-rule:nonzero;stroke:none"
           id="path28388" />
      </g>
      <g
         id="g28390"
         transform="translate(119.4365,580.3027)">
        <path
           d="m 0,0 3.699,-1.752 -3.861,-2.467 -3.697,1.754 z"
           style="fill:#cb3728;fill-opacity:1;fill-rule:nonzero;stroke:none"
           id="path28392" />
      </g>
      <g
         id="g28394"
         transform="translate(115.5771,577.0156)">
        <path
           d="m 0,0 3.697,-1.754 v 0.822 L 0,0.822 Z"
           style="fill:#d6453f;fill-opacity:1;fill-rule:nonzero;stroke:none"
           id="path28396" />
      </g>
      <g
         id="g28398"
         transform="translate(122.1514,578.5703)">
        <path
           d="M 0,0 -3.703,-2.059 V 2.529 L 0.158,5 Z"
           style="fill:#a02524;fill-opacity:1;fill-rule:nonzero;stroke:none"
           id="path28400" />
      </g>
      <g
         id="g28402"
         transform="translate(123.1357,578.5703)">
        <path
           d="M 0,0 -3.861,-2.465 V 2.119 L 0,4.588 Z"
           style="fill:#a02524;fill-opacity:1;fill-rule:nonzero;stroke:none"
           id="path28404" />
      </g>
      <g
         id="g28406"
         transform="translate(122.3096,583.5703)">
        <path
           d="m 0,0 0.826,-0.412 -3.861,-2.469 -0.826,0.414 z"
           style="fill:#cb3728;fill-opacity:1;fill-rule:nonzero;stroke:none"
           id="path28408" />
      </g>
      <g
         id="g28410"
         transform="translate(118.4482,576.5117)">
        <path
           d="M 0,0 0.826,-0.414 V 4.178 L 0,4.592 Z"
           style="fill:#d6453f;fill-opacity:1;fill-rule:nonzero;stroke:none"
           id="path28412" />
      </g>
      <g
         id="g28414"
         transform="translate(104.9873,573.2637)">
        <path
           d="M 0,0 0.992,-0.697 1.986,0 V 4.896 H 0 Z"
           style="fill:#f59120;fill-opacity:1;fill-rule:nonzero;stroke:none"
           id="path28416" />
      </g>
      <g
         id="g28418"
         transform="translate(102.6924,577.1113)">
        <path
           d="M 0,0 3.701,-2.059 6.574,0.098 2.713,2.568 Z"
           style="fill:#a02524;fill-opacity:1;fill-rule:nonzero;stroke:none"
           id="path28420" />
      </g>
      <g
         id="g28422"
         transform="translate(101.708,577.1113)">
        <path
           d="M 0,0 3.861,-2.467 V -1.65 L 0,0.818 Z"
           style="fill:#a02524;fill-opacity:1;fill-rule:nonzero;stroke:none"
           id="path28424" />
      </g>
      <g
         id="g28426"
         transform="translate(105.4053,579.6797)">
        <path
           d="m 0,0 -3.697,-1.75 3.861,-2.469 3.697,1.754 z"
           style="fill:#cb3728;fill-opacity:1;fill-rule:nonzero;stroke:none"
           id="path28428" />
      </g>
      <g
         id="g28430"
         transform="translate(109.2666,576.3926)">
        <path
           d="m 0,0 -3.697,-1.754 v 0.822 L 0,0.822 Z"
           style="fill:#d6453f;fill-opacity:1;fill-rule:nonzero;stroke:none"
           id="path28432" />
      </g>
      <g
         id="g28434"
         transform="translate(102.6924,577.9492)">
        <path
           d="M 0,0 3.701,-2.061 V 2.527 L -0.158,4.998 Z"
           style="fill:#a02524;fill-opacity:1;fill-rule:nonzero;stroke:none"
           id="path28436" />
      </g>
      <g
         id="g28438"
         transform="translate(101.708,577.9492)">
        <path
           d="M 0,0 3.861,-2.467 V 2.119 L 0,4.586 Z"
           style="fill:#a02524;fill-opacity:1;fill-rule:nonzero;stroke:none"
           id="path28440" />
      </g>
      <g
         id="g28442"
         transform="translate(102.5342,582.9473)">
        <path
           d="m 0,0 -0.826,-0.412 3.861,-2.467 0.824,0.414 z"
           style="fill:#cb3728;fill-opacity:1;fill-rule:nonzero;stroke:none"
           id="path28444" />
      </g>
      <g
         id="g28446"
         transform="translate(106.3936,575.8887)">
        <path
           d="M 0,0 -0.824,-0.412 V 4.18 L 0,4.594 Z"
           style="fill:#d6453f;fill-opacity:1;fill-rule:nonzero;stroke:none"
           id="path28448" />
      </g>
      <g
         id="g28450"
         transform="translate(140.5381,561.3555)">
        <path
           d="M 0,0 0.994,-0.697 1.988,0 V 8.244 H 0 Z"
           style="fill:#f59120;fill-opacity:1;fill-rule:nonzero;stroke:none"
           id="path28452" />
      </g>
      <g
         id="g28454"
         transform="translate(138.2451,565.2031)">
        <path
           d="M 0,0 3.701,-2.059 6.572,0.098 2.713,2.572 Z"
           style="fill:#a02524;fill-opacity:1;fill-rule:nonzero;stroke:none"
           id="path28456" />
      </g>
      <g
         id="g28458"
         transform="translate(137.2607,565.2031)">
        <path
           d="M 0,0 3.859,-2.467 V -1.65 L 0,0.82 Z"
           style="fill:#a02524;fill-opacity:1;fill-rule:nonzero;stroke:none"
           id="path28460" />
      </g>
      <g
         id="g28462"
         transform="translate(140.958,567.7754)">
        <path
           d="m 0,0 -3.697,-1.752 3.859,-2.471 3.697,1.754 z"
           style="fill:#cb3728;fill-opacity:1;fill-rule:nonzero;stroke:none"
           id="path28464" />
      </g>
      <g
         id="g28466"
         transform="translate(144.8174,564.4844)">
        <path
           d="m 0,0 -3.697,-1.754 v 0.822 L 0,0.822 Z"
           style="fill:#d6453f;fill-opacity:1;fill-rule:nonzero;stroke:none"
           id="path28468" />
      </g>
      <g
         id="g28470"
         transform="translate(141.1162,567.3145)">
        <path
           d="M 0,0 3.701,-2.063 V 2.523 L -0.158,4.996 Z"
           style="fill:#a02524;fill-opacity:1;fill-rule:nonzero;stroke:none"
           id="path28472" />
      </g>
      <g
         id="g28474"
         transform="translate(140.1318,567.3145)">
        <path
           d="M 0,0 3.861,-2.471 V 2.115 L 0,4.584 Z"
           style="fill:#a02524;fill-opacity:1;fill-rule:nonzero;stroke:none"
           id="path28476" />
      </g>
      <g
         id="g28478"
         transform="translate(140.958,572.3105)">
        <path
           d="m 0,0 -0.826,-0.412 3.861,-2.469 0.824,0.416 z"
           style="fill:#cb3728;fill-opacity:1;fill-rule:nonzero;stroke:none"
           id="path28480" />
      </g>
      <g
         id="g28482"
         transform="translate(144.8174,565.252)">
        <path
           d="M 0,0 -0.824,-0.414 V 4.178 L 0,4.594 Z"
           style="fill:#d6453f;fill-opacity:1;fill-rule:nonzero;stroke:none"
           id="path28484" />
      </g>
      <g
         id="g28486"
         transform="translate(127.4814,561.3223)">
        <path
           d="M 0,0 -0.992,-0.697 -1.984,0 V 8.244 H 0 Z"
           style="fill:#f59120;fill-opacity:1;fill-rule:nonzero;stroke:none"
           id="path28488" />
      </g>
      <g
         id="g28490"
         transform="translate(129.7764,565.1699)">
        <path
           d="M 0,0 -3.701,-2.057 -6.574,0.1 -2.713,2.57 Z"
           style="fill:#a02524;fill-opacity:1;fill-rule:nonzero;stroke:none"
           id="path28492" />
      </g>
      <g
         id="g28494"
         transform="translate(130.7607,565.1699)">
        <path
           d="M 0,0 -3.859,-2.467 V -1.65 L 0,0.818 Z"
           style="fill:#a02524;fill-opacity:1;fill-rule:nonzero;stroke:none"
           id="path28496" />
      </g>
      <g
         id="g28498"
         transform="translate(127.0635,567.7402)">
        <path
           d="m 0,0 3.697,-1.752 -3.859,-2.469 -3.699,1.754 z"
           style="fill:#cb3728;fill-opacity:1;fill-rule:nonzero;stroke:none"
           id="path28500" />
      </g>
      <g
         id="g28502"
         transform="translate(123.2021,564.4512)">
        <path
           d="m 0,0 3.699,-1.754 v 0.822 L 0,0.822 Z"
           style="fill:#d6453f;fill-opacity:1;fill-rule:nonzero;stroke:none"
           id="path28504" />
      </g>
      <g
         id="g28506"
         transform="translate(126.9053,567.2793)">
        <path
           d="M 0,0 -3.703,-2.061 V 2.525 L 0.158,4.998 Z"
           style="fill:#a02524;fill-opacity:1;fill-rule:nonzero;stroke:none"
           id="path28508" />
      </g>
      <g
         id="g28510"
         transform="translate(127.8877,567.2793)">
        <path
           d="M 0,0 -3.859,-2.467 V 2.117 L 0,4.586 Z"
           style="fill:#a02524;fill-opacity:1;fill-rule:nonzero;stroke:none"
           id="path28512" />
      </g>
      <g
         id="g28514"
         transform="translate(127.0635,572.2773)">
        <path
           d="m 0,0 0.824,-0.412 -3.859,-2.469 -0.826,0.416 z"
           style="fill:#cb3728;fill-opacity:1;fill-rule:nonzero;stroke:none"
           id="path28516" />
      </g>
      <g
         id="g28518"
         transform="translate(123.2021,565.2187)">
        <path
           d="m 0,0 0.826,-0.412 v 4.59 L 0,4.594 Z"
           style="fill:#d6453f;fill-opacity:1;fill-rule:nonzero;stroke:none"
           id="path28520" />
      </g>
      <g
         id="g28522"
         transform="translate(135.4424,555.6504)">
        <path
           d="M 0,0 -1.18,-0.828 -2.361,0 V 9.797 H 0 Z"
           style="fill:#f59120;fill-opacity:1;fill-rule:nonzero;stroke:none"
           id="path28524" />
      </g>
      <g
         id="g28526"
         transform="translate(141.0381,561.6504)">
        <path
           d="m 0,0 c 0,-2.76 -3.145,-4.994 -7.027,-4.994 -3.883,0 -7.03,2.234 -7.03,4.994 V 1.721 H 0.002 Z"
           style="fill:#a02524;fill-opacity:1;fill-rule:nonzero;stroke:none"
           id="path28528" />
      </g>
      <g
         id="g28530"
         transform="translate(141.04,563.0156)">
        <path
           d="m 0,0 c 0,-2.76 -3.146,-4.992 -7.029,-4.992 -3.883,0 -7.03,2.232 -7.03,4.992 0,2.758 3.147,4.992 7.03,4.992 C -3.146,4.992 0,2.758 0,0"
           style="fill:#cb3728;fill-opacity:1;fill-rule:nonzero;stroke:none"
           id="path28532" />
      </g>
      <g
         id="g28534"
         transform="translate(134.0107,567.8164)">
        <path
           d="m 0,0 c -3.732,0 -6.76,-2.148 -6.76,-4.801 0,-2.652 3.028,-4.803 6.76,-4.803 3.732,0 6.76,2.151 6.76,4.803 C 6.76,-2.148 3.732,0 0,0 m 7.029,-4.801 c 0,-2.76 -3.148,-4.992 -7.029,-4.992 -3.883,0 -7.029,2.232 -7.029,4.992 0,2.758 3.146,4.992 7.029,4.992 3.881,0 7.029,-2.234 7.029,-4.992"
           style="fill:#e74139;fill-opacity:1;fill-rule:nonzero;stroke:none"
           id="path28536" />
      </g>
      <g
         id="g28538"
         transform="translate(141.9346,552.9531)">
        <path
           d="M 0,0 -0.99,-0.695 -1.984,0 V 4.896 H 0 Z"
           style="fill:#f59120;fill-opacity:1;fill-rule:nonzero;stroke:none"
           id="path28540" />
      </g>
      <g
         id="g28542"
         transform="translate(144.2295,556.8027)">
        <path
           d="m 0,0 -3.701,-2.059 -2.871,2.157 3.859,2.47 z"
           style="fill:#a02524;fill-opacity:1;fill-rule:nonzero;stroke:none"
           id="path28544" />
      </g>
      <g
         id="g28546"
         transform="translate(145.2139,556.8027)">
        <path
           d="m 0,0 -3.859,-2.469 v 0.817 L 0,0.816 Z"
           style="fill:#a02524;fill-opacity:1;fill-rule:nonzero;stroke:none"
           id="path28548" />
      </g>
      <g
         id="g28550"
         transform="translate(141.5166,559.3711)">
        <path
           d="m 0,0 3.697,-1.752 -3.859,-2.469 -3.697,1.756 z"
           style="fill:#cb3728;fill-opacity:1;fill-rule:nonzero;stroke:none"
           id="path28552" />
      </g>
      <g
         id="g28554"
         transform="translate(137.6572,556.082)">
        <path
           d="m 0,0 3.697,-1.754 v 0.822 L 0,0.824 Z"
           style="fill:#d6453f;fill-opacity:1;fill-rule:nonzero;stroke:none"
           id="path28556" />
      </g>
      <g
         id="g28558"
         transform="translate(144.2314,557.6387)">
        <path
           d="M 0,0 -3.703,-2.059 V 2.527 L 0.158,5.002 Z"
           style="fill:#a02524;fill-opacity:1;fill-rule:nonzero;stroke:none"
           id="path28560" />
      </g>
      <g
         id="g28562"
         transform="translate(145.2139,557.6387)">
        <path
           d="M 0,0 -3.859,-2.467 V 2.119 L 0,4.588 Z"
           style="fill:#a02524;fill-opacity:1;fill-rule:nonzero;stroke:none"
           id="path28564" />
      </g>
      <g
         id="g28566"
         transform="translate(144.3896,562.6406)">
        <path
           d="m 0,0 0.824,-0.414 -3.859,-2.469 -0.826,0.416 z"
           style="fill:#cb3728;fill-opacity:1;fill-rule:nonzero;stroke:none"
           id="path28568" />
      </g>
      <g
         id="g28570"
         transform="translate(140.5283,555.5801)">
        <path
           d="M 0,0 0.826,-0.414 V 4.178 L 0,4.594 Z"
           style="fill:#d6453f;fill-opacity:1;fill-rule:nonzero;stroke:none"
           id="path28572" />
      </g>
      <g
         id="g28574"
         transform="translate(127.0674,552.332)">
        <path
           d="M 0,0 0.99,-0.695 1.986,0 V 4.895 H 0 Z"
           style="fill:#f59120;fill-opacity:1;fill-rule:nonzero;stroke:none"
           id="path28576" />
      </g>
      <g
         id="g28578"
         transform="translate(124.7725,556.1777)">
        <path
           d="M 0,0 3.701,-2.057 6.574,0.098 2.713,2.57 Z"
           style="fill:#a02524;fill-opacity:1;fill-rule:nonzero;stroke:none"
           id="path28580" />
      </g>
      <g
         id="g28582"
         transform="translate(123.7881,556.1777)">
        <path
           d="m 0,0 3.861,-2.465 v 0.817 L 0,0.818 Z"
           style="fill:#a02524;fill-opacity:1;fill-rule:nonzero;stroke:none"
           id="path28584" />
      </g>
      <g
         id="g28586"
         transform="translate(127.4854,558.748)">
        <path
           d="m 0,0 -3.697,-1.752 3.861,-2.467 3.697,1.754 z"
           style="fill:#cb3728;fill-opacity:1;fill-rule:nonzero;stroke:none"
           id="path28588" />
      </g>
      <g
         id="g28590"
         transform="translate(131.3467,555.4609)">
        <path
           d="m 0,0 -3.697,-1.754 v 0.822 L 0,0.822 Z"
           style="fill:#d6453f;fill-opacity:1;fill-rule:nonzero;stroke:none"
           id="path28592" />
      </g>
      <g
         id="g28594"
         transform="translate(124.7725,557.0156)">
        <path
           d="M 0,0 3.701,-2.059 V 2.529 L -0.16,5.002 Z"
           style="fill:#a02524;fill-opacity:1;fill-rule:nonzero;stroke:none"
           id="path28596" />
      </g>
      <g
         id="g28598"
         transform="translate(123.7881,557.0156)">
        <path
           d="M 0,0 3.861,-2.465 V 2.119 L 0,4.59 Z"
           style="fill:#a02524;fill-opacity:1;fill-rule:nonzero;stroke:none"
           id="path28600" />
      </g>
      <g
         id="g28602"
         transform="translate(124.6123,562.0176)">
        <path
           d="m 0,0 -0.824,-0.412 3.861,-2.471 0.824,0.414 z"
           style="fill:#cb3728;fill-opacity:1;fill-rule:nonzero;stroke:none"
           id="path28604" />
      </g>
      <g
         id="g28606"
         transform="translate(128.4736,554.957)">
        <path
           d="M 0,0 -0.824,-0.414 V 4.178 L 0,4.592 Z"
           style="fill:#d6453f;fill-opacity:1;fill-rule:nonzero;stroke:none"
           id="path28608" />
      </g>
    </g>
  </g>
</svg>
