<svg xmlns="http://www.w3.org/2000/svg" viewBox="0 0 6.727 9.595"><path d="M1.556 8.658L.342 9.43V4.138L.95 2.782l.607.585v5.291" fill="#fafcfe"/><path d="M1.8 8.824l-1.218.77v-5.29l.61-1.357.607.585v5.292" fill="#939494"/><path d="M1.192 2.947L.95 2.782.342 4.138l.24.165.61-1.356" fill="#fafcfe"/><path d="M.342 9.43l.24.165V4.303l-.24-.165V9.43" fill="#e4e4e1"/><path d="M3.768 7.255l-1.214.77v-5.29l.607-1.356.607.585v5.292" fill="#fafcfe"/><path d="M4.011 7.42l-1.213.771V2.9l.606-1.355.607.584V7.42" fill="#939494"/><path d="M3.404 1.544l-.243-.166-.607 1.356.244.165.606-1.355" fill="#fafcfe"/><path d="M2.554 8.026l.244.165V2.9l-.244-.165v5.292" fill="#e4e4e1"/><path d="M5.98 5.876l-1.214.771V1.356L5.373 0l.607.584v5.292" fill="#fafcfe"/><path d="M6.223 6.041l-1.214.772V1.52L5.616.165l.607.585v5.29" fill="#939494"/><path d="M5.616.165L5.373 0l-.607 1.356.243.165.607-1.356" fill="#fafcfe"/><path d="M4.766 6.647l.243.166V1.52l-.243-.165v5.291" fill="#e4e4e1"/><path d="M0 5.245l6.452-4.054.275.142L.25 5.403 0 5.244" fill="#fafcfe"/><path d="M0 6.287l6.491-4.096.236.138L.25 6.445 0 6.287" fill="#777b8a"/><path d="M0 5.245v1.042l.25.158V5.402L0 5.245" fill="#e4e4e1"/><path d="M.25 5.402l6.477-4.07v1.043L.25 6.445V5.402" fill="#939494"/></svg>