<svg xmlns="http://www.w3.org/2000/svg" width="25.413" height="36.264" viewBox="0 0 6.724 9.595"><path d="M6.724 5.245L.275 1.191 0 1.333l6.477 4.07.247-.158" fill="#fafcfe"/><path d="M6.724 5.245v1.042l-.247.158V5.402l.247-.157" fill="#939494"/><path d="M6.477 5.402L0 1.332v1.043l6.477 4.07V5.402" fill="#e4e4e1"/><path d="M5.172 8.658l1.213.771V4.138l-.607-1.356-.606.585v5.291" fill="#fafcfe"/><path d="M4.928 8.823l1.214.772V4.303l-.607-1.356-.607.585v5.291" fill="#e4e4e1"/><path d="M5.535 2.947l.243-.165.607 1.356-.243.165-.607-1.356" fill="#fafcfe"/><path d="M6.385 9.43l-.243.165V4.303l.243-.165v5.291" fill="#939494"/><path d="M2.96 7.254l1.213.772V2.734l-.606-1.356-.607.585v5.291" fill="#fafcfe"/><path d="M2.716 7.42l1.214.77V2.9l-.607-1.357-.607.585V7.42" fill="#e4e4e1"/><path d="M3.323 1.543l.244-.165.606 1.356-.243.165-.607-1.356" fill="#fafcfe"/><path d="M4.173 8.026l-.243.165V2.899l.243-.165v5.292" fill="#939494"/><path d="M.748 5.876l1.213.771V1.355L1.355 0 .748.584v5.292" fill="#fafcfe"/><path d="M.504 6.041l1.214.771V1.521L1.111.165.504.75v5.29" fill="#e4e4e1"/><path d="M1.111.165L1.355 0l.606 1.355-.243.166L1.111.165" fill="#fafcfe"/><path d="M1.961 6.647l-.243.165V1.521l.243-.166v5.292" fill="#939494"/></svg>