<svg xmlns="http://www.w3.org/2000/svg" width="136.529" height="139.36" viewBox="0 0 36.123 36.872"><defs><clipPath clipPathUnits="userSpaceOnUse" id="a"><path d="M2320.12 4033.24l-56.6 34.59-20.98 105.81 26.34-16.77v-.07l10.73-6.84v.08l14.69-9.36 2.15-1.37 23.67-106.07"/></clipPath><clipPath clipPathUnits="userSpaceOnUse" id="b"><path d="M2727.01 4377.47l15.24 125.8 90.48-16.99-13.79-113.91-91.93 5.1"/></clipPath></defs><path d="M14.615 22.992L1.27 14.6 21.081 2.013l13.345 8.39-19.811 12.589" fill="#c2e0bc"/><path d="M1.27 28.48V14.6l13.345 8.392v13.88L1.27 28.481" fill="#b1e193"/><path d="M34.426 10.403v13.882L14.615 36.872v-13.88l19.811-12.589" fill="#6d8e62"/><path d="M23.972 18.807l-2.825-1.776 8.386-5.327 2.824 1.775-8.385 5.328" fill="#9f513d"/><path d="M8.533 26.098v5.275l5.64 3.465v-5.284l-5.64-3.456" fill="#545c65"/><g clip-path="url(#a)" transform="matrix(.03528 0 0 -.03528 -69.438 176.02)"><path d="M2242.54 4033.24h77.582v140.402h-77.582z" fill="#6e8084"/></g><path d="M8.533 26.098l-.462-.306v5.933l.462-.352v-5.275" fill="#6d8e62"/><path d="M8.071 31.726l6.103 3.659v-.547l-5.64-3.465-.463.353" fill="#c2e0bc"/><path d="M2.08 22.032v5.274l5.64 3.465v-5.284l-5.64-3.455" fill="#545c65"/><path d="M5.958 29.67L3.96 28.45l-.74-3.735 1.087.692v.003l.378.24v-.002l.438.279.835 3.742" fill="#6e8084"/><path d="M2.08 22.032l-.461-.306v5.932l.462-.352v-5.274" fill="#6d8e62"/><path d="M1.619 27.658l6.102 3.66v-.547l-5.64-3.465-.462.352" fill="#c2e0bc"/><path d="M8.092 24.22v1.08L6.12 26.562v-.479l1.972-1.863" fill="#2c915d"/><path d="M8.092 24.22l-5.971-3.802-1.927 1.836 5.926 3.83 1.972-1.864" fill="#3f9839"/><path d="M6.12 26.562v-.479l-5.926-3.83v.536l5.926 3.773" fill="#216b46"/><path d="M7.504 23.846l-.556-.354.557.354" fill="#bae49b"/><path d="M5.585 25.738l-.382-.247v-.037l1.745-1.962.556.354-1.92 1.892" fill="#50b248"/><path d="M5.582 26.218l-.379-.24v-.487l.382.247-.003.002v.478" fill="#2e8e54"/><path d="M4.685 25.65l-.378-.24v-.003l.378.241v.003" fill="#7e9e8a"/><path d="M4.695 25.163l-.388-.251v-.026l1.745-1.963.556.355-1.913 1.885" fill="#50b248"/><path d="M4.685 25.648l-.378-.24v-.496l.388.25-.01.01v.476" fill="#2e8e54"/><path d="M5.71 22.703l-.556-.353.002-.002.556.353-.002.002" fill="#bae49b"/><path d="M3.8 24.585l-.39-.253v-.022l1.744-1.96.556.353-1.91 1.882" fill="#50b248"/><path d="M3.789 25.075l-.378-.241v-.502l.39.253-.012.012v.478" fill="#2e8e54"/><path d="M4.813 22.132l-.556-.354.002-.002.556.354-.002.002" fill="#bae49b"/><path d="M2.91 24.009l-.396-.256v-.015l1.743-1.96.556.354L2.91 24.01" fill="#50b248"/><path d="M2.893 24.504l-.379-.242v-.509l.395.256-.016.016v.479" fill="#2e8e54"/><path d="M1.997 23.938l-.378-.241v-.002l.378.241v.002" fill="#7aa96b"/><path d="M2.022 23.435l-.403-.26v-.003l1.744-1.962.557.355-1.898 1.87" fill="#50b248"/><path d="M1.997 23.936l-.378-.24v-.522l.403.261-.025.025v.476" fill="#2e8e54"/><path d="M3.018 20.99l-.555-.355.004-.005.556.354-.005.005" fill="#bae49b"/><path d="M1.125 22.855l-.403-.26v-.002l1.741-1.958.555.354-1.893 1.866" fill="#50b248"/><path d="M1.1 23.358l-.378-.242v-.52l.403.26-.025.023v.479" fill="#2e8e54"/><path d="M14.388 28.187v1.08l-1.972 1.262v-.478l1.972-1.864" fill="#2c915d"/><path d="M14.388 28.187l-5.97-3.802-1.927 1.836 5.925 3.83 1.972-1.864" fill="#3f9839"/><path d="M12.416 30.53v-.479l-5.925-3.83v.535l5.925 3.773" fill="#216b46"/><path d="M11.878 30.187l-.302-.193.302.193" fill="#66826f"/><path d="M11.576 29.994l-.076-.048.076.048" fill="#7e9e8a"/><path d="M13.71 27.756l-.465-.297.465.297" fill="#bae49b"/><path d="M11.88 29.705l-.38-.246v-.038l1.745-1.962.465.297.09.057-1.92 1.892" fill="#50b248"/><path d="M11.878 30.187l-.302-.193-.076-.048v-.487l.38.246-.002.003v.479" fill="#2e8e54"/><path d="M10.982 29.619l-.379-.242v-.002l.379.24v.004" fill="#7e9e8a"/><path d="M10.991 29.13l-.388-.25v-.027l1.746-1.962.556.353-1.914 1.886" fill="#50b248"/><path d="M10.982 29.616l-.379-.241v-.496l.388.25-.01.01v.477" fill="#2e8e54"/><path d="M12.006 26.67l-.556-.353.002-.003.556.354-.002.002" fill="#bae49b"/><path d="M10.097 28.552l-.39-.252v-.023l1.743-1.96.556.353-1.91 1.882" fill="#50b248"/><path d="M10.085 29.042l-.378-.24V28.3l.39.252-.012.012v.478" fill="#2e8e54"/><path d="M11.11 26.1l-.556-.355.002-.002.556.354-.003.003" fill="#bae49b"/><path d="M9.206 27.976l-.395-.256v-.015l1.743-1.96.555.355-1.903 1.876" fill="#50b248"/><path d="M9.189 28.471l-.378-.242v-.509l.395.256-.017.016v.48" fill="#2e8e54"/><path d="M8.071 27.764l-.156-.1v-.001l.156.1" fill="#bae49b"/><path d="M8.293 27.905l-.222-.141v-.001l.222.14v.002" fill="#7aa96b"/><path d="M8.318 27.402l-.403-.26v-.002l1.744-1.963.556.355-1.897 1.87" fill="#50b248"/><path d="M8.293 27.904l-.222-.141-.156-.1v-.522l.403.261-.025.024v.478" fill="#2e8e54"/><path d="M9.314 24.957l-.556-.355.005-.005.557.354-.006.006" fill="#bae49b"/><path d="M7.421 26.822l-.402-.26v-.002l1.74-1.958.555.355-1.893 1.865" fill="#50b248"/><path d="M7.397 27.324l-.378-.24v-.522l.402.26-.024.024v.478" fill="#2e8e54"/><path d="M14.587 22.628L0 13.745 21.537 0l14.586 8.883-21.536 13.745" fill="#edf9fe"/><path d="M0 15.136v-1.39l14.587 8.882v1.39L0 15.135" fill="#b1e193"/><path d="M36.123 8.883v1.39L14.587 24.017v-1.39L36.123 8.884" fill="#6d8e62"/><path d="M1.27 15.909l13.585 8.108v1.494L1.27 17.47v-1.561" fill="#6d8e62"/><path d="M33.815 17.418v5.275l-5.64 3.464v-5.285l5.64-3.454" fill="#444851"/><path d="M32.323 21.878l-.17-.163v-1.28l.522-.333-.352 1.776" fill="#627177"/><path d="M33.815 17.418l.462-.306v5.933l-.462-.352v-5.275" fill="#6d8e62"/><path d="M34.277 23.045l-6.102 3.66v-.548l5.64-3.464.462.352" fill="#c2e0bc"/><path d="M27.96 19.507v1.079l1.972 1.263v-.478l-1.972-1.864" fill="#287c51"/><path d="M27.96 19.507l5.972-3.803 1.926 1.836-5.926 3.83-1.972-1.863" fill="#398135"/><path d="M29.932 21.849v-.478l5.926-3.83v.534l-5.926 3.774" fill="#1c5438"/><path d="M32.251 19.872l-.098-.097v-.728l.488.55v.022l-.39.253" fill="#499d45"/><path d="M32.263 20.362v-.478l-.012-.012.39-.253v.502l-.378.241" fill="#287747"/><path d="M33.143 19.295l-.99-.975v-.852l1.385 1.557v.015l-.395.255" fill="#499d45"/><path d="M33.16 19.79v-.478l-.017-.017.395-.255v.51l-.378.24" fill="#287747"/><path d="M34.426 18.989v-.002l.008-.005v.002l-.008.005" fill="#c9e9be"/><path d="M34.277 19.084v-.002l.15-.095v.002l-.15.095m-.221.141v-.002l.221-.141v.002l-.22.141" fill="#79a76c"/><path d="M34.03 18.722l-1.877-1.851v-.033l.536-.34 1.745 1.961v.002l-.403.26" fill="#499d45"/><path d="M34.056 19.223v-.476l-.025-.025.403-.261v.52l-.008.006-.149.095-.22.14" fill="#287747"/><path d="M33.034 16.276l-.004-.005.556-.354.004.005-.556.354" fill="#79a76c"/><path d="M34.927 18.142l-1.893-1.866.556-.354 1.74 1.958v.001l-.403.26" fill="#499d45"/><path d="M34.952 18.645v-.48l-.025-.023.404-.26v.522l-.38.241" fill="#287747"/><path d="M20.943 16.911l.168 15.763 2.657 1.76V18.687l-2.825-1.776" fill="#7b3d2e"/><path d="M32.153 13.36v15.747l-8.385 5.327V18.687l8.385-5.328" fill="#522a1f"/><path d="M30.896 23.944v5.275l-5.64 3.697V27.63l5.64-3.687" fill="#444851"/><path d="M26.872 31.857l2.087-1.368-2.087 1.368" fill="#6b584b"/><path d="M26.872 31.857l1.012-4.276.495-.316v.003l.451-.288v-.002l.968-.617-.84 4.128-2.086 1.368" fill="#627177"/><path d="M30.896 23.944l.462-.306v5.934l-.462-.353v-5.275" fill="#6d8e62"/><path d="M31.358 29.572l-6.102 3.892v-.548l5.64-3.697.462.353" fill="#c2e0bc"/><path d="M24.32 25.563v1.285l2.35 1.506v-.57l-2.35-2.221" fill="#287c51"/><path d="M24.319 25.563l7.116-4.532 2.297 2.188-7.063 4.565-2.35-2.221" fill="#398135"/><path d="M26.67 28.354v-.57l7.062-4.565v.638l-7.063 4.497" fill="#1c5438"/><path d="M25.019 25.117l.109-.07-.109.07" fill="#60522a"/><path d="M27.307 27.372l-2.288-2.255.109-.07.554-.352 2.08 2.338v.045l-.455.294" fill="#499d45"/><path d="M27.31 27.946v-.57l-.003-.004.454-.294v.58l-.45.288" fill="#287747"/><path d="M28.379 27.268v-.003l.451-.287v.002l-.451.288" fill="#71907f"/><path d="M28.367 26.687l-2.28-2.248.663-.422 2.08 2.34v.03l-.463.3" fill="#499d45"/><path d="M28.379 27.265v-.567l-.012-.011.463-.3v.591l-.451.287" fill="#287747"/><path d="M27.158 23.755l-.003-.002.663-.422.002.002-.662.422" fill="#60522a"/><path d="M29.433 25.998l-2.275-2.243.662-.422 2.078 2.336v.028l-.465.3" fill="#499d45"/><path d="M29.447 26.582v-.571l-.014-.013.465-.3v.596l-.45.288" fill="#287747"/><path d="M28.226 23.074l-.002-.002.663-.422.002.003-.663.421" fill="#60522a"/><path d="M30.496 25.31l-2.27-2.236.663-.421 2.077 2.336v.018l-.47.304" fill="#499d45"/><path d="M30.515 25.9v-.57l-.02-.02.47-.303v.606l-.45.288" fill="#287747"/><path d="M31.583 25.226v-.001l.452-.288v.002l-.452.287" fill="#60522a"/><path d="M31.554 24.627l-2.263-2.23.663-.421 2.08 2.338v.002l-.48.311" fill="#499d45"/><path d="M31.583 25.225v-.569l-.03-.029.482-.31v.62l-.452.288" fill="#287747"/><path d="M30.366 21.712l-.006-.006.663-.422.005.006-.662.422" fill="#60522a"/><path d="M32.623 23.936l-2.257-2.224.662-.422 2.075 2.334v.002l-.48.31" fill="#499d45"/><path d="M32.652 24.535v-.57l-.03-.029.48-.31v.622l-.45.287" fill="#287747"/><path d="M20.612 26.146v5.275l-5.64 3.465v-5.285l5.64-3.455" fill="#444851"/><path d="M16.734 33.784l.836-3.742.076-.049.518-.33v.003l.378-.24v-.004l.93-.592-.74 3.734-1.998 1.22" fill="#627177"/><path d="M20.612 26.146l.462-.306v5.934l-.462-.353v-5.275" fill="#6d8e62"/><path d="M21.074 31.774l-6.102 3.659v-.547l5.64-3.465.462.353" fill="#c2e0bc"/><path d="M14.757 28.235v1.08l1.972 1.262v-.478l-1.972-1.864" fill="#287c51"/><path d="M14.757 28.235l5.97-3.802 1.928 1.836-5.926 3.83-1.972-1.864" fill="#398135"/><path d="M16.729 30.577v-.478l5.926-3.83v.534l-5.926 3.774" fill="#1c5438"/><path d="M17.267 30.234l.303-.193-.303.193" fill="#546d5c"/><path d="M17.57 30.042l.076-.05v.001l-.076.049" fill="#71907f"/><path d="M15.747 27.605l.153-.099-.153.099" fill="#79a76c"/><path d="M17.265 29.753l-1.92-1.892.402-.256.154-.099 1.745 1.964v.037l-.381.246" fill="#499d45"/><path d="M17.267 30.234v-.478l-.002-.003.38-.246v.486l-.075.048-.303.193" fill="#287747"/><path d="M18.164 29.666v-.003l.378-.24v.003l-.378.24" fill="#71907f"/><path d="M18.154 29.178l-1.913-1.885.556-.355 1.745 1.963v.026l-.388.251" fill="#499d45"/><path d="M18.164 29.663v-.475l-.01-.01.388-.25v.494l-.378.241" fill="#287747"/><path d="M17.139 26.718l-.002-.002.556-.354.002.002-.556.354" fill="#79a76c"/><path d="M19.048 28.6l-1.909-1.882.556-.354 1.743 1.961v.023l-.39.252" fill="#499d45"/><path d="M19.06 29.09v-.478l-.012-.012.39-.252v.501l-.378.241" fill="#287747"/><path d="M18.035 26.147l-.002-.002.557-.354.001.002-.556.354" fill="#79a76c"/><path d="M19.94 28.024l-1.905-1.877.556-.354 1.743 1.96v.016l-.395.255" fill="#499d45"/><path d="M19.956 28.519v-.478l-.017-.017.395-.255v.509l-.378.24" fill="#287747"/><path d="M21.074 27.812v-.002l.157-.1v.002l-.157.1" fill="#86643b"/><path d="M20.852 27.953v-.002l.222-.14-.222.142" fill="#79a76c"/><path d="M20.828 27.45l-1.899-1.87.557-.354 1.745 1.961v.002l-.403.261" fill="#499d45"/><path d="M20.852 27.951v-.476l-.024-.025.403-.26v.52l-.157.1-.222.141" fill="#287747"/><path d="M19.83 25.004L19.826 25l.556-.355.004.005-.556.354" fill="#79a76c"/><path d="M21.724 26.87l-1.894-1.866.556-.354 1.741 1.958v.002l-.403.26" fill="#499d45"/><path d="M21.749 27.373v-.479l-.025-.024.403-.26v.522l-.378.241" fill="#287747"/><path d="M15.065 20.945L2.647 13.383l18.334-11.7L33.4 9.242 15.065 20.946" fill="#a8bd9b"/><path d="M23.79 18.443l-3.58-2.205 9.128-5.8 3.58 2.205-9.127 5.8" fill="#edf9fe"/><path d="M20.21 17.628v-1.39l3.58 2.205v1.39l-3.58-2.205" fill="#b1e193"/><path d="M32.919 12.643v1.39l-9.128 5.8v-1.39l9.128-5.8M20.981 1.682V3.21L3.92 14.158l-1.273-.775 18.334-11.7" fill="#6d8e62"/><path d="M20.981 3.21l11.054 6.905 1.364-.871L20.98 1.682V3.21" fill="#b1e193"/><g clip-path="url(#b)" transform="matrix(.03528 0 0 -.03528 -69.438 176.02)"><path d="M2789.9 4494.33c-5.58 1.03-11.21.72-16.64-.84-5.51-1.57-10.82-4.4-15.64-8.32-4.89-3.95-9.3-9.05-12.95-15.04-3.69-6.04-6.58-13.01-8.46-20.71-2.07-8.43-2.67-16.93-1.97-25.02.7-8.04 2.67-15.64 5.72-22.38 3.01-6.68 7.09-12.46 12.01-16.97 4.85-4.47 10.53-7.68 16.82-9.24l1.68-.39 1.7-.29 1.66-.22 1.68-.11c5.6-.32 11.11.7 16.33 2.83 5.15 2.13 10.02 5.35 14.39 9.47 4.34 4.1 8.18 9.1 11.35 14.84 3.16 5.69 5.64 12.11 7.26 19.12 1.76 7.68 2.33 15.36 1.86 22.68-.49 7.36-2.05 14.43-4.53 20.82-2.52 6.45-5.98 12.25-10.28 16.99-4.33 4.81-9.53 8.58-15.44 10.9l-1.65.59-1.62.51-1.64.42-1.64.36m-13.63-113.36l-1.5.13-1.51.2-1.5.27-1.53.35c-5.62 1.47-10.68 4.36-15.02 8.38-4.35 4.07-7.98 9.26-10.66 15.24-2.69 6.01-4.43 12.79-5.04 19.96-.62 7.21-.1 14.76 1.74 22.3 1.66 6.88 4.22 13.09 7.5 18.48 3.24 5.37 7.17 9.92 11.52 13.48 4.32 3.53 9.05 6.09 13.97 7.52 4.86 1.42 9.9 1.75 14.9.85l1.49-.31 1.46-.37 1.46-.45 1.47-.51c5.33-2.05 10.02-5.41 13.93-9.7 3.88-4.26 7.01-9.46 9.27-15.24 2.25-5.74 3.67-12.11 4.1-18.73.45-6.64-.07-13.55-1.66-20.47-1.48-6.29-3.71-12.07-6.56-17.18-2.85-5.14-6.33-9.61-10.23-13.29-3.95-3.69-8.32-6.56-12.95-8.43-4.69-1.92-9.63-2.8-14.65-2.48" fill="#216b46"/><path d="M2789.14 4488.13c-5 .9-10.04.57-14.9-.85-4.92-1.43-9.65-3.99-13.97-7.52-4.35-3.56-8.28-8.11-11.52-13.48-3.28-5.39-5.84-11.6-7.5-18.48a69.153 69.153 0 0 1-1.74-22.3c.61-7.17 2.35-13.95 5.04-19.96 2.68-5.98 6.31-11.17 10.66-15.24 4.34-4.02 9.4-6.91 15.02-8.38l1.53-.35 1.5-.27 1.51-.2 1.5-.13c5.02-.32 9.96.56 14.65 2.48 4.63 1.87 9 4.74 12.95 8.43 3.9 3.68 7.38 8.15 10.23 13.29 2.85 5.11 5.08 10.89 6.56 17.18 1.59 6.92 2.11 13.83 1.66 20.47-.43 6.62-1.85 12.99-4.1 18.73-2.26 5.78-5.39 10.98-9.27 15.24-3.91 4.29-8.6 7.65-13.93 9.7l-1.47.51-1.46.45-1.46.37-1.49.31m-12.09-100.97l-1.35.12-1.32.17-1.33.27-1.35.34c-4.96 1.31-9.41 3.88-13.22 7.46-3.85 3.61-7.03 8.2-9.38 13.47-2.36 5.32-3.89 11.29-4.43 17.6-.53 6.35-.08 12.99 1.52 19.61 1.47 6.04 3.73 11.51 6.6 16.27 2.85 4.73 6.29 8.75 10.14 11.91 3.79 3.15 7.95 5.42 12.3 6.72 4.28 1.29 8.73 1.61 13.17.84l1.31-.25 1.29-.33 1.3-.37 1.29-.47c4.73-1.78 8.89-4.73 12.37-8.52 3.45-3.75 6.25-8.36 8.28-13.49 2.01-5.08 3.28-10.73 3.67-16.63.41-5.87-.04-12.03-1.48-18.16-1.29-5.6-3.29-10.74-5.82-15.27-2.54-4.57-5.65-8.54-9.11-11.76-3.49-3.26-7.4-5.8-11.5-7.44-4.14-1.64-8.52-2.4-12.95-2.09m10.2 85.47c-3.56.58-7.13.29-10.57-.78-3.48-1.08-6.8-2.91-9.82-5.45-3.05-2.54-5.79-5.77-8.03-9.55-2.29-3.83-4.08-8.19-5.24-12.99a48.862 48.862 0 0 1-1.23-15.67c.41-5.04 1.62-9.82 3.5-14.08 1.85-4.22 4.37-7.91 7.44-10.82 3.03-2.91 6.58-5.02 10.55-6.11l1.05-.26 1.08-.21 1.05-.18 1.06-.09c3.57-.3 7.11.27 10.45 1.58 3.34 1.29 6.48 3.3 9.33 5.92 2.83 2.59 5.35 5.78 7.42 9.45 2.07 3.67 3.69 7.83 4.75 12.36 1.17 4.98 1.54 9.98 1.21 14.75-.33 4.76-1.37 9.33-3.03 13.44-1.64 4.14-3.92 7.83-6.74 10.84-2.81 3.02-6.19 5.35-10 6.73l-1.05.36-1.05.31-1.06.25-1.07.2" fill="#edf9fe"/><path d="M2788.4 4481.94c-4.44.77-8.89.45-13.17-.84-4.35-1.3-8.51-3.57-12.3-6.72-3.85-3.16-7.29-7.18-10.14-11.91-2.87-4.76-5.13-10.23-6.6-16.27a61.704 61.704 0 0 1-1.52-19.61c.54-6.31 2.07-12.28 4.43-17.6 2.35-5.27 5.53-9.86 9.38-13.47 3.81-3.58 8.26-6.15 13.22-7.46l1.35-.34 1.33-.27 1.32-.17 1.35-.12c4.43-.31 8.81.45 12.95 2.09 4.1 1.64 8.01 4.18 11.5 7.44 3.46 3.22 6.57 7.19 9.11 11.76 2.53 4.53 4.53 9.67 5.82 15.27a61.034 61.034 0 0 1 1.48 18.16c-.39 5.9-1.66 11.55-3.67 16.63-2.03 5.13-4.83 9.74-8.28 13.49-3.48 3.79-7.64 6.74-12.37 8.52l-1.29.47-1.3.37-1.29.33-1.31.25m-10.31-85.5l-1.06.09-1.05.18-1.08.21-1.05.26c-3.97 1.09-7.52 3.2-10.55 6.11-3.07 2.91-5.59 6.6-7.44 10.82-1.88 4.26-3.09 9.04-3.5 14.08-.43 5.06-.06 10.37 1.23 15.67 1.16 4.8 2.95 9.16 5.24 12.99 2.24 3.78 4.98 7.01 8.03 9.55 3.02 2.54 6.34 4.37 9.82 5.45 3.44 1.07 7.01 1.36 10.57.78l1.07-.2 1.06-.25 1.05-.31 1.05-.36c3.81-1.38 7.19-3.71 10-6.73 2.82-3.01 5.1-6.7 6.74-10.84 1.66-4.11 2.7-8.68 3.03-13.44.33-4.77-.04-9.77-1.21-14.75-1.06-4.53-2.68-8.69-4.75-12.36s-4.59-6.86-7.42-9.45c-2.85-2.62-5.99-4.63-9.33-5.92-3.34-1.31-6.88-1.88-10.45-1.58" fill="#216b46"/></g></svg>