<svg xmlns="http://www.w3.org/2000/svg" width="305.255" height="386.9" viewBox="0 0 80.765 102.367"><defs><clipPath clipPathUnits="userSpaceOnUse" id="a"><path d="M755.473 659.196h19.66v-37.047h-19.66z"/></clipPath><clipPath clipPathUnits="userSpaceOnUse" id="b"><path d="M775.842 646.388h10.875v-31.522h-10.875z"/></clipPath><clipPath clipPathUnits="userSpaceOnUse" id="c"><path d="M821.879 647.317h19.658v-37.045h-19.658z"/></clipPath><clipPath clipPathUnits="userSpaceOnUse" id="d"><path d="M809.627 634.263H820.5v-31.522h-10.873z"/></clipPath><clipPath clipPathUnits="userSpaceOnUse" id="e"><path d="M761.965 682.538h10.875v-31.523h-10.875z"/></clipPath><clipPath clipPathUnits="userSpaceOnUse" id="f"><path d="M840.713 686.646h19.66v-37.047h-19.66z"/></clipPath><clipPath clipPathUnits="userSpaceOnUse" id="g"><path d="M822.559 669.774h10.875v-31.521h-10.875z"/></clipPath><clipPath clipPathUnits="userSpaceOnUse" id="h"><path d="M774.641 702.077h19.66V665.03h-19.66z"/></clipPath><clipPath clipPathUnits="userSpaceOnUse" id="i"><path d="M795.008 689.269h10.875v-31.522h-10.875z"/></clipPath><clipPath clipPathUnits="userSpaceOnUse" id="j"><path d="M840.713 714.04h19.66v-37.045h-19.66z"/></clipPath><clipPath clipPathUnits="userSpaceOnUse" id="k"><path d="M822.559 697.171h10.875v-31.522h-10.875z"/></clipPath><clipPath clipPathUnits="userSpaceOnUse" id="l"><path d="M755.473 741.751h19.66v-37.047h-19.66z"/></clipPath><clipPath clipPathUnits="userSpaceOnUse" id="m"><path d="M775.842 728.942h10.875v-31.521h-10.875z"/></clipPath><clipPath clipPathUnits="userSpaceOnUse" id="n"><path d="M840.713 741.786h19.66v-37.045h-19.66z"/></clipPath><clipPath clipPathUnits="userSpaceOnUse" id="o"><path d="M834.668 732.583h10.873v-31.521h-10.873z"/></clipPath><clipPath clipPathUnits="userSpaceOnUse" id="p"><path d="M742.684 777.114h19.662v-37.045h-19.662z"/></clipPath><clipPath clipPathUnits="userSpaceOnUse" id="q"><path d="M782.586 752.167h10.873v-31.521h-10.873z"/></clipPath><clipPath clipPathUnits="userSpaceOnUse" id="r"><path d="M840.713 769.183h19.66v-37.045h-19.66z"/></clipPath><clipPath clipPathUnits="userSpaceOnUse" id="s"><path d="M822.559 752.313h10.875v-31.521h-10.875z"/></clipPath><clipPath clipPathUnits="userSpaceOnUse" id="t"><path d="M763.35 793.579h16.703v-31.473H763.35z"/></clipPath><clipPath clipPathUnits="userSpaceOnUse" id="u"><path d="M780.654 782.698h9.239v-26.781h-9.239z"/></clipPath><clipPath clipPathUnits="userSpaceOnUse" id="v"><path d="M835.768 793.61h16.703v-31.472h-16.703z"/></clipPath><clipPath clipPathUnits="userSpaceOnUse" id="w"><path d="M820.344 779.278h9.238v-26.779h-9.238z"/></clipPath></defs><path d="M23.972 84.479L0 69.405 23.972 54.33l23.973 15.074z" fill="#e5f4f6"/><path d="M23.972 75.206L0 60.132l23.972-15.075 23.973 15.075z" fill="#c1cfd2"/><path d="M0 68.84v-8.71l23.972 15.075v8.708zm47.945-8.708v8.708L23.972 83.914v-8.708z" fill="#27abd8"/><path d="M47.945 59.616v.516L23.972 75.206v-.516z" fill="#175056"/><path d="M0 59.616v.516l23.972 15.074v-.516z" fill="#20899a"/><path d="M4.954 71.954l-.486-.305v-9.286l.486.306zm4.754 2.987l-.486-.313v-9.285l.486.305zm4.755 3.005l-.486-.306v-9.285l.486.305zm4.754 2.954l-.485-.313v-9.285l.485.306zm4.755 3.014l-.485-.314v-9.285l.485.305z" fill="#e5f4f6"/><path d="M47.945 69.404v-.565L23.972 83.914v.565z" fill="#afbdbf"/><path d="M0 69.404v-.565l23.972 15.075v.565z" fill="#e5f4f6"/><path d="M47.46 69.207l.485-.306v-9.285l-.485.306zm-4.756 2.987l.487-.313v-9.286l-.487.306zm-4.754 3.005l.486-.306v-9.285l-.487.306zm-4.755 2.955l.486-.314v-9.285l-.486.306zm-4.755 3.013l.486-.314v-9.285l-.486.305z" fill="#afbdbf"/><g clip-path="url(#a)" opacity=".5" transform="matrix(.35278 0 0 -.35278 -261.014 296.14)"><path d="M755.473 659.196l8.203-29.842 11.457-7.205-6.154 28.555z" fill="#e5f4f6"/></g><g clip-path="url(#b)" opacity=".5" transform="matrix(.35278 0 0 -.35278 -261.014 296.14)"><path d="M775.842 646.388l8.303-29.906 2.572-1.615-7.893 29.648z" fill="#e5f4f6"/></g><path d="M23.972 74.69L0 59.617l23.972-15.073 23.973 15.073z" fill="#e5f4f6"/><g clip-path="url(#c)" opacity=".2" transform="matrix(.35278 0 0 -.35278 -261.014 296.14)"><path d="M841.537 647.317l-8.203-29.842-11.455-7.203 6.152 28.553z" fill="#e5f4f6"/></g><g clip-path="url(#d)" opacity=".2" transform="matrix(.35278 0 0 -.35278 -261.014 296.14)"><path d="M820.5 634.263l-8.303-29.904-2.57-1.617 7.893 29.646z" fill="#e5f4f6"/></g><path d="M23.972 74.808L0 59.735 23.972 44.66l23.973 15.075z" fill="#e5f4f6"/><path d="M23.972 65.536L0 50.46l23.972-15.074L47.945 50.46z" fill="#c1cfd2"/><path d="M0 59.169v-8.708l23.972 15.075v8.707zm47.945-8.708v8.708L23.972 74.243v-8.708z" fill="#27abd8"/><path d="M47.945 49.946v.515L23.972 65.535v-.515z" fill="#175056"/><path d="M0 49.946v.515l23.972 15.074v-.515z" fill="#20899a"/><path d="M4.954 62.284l-.486-.305v-9.286l.486.306zm4.754 2.986l-.486-.313v-9.285l.486.306zm4.755 3.006l-.486-.306v-9.285l.486.306zm4.754 2.954l-.485-.313v-9.285l.485.305zm4.755 3.013l-.485-.313v-9.285l.485.305z" fill="#e5f4f6"/><path d="M47.945 59.735v-.566L23.972 74.243v.566z" fill="#afbdbf"/><path d="M0 59.735v-.566l23.972 15.074v.566z" fill="#e5f4f6"/><path d="M47.46 59.537l.485-.305v-9.286l-.485.306zm-4.756 2.987l.487-.313v-9.286l-.487.306zm-4.754 3.005l.486-.306v-9.285l-.487.306zm-4.755 2.954l.486-.313v-9.286l-.486.306zm-4.755 3.013l.486-.313v-9.285l-.486.305z" fill="#afbdbf"/><g clip-path="url(#e)" opacity=".5" transform="matrix(.35278 0 0 -.35278 -261.014 296.14)"><path d="M761.965 682.538l8.303-29.906 2.572-1.617-7.895 29.648z" fill="#e5f4f6"/></g><path d="M23.972 65.02L0 49.946l23.972-15.074 23.973 15.074z" fill="#e5f4f6"/><g clip-path="url(#f)" opacity=".2" transform="matrix(.35278 0 0 -.35278 -261.014 296.14)"><path d="M860.373 686.645l-8.203-29.844-11.457-7.203 6.154 28.553z" fill="#e5f4f6"/></g><g clip-path="url(#g)" opacity=".2" transform="matrix(.35278 0 0 -.35278 -261.014 296.14)"><path d="M833.434 669.774l-8.303-29.904-2.572-1.617 7.893 29.648z" fill="#e5f4f6"/></g><path d="M23.972 65.143L0 50.07l23.972-15.074L47.945 50.07z" fill="#e5f4f6"/><path d="M23.972 55.87L0 40.797l23.972-15.073 23.973 15.073z" fill="#c1cfd2"/><path d="M0 49.504v-8.708l23.972 15.075v8.707zm47.945-8.708v8.708L23.972 64.578v-8.707z" fill="#27abd8"/><path d="M47.945 40.282v.514L23.972 55.871v-.516z" fill="#175056"/><path d="M0 40.282v.514l23.972 15.075v-.516z" fill="#20899a"/><path d="M4.954 52.62l-.486-.306v-9.286l.486.306zm4.754 2.986l-.486-.313v-9.286l.486.306zm4.755 3.004l-.486-.304V49.02l.486.306zm4.754 2.955l-.485-.313v-9.285l.485.306zm4.755 3.013l-.485-.313V54.98l.485.306z" fill="#e5f4f6"/><path d="M47.945 50.07v-.566L23.972 64.579v.565z" fill="#afbdbf"/><path d="M0 50.07v-.566l23.972 15.075v.565z" fill="#e5f4f6"/><path d="M47.46 49.873l.485-.306v-9.285l-.485.305zm-4.756 2.987l.487-.314v-9.285l-.487.305zm-4.754 3.004l.486-.305v-9.286l-.487.306zm-4.755 2.955l.486-.314V49.22l-.486.305zm-4.755 3.013l.486-.314v-9.285l-.486.305z" fill="#afbdbf"/><g clip-path="url(#h)" opacity=".5" transform="matrix(.35278 0 0 -.35278 -261.014 296.14)"><path d="M774.64 702.077l8.204-29.842 11.457-7.205-6.156 28.555z" fill="#e5f4f6"/></g><g clip-path="url(#i)" opacity=".5" transform="matrix(.35278 0 0 -.35278 -261.014 296.14)"><path d="M795.008 689.269l8.305-29.904 2.57-1.617-7.893 29.648z" fill="#e5f4f6"/></g><path d="M23.972 55.355L0 40.281l23.972-15.074 23.973 15.074z" fill="#e5f4f6"/><g clip-path="url(#j)" opacity=".2" transform="matrix(.35278 0 0 -.35278 -261.014 296.14)"><path d="M860.373 714.04l-8.203-29.842-11.457-7.203 6.154 28.553z" fill="#e5f4f6"/></g><g clip-path="url(#k)" opacity=".2" transform="matrix(.35278 0 0 -.35278 -261.014 296.14)"><path d="M833.434 697.17l-8.303-29.903-2.572-1.617 7.893 29.646z" fill="#e5f4f6"/></g><path d="M23.972 55.355L0 40.281l23.972-15.074 23.973 15.074z" fill="#e5f4f6"/><path d="M23.972 46.082L0 31.008l23.972-15.074 23.973 15.074z" fill="#c1cfd2"/><path d="M0 39.716v-8.708l23.972 15.075v8.707zm47.945-8.708v8.708L23.972 54.79v-8.708z" fill="#27abd8"/><path d="M47.945 30.493v.515L23.972 46.082v-.515z" fill="#175056"/><path d="M0 30.493v.515l23.972 15.074v-.515z" fill="#20899a"/><path d="M4.954 42.831l-.486-.305V33.24l.486.306zm4.754 2.987l-.486-.314V36.22l.486.306zm4.755 3.005l-.486-.306v-9.285l.486.306zm4.754 2.954l-.485-.313v-9.286l.485.306zm4.755 3.013l-.485-.313v-9.285l.485.305z" fill="#e5f4f6"/><path d="M47.945 40.282v-.566L23.972 54.79v.565z" fill="#afbdbf"/><path d="M0 40.282v-.566L23.972 54.79v.565z" fill="#e5f4f6"/><path d="M47.46 40.084l.485-.305v-9.286l-.485.306zm-4.756 2.986l.487-.312v-9.285l-.487.305zm-4.754 3.006l.486-.306v-9.285l-.487.305zm-4.755 2.954l.486-.313v-9.285l-.486.305zm-4.755 3.013l.486-.313v-9.286l-.486.306z" fill="#afbdbf"/><g clip-path="url(#l)" opacity=".5" transform="matrix(.35278 0 0 -.35278 -261.014 296.14)"><path d="M755.473 741.751l8.203-29.844 11.457-7.203-6.154 28.553z" fill="#e5f4f6"/></g><g clip-path="url(#m)" opacity=".5" transform="matrix(.35278 0 0 -.35278 -261.014 296.14)"><path d="M775.842 728.942l8.303-29.906 2.572-1.615-7.895 29.646z" fill="#e5f4f6"/></g><path d="M23.972 45.567L0 30.493l23.972-15.074 23.973 15.074z" fill="#e5f4f6"/><g clip-path="url(#n)" opacity=".2" transform="matrix(.35278 0 0 -.35278 -261.014 296.14)"><path d="M860.373 741.786l-8.203-29.842-11.457-7.203 6.154 28.553z" fill="#e5f4f6"/></g><g clip-path="url(#o)" opacity=".2" transform="matrix(.35278 0 0 -.35278 -261.014 296.14)"><path d="M845.541 732.583l-8.303-29.904-2.57-1.617 7.893 29.646z" fill="#e5f4f6"/></g><path d="M23.972 45.69L0 30.617l23.972-15.074 23.973 15.074z" fill="#e5f4f6"/><path d="M23.972 36.418L0 21.343 23.972 6.27l23.973 15.073z" fill="#c1cfd2"/><path d="M0 30.052v-8.709l23.972 15.075v8.708zm47.945-8.709v8.709L23.972 45.125v-8.708z" fill="#27abd8"/><path d="M47.945 20.829v.514L23.972 36.417v-.515z" fill="#175056"/><path d="M0 20.829v.514l23.972 15.074v-.515z" fill="#20899a"/><path d="M4.954 33.166l-.486-.305v-9.285l.486.305zm4.754 2.987l-.486-.313v-9.285l.486.305zm4.755 3.005l-.486-.305v-9.286l.486.306zm4.754 2.955l-.485-.314v-9.285l.485.305zm4.755 3.012l-.485-.313v-9.285l.485.306z" fill="#e5f4f6"/><path d="M47.945 30.617v-.565L23.972 45.125v.566z" fill="#afbdbf"/><path d="M0 30.617v-.565l23.972 15.073v.566z" fill="#e5f4f6"/><path d="M47.46 30.42l.485-.306v-9.285l-.485.306zm-4.756 2.987l.487-.314v-9.285l-.487.305zm-4.754 3.004l.486-.305V26.82l-.487.306zm-4.755 2.955l.486-.314v-9.285l-.486.305zm-4.755 3.013l.486-.314V32.78l-.486.305z" fill="#afbdbf"/><g clip-path="url(#p)" opacity=".5" transform="matrix(.35278 0 0 -.35278 -261.014 296.14)"><path d="M742.684 777.114l8.205-29.842 11.457-7.203-6.156 28.553z" fill="#e5f4f6"/></g><g clip-path="url(#q)" opacity=".5" transform="matrix(.35278 0 0 -.35278 -261.014 296.14)"><path d="M782.586 752.167l8.303-29.904 2.57-1.617-7.893 29.648z" fill="#e5f4f6"/></g><path d="M23.972 35.902L0 20.828 23.972 5.754l23.973 15.074z" fill="#e5f4f6"/><g clip-path="url(#r)" opacity=".2" transform="matrix(.35278 0 0 -.35278 -261.014 296.14)"><path d="M860.373 769.183l-8.203-29.842-11.457-7.203 6.154 28.553z" fill="#e5f4f6"/></g><g clip-path="url(#s)" opacity=".2" transform="matrix(.35278 0 0 -.35278 -261.014 296.14)"><path d="M833.434 752.313l-8.303-29.904-2.572-1.617 7.893 29.646z" fill="#e5f4f6"/></g><path d="M23.972 33.929L3.606 21.123 23.972 8.316 44.34 21.123z" fill="#e5f4f6"/><path d="M23.972 26.05L3.606 13.245 23.972.438 44.34 13.244z" fill="#c1cfd2"/><path d="M3.606 20.643v-7.4l20.366 12.808v7.398zm40.734-7.399v7.399L23.972 33.448v-7.397z" fill="#27abd8"/><path d="M44.34 12.807v.437L23.972 26.05v-.438z" fill="#175056"/><path d="M3.606 12.807v.437L23.972 26.05v-.438z" fill="#20899a"/><path d="M7.815 23.289l-.414-.26V15.14l.414.259zm4.039 2.537l-.413-.266v-7.888l.413.26zm4.04 2.553l-.413-.26V20.23l.413.26zm4.039 2.51l-.413-.266v-7.889l.413.26zm4.039 2.56l-.412-.266v-7.889l.412.26z" fill="#e5f4f6"/><path d="M44.34 21.123v-.48L23.972 33.448v.48z" fill="#afbdbf"/><path d="M3.606 21.123v-.48l20.366 12.805v.48z" fill="#e5f4f6"/><path d="M43.926 20.955l.413-.26v-7.888l-.413.26zm-4.039 2.537l.412-.266v-7.888l-.412.26zm-4.04 2.553l.413-.26v-7.888l-.413.26zm-4.039 2.51l.413-.266v-7.888l-.413.26zm-4.04 2.56l.413-.266V22.96l-.413.26z" fill="#afbdbf"/><g clip-path="url(#t)" opacity=".5" transform="matrix(.35278 0 0 -.35278 -261.014 296.14)"><path d="M763.35 793.58l6.97-25.355 9.733-6.119-5.228 24.258z" fill="#e5f4f6"/></g><g clip-path="url(#u)" opacity=".5" transform="matrix(.35278 0 0 -.35278 -261.014 296.14)"><path d="M780.654 782.698l7.055-25.406 2.183-1.375-6.705 25.187z" fill="#e5f4f6"/></g><path d="M23.972 25.613L3.606 12.807 23.972 0 44.34 12.807z" fill="#e5f4f6"/><g clip-path="url(#v)" opacity=".2" transform="matrix(.35278 0 0 -.35278 -261.014 296.14)"><path d="M852.47 793.61l-6.97-25.354-9.732-6.119 5.228 24.258z" fill="#e5f4f6"/></g><g clip-path="url(#w)" opacity=".2" transform="matrix(.35278 0 0 -.35278 -261.014 296.14)"><path d="M829.582 779.278l-7.055-25.406-2.183-1.373 6.705 25.187z" fill="#e5f4f6"/></g><path d="M23.73 23.641L6.5 12.806 23.73 1.972l17.23 10.834z" fill="#899c9e"/><path d="M24.552 19.83l-11.903-7.563 9.772-6.145 11.902 7.563z" fill="#7f1f26"/><path d="M24.552 19.491L12.65 11.928l9.771-6.144 11.902 7.562z" fill="#f5f6dc"/><path d="M18.506 13.996l-1.724-1.166 7.1-4.464 1.725 1.165zm4.303 2.913l-1.726-1.166 7.101-4.464 1.725 1.165z" fill="#fbd222"/><path d="M25.74 15.084l-6.026-4.122L21.44 9.89l6.027 4.12z" fill="#fbd222"/><path d="M23.73 1.972v.844L7.195 13.244l-.696-.438z" fill="#175056"/><path d="M23.73 1.972l17.23 10.834-.697.438L23.73 2.816z" fill="#20899a"/><path d="M4.71 72.366l.127-9.77 14.137 8.859v9.712z" fill="#e5f4f6"/><path d="M5.38 68.531v-4.694l12.925 8.127v4.695z" fill="#27abd8"/><path d="M12.01 75.335h-.505v-8.066h.505z" fill="#e5f4f6"/><path d="M60.252 76.844l-32.484-20.28 20.514-12.899 32.483 20.28z" fill="#d4e9ef"/><path d="M27.768 82.089V56.564l32.484 20.28v25.523z" fill="#bed4e8"/><path d="M80.765 63.945v25.524l-20.513 12.898V76.844z" fill="#869aa8"/><path d="M59.803 74.627L31.288 56.85l17.443-10.968L77.245 63.66z" fill="#899c9e"/><path d="M55.217 69.73l-3.386-2.13 3.467-2.274 3.389 2.13z" fill="#d4e9ef"/><path d="M51.83 68.92V67.6l3.387 2.13v1.32z" fill="#bed4e8"/><path d="M58.687 67.456v1.32l-3.47 2.274v-1.32z" fill="#6d7f87"/><path d="M57.37 67.527c0 .643-.946 1.164-2.112 1.164-1.167 0-2.112-.521-2.112-1.164 0-.642.945-1.163 2.112-1.163 1.166 0 2.112.521 2.112 1.163" fill="#899c9e"/><path d="M56.399 67.527c0 .347-.511.628-1.14.628-.631 0-1.141-.281-1.141-.628 0-.346.51-.627 1.14-.627.63 0 1.141.281 1.141.627" fill="#d4e9ef"/><path d="M55.258 66.667c-.863 0-1.563.386-1.563.86 0 .476.7.86 1.563.86s1.563-.384 1.563-.86c0-.474-.7-.86-1.563-.86m1.815.86c0 .552-.812 1-1.815 1s-1.815-.448-1.815-1c0-.551.812-.999 1.815-.999s1.815.448 1.815 1m2.712 5.064l-3.386-2.13 3.468-2.274 3.388 2.13z" fill="#d4e9ef"/><path d="M56.399 71.781v-1.32l3.387 2.13v1.32z" fill="#bed4e8"/><path d="M63.255 70.318v1.32l-3.47 2.274v-1.32z" fill="#6d7f87"/><path d="M61.939 70.39c0 .642-.946 1.163-2.113 1.163-1.166 0-2.112-.521-2.112-1.163s.946-1.163 2.112-1.163c1.167 0 2.113.52 2.113 1.163" fill="#899c9e"/><path d="M60.967 70.39c0 .346-.511.627-1.14.627-.63 0-1.141-.28-1.141-.627s.51-.628 1.14-.628c.63 0 1.141.281 1.141.628" fill="#d4e9ef"/><path d="M59.826 69.53c-.862 0-1.563.384-1.563.86 0 .475.7.86 1.563.86s1.563-.385 1.563-.86c0-.476-.7-.86-1.563-.86m1.816.86c0 .552-.813.999-1.816.999-1.002 0-1.815-.447-1.815-1 0-.551.813-.999 1.815-.999 1.003 0 1.816.448 1.816 1" fill="#d4e9ef"/><path d="M48.73 45.882v1.026l27.508 17.385 1.007-.634z" fill="#20899a"/><path d="M48.73 46.908L32.264 57.457l-.975-.607 17.443-10.968z" fill="#175056"/><path d="M48.318 51.746l5.05-3.177-5.171-3.391-5.053 3.177z" fill="#eaeaeb"/><path d="M53.369 52.479v-3.91l-5.05 3.177v3.91z" fill="#869aa8"/><path d="M43.144 48.355v3.91l5.174 3.391v-3.91z" fill="#bed4e8"/><path d="M50.843 54.068v-2.521l-1.418.922v2.52z" fill="#0d343d"/><path d="M27.768 82.089l32.484 20.278v-.55l-32.484-20.35z" fill="#e5f4f6"/><path d="M60.252 102.367L80.765 89.47v-.488l-20.513 12.836z" fill="#a8b9bb"/><path d="M29.868 64.822V60.71l3.607 2.275v4.111z" fill="#869aa8"/><path d="M29.868 64.822l.456-.254v-3.57l-.456-.288z" fill="#175056"/><path d="M30.324 64.568l3.151 1.996v.532l-3.607-2.274z" fill="#20899a"/><path d="M30.471 64.53v-3.211l2.816 1.776v3.21z" fill="#27abd8"/><path d="M35.775 68.383v-4.112l3.607 2.275v4.112z" fill="#869aa8"/><path d="M35.775 68.383l.456-.253v-3.57l-.456-.289z" fill="#175056"/><path d="M36.231 68.13l3.151 1.996v.532l-3.607-2.275z" fill="#20899a"/><path d="M36.378 68.09v-3.21l2.816 1.777v3.21z" fill="#27abd8"/><path d="M41.725 72.241V68.13l3.607 2.274v4.112z" fill="#869aa8"/><path d="M41.725 72.241l.456-.254v-3.57l-.456-.287z" fill="#175056"/><path d="M42.181 71.988l3.151 1.996v.532l-3.607-2.275z" fill="#20899a"/><path d="M42.328 71.949v-3.211l2.816 1.777v3.21z" fill="#27abd8"/><path d="M47.654 75.902V71.79l3.608 2.274v4.111z" fill="#869aa8"/><path d="M47.654 75.902l.456-.254v-3.57l-.456-.287z" fill="#175056"/><path d="M48.11 75.648l3.152 1.996v.532l-3.608-2.274z" fill="#20899a"/><path d="M48.257 75.61v-3.211l2.816 1.776v3.21z" fill="#27abd8"/><path d="M53.583 79.565v-4.11l3.607 2.273v4.112z" fill="#869aa8"/><path d="M53.583 79.565l.455-.253v-3.57l-.455-.288z" fill="#175056"/><path d="M54.038 79.312l3.152 1.996v.532l-3.607-2.275z" fill="#20899a"/><path d="M54.185 79.273v-3.21l2.817 1.777v3.21z" fill="#27abd8"/><path d="M29.868 71.826v-4.111l3.607 2.275v4.111z" fill="#869aa8"/><path d="M29.868 71.826l.456-.253v-3.57l-.456-.288z" fill="#175056"/><path d="M30.324 71.573l3.151 1.996v.532l-3.607-2.275z" fill="#20899a"/><path d="M30.47 71.534v-3.21l2.817 1.776v3.21z" fill="#27abd8"/><path d="M35.775 75.388v-4.111l3.607 2.275v4.11z" fill="#869aa8"/><path d="M35.775 75.388l.456-.254v-3.57l-.456-.287z" fill="#175056"/><path d="M36.231 75.134l3.151 1.997v.532l-3.607-2.275z" fill="#20899a"/><path d="M36.378 75.096v-3.21l2.816 1.776v3.21z" fill="#27abd8"/><path d="M41.725 79.246v-4.112l3.607 2.275v4.112z" fill="#869aa8"/><path d="M41.725 79.246l.456-.253v-3.57l-.456-.289z" fill="#175056"/><path d="M42.181 78.993l3.151 1.996v.532l-3.607-2.275z" fill="#20899a"/><path d="M42.328 78.954v-3.21l2.816 1.776v3.21z" fill="#27abd8"/><path d="M47.654 82.906v-4.11l3.608 2.274v4.111z" fill="#869aa8"/><path d="M47.654 82.906l.456-.253v-3.57l-.456-.288z" fill="#175056"/><path d="M48.11 82.653l3.152 1.997v.532l-3.608-2.276z" fill="#20899a"/><path d="M48.257 82.614v-3.21l2.816 1.777v3.21z" fill="#27abd8"/><path d="M53.583 86.57v-4.111l3.607 2.275v4.111z" fill="#869aa8"/><path d="M53.583 86.57l.455-.254v-3.57l-.455-.287z" fill="#175056"/><path d="M54.038 86.316l3.152 1.997v.532l-3.607-2.275z" fill="#20899a"/><path d="M54.185 86.278v-3.21l2.817 1.776v3.21z" fill="#27abd8"/><path d="M29.868 78.832V74.72l3.607 2.275v4.11z" fill="#869aa8"/><path d="M29.868 78.832l.456-.254v-3.57l-.456-.288z" fill="#175056"/><path d="M30.324 78.578l3.151 1.997v.531l-3.607-2.274z" fill="#20899a"/><path d="M30.471 78.54v-3.212l2.816 1.778v3.21z" fill="#27abd8"/><path d="M35.775 82.393v-4.112l3.607 2.275v4.111z" fill="#869aa8"/><path d="M35.775 82.393l.456-.254v-3.57l-.456-.288z" fill="#175056"/><path d="M36.231 82.14l3.151 1.996v.532l-3.607-2.275z" fill="#20899a"/><path d="M36.378 82.101V78.89l2.817 1.777v3.21z" fill="#27abd8"/><path d="M41.725 86.25v-4.11l3.607 2.274v4.111z" fill="#869aa8"/><path d="M41.725 86.25l.456-.253v-3.57l-.456-.287z" fill="#175056"/><path d="M42.181 85.997l3.151 1.996v.532l-3.607-2.274z" fill="#20899a"/><path d="M42.328 85.959v-3.21l2.816 1.776v3.21z" fill="#27abd8"/><path d="M47.654 89.912V85.8l3.607 2.275v4.111z" fill="#869aa8"/><path d="M47.654 89.912l.456-.254v-3.57l-.456-.288z" fill="#175056"/><path d="M48.11 89.658l3.151 1.996v.532l-3.607-2.274z" fill="#20899a"/><path d="M48.257 89.62v-3.211l2.816 1.777v3.21z" fill="#27abd8"/><path d="M53.582 93.575v-4.111l3.607 2.274v4.112z" fill="#869aa8"/><path d="M53.582 93.575l.456-.253v-3.57l-.456-.288z" fill="#175056"/><path d="M54.038 93.322l3.151 1.996v.532l-3.607-2.275z" fill="#20899a"/><path d="M54.185 93.283v-3.21l2.816 1.776v3.21z" fill="#27abd8"/><path d="M78.719 72.852V68.74l-3.608 2.275v4.11z" fill="#778794"/><path d="M78.719 72.852l-.456-.254v-3.57l.456-.288z" fill="#0e3d42"/><path d="M78.263 72.598l-3.152 1.996v.532l3.608-2.274z" fill="#217985"/><path d="M78.116 72.56v-3.212L75.3 71.125v3.21z" fill="#219bc5"/><path d="M72.79 76.512V72.4l-3.607 2.275v4.112z" fill="#778794"/><path d="M72.79 76.512l-.456-.254v-3.57l.456-.288z" fill="#0e3d42"/><path d="M72.334 76.258l-3.151 1.997v.532l3.607-2.275z" fill="#217985"/><path d="M72.187 76.22v-3.21l-2.816 1.776v3.21z" fill="#219bc5"/><path d="M66.862 80.176v-4.111l-3.607 2.274v4.111z" fill="#778794"/><path d="M66.862 80.176l-.456-.254v-3.57l.456-.287z" fill="#0e3d42"/><path d="M66.406 79.922l-3.151 1.996v.532l3.607-2.274z" fill="#217985"/><path d="M66.259 79.883v-3.21l-2.816 1.776v3.21z" fill="#219bc5"/><path d="M78.719 79.856v-4.111l-3.608 2.274v4.112z" fill="#778794"/><path d="M78.719 79.856l-.456-.254v-3.57l.456-.287z" fill="#0e3d42"/><path d="M78.263 79.603l-3.152 1.996v.532l3.608-2.275z" fill="#217985"/><path d="M78.116 79.564v-3.21L75.3 78.13v3.21z" fill="#219bc5"/><path d="M72.79 83.517v-4.111l-3.607 2.274v4.111z" fill="#778794"/><path d="M72.79 83.517l-.456-.254v-3.57l.456-.287z" fill="#0e3d42"/><path d="M72.334 83.263l-3.151 1.996v.532l3.607-2.274z" fill="#217985"/><path d="M72.187 83.225v-3.21l-2.816 1.776v3.21z" fill="#219bc5"/><path d="M66.862 87.18v-4.11l-3.607 2.273v4.112z" fill="#778794"/><path d="M66.862 87.18l-.456-.253v-3.57l.456-.288z" fill="#0e3d42"/><path d="M66.406 86.927l-3.151 1.997v.532l3.607-2.276z" fill="#217985"/><path d="M66.259 86.888v-3.21l-2.816 1.777v3.21z" fill="#219bc5"/><path d="M78.719 86.861v-4.11l-3.607 2.273v4.112z" fill="#778794"/><path d="M78.719 86.861l-.456-.253v-3.57l.456-.288z" fill="#0e3d42"/><path d="M78.263 86.608l-3.151 1.996v.532l3.607-2.275z" fill="#217985"/><path d="M78.116 86.569v-3.21L75.3 85.135v3.209z" fill="#219bc5"/><path d="M72.79 90.522v-4.111l-3.607 2.274v4.112z" fill="#778794"/><path d="M72.79 90.522l-.456-.254v-3.57l.456-.287z" fill="#0e3d42"/><path d="M72.334 90.269l-3.151 1.996v.532l3.607-2.275z" fill="#217985"/><path d="M72.187 90.23v-3.211l-2.816 1.777v3.21z" fill="#219bc5"/><path d="M66.862 94.186v-4.112l-3.607 2.275v4.112z" fill="#778794"/><path d="M66.862 94.186l-.456-.254v-3.57l.456-.288z" fill="#0e3d42"/><path d="M66.406 93.932l-3.151 1.996v.533l3.607-2.275z" fill="#217985"/><path d="M66.26 93.893v-3.21l-2.817 1.777v3.21z" fill="#219bc5"/></svg>