<svg xmlns="http://www.w3.org/2000/svg" width="131.628" height="233.193" viewBox="0 0 34.826 61.699"><path d="M17.414 14.805L5.642 7.403 17.414 0l11.772 7.403zM0 50.75V16.117l17.413 10.949v34.633z" fill="#86836b"/><path d="M0 16.117l5.642-8.714 11.771 7.402v12.26z" fill="#4c3320"/><path d="M29.186 7.403l5.64 8.714-17.412 10.949V14.805z" fill="#151310"/><path d="M34.826 16.117V50.75L17.414 61.7V27.066z" fill="#413b2e"/><path d="M26.843 7.403l-9.429-5.93-9.429 5.93 9.43 5.929zm-9.429 7.402L5.642 7.403 17.414 0l11.772 7.403zM0 50.75v-1.372l17.413 10.95v1.37z" fill="#bbb17d"/><path d="M34.826 50.75v-1.372l-17.412 10.95v1.37z" fill="#867b53"/><path d="M29.038 53.866h.816v-6.798h-.816z" fill="#413b2e"/><path d="M29.038 53.866l-2.429 1.604v.414l3.245-2.018z" fill="#86836b"/><path d="M26.61 55.47v-9.598l2.428 1.197v6.797z" fill="#795c3e"/><path d="M4.136 15.4l3.133-1.595-.658-1.26-1.19.921z" fill="#151310"/><path d="M3.712 15.133l1.868-2.118 1.55 4.32-.649-.46-1.06-2.902L4.136 15.4z" fill="#bbb17d"/><path d="M5.58 13.015l2.653-2.101.633 5.275-1.737 1.147zm4.172 5.88l3.133-1.595-.658-1.26-1.19.922z" fill="#151310"/><path d="M9.33 18.628l1.867-2.118 1.549 4.32-.649-.46-1.06-2.901-1.285 1.426z" fill="#bbb17d"/><path d="M11.197 16.51l2.653-2.101.632 5.275-1.736 1.147zm20.118-.62l-3.131-1.594.657-1.26 1.19.922z" fill="#151310"/><path d="M31.739 15.624l-1.867-2.118-1.55 4.321.65-.461 1.059-2.901 1.284 1.426z" fill="#867b53"/><path d="M29.872 13.506l-2.653-2.102-.633 5.276 1.737 1.147z" fill="#4c3320"/><path d="M25.699 19.386l-3.132-1.595.658-1.26 1.19.922z" fill="#151310"/><path d="M26.123 19.119l-1.868-2.117-1.549 4.32.649-.461 1.06-2.9 1.284 1.425z" fill="#867b53"/><path d="M24.256 17.002L21.603 14.9l-.633 5.275 1.736 1.147z" fill="#4c3320"/><path d="M17.414 1.474v1.048L8.79 7.908l-.804-.505z" fill="#413b2e"/><path d="M17.414 2.522l8.624 5.386.805-.505-9.429-5.93z" fill="#766d57"/><path d="M28.472 53.456v-2.037l-1.296.822v2.03zm-1.502 1.268v-2.676l1.708-1.083v2.685zm1.431-4.667V48.02l-1.296.822v2.03zm-1.502 1.27V48.65l1.708-1.084v2.686z" fill="#a47c56"/><path d="M17.414 27.875L0 16.922v-.81l17.414 10.954zm0 10.018L0 26.939v-.81l17.414 10.954zm0 11.051L0 37.989v-.81l17.414 10.954z" fill="#bbb17d"/><path d="M17.414 27.884l17.412-10.955v-.81L17.414 27.075zm0 10.017l17.412-10.955v-.809L17.414 37.091zm0 11.05l17.412-10.955v-.81L17.414 48.142z" fill="#867b53"/><path d="M.849 19.522v5.383l2.928 1.842v-5.515z" fill="#cfced2"/><path d="M1.04 19.992v4.682l2.546 1.603V21.48zm2.737 1.24v5.515L.849 24.905v-5.383z" fill="#795c3e"/><path d="M2.417 25.577H2.21v-5.05h.208z" fill="#795c3e"/><path d="M5.022 22.13v5.383l2.927 1.842V23.84z" fill="#cfced2"/><path d="M5.212 22.6v4.682l2.547 1.603v-4.797zm2.737 1.24v5.515l-2.927-1.842V22.13z" fill="#795c3e"/><path d="M6.59 28.184h-.21v-5.05h.209z" fill="#795c3e"/><path d="M9.193 24.738v5.383l2.928 1.842v-5.515z" fill="#cfced2"/><path d="M9.384 25.208v4.683l2.546 1.602v-4.798zm2.737 1.24v5.515l-2.928-1.842v-5.383z" fill="#795c3e"/><path d="M10.761 30.792h-.209v-5.05h.21z" fill="#795c3e"/><path d="M13.366 27.345v5.384l2.927 1.842v-5.515z" fill="#cfced2"/><path d="M13.556 27.816v4.682l2.546 1.602v-4.796zm2.737 1.24v5.515l-2.927-1.842v-5.384z" fill="#795c3e"/><path d="M14.934 33.4h-.21v-5.05h.21z" fill="#795c3e"/><path d="M.849 30.215v5.383l2.928 1.842v-5.515z" fill="#cfced2"/><path d="M1.04 30.684v4.683l2.546 1.603v-4.798zm2.737 1.24v5.516L.849 35.598v-5.383z" fill="#795c3e"/><path d="M2.417 36.269H2.21v-5.05h.208z" fill="#795c3e"/><path d="M5.022 32.823v5.383l2.927 1.841v-5.514z" fill="#cfced2"/><path d="M5.212 33.293v4.682l2.547 1.602v-4.796zm2.737 1.24v5.514l-2.927-1.841v-5.383z" fill="#795c3e"/><path d="M6.59 38.877h-.21v-5.05h.209z" fill="#795c3e"/><path d="M9.193 35.43v5.384l2.928 1.842v-5.515z" fill="#cfced2"/><path d="M9.384 35.901v4.682l2.546 1.602v-4.797zm2.737 1.24v5.515l-2.928-1.842V35.43z" fill="#795c3e"/><path d="M10.761 41.485h-.209v-5.05h.21z" fill="#795c3e"/><path d="M13.366 38.038v5.384l2.927 1.842v-5.515z" fill="#cfced2"/><path d="M13.556 38.509v4.682l2.546 1.602v-4.796zm2.737 1.24v5.515l-2.927-1.842v-5.384z" fill="#795c3e"/><path d="M14.934 44.093h-.21v-5.05h.21z" fill="#795c3e"/><path d="M33.88 19.522v5.383l-2.928 1.842v-5.515z" fill="#acacb7"/><path d="M31.143 21.48v4.797l2.547-1.602v-4.683zm2.738-1.958v5.383l-2.929 1.843v-5.516z" fill="#513e2a"/><path d="M32.312 25.577h.208v-5.05h-.208z" fill="#513e2a"/><path d="M29.708 22.13v5.383l-2.928 1.842V23.84z" fill="#acacb7"/><path d="M26.971 24.088v4.797l2.547-1.603V22.6zm2.738-1.958v5.383l-2.929 1.842V23.84z" fill="#513e2a"/><path d="M28.14 28.184h.208v-5.05h-.208z" fill="#513e2a"/><path d="M25.536 24.738v5.383l-2.927 1.842v-5.515z" fill="#acacb7"/><path d="M22.799 26.695v4.798l2.547-1.602v-4.683zm2.737-1.957v5.383l-2.927 1.842v-5.515z" fill="#513e2a"/><path d="M23.968 30.792h.208v-5.05h-.208z" fill="#513e2a"/><path d="M21.364 27.345v5.384l-2.927 1.842v-5.515z" fill="#acacb7"/><path d="M18.627 29.304V34.1l2.547-1.603v-4.682zm2.737-1.959v5.384l-2.927 1.842v-5.515z" fill="#513e2a"/><path d="M19.796 33.4h.208v-5.05h-.208z" fill="#513e2a"/><path d="M33.88 30.215v5.383l-2.928 1.842v-5.515z" fill="#acacb7"/><path d="M31.143 32.172v4.798l2.547-1.603v-4.683zm2.738-1.957v5.383l-2.929 1.842v-5.515z" fill="#513e2a"/><path d="M32.312 36.269h.208v-5.05h-.208z" fill="#513e2a"/><path d="M29.708 32.823v5.383l-2.928 1.841v-5.514z" fill="#acacb7"/><path d="M26.971 34.78v4.798l2.547-1.603v-4.682zm2.738-1.958v5.384l-2.929 1.842v-5.515z" fill="#513e2a"/><path d="M28.14 38.877h.208v-5.05h-.208z" fill="#513e2a"/><path d="M25.536 35.43v5.384l-2.927 1.842v-5.515z" fill="#acacb7"/><path d="M22.799 37.388v4.798l2.547-1.602V35.9zm2.737-1.958v5.384l-2.927 1.842v-5.515z" fill="#513e2a"/><path d="M23.968 41.485h.208v-5.05h-.208z" fill="#513e2a"/><path d="M21.364 38.038v5.384l-2.927 1.842v-5.515z" fill="#acacb7"/><path d="M18.627 39.997v4.797l2.547-1.603v-4.682zm2.737-1.959v5.384l-2.927 1.842V39.75z" fill="#513e2a"/><path d="M19.796 44.093h.208v-5.05h-.208z" fill="#513e2a"/><path d="M31.002 48.11l-4.788-2.44 1.005-1.924 1.82 1.407z" fill="#151310"/><path d="M31.65 47.7l-2.856-3.237-2.367 6.605.99-.704 1.621-4.435 1.964 2.18z" fill="#867b53"/><path d="M28.794 44.464l-2.237-1.395-2.785 6.246 2.655 1.753z" fill="#151310"/><path d="M15.373 4.32V2.266l.587.37V4.69z" fill="#69604a"/><path d="M16.546 2.265v2.056l-.586.37V2.634z" fill="#413b2e"/><path d="M15.088 2.301v-.415l.872.548v.415z" fill="#69604a"/><path d="M16.831 1.886v.415l-.871.548v-.415z" fill="#413b2e"/><path d="M15.088 1.886l.872.548.871-.548-.871-.562z" fill="#bbb17d"/><path d="M15.359 1.891l.6.378.601-.378-.6-.388z" fill="#151310"/><path d="M14.39 4.96V2.904l.588.37v2.055z" fill="#69604a"/><path d="M15.565 2.904V4.96l-.587.369V3.274z" fill="#413b2e"/><path d="M14.106 2.94v-.415l.872.548v.415z" fill="#69604a"/><path d="M15.85 2.525v.415l-.872.548v-.415z" fill="#413b2e"/><path d="M14.106 2.525l.872.548.871-.548-.871-.562z" fill="#bbb17d"/><path d="M14.377 2.53l.6.378.602-.378-.601-.388z" fill="#151310"/><path d="M13.475 5.6V3.722l.537.336v1.88z" fill="#69604a"/><path d="M14.548 3.721v1.88l-.536.337v-1.88z" fill="#413b2e"/><path d="M13.215 3.754v-.38l.797.502v.379z" fill="#69604a"/><path d="M14.808 3.374v.38l-.796.5v-.378z" fill="#413b2e"/><path d="M13.215 3.374l.797.502.797-.502-.797-.514z" fill="#bbb17d"/><path d="M13.462 3.379l.55.345.549-.345-.549-.355z" fill="#151310"/><path d="M14.604 58.717l-1.298-.812v-.65l1.298.812zm-1.096-1.895l-1.299-.812v-.65l1.3.812zm3.906 1.164l-1.299-.812v-.65l1.299.811zM2.962 40.418l-1.298-.812v-.65l1.298.811zm-1.146 8.876l-1.299-.812v-.65l1.299.812zm3.024 3.217L3.542 51.7v-.65l1.298.812zm8.02-4.684l-1.3-.812v-.65l1.3.812zm-4.262-13.93L7.3 33.084v-.65l1.298.812zM7.913 42.3l-1.298-.812v-.651l1.298.812zm8.105-4.776l-1.298-.812v-.65l1.298.812zM4.361 28.393l-1.298-.813v-.65l1.298.812zm5.357-4.863l-1.298-.812v-.65l1.298.812zm1.483 1.735l-1.298-.812v-.65l1.298.811z" fill="#bbb17d"/><path d="M19.643 36.92l1.298-.812v-.65l-1.298.812zm12.649 4.508l1.298-.811v-.65l-1.298.812zM20.94 58.285l1.298-.813v-.65l-1.297.813zm1.776-2.335l1.298-.812v-.65l-1.298.812zm9.051-5.318l1.298-.812v-.651l-1.298.812zM25.05 23.598l1.298-.811v-.651l-1.298.812zm4.955 6.811l1.298-.813v-.65l-1.298.812z" fill="#867b53"/><path d="M.849 40.89v5.384l2.928 1.842v-5.515z" fill="#cfced2"/><path d="M1.04 41.36v4.683l2.546 1.603v-4.798zm2.737 1.24v5.516L.849 46.274v-5.383z" fill="#795c3e"/><path d="M2.417 46.945H2.21v-5.05h.208z" fill="#795c3e"/><path d="M5.022 43.499v5.383l2.927 1.841V45.21z" fill="#cfced2"/><path d="M5.212 43.97v4.68l2.547 1.604v-4.797zm2.737 1.239v5.514l-2.927-1.841v-5.383z" fill="#795c3e"/><path d="M6.59 49.553h-.21v-5.05h.209z" fill="#795c3e"/><path d="M9.193 46.106v5.384l2.928 1.842v-5.515z" fill="#cfced2"/><path d="M9.384 46.577v4.682l2.546 1.602v-4.797zm2.737 1.24v5.515L9.193 51.49v-5.384z" fill="#795c3e"/><path d="M10.761 52.16h-.209v-5.049h.21z" fill="#795c3e"/><path d="M13.366 48.714v5.384l2.927 1.842v-5.515z" fill="#cfced2"/><path d="M13.556 49.185v4.682l2.546 1.602v-4.796zm2.737 1.24v5.515l-2.927-1.842v-5.384z" fill="#795c3e"/><path d="M14.934 54.769h-.21v-5.05h.21z" fill="#795c3e"/></svg>