<svg xmlns="http://www.w3.org/2000/svg" viewBox="0 0 35.544 61.699"><defs><clipPath clipPathUnits="userSpaceOnUse" id="a"><path d="M218.318 1026.79h4.705v-6.27h-4.705z"/></clipPath><clipPath clipPathUnits="userSpaceOnUse" id="b"><path d="M220.816 1025.19h4.706v-6.27h-4.706z"/></clipPath><clipPath clipPathUnits="userSpaceOnUse" id="c"><path d="M223.314 1023.62h4.707v-6.19h-4.707z"/></clipPath><clipPath clipPathUnits="userSpaceOnUse" id="d"><path d="M230.087 1019.21h4.705v-6.26h-4.705z"/></clipPath><clipPath clipPathUnits="userSpaceOnUse" id="e"><path d="M232.585 1017.62h4.707v-6.27h-4.707z"/></clipPath><clipPath clipPathUnits="userSpaceOnUse" id="f"><path d="M235.085 1016.05h4.705v-6.19h-4.705z"/></clipPath><clipPath clipPathUnits="userSpaceOnUse" id="g"><path d="M242.159 1011.7h4.705v-6.26h-4.705z"/></clipPath><clipPath clipPathUnits="userSpaceOnUse" id="h"><path d="M244.657 1010.11h4.705v-6.27h-4.705z"/></clipPath><clipPath clipPathUnits="userSpaceOnUse" id="i"><path d="M247.155 1008.53h4.705v-6.19h-4.705z"/></clipPath><clipPath clipPathUnits="userSpaceOnUse" id="j"><path d="M253.796 1004.42h4.705v-6.267h-4.705z"/></clipPath><clipPath clipPathUnits="userSpaceOnUse" id="k"><path d="M256.294 1002.82h4.705v-6.264h-4.705z"/></clipPath><clipPath clipPathUnits="userSpaceOnUse" id="l"><path d="M258.792 1001.25h4.705v-6.19h-4.705z"/></clipPath><clipPath clipPathUnits="userSpaceOnUse" id="m"><path d="M218.139 997.118h4.705v-6.264h-4.705z"/></clipPath><clipPath clipPathUnits="userSpaceOnUse" id="n"><path d="M220.637 995.524h4.705v-6.269h-4.705z"/></clipPath><clipPath clipPathUnits="userSpaceOnUse" id="o"><path d="M223.135 993.948h4.706v-6.189h-4.706z"/></clipPath><clipPath clipPathUnits="userSpaceOnUse" id="p"><path d="M229.905 989.548h4.707v-6.264h-4.707z"/></clipPath><clipPath clipPathUnits="userSpaceOnUse" id="q"><path d="M232.405 987.954h4.705v-6.269h-4.705z"/></clipPath><clipPath clipPathUnits="userSpaceOnUse" id="r"><path d="M234.903 986.378h4.705v-6.19h-4.705z"/></clipPath><clipPath clipPathUnits="userSpaceOnUse" id="s"><path d="M241.979 982.03h4.704v-6.263h-4.704z"/></clipPath><clipPath clipPathUnits="userSpaceOnUse" id="t"><path d="M244.478 980.437h4.703v-6.268h-4.703z"/></clipPath><clipPath clipPathUnits="userSpaceOnUse" id="u"><path d="M246.974 978.86h4.705v-6.187h-4.705z"/></clipPath><clipPath clipPathUnits="userSpaceOnUse" id="v"><path d="M253.614 974.747h4.705v-6.264h-4.705z"/></clipPath><clipPath clipPathUnits="userSpaceOnUse" id="w"><path d="M256.112 973.155h4.705v-6.269h-4.705z"/></clipPath><clipPath clipPathUnits="userSpaceOnUse" id="x"><path d="M258.61 971.579h4.705v-6.189h-4.705z"/></clipPath><clipPath clipPathUnits="userSpaceOnUse" id="y"><path d="M311.546 1026.51h4.707v-6.27h-4.707z"/></clipPath><clipPath clipPathUnits="userSpaceOnUse" id="z"><path d="M309.048 1024.92h4.705v-6.27h-4.705z"/></clipPath><clipPath clipPathUnits="userSpaceOnUse" id="A"><path d="M306.55 1023.34h4.705v-6.19h-4.705z"/></clipPath><clipPath clipPathUnits="userSpaceOnUse" id="B"><path d="M299.78 1018.94h4.705v-6.27h-4.705z"/></clipPath><clipPath clipPathUnits="userSpaceOnUse" id="C"><path d="M297.282 1017.34h4.705v-6.26h-4.705z"/></clipPath><clipPath clipPathUnits="userSpaceOnUse" id="D"><path d="M294.784 1015.77h4.705v-6.19h-4.705z"/></clipPath><clipPath clipPathUnits="userSpaceOnUse" id="E"><path d="M287.708 1011.42h4.705v-6.26h-4.705z"/></clipPath><clipPath clipPathUnits="userSpaceOnUse" id="F"><path d="M285.21 1009.83h4.705v-6.27h-4.705z"/></clipPath><clipPath clipPathUnits="userSpaceOnUse" id="G"><path d="M282.712 1008.25h4.705v-6.19h-4.705z"/></clipPath><clipPath clipPathUnits="userSpaceOnUse" id="H"><path d="M276.073 1004.14h4.705v-6.264h-4.705z"/></clipPath><clipPath clipPathUnits="userSpaceOnUse" id="I"><path d="M273.575 1002.55h4.705v-6.274h-4.705z"/></clipPath><clipPath clipPathUnits="userSpaceOnUse" id="J"><path d="M271.077 1000.97h4.705v-6.19h-4.705z"/></clipPath><clipPath clipPathUnits="userSpaceOnUse" id="K"><path d="M311.728 996.839h4.705v-6.264h-4.705z"/></clipPath><clipPath clipPathUnits="userSpaceOnUse" id="L"><path d="M309.229 995.247h4.706v-6.269h-4.706z"/></clipPath><clipPath clipPathUnits="userSpaceOnUse" id="M"><path d="M306.731 993.671h4.706v-6.19h-4.706z"/></clipPath><clipPath clipPathUnits="userSpaceOnUse" id="N"><path d="M299.962 989.269h4.705v-6.264h-4.705z"/></clipPath><clipPath clipPathUnits="userSpaceOnUse" id="O"><path d="M297.462 987.677h4.707v-6.27h-4.707z"/></clipPath><clipPath clipPathUnits="userSpaceOnUse" id="P"><path d="M294.964 986.101h4.705v-6.19h-4.705z"/></clipPath><clipPath clipPathUnits="userSpaceOnUse" id="Q"><path d="M287.89 981.753h4.705v-6.266h-4.705z"/></clipPath><clipPath clipPathUnits="userSpaceOnUse" id="R"><path d="M285.392 980.159h4.705v-6.267h-4.705z"/></clipPath><clipPath clipPathUnits="userSpaceOnUse" id="S"><path d="M282.892 978.583h4.707v-6.187h-4.707z"/></clipPath><clipPath clipPathUnits="userSpaceOnUse" id="T"><path d="M276.253 974.47h4.705v-6.264h-4.705z"/></clipPath><clipPath clipPathUnits="userSpaceOnUse" id="U"><path d="M273.755 972.876h4.705v-6.268h-4.705z"/></clipPath><clipPath clipPathUnits="userSpaceOnUse" id="V"><path d="M271.257 971.3h4.705v-6.188h-4.705z"/></clipPath></defs><path d="M17.872 14.805L6.1 7.403 17.872 0l11.772 7.403zM.458 50.75V16.117L17.87 27.066v34.633z" fill="#a38162"/><path d="M.458 16.117L6.1 7.403l11.771 7.402v12.26z" fill="#671b11"/><path d="M29.644 7.403l5.64 8.714-17.412 10.949V14.805z" fill="#2c1312"/><path d="M35.284 16.117V50.75L17.872 61.7V27.066z" fill="#5c4734"/><path d="M27.3 7.403l-9.428-5.93-9.429 5.93 9.43 5.929zm-9.428 7.402L6.1 7.403 17.872 0l11.772 7.403zM.458 50.75v-1.372l17.413 10.95v1.37z" fill="#d6ad85"/><path d="M35.284 50.75v-1.372l-17.412 10.95v1.37z" fill="#a58167"/><path d="M6.916 54.32H6.1v-6.797h.816z" fill="#5c4734"/><path d="M6.916 54.32l2.429 1.604v.414L6.1 54.32z" fill="#a38162"/><path d="M9.345 55.924v-9.598l-2.429 1.197v6.797z" fill="#914938"/><path d="M4.594 15.4l3.133-1.595-.658-1.26-1.19.921z" fill="#2c1312"/><path d="M4.17 15.133l1.868-2.118 1.55 4.32-.649-.46-1.06-2.902L4.594 15.4z" fill="#992921"/><path d="M6.038 13.015l2.653-2.101.633 5.275-1.737 1.147zm4.172 5.88l3.133-1.595-.658-1.26-1.19.922z" fill="#2c1312"/><path d="M9.787 18.628l1.868-2.118 1.549 4.32-.649-.46-1.06-2.901-1.285 1.426z" fill="#992921"/><path d="M11.655 16.51l2.653-2.101.632 5.275-1.736 1.147zm20.118-.62l-3.131-1.594.657-1.26 1.19.922z" fill="#2c1312"/><path d="M32.197 15.624l-1.867-2.118-1.55 4.321.649-.461 1.06-2.901 1.284 1.426z" fill="#992921"/><path d="M30.33 13.506l-2.653-2.102-.633 5.276 1.737 1.147z" fill="#671b11"/><path d="M26.157 19.386l-3.132-1.595.658-1.26 1.19.922z" fill="#2c1312"/><path d="M26.581 19.119l-1.868-2.117-1.549 4.32.649-.461 1.06-2.9 1.284 1.425z" fill="#992921"/><path d="M24.713 17.002L22.061 14.9l-.633 5.275 1.736 1.147z" fill="#671b11"/><path d="M17.872 1.474v1.048L9.247 7.908l-.804-.505z" fill="#5c4734"/><path d="M17.872 2.522l8.624 5.386.805-.505-9.429-5.93z" fill="#907258"/><path d="M8.779 54.724v-2.029l-1.297-.822v2.037zm-1.503-.62V51.42l1.709 1.083v2.676zm1.573-2.778v-2.03l-1.296-.822v2.037zm-1.502-.62V48.02l1.708 1.084v2.676z" fill="#c1604d"/><path d="M17.872 27.875L.458 16.922v-.81l17.414 10.954zm0 10.018L.458 26.939v-.81l17.414 10.954zm0 11.051L.458 37.989v-.81l17.414 10.954z" fill="#d6ad85"/><path d="M17.872 27.884l17.412-10.955v-.81L17.872 27.075zm0 10.017l17.412-10.955v-.809L17.872 37.091zm0 11.05l17.412-10.955v-.81L17.872 48.142z" fill="#a58167"/><path d="M1.306 19.522v5.383l2.929 1.842v-5.515z" fill="#c8e8fa"/><path d="M1.497 19.992v4.682l2.547 1.603V21.48zm2.738 1.24v5.515l-2.929-1.842v-5.383z" fill="#914938"/><path d="M2.875 25.576h-.208v-5.05h.208z" fill="#914938"/><path d="M5.48 22.13v5.383l2.927 1.842V23.84z" fill="#c8e8fa"/><path d="M5.67 22.6v4.682l2.547 1.603v-4.797zm2.737 1.24v5.515L5.48 27.513V22.13z" fill="#914938"/><path d="M7.048 28.184h-.209v-5.05h.209z" fill="#914938"/><path d="M9.65 24.738v5.383l2.929 1.842v-5.515z" fill="#c8e8fa"/><path d="M9.842 25.208v4.683l2.546 1.602v-4.798zm2.737 1.24v5.515L9.65 30.121v-5.383z" fill="#914938"/><path d="M11.22 30.792h-.21v-5.05h.21z" fill="#914938"/><path d="M13.824 27.345v5.384l2.927 1.842v-5.515z" fill="#c8e8fa"/><path d="M14.014 27.816v4.682L16.56 34.1v-4.796zm2.737 1.24v5.515l-2.927-1.842v-5.384z" fill="#914938"/><path d="M15.392 33.4h-.21v-5.05h.21z" fill="#914938"/><path d="M1.306 30.215v5.383l2.929 1.842v-5.515z" fill="#c8e8fa"/><path d="M1.497 30.685v4.682l2.547 1.603v-4.798zm2.738 1.24v5.515l-2.929-1.842v-5.383z" fill="#914938"/><path d="M2.875 36.269h-.208v-5.05h.208z" fill="#914938"/><path d="M5.48 32.823v5.383l2.927 1.841v-5.514z" fill="#c8e8fa"/><path d="M5.67 33.293v4.682l2.547 1.603V34.78zm2.737 1.24v5.514L5.48 38.206v-5.383z" fill="#914938"/><path d="M7.048 38.877h-.209v-5.05h.209z" fill="#914938"/><path d="M9.65 35.43v5.384l2.929 1.842v-5.515z" fill="#c8e8fa"/><path d="M9.842 35.901v4.682l2.546 1.602v-4.797zm2.737 1.24v5.515L9.65 40.814V35.43z" fill="#914938"/><path d="M11.22 41.485h-.21v-5.05h.21z" fill="#914938"/><path d="M13.824 38.038v5.384l2.927 1.842v-5.515z" fill="#c8e8fa"/><path d="M14.014 38.509v4.682l2.546 1.602v-4.796zm2.737 1.24v5.515l-2.927-1.842v-5.384z" fill="#914938"/><path d="M15.392 44.093h-.21v-5.05h.21z" fill="#914938"/><path d="M34.338 19.522v5.383l-2.928 1.842v-5.515z" fill="#aac5d2"/><path d="M31.601 21.48v4.797l2.547-1.602v-4.683zm2.738-1.958v5.383l-2.929 1.843v-5.516z" fill="#6d362b"/><path d="M32.77 25.576h.208v-5.05h-.208z" fill="#6d362b"/><path d="M30.166 22.13v5.383l-2.928 1.842V23.84z" fill="#aac5d2"/><path d="M27.429 24.088v4.797l2.547-1.603V22.6zm2.737-1.958v5.383l-2.928 1.842V23.84z" fill="#6d362b"/><path d="M28.598 28.184h.208v-5.05h-.208z" fill="#6d362b"/><path d="M25.994 24.738v5.383l-2.927 1.842v-5.515z" fill="#aac5d2"/><path d="M23.257 26.695v4.798l2.547-1.602v-4.683zm2.737-1.957v5.383l-2.927 1.842v-5.515z" fill="#6d362b"/><path d="M24.426 30.792h.208v-5.05h-.208z" fill="#6d362b"/><path d="M21.822 27.345v5.384l-2.927 1.842v-5.515z" fill="#aac5d2"/><path d="M19.085 29.304V34.1l2.547-1.603v-4.682zm2.737-1.959v5.384l-2.927 1.842v-5.515z" fill="#6d362b"/><path d="M20.254 33.4h.208v-5.05h-.208z" fill="#6d362b"/><path d="M34.338 30.215v5.383L31.41 37.44v-5.515z" fill="#aac5d2"/><path d="M31.601 32.172v4.798l2.547-1.603v-4.683zm2.738-1.957v5.383L31.41 37.44v-5.515z" fill="#6d362b"/><path d="M32.77 36.269h.208v-5.05h-.208z" fill="#6d362b"/><path d="M30.166 32.823v5.383l-2.928 1.841v-5.514z" fill="#aac5d2"/><path d="M27.429 34.78v4.798l2.547-1.603v-4.682zm2.737-1.958v5.384l-2.928 1.842v-5.515z" fill="#6d362b"/><path d="M28.598 38.877h.208v-5.05h-.208z" fill="#6d362b"/><path d="M25.994 35.43v5.384l-2.927 1.842v-5.515z" fill="#aac5d2"/><path d="M23.257 37.388v4.798l2.547-1.602V35.9zm2.737-1.958v5.384l-2.927 1.842v-5.515z" fill="#6d362b"/><path d="M24.426 41.485h.208v-5.05h-.208z" fill="#6d362b"/><path d="M21.822 38.038v5.384l-2.927 1.842v-5.515z" fill="#aac5d2"/><path d="M19.085 39.997v4.797l2.547-1.603v-4.682zm2.737-1.959v5.384l-2.927 1.842V39.75z" fill="#6d362b"/><path d="M20.254 44.093h.208v-5.05h-.208z" fill="#6d362b"/><path d="M34.338 41.34v5.384l-2.928 1.842v-5.515z" fill="#aac5d2"/><path d="M31.601 43.3v4.796l2.547-1.602v-4.683zm2.738-1.96v5.384l-2.929 1.843V43.05z" fill="#6d362b"/><path d="M32.77 47.395h.208v-5.05h-.208z" fill="#6d362b"/><path d="M30.166 43.949v5.383l-2.928 1.842V45.66z" fill="#aac5d2"/><path d="M27.429 45.907v4.798l2.547-1.603V44.42zm2.737-1.958v5.383l-2.928 1.843v-5.516z" fill="#6d362b"/><path d="M28.598 50.003h.208v-5.049h-.208z" fill="#6d362b"/><path d="M25.994 46.557v5.383l-2.927 1.842v-5.514z" fill="#aac5d2"/><path d="M23.257 48.515v4.797l2.547-1.601v-4.684zm2.737-1.958v5.383l-2.927 1.843v-5.515z" fill="#6d362b"/><path d="M24.426 52.612h.208v-5.05h-.208z" fill="#6d362b"/><path d="M21.822 49.165v5.384l-2.927 1.841v-5.515z" fill="#aac5d2"/><path d="M19.085 51.123v4.798l2.547-1.603v-4.683zm2.737-1.958v5.384l-2.927 1.842v-5.516z" fill="#6d362b"/><path d="M20.254 55.22h.208v-5.05h-.208z" fill="#6d362b"/><path d="M1.333 41.042v5.383l2.928 1.842v-5.515z" fill="#c8e8fa"/><path d="M1.523 41.512v4.682l2.547 1.603v-4.798zm2.738 1.24v5.515l-2.928-1.842v-5.383z" fill="#914938"/><path d="M2.9 47.096h-.208v-5.05H2.9z" fill="#914938"/><path d="M13.849 48.866v5.383l2.928 1.842v-5.515z" fill="#c8e8fa"/><path d="M14.04 49.336v4.683l2.547 1.602v-4.797zm2.737 1.24v5.515l-2.928-1.842v-5.383z" fill="#914938"/><path d="M15.417 54.92h-.209v-5.049h.21z" fill="#914938"/><path d="M4.952 48.563l4.788-2.438L8.735 44.2l-1.819 1.407z" fill="#2c1312"/><path d="M4.304 48.155l2.856-3.238 2.367 6.605-.99-.704-1.621-4.435-1.964 2.18z" fill="#992921"/><path d="M7.16 44.918l2.237-1.395 2.785 6.246-2.655 1.753z" fill="#2c1312"/><path d="M15.83 4.32V2.266l.588.37V4.69z" fill="#82654a"/><path d="M17.004 2.265v2.056l-.586.37V2.634z" fill="#5c4734"/><path d="M15.546 2.301v-.415l.872.548v.415z" fill="#82654a"/><path d="M17.29 1.886v.415l-.872.548v-.415z" fill="#5c4734"/><path d="M15.546 1.886l.872.548.871-.548-.871-.562z" fill="#d6ad85"/><path d="M15.817 1.891l.6.378.601-.378-.6-.388z" fill="#2c1312"/><path d="M14.849 4.96V2.904l.587.37v2.055z" fill="#82654a"/><path d="M16.023 2.904V4.96l-.587.369V3.274z" fill="#5c4734"/><path d="M14.564 2.94v-.415l.872.548v.415z" fill="#82654a"/><path d="M16.307 2.525v.415l-.871.548v-.415z" fill="#5c4734"/><path d="M14.564 2.525l.872.548.871-.548-.871-.562z" fill="#d6ad85"/><path d="M14.835 2.53l.6.378.602-.378-.601-.388z" fill="#2c1312"/><path d="M13.933 5.6V3.722l.537.336v1.88z" fill="#82654a"/><path d="M15.006 3.721v1.88l-.536.337v-1.88z" fill="#5c4734"/><path d="M13.673 3.754v-.38l.797.502v.379z" fill="#82654a"/><path d="M15.266 3.374v.38l-.796.5v-.378z" fill="#5c4734"/><path d="M13.673 3.374l.797.502.796-.502-.796-.514z" fill="#d6ad85"/><path d="M13.92 3.379l.55.345.549-.345-.549-.355z" fill="#2c1312"/><path d="M1.23 19.211l3.267 2.056-1.185 1.334-3.248-1.909z" fill="#c1604d"/><path d="M.064 20.692v.404l3.225 1.955.024-.45z" fill="#914938"/><path d="M3.288 23.051l1.21-.695v-1.089l-1.186 1.334z" fill="#7a3d32"/><g clip-path="url(#a)" opacity=".5" transform="matrix(.35278 0 0 -.35278 -76.52 381.695)"><path d="M218.318 1021.398v1.165l3.213 4.223 1.492-.94-3.17-4.186.027-1.139z" fill="#e68880"/></g><g clip-path="url(#b)" opacity=".5" transform="matrix(.35278 0 0 -.35278 -76.52 381.695)"><path d="M220.816 1019.877v1.094l3.213 4.223 1.493-.939-3.17-4.187.026-1.144z" fill="#e68880"/></g><g clip-path="url(#c)" opacity=".5" transform="matrix(.35278 0 0 -.35278 -76.52 381.695)"><path d="M223.315 1018.38v1.015l3.214 4.223 1.492-.94-3.171-4.186.027-1.064z" fill="#e68880"/></g><path d="M5.381 21.882l3.267 2.056-1.184 1.334-3.249-1.909z" fill="#c1604d"/><path d="M4.215 23.363v.405l3.225 1.954.024-.45z" fill="#914938"/><path d="M7.44 25.722l1.208-.695v-1.09l-1.184 1.335z" fill="#7a3d32"/><g clip-path="url(#d)" opacity=".5" transform="matrix(.35278 0 0 -.35278 -76.52 381.695)"><path d="M230.087 1013.828v1.164l3.213 4.223 1.492-.94-3.17-4.185.027-1.139z" fill="#e68880"/></g><g clip-path="url(#e)" opacity=".5" transform="matrix(.35278 0 0 -.35278 -76.52 381.695)"><path d="M232.585 1012.307v1.094l3.213 4.22 1.494-.94-3.172-4.183.027-1.144z" fill="#e68880"/></g><g clip-path="url(#f)" opacity=".5" transform="matrix(.35278 0 0 -.35278 -76.52 381.695)"><path d="M235.085 1010.81v1.015l3.211 4.222 1.494-.94-3.172-4.185.028-1.064z" fill="#e68880"/></g><path d="M9.64 24.534l3.267 2.055-1.185 1.334-3.248-1.908z" fill="#c1604d"/><path d="M8.474 26.015v.404l3.224 1.955.024-.45z" fill="#914938"/><path d="M11.698 28.374l1.21-.697V26.59l-1.186 1.335z" fill="#7a3d32"/><g clip-path="url(#g)" opacity=".5" transform="matrix(.35278 0 0 -.35278 -76.52 381.695)"><path d="M242.16 1006.313v1.163l3.212 4.223 1.492-.94-3.17-4.184.027-1.139z" fill="#e68880"/></g><g clip-path="url(#h)" opacity=".5" transform="matrix(.35278 0 0 -.35278 -76.52 381.695)"><path d="M244.657 1004.79v1.094l3.211 4.221 1.494-.939-3.17-4.185.027-1.144z" fill="#e68880"/></g><g clip-path="url(#i)" opacity=".5" transform="matrix(.35278 0 0 -.35278 -76.52 381.695)"><path d="M247.155 1003.294v1.014l3.211 4.22 1.494-.938-3.17-4.185.027-1.064z" fill="#e68880"/></g><path d="M13.744 27.103l3.268 2.055-1.185 1.334-3.249-1.908z" fill="#c1604d"/><path d="M12.579 28.584v.404l3.224 1.955.024-.45z" fill="#914938"/><path d="M15.803 30.943l1.209-.696v-1.089l-1.185 1.334z" fill="#7a3d32"/><g clip-path="url(#j)" opacity=".5" transform="matrix(.35278 0 0 -.35278 -76.52 381.695)"><path d="M253.796 999.03v1.164l3.21 4.223 1.495-.94-3.17-4.185.027-1.139z" fill="#e68880"/></g><g clip-path="url(#k)" opacity=".5" transform="matrix(.35278 0 0 -.35278 -76.52 381.695)"><path d="M256.294 997.507v1.094l3.21 4.222 1.495-.94-3.17-4.183.027-1.144z" fill="#e68880"/></g><g clip-path="url(#l)" opacity=".5" transform="matrix(.35278 0 0 -.35278 -76.52 381.695)"><path d="M258.792 996.013v1.012l3.213 4.222 1.492-.94-3.17-4.183.027-1.064z" fill="#e68880"/></g><path d="M1.165 29.678l3.268 2.055-1.185 1.335L0 31.158z" fill="#c1604d"/><path d="M0 31.159v.404l3.224 1.955.024-.45z" fill="#914938"/><path d="M3.224 33.518l1.209-.696v-1.089l-1.185 1.335z" fill="#7a3d32"/><g clip-path="url(#m)" opacity=".5" transform="matrix(.35278 0 0 -.35278 -76.52 381.695)"><path d="M218.139 991.731v1.164l3.21 4.223 1.495-.94-3.17-4.185.027-1.139z" fill="#e68880"/></g><g clip-path="url(#n)" opacity=".5" transform="matrix(.35278 0 0 -.35278 -76.52 381.695)"><path d="M220.637 990.208v1.094l3.213 4.222 1.492-.939-3.17-4.186.027-1.144z" fill="#e68880"/></g><g clip-path="url(#o)" opacity=".5" transform="matrix(.35278 0 0 -.35278 -76.52 381.695)"><path d="M223.135 988.712v1.014l3.214 4.222 1.492-.94-3.171-4.185.027-1.064z" fill="#e68880"/></g><path d="M5.317 32.348l3.267 2.056L7.4 35.738 4.15 33.83z" fill="#c1604d"/><path d="M4.151 33.83v.403l3.226 1.955.023-.45z" fill="#914938"/><path d="M7.376 36.188l1.208-.695v-1.09L7.4 35.74z" fill="#7a3d32"/><g clip-path="url(#p)" opacity=".5" transform="matrix(.35278 0 0 -.35278 -76.52 381.695)"><path d="M229.905 984.161v1.164l3.215 4.223 1.492-.94-3.172-4.185.027-1.139z" fill="#e68880"/></g><g clip-path="url(#q)" opacity=".5" transform="matrix(.35278 0 0 -.35278 -76.52 381.695)"><path d="M232.405 982.638v1.094l3.213 4.222 1.492-.94-3.17-4.185.027-1.144z" fill="#e68880"/></g><g clip-path="url(#r)" opacity=".5" transform="matrix(.35278 0 0 -.35278 -76.52 381.695)"><path d="M234.903 981.142v1.014l3.213 4.222 1.492-.94-3.17-4.185.027-1.064z" fill="#e68880"/></g><path d="M9.576 35l3.267 2.056-1.185 1.334-3.247-1.909z" fill="#c1604d"/><path d="M8.41 36.481v.404l3.225 1.955.023-.45z" fill="#914938"/><path d="M11.635 38.84l1.208-.696v-1.088l-1.185 1.335z" fill="#7a3d32"/><g clip-path="url(#s)" opacity=".5" transform="matrix(.35278 0 0 -.35278 -76.52 381.695)"><path d="M241.98 976.644v1.164l3.21 4.223 1.493-.94-3.168-4.185.027-1.14z" fill="#e68880"/></g><g clip-path="url(#t)" opacity=".5" transform="matrix(.35278 0 0 -.35278 -76.52 381.695)"><path d="M244.477 975.122v1.092l3.211 4.222 1.493-.939-3.17-4.184.028-1.144z" fill="#e68880"/></g><g clip-path="url(#u)" opacity=".5" transform="matrix(.35278 0 0 -.35278 -76.52 381.695)"><path d="M246.974 973.626v1.012l3.213 4.222 1.492-.939-3.17-4.184.027-1.064z" fill="#e68880"/></g><path d="M13.68 37.57l3.268 2.055-1.185 1.334-3.249-1.909z" fill="#c1604d"/><path d="M12.514 39.05v.404l3.226 1.955.023-.45z" fill="#914938"/><path d="M15.74 41.41l1.208-.696v-1.089l-1.185 1.334z" fill="#7a3d32"/><g clip-path="url(#v)" opacity=".5" transform="matrix(.35278 0 0 -.35278 -76.52 381.695)"><path d="M253.614 969.36v1.166l3.213 4.221 1.492-.938-3.17-4.187.027-1.139z" fill="#e68880"/></g><g clip-path="url(#w)" opacity=".5" transform="matrix(.35278 0 0 -.35278 -76.52 381.695)"><path d="M256.112 967.839v1.094l3.213 4.222 1.492-.94-3.17-4.185.027-1.144z" fill="#e68880"/></g><g clip-path="url(#x)" opacity=".5" transform="matrix(.35278 0 0 -.35278 -76.52 381.695)"><path d="M258.61 966.343v1.014l3.213 4.222 1.492-.94-3.17-4.185.027-1.064z" fill="#e68880"/></g><path d="M34.315 19.31l-3.267 2.055 1.184 1.334 3.248-1.909z" fill="#984c3d"/><path d="M35.48 20.79v.405l-3.224 1.955-.024-.45z" fill="#6b362a"/><path d="M32.256 23.15l-1.208-.696v-1.089l1.184 1.334z" fill="#512821"/><g clip-path="url(#y)" opacity=".5" transform="matrix(.35278 0 0 -.35278 -76.52 381.695)"><path d="M316.253 1021.121v1.165l-3.213 4.223-1.494-.94 3.172-4.186-.027-1.139z" fill="#bd726a"/></g><g clip-path="url(#z)" opacity=".5" transform="matrix(.35278 0 0 -.35278 -76.52 381.695)"><path d="M313.753 1019.598v1.094l-3.211 4.223-1.494-.94 3.172-4.186-.03-1.142z" fill="#bd726a"/></g><g clip-path="url(#A)" opacity=".5" transform="matrix(.35278 0 0 -.35278 -76.52 381.695)"><path d="M311.255 1018.104v1.012l-3.211 4.223-1.494-.94 3.17-4.185-.027-1.064z" fill="#bd726a"/></g><path d="M30.164 21.98l-3.268 2.056 1.186 1.334 3.248-1.909z" fill="#984c3d"/><path d="M31.33 23.461v.404l-3.225 1.955-.024-.45z" fill="#6b362a"/><path d="M28.105 25.82l-1.209-.696v-1.088l1.186 1.334z" fill="#512821"/><g clip-path="url(#B)" opacity=".5" transform="matrix(.35278 0 0 -.35278 -76.52 381.695)"><path d="M304.485 1013.55v1.165l-3.213 4.223-1.492-.94 3.17-4.185-.027-1.14z" fill="#bd726a"/></g><g clip-path="url(#C)" opacity=".5" transform="matrix(.35278 0 0 -.35278 -76.52 381.695)"><path d="M301.987 1012.027v1.094l-3.213 4.222-1.492-.939 3.17-4.186-.027-1.142z" fill="#bd726a"/></g><g clip-path="url(#D)" opacity=".5" transform="matrix(.35278 0 0 -.35278 -76.52 381.695)"><path d="M299.49 1010.531v1.014l-3.214 4.222-1.492-.939 3.17-4.186-.027-1.062z" fill="#bd726a"/></g><path d="M25.905 24.632l-3.268 2.055 1.186 1.334 3.248-1.908z" fill="#984c3d"/><path d="M27.07 26.113v.404l-3.224 1.955-.023-.45z" fill="#6b362a"/><path d="M23.846 28.471l-1.209-.695v-1.089l1.186 1.335z" fill="#512821"/><g clip-path="url(#E)" opacity=".5" transform="matrix(.35278 0 0 -.35278 -76.52 381.695)"><path d="M292.413 1006.034v1.163l-3.213 4.223-1.492-.94 3.17-4.184-.027-1.139z" fill="#bd726a"/></g><g clip-path="url(#F)" opacity=".5" transform="matrix(.35278 0 0 -.35278 -76.52 381.695)"><path d="M289.915 1004.513v1.094l-3.213 4.22-1.492-.938 3.17-4.185-.027-1.144z" fill="#bd726a"/></g><g clip-path="url(#G)" opacity=".5" transform="matrix(.35278 0 0 -.35278 -76.52 381.695)"><path d="M287.417 1003.017v1.014l-3.213 4.22-1.492-.938 3.17-4.185-.027-1.064z" fill="#bd726a"/></g><path d="M21.8 27.2l-3.267 2.056 1.185 1.335 3.248-1.91z" fill="#984c3d"/><path d="M22.966 28.682v.404l-3.225 1.955-.024-.45z" fill="#6b362a"/><path d="M19.742 31.04l-1.21-.695v-1.089l1.186 1.335z" fill="#512821"/><g clip-path="url(#H)" opacity=".5" transform="matrix(.35278 0 0 -.35278 -76.52 381.695)"><path d="M280.778 998.753v1.164l-3.213 4.223-1.492-.94 3.17-4.185-.027-1.14z" fill="#bd726a"/></g><g clip-path="url(#I)" opacity=".5" transform="matrix(.35278 0 0 -.35278 -76.52 381.695)"><path d="M278.28 997.23v1.094l-3.213 4.222-1.492-.94 3.17-4.185-.027-1.144z" fill="#bd726a"/></g><g clip-path="url(#J)" opacity=".5" transform="matrix(.35278 0 0 -.35278 -76.52 381.695)"><path d="M275.782 995.733v1.014l-3.213 4.222-1.492-.939 3.17-4.186-.027-1.064z" fill="#bd726a"/></g><path d="M34.38 29.776l-3.268 2.056 1.184 1.334 3.248-1.909z" fill="#984c3d"/><path d="M35.544 31.257v.404l-3.225 1.955-.023-.45z" fill="#6b362a"/><path d="M32.32 33.616l-1.208-.696v-1.088l1.184 1.334z" fill="#512821"/><g clip-path="url(#K)" opacity=".5" transform="matrix(.35278 0 0 -.35278 -76.52 381.695)"><path d="M316.433 991.454v1.162l-3.213 4.223-1.492-.94 3.17-4.183-.027-1.14z" fill="#bd726a"/></g><g clip-path="url(#L)" opacity=".5" transform="matrix(.35278 0 0 -.35278 -76.52 381.695)"><path d="M313.935 989.93v1.095l-3.213 4.222-1.492-.94 3.17-4.185-.027-1.144z" fill="#bd726a"/></g><g clip-path="url(#M)" opacity=".5" transform="matrix(.35278 0 0 -.35278 -76.52 381.695)"><path d="M311.437 988.435v1.014l-3.213 4.222-1.492-.94 3.17-4.185-.027-1.064z" fill="#bd726a"/></g><path d="M30.228 32.446l-3.268 2.056 1.185 1.334 3.248-1.908z" fill="#984c3d"/><path d="M31.393 33.928v.404l-3.224 1.954-.024-.45z" fill="#6b362a"/><path d="M28.169 36.286l-1.209-.695v-1.089l1.185 1.334z" fill="#512821"/><g clip-path="url(#N)" opacity=".5" transform="matrix(.35278 0 0 -.35278 -76.52 381.695)"><path d="M304.667 983.882v1.164l-3.213 4.223-1.492-.94 3.17-4.185-.027-1.14z" fill="#bd726a"/></g><g clip-path="url(#O)" opacity=".5" transform="matrix(.35278 0 0 -.35278 -76.52 381.695)"><path d="M302.169 982.36v1.094l-3.213 4.222-1.494-.939 3.172-4.186-.027-1.144z" fill="#bd726a"/></g><g clip-path="url(#P)" opacity=".5" transform="matrix(.35278 0 0 -.35278 -76.52 381.695)"><path d="M299.669 980.864v1.014l-3.211 4.222-1.494-.939 3.172-4.186-.03-1.064z" fill="#bd726a"/></g><path d="M25.969 35.098L22.7 37.154l1.185 1.334 3.248-1.909z" fill="#984c3d"/><path d="M27.134 36.58v.403l-3.224 1.955-.024-.45z" fill="#6b362a"/><path d="M23.91 38.938l-1.209-.695v-1.09l1.185 1.335z" fill="#512821"/><g clip-path="url(#Q)" opacity=".5" transform="matrix(.35278 0 0 -.35278 -76.52 381.695)"><path d="M292.595 976.366v1.164l-3.213 4.223-1.492-.94 3.17-4.185-.027-1.14z" fill="#bd726a"/></g><g clip-path="url(#R)" opacity=".5" transform="matrix(.35278 0 0 -.35278 -76.52 381.695)"><path d="M290.097 974.843v1.094l-3.213 4.222-1.492-.94 3.17-4.185-.027-1.142z" fill="#bd726a"/></g><g clip-path="url(#S)" opacity=".5" transform="matrix(.35278 0 0 -.35278 -76.52 381.695)"><path d="M287.599 973.347v1.014l-3.213 4.222-1.494-.94 3.172-4.185-.027-1.062z" fill="#bd726a"/></g><path d="M21.864 37.668l-3.267 2.055 1.185 1.334 3.248-1.909z" fill="#984c3d"/><path d="M23.03 39.148v.405l-3.224 1.954-.024-.45z" fill="#6b362a"/><path d="M19.806 41.508l-1.209-.696v-1.09l1.185 1.335z" fill="#512821"/><g clip-path="url(#T)" opacity=".5" transform="matrix(.35278 0 0 -.35278 -76.52 381.695)"><path d="M280.958 969.083v1.164l-3.211 4.223-1.494-.94 3.17-4.185-.027-1.139z" fill="#bd726a"/></g><g clip-path="url(#U)" opacity=".5" transform="matrix(.35278 0 0 -.35278 -76.52 381.695)"><path d="M278.46 967.562v1.092l-3.211 4.222-1.494-.94 3.17-4.184-.027-1.143z" fill="#bd726a"/></g><g clip-path="url(#V)" opacity=".5" transform="matrix(.35278 0 0 -.35278 -76.52 381.695)"><path d="M275.962 966.065v1.012l-3.213 4.222-1.492-.939 3.17-4.184-.027-1.064z" fill="#bd726a"/></g><path d="M15.062 58.717l-1.299-.812v-.65l1.299.812zm-1.096-1.895l-1.299-.812v-.65l1.3.812zm3.906 1.164l-1.299-.812v-.65l1.299.811zM3.42 40.418l-1.299-.812v-.65l1.299.811zm-1.147 8.876l-1.298-.812v-.65l1.298.812zm3.025 3.217L4 51.7v-.65l1.298.812zm8.019-4.684l-1.299-.812v-.65l1.3.812zm-4.261-13.93l-1.298-.813v-.65l1.298.812zM8.371 42.3l-1.298-.812v-.651l1.298.812zm8.105-4.776l-1.298-.812v-.65l1.298.812zM4.82 28.393l-1.3-.813v-.65l1.298.812zm5.356-4.863l-1.298-.812v-.65l1.298.812zm1.484 1.735l-1.299-.812v-.65l1.298.812z" fill="#d6ad85"/><path d="M20.1 36.92l1.299-.812v-.65l-1.298.812zm12.65 4.508l1.298-.811v-.65l-1.298.812zM21.399 58.285l1.297-.813v-.65l-1.297.813zm1.775-2.335l1.298-.812v-.65l-1.298.812zm9.051-5.318l1.298-.812v-.651l-1.298.812zm-6.717-27.034l1.298-.811v-.651l-1.298.812zm4.955 6.811l1.298-.813v-.65l-1.298.812z" fill="#a58167"/></svg>