<svg xmlns="http://www.w3.org/2000/svg" width="126.982" height="237.602" viewBox="0 0 33.597 62.866"><path d="M15.605 25.375L0 15.636 17.993 4.322l15.604 9.738z" fill="#6c4d2a"/><path d="M0 53.128V15.635l15.605 9.738v37.493z" fill="#d5b480"/><path d="M33.597 14.059V51.55L15.605 62.866V25.373z" fill="#e99d59"/><path d="M19.965 15.613L4.36 5.875 13.633 0l15.604 9.737z" fill="#90693e"/><path d="M15.605 25.373l4.36-9.76L4.36 5.875 0 15.635z" fill="#6c4d2a"/><path d="M29.237 9.737l4.36 4.322-17.992 11.314 4.36-9.76z" fill="#3d2a18"/><path d="M20.138 14.5L6.074 5.785l7.735-4.9 14.063 8.713z" fill="#553c22"/><path d="M13.809.885v.916L6.756 6.212l-.682-.426z" fill="#3d2a18"/><path d="M13.809 1.8l13.29 8.289.772-.49L13.81.885z" fill="#6c4d2a"/><path d="M0 53.128v-1.64l15.604 9.738v1.64z" fill="#d1806a"/><path d="M33.597 51.551v-1.639L15.604 61.226v1.64z" fill="#895545"/><path d="M0 41.183v-1.64l15.604 9.738v1.64z" fill="#d1806a"/><path d="M33.597 39.606v-1.64L15.604 49.282v1.639z" fill="#895545"/><path d="M0 29.238v-1.64l15.604 9.737v1.64z" fill="#d1806a"/><path d="M33.597 27.66v-1.639L15.604 37.335v1.64z" fill="#895545"/><path d="M0 17.292v-1.64l15.604 9.738v1.64z" fill="#d1806a"/><path d="M33.597 15.715v-1.64L15.604 25.39v1.639z" fill="#895545"/><path d="M23.698 8.952v-1.8l.514.323v1.801z" fill="#82654a"/><path d="M24.726 7.151v1.801l-.514.324v-1.8z" fill="#5c4734"/><path d="M23.449 7.183V6.82l.763.48v.364z" fill="#82654a"/><path d="M24.976 6.82v.363l-.764.48V7.3z" fill="#5c4734"/><path d="M23.449 6.82l.763.48.764-.48-.764-.493z" fill="#d6ad85"/><path d="M23.686 6.823l.526.332.526-.332-.526-.34z" fill="#2c1312"/><path d="M24.531 9.445v-1.8l.514.323V9.77z" fill="#82654a"/><path d="M25.56 7.645v1.8l-.515.324V7.968z" fill="#5c4734"/><path d="M24.282 7.676v-.363l.763.48v.363z" fill="#82654a"/><path d="M25.81 7.313v.363l-.765.48v-.364z" fill="#5c4734"/><path d="M24.282 7.313l.763.48.764-.48-.764-.494z" fill="#d6ad85"/><path d="M24.519 7.317l.526.331.526-.331-.526-.34z" fill="#2c1312"/><path d="M25.377 10V8.486l.432.272v1.514z" fill="#82654a"/><path d="M26.241 8.486V10l-.432.272V8.758z" fill="#5c4734"/><path d="M25.167 8.512v-.305l.642.404v.305z" fill="#82654a"/><path d="M26.45 8.207v.305l-.64.404v-.305z" fill="#5c4734"/><path d="M25.167 8.207l.642.404.642-.404-.642-.415z" fill="#d6ad85"/><path d="M25.367 8.21l.442.279.443-.279-.443-.286z" fill="#2c1312"/><path d="M2.86 13.638l2.744-1.398-.576-1.103-1.043.806z" fill="#3d2a18"/><path d="M2.489 13.404l1.636-1.856 1.357 3.786-.568-.404-.929-2.542-1.125 1.25z" fill="#90693e"/><path d="M4.125 11.548L6.45 9.707l.555 4.622-1.522 1.004zM7.318 16.302l2.744-1.398-.576-1.103-1.043.807z" fill="#3d2a18"/><path d="M6.946 16.068l1.637-1.856L9.939 18l-.567-.405-.93-2.542-1.124 1.25z" fill="#90693e"/><path d="M8.582 14.212l2.325-1.84.555 4.621-1.523 1.005zM11.775 19.182l2.744-1.398-.576-1.103-1.043.807z" fill="#3d2a18"/><path d="M11.403 18.947l1.638-1.855 1.355 3.786-.567-.404-.93-2.542-1.124 1.25z" fill="#90693e"/><path d="M13.04 17.093l2.324-1.842.555 4.622-1.523 1.005z" fill="#3d2a18"/><path d="M18.296 5.545L14 2.883l-2.363 1.496 4.297 2.663zm-2.15 1.953l-5.239-3.246 2.881-1.825 5.238 3.246z" fill="#a38162"/><path d="M3.782 22.628L.901 20.902c0-.137.423-.707.906-.707 1.088 0 1.975 1.345 1.975 2.433" fill="#d1806a"/><path d="M.9 20.984v5.217l2.882 1.813v-5.347z" fill="#c8e8fa"/><path d="M1.088 21.364v4.61l2.506 1.576V22.83zm2.694 1.221v5.43L.901 26.2v-5.299z" fill="#d1806a"/><path d="M2.444 26.86h-.205v-4.97h.205z" fill="#d1806a"/><path d="M3.47 22.433L1.17 21.057c0-.11.339-.565.724-.565.868 0 1.575 1.074 1.575 1.941" fill="#c8e8fa"/><path d="M8.968 25.924l-2.882-1.726c0-.137.424-.707.907-.707 1.088 0 1.975 1.345 1.975 2.433" fill="#d1806a"/><path d="M6.086 24.28v5.218l2.882 1.813v-5.348z" fill="#c8e8fa"/><path d="M6.274 24.661v4.61l2.506 1.576v-4.722zm2.694 1.22v5.43l-2.882-1.813v-5.3z" fill="#d1806a"/><path d="M7.63 30.158h-.205v-4.97h.205z" fill="#d1806a"/><path d="M8.656 25.73l-2.299-1.377c0-.11.339-.565.724-.565.868 0 1.575 1.074 1.575 1.941" fill="#c8e8fa"/><path d="M14.154 29.127L11.272 27.4c0-.137.425-.708.907-.708 1.089 0 1.975 1.346 1.975 2.435" fill="#d1806a"/><path d="M11.272 27.482v5.217l2.882 1.813v-5.347z" fill="#c8e8fa"/><path d="M11.46 27.863v4.609l2.507 1.577v-4.722zm2.694 1.221v5.428l-2.882-1.813V27.4z" fill="#d1806a"/><path d="M12.817 33.36h-.206v-4.97h.206z" fill="#d1806a"/><path d="M13.842 28.932l-2.298-1.377c0-.11.338-.565.723-.565.868 0 1.575 1.074 1.575 1.942" fill="#c8e8fa"/><path d="M3.782 34.574L.901 32.848c0-.137.423-.707.906-.707 1.088 0 1.975 1.345 1.975 2.433" fill="#d1806a"/><path d="M.9 32.93v5.215l2.882 1.814v-5.347z" fill="#c8e8fa"/><path d="M1.088 33.31v4.61l2.506 1.576v-4.722zm2.694 1.221v5.428L.901 38.146v-5.298z" fill="#d1806a"/><path d="M2.444 38.806h-.205v-4.97h.205z" fill="#d1806a"/><path d="M3.47 34.379L1.17 33.003c0-.11.339-.565.724-.565.868 0 1.575 1.073 1.575 1.94" fill="#c8e8fa"/><path d="M8.968 37.87l-2.882-1.726c0-.137.424-.708.907-.708 1.088 0 1.975 1.346 1.975 2.434" fill="#d1806a"/><path d="M6.086 36.226v5.216l2.882 1.814V37.91z" fill="#c8e8fa"/><path d="M6.274 36.606v4.61l2.506 1.577V38.07zm2.694 1.221v5.43l-2.882-1.815v-5.298z" fill="#d1806a"/><path d="M7.63 42.102h-.205v-4.97h.205z" fill="#d1806a"/><path d="M8.656 37.675l-2.299-1.377c0-.11.339-.564.724-.564.868 0 1.575 1.073 1.575 1.94" fill="#c8e8fa"/><path d="M14.154 41.072l-2.882-1.726c0-.138.425-.708.907-.708 1.089 0 1.975 1.345 1.975 2.434" fill="#d1806a"/><path d="M11.272 39.427v5.217l2.882 1.814V41.11z" fill="#c8e8fa"/><path d="M11.46 39.808v4.61l2.507 1.577v-4.723zm2.694 1.221v5.429l-2.882-1.814v-5.298z" fill="#d1806a"/><path d="M12.817 45.305h-.206v-4.97h.206z" fill="#d1806a"/><path d="M13.842 40.877L11.544 39.5c0-.11.338-.565.723-.565.868 0 1.575 1.074 1.575 1.942" fill="#c8e8fa"/><path d="M28.866 22.2l2.882-1.726c0-.137-.424-.708-.907-.708-1.088 0-1.975 1.346-1.975 2.434" fill="#a46856"/><path d="M31.748 20.556v5.216l-2.882 1.813v-5.347z" fill="#a5c1ce"/><path d="M29.054 22.4v4.722l2.506-1.577v-4.608zm2.694-1.926v5.298l-2.881 1.813v-5.428z" fill="#a46856"/><path d="M30.205 26.432h.205v-4.97h-.205z" fill="#a46856"/><path d="M29.179 22.005l2.298-1.377c0-.11-.338-.564-.723-.564-.868 0-1.575 1.073-1.575 1.94" fill="#a5c1ce"/><path d="M23.68 25.496l2.882-1.726c0-.137-.424-.708-.907-.708-1.088 0-1.975 1.346-1.975 2.434" fill="#a46856"/><path d="M26.562 23.852v5.217l-2.882 1.813v-5.347z" fill="#a5c1ce"/><path d="M23.868 25.697v4.722l2.506-1.577v-4.609zm2.694-1.926v5.298l-2.882 1.813v-5.429z" fill="#a46856"/><path d="M25.018 29.73h.205v-4.97h-.205z" fill="#a46856"/><path d="M23.992 25.302l2.299-1.378c0-.11-.338-.564-.724-.564-.868 0-1.575 1.073-1.575 1.942" fill="#a5c1ce"/><path d="M18.494 28.698l2.881-1.726c0-.138-.423-.708-.906-.708-1.088 0-1.975 1.346-1.975 2.434" fill="#a46856"/><path d="M21.375 27.053v5.217l-2.881 1.813v-5.346z" fill="#a5c1ce"/><path d="M18.682 28.899v4.722l2.506-1.577v-4.61zm2.694-1.927v5.298l-2.882 1.813v-5.427z" fill="#a46856"/><path d="M19.832 32.93h.205v-4.969h-.205z" fill="#a46856"/><path d="M18.806 28.503l2.299-1.377c0-.11-.339-.565-.724-.565-.868 0-1.575 1.073-1.575 1.942" fill="#a5c1ce"/><path d="M28.866 34.145l2.882-1.725c0-.137-.424-.708-.907-.708-1.088 0-1.975 1.346-1.975 2.433" fill="#a46856"/><path d="M31.748 32.502v5.216l-2.882 1.813v-5.347z" fill="#a5c1ce"/><path d="M29.054 34.346v4.722l2.506-1.577v-4.608zm2.694-1.926v5.298l-2.881 1.812v-5.427z" fill="#a46856"/><path d="M30.205 38.378h.205v-4.97h-.205z" fill="#a46856"/><path d="M29.179 33.95l2.298-1.376c0-.11-.338-.564-.723-.564-.868 0-1.575 1.073-1.575 1.94" fill="#a5c1ce"/><path d="M23.68 37.441l2.882-1.725c0-.138-.424-.708-.907-.708-1.088 0-1.975 1.345-1.975 2.433" fill="#a46856"/><path d="M26.562 35.797v5.217l-2.882 1.814V37.48z" fill="#a5c1ce"/><path d="M23.868 37.642v4.722l2.506-1.577V36.18zm2.694-1.926v5.298l-2.882 1.813V37.4z" fill="#a46856"/><path d="M25.018 41.674h.205v-4.97h-.205z" fill="#a46856"/><path d="M23.992 37.246l2.299-1.376c0-.11-.338-.565-.724-.565-.868 0-1.575 1.074-1.575 1.941" fill="#a5c1ce"/><path d="M18.494 40.643l2.881-1.726c0-.138-.423-.708-.906-.708-1.088 0-1.975 1.346-1.975 2.434" fill="#a46856"/><path d="M21.375 38.999v5.217l-2.881 1.813v-5.347z" fill="#a5c1ce"/><path d="M18.682 40.844v4.722l2.506-1.577v-4.61zm2.694-1.927v5.299l-2.882 1.813v-5.428z" fill="#a46856"/><path d="M19.832 44.877h.205v-4.971h-.205z" fill="#a46856"/><path d="M18.806 40.448l2.299-1.376c0-.11-.339-.565-.724-.565-.868 0-1.575 1.073-1.575 1.941" fill="#a5c1ce"/><path d="M28.866 45.69l2.882-1.726c0-.137-.424-.708-.907-.708-1.088 0-1.975 1.346-1.975 2.434" fill="#a46856"/><path d="M31.748 44.046v5.215l-2.882 1.814V45.73z" fill="#a5c1ce"/><path d="M29.054 45.89v4.722l2.506-1.577v-4.608zm2.694-1.926v5.298l-2.881 1.813v-5.427z" fill="#a46856"/><path d="M30.205 49.922h.205v-4.97h-.205z" fill="#a46856"/><path d="M29.179 45.495l2.298-1.376c0-.11-.338-.565-.723-.565-.868 0-1.575 1.073-1.575 1.941" fill="#a5c1ce"/><path d="M23.68 48.986l2.882-1.726c0-.137-.424-.708-.907-.708-1.088 0-1.975 1.346-1.975 2.434" fill="#a46856"/><path d="M26.562 47.342v5.216L23.68 54.37v-5.346z" fill="#a5c1ce"/><path d="M23.868 49.186v4.722l2.506-1.577v-4.608zm2.694-1.925v5.297L23.68 54.37v-5.427z" fill="#a46856"/><path d="M25.018 53.218h.205V48.25h-.205z" fill="#a46856"/><path d="M23.992 48.792l2.299-1.377c0-.11-.338-.565-.724-.565-.868 0-1.575 1.073-1.575 1.942" fill="#a5c1ce"/><path d="M18.494 52.187l2.881-1.725c0-.138-.423-.708-.906-.708-1.088 0-1.975 1.345-1.975 2.433" fill="#a46856"/><path d="M21.375 50.543v5.217l-2.881 1.812v-5.346z" fill="#a5c1ce"/><path d="M18.682 52.388v4.721l2.506-1.576v-4.609zm2.694-1.926v5.298l-2.882 1.812v-5.428z" fill="#a46856"/><path d="M19.832 56.42h.205v-4.97h-.205z" fill="#a46856"/><path d="M18.806 51.992l2.299-1.376c0-.11-.339-.565-.724-.565-.868 0-1.575 1.074-1.575 1.941" fill="#a5c1ce"/><path d="M3.782 46.196L.901 44.47c0-.138.423-.708.906-.708 1.088 0 1.975 1.345 1.975 2.434" fill="#d1806a"/><path d="M.9 44.551v5.216l2.882 1.814v-5.347z" fill="#c8e8fa"/><path d="M1.088 44.932v4.609l2.506 1.577v-4.722zm2.694 1.221v5.428L.901 49.767V44.47z" fill="#d1806a"/><path d="M2.444 50.428h-.205v-4.97h.205z" fill="#d1806a"/><path d="M3.47 46.001L1.17 44.624c0-.11.339-.565.724-.565.868 0 1.575 1.074 1.575 1.942" fill="#c8e8fa"/><path d="M14.154 52.693l-2.882-1.726c0-.137.425-.708.907-.708 1.089 0 1.975 1.346 1.975 2.434" fill="#d1806a"/><path d="M11.272 51.049v5.216l2.882 1.814v-5.347z" fill="#c8e8fa"/><path d="M11.46 51.43v4.609l2.507 1.576v-4.721zm2.694 1.22v5.429l-2.882-1.814v-5.298z" fill="#d1806a"/><path d="M12.817 56.926h-.206v-4.97h.206z" fill="#d1806a"/><path d="M13.842 52.498l-2.298-1.376c0-.11.338-.565.723-.565.868 0 1.575 1.073 1.575 1.941" fill="#c8e8fa"/><path d="M6.216 56.539H5.5v-5.955h.715z" fill="#895545"/><path d="M6.216 56.539l2.128 1.405v.363l-2.843-1.768z" fill="#a38162"/><path d="M8.344 57.944v-8.409l-2.128 1.049v5.955z" fill="#936439"/><path d="M7.847 56.893v-1.778l-1.135-.72v1.785zm-1.316-.543v-2.352l1.498.948v2.345zM7.909 53.916v-1.779l-1.135-.72v1.785zm-1.316-.543V51.02l1.497.95v2.344z" fill="#c1804d"/><path d="M4.496 51.495L8.69 49.36l-.881-1.686-1.594 1.233z" fill="#3d2a18"/><path d="M3.928 51.137l2.501-2.835 2.074 5.785-.867-.616-1.42-3.886-1.72 1.91z" fill="#6c4d2a"/><path d="M6.43 48.302l1.96-1.222 2.44 5.472-2.327 1.535z" fill="#3d2a18"/><path d="M1.34 52.445v-1l1.296.834v1zM14.309 59.67v-1l1.296.834v1zM5.21 45.114v-1l1.296.833v1zM5.062 33.37v-1l1.296.834v.999zM9.299 44.635v-1l1.296.834v1zM1.34 40.96v-1l1.296.833v1zM9.145 33.492v-1l1.296.834v.999zM4.125 20.575v-1l1.296.834v1zM9.792 25.456v-1l1.296.834v1zM4.834 22.805v-1l1.296.833v1zM.524 28.044v-1.001l1.296.835v1z" fill="#d1806a"/><path d="M28.866 29.127v-1l-1.296.834v1zM22.4 23.573v-1l-1.295.834v1zM21.564 37.016v-1l-1.295.834v1zM23.048 37.525v-1l-1.296.834v1zM22.4 48.027v-1l-1.295.834v1zM29.987 52.445v-1l-1.296.834v1zM28.364 52.075v-1l-1.296.834v1zM16.9 59.67v-1l-1.296.834v1zM32.773 41.154v-1l-1.296.834v1zM32.396 18.325v-1l-1.296.834v1z" fill="#895545"/></svg>