<svg xmlns="http://www.w3.org/2000/svg" width="179.345" height="153.571" viewBox="0 0 47.452 40.632"><path d="M.689 10.23v10.893l12.977 8.16V18.389L.689 10.23" fill="#496cb0"/><path d="M22.907 9.832L7.211 0 .689 10.275l12.977 8.16 9.241-8.603" fill="#992628"/><path d="M7.21 0l6.49 2.015 12.912 8.278-3.705-.46L7.211 0" fill="#62151e"/><path d="M14.192 18.851l-.615.41v.668l.615-.438v-.64" fill="#62593c"/><path d="M13.577 19.93L0 11.353v-.669l13.577 8.576v.668" fill="#867e4d"/><path d="M0 10.685l13.577 8.576.615-.41L.689 10.275l-.689.41" fill="#afab6d"/><path d="M10.796 27.455l-8.757-5.502v-8.858l8.757 5.502v8.858" fill="#7a4c3b"/><path d="M10.316 18.908l-7.832-4.981v8.304l7.832 4.926zm.48 8.547l-8.757-5.502v-8.858l8.757 5.502v8.858" fill="#b4981f"/><path d="M5.687 16.828l-2.559-1.624v2.433l2.559 1.625zm.192 2.862l-2.942-1.863v-3.052l2.942 1.863v3.052M5.687 21.177l-2.559-1.625v2.433l2.559 1.625zm.192 2.862l-2.942-1.864v-3.052l2.942 1.864v3.052M9.662 19.329l-2.557-1.624v2.433l2.557 1.625zm.192 2.862l-2.942-1.864v-3.051l2.942 1.864v3.051M9.662 23.677l-2.557-1.623v2.432l2.557 1.625zm.192 2.863l-2.942-1.864v-3.052l2.942 1.865v3.05" fill="#6f352d"/><path d="M28.633 28.627L10.76 17.389 28.633 6.152l17.87 11.237-17.87 11.238" fill="#486ebd"/><path d="M28.673 40.632V28.63l-17.87-11.238v12.003l17.87 11.237" fill="#486ebd"/><path d="M46.504 17.327V29.33L28.633 40.567V28.564l17.87-11.237" fill="#355182"/><path d="M19.604 14.639l17.917-11.4 8.983 14.15-17.871 11.238-9.03-13.988" fill="#62151e"/><path d="M37.521 3.238l-8.935 2.777-17.784 11.4 8.802-2.776 17.917-11.4" fill="#992628"/><path d="M31.15 37.274l5.388-3.357v-7l-5.389 3.357v7" fill="#d9f1da"/><path d="M37.915 34.877l-5.286 3.357v1.709l5.286-3.396v-1.67" fill="#a63474"/><path d="M32.629 39.943l-1.48-.96v-1.71l1.48.96v1.71" fill="#cd4262"/><path d="M31.628 36.976l4.466-2.782v-6.179l-4.466 2.838zm-.479-6.702l5.39-3.357v7l-5.39 3.357v-7" fill="#947c1f"/><path d="M34.107 35.722h-.418v-6.6h.418v6.6" fill="#947c1f"/><path d="M31.15 37.274l1.479.96 5.286-3.357-1.377-.96-5.389 3.357" fill="#f04451"/><path d="M31.448 37.263l1.2.778 4.94-3.164-1.115-.779-5.025 3.165" fill="#48312f"/><path d="M38.966 32.363l5.388-3.357v-7l-5.388 3.357v7" fill="#d9f1da"/><path d="M45.731 29.966l-5.286 3.356v1.71l5.286-3.396v-1.67" fill="#a63474"/><path d="M40.445 35.032l-1.48-.96v-1.709l1.48.96v1.709" fill="#cd4262"/><path d="M39.445 32.066l4.465-2.784v-6.178l-4.465 2.838zm-.48-6.703l5.39-3.358v7l-5.39 3.358v-7" fill="#947c1f"/><path d="M41.924 30.81h-.42v-6.6h.42v6.6" fill="#947c1f"/><path d="M38.966 32.363l1.479.96 5.286-3.357-1.377-.96-5.388 3.357" fill="#f04451"/><path d="M39.279 32.357l1.198.778 4.942-3.164-1.116-.778-5.024 3.164" fill="#48312f"/><path d="M25.029 38.256l-4.648-2.927V26.47l4.648 2.928v8.858" fill="#90294d"/><path d="M24.55 29.71l-3.725-2.408v8.304l3.725 2.353zm.479 8.546l-4.648-2.927V26.47l4.648 2.928v8.858" fill="#b4981f"/><path d="M24.028 30.203l-2.557-1.625v2.434l2.557 1.624zm.193 2.862L21.278 31.2V28.15l2.943 1.864v3.05M24.028 34.552l-2.557-1.626v2.434l2.557 1.625zm.193 2.862l-2.943-1.864v-3.052l2.943 1.864v3.052" fill="#c23473"/><path d="M27.907 29.2l.847.565v.92l-.847-.603V29.2" fill="#62593c"/><path d="M28.754 30.685l18.698-11.81v-.92l-18.698 11.81v.92" fill="#867e4d"/><path d="M47.452 17.955l-18.698 11.81-.847-.565L46.504 17.39l.948.566" fill="#afab6d"/><path d="M28.784 30.685L9.845 18.875v-.92l18.939 11.81v.92" fill="#867e4d"/><path d="M9.845 17.955l18.939 11.81.845-.565L10.793 17.39l-.948.566" fill="#afab6d"/><path d="M32.607 36.518c0 1.054-.2.876-.447.876-.248 0-.45.268-.45-.876a.449.449 0 0 1 .897 0" fill="#64a330"/><path d="M32.826 37.023c0 .757-.145.629-.323.629-.177 0-.322.193-.322-.63a.322.322 0 0 1 .645 0M34.332 35.548c0 1.018-.195.847-.434.847-.24 0-.434.26-.434-.847a.435.435 0 0 1 .868 0" fill="#64a330"/><path d="M33.455 36.156c0 1.019-.193.847-.434.847-.239 0-.433.26-.433-.847a.433.433 0 1 1 .867 0" fill="#64a330"/><path d="M34.123 36.156c0 1.019-.196.847-.434.847-.24 0-.435.26-.435-.847a.434.434 0 1 1 .869 0" fill="#64a330"/><path d="M34.86 35.789c0 1.018-.194.846-.433.846-.24 0-.435.26-.435-.846a.434.434 0 1 1 .868 0" fill="#64a330"/><path d="M35.159 35.042c0 1.02-.195.849-.434.849-.24 0-.434.26-.434-.849a.434.434 0 0 1 .868 0M33.371 36.48c0 1.02-.195.848-.434.848-.24 0-.434.26-.434-.847a.434.434 0 0 1 .868 0M36.026 34.893c0 1.02-.194.849-.433.849-.24 0-.434.26-.434-.849a.434.434 0 0 1 .867 0M36.971 34.157c0 1.02-.194.848-.433.848-.24 0-.434.26-.434-.848a.433.433 0 0 1 .867 0" fill="#64a330"/><path d="M35.388 35.503c0 .796-.151.662-.338.662-.187 0-.339.202-.339-.662a.34.34 0 0 1 .677 0M36.46 34.435c0 1.02-.194.848-.434.848-.239 0-.433.26-.433-.848a.433.433 0 1 1 .868 0" fill="#64a330"/><path d="M36.671 34.886c0 .496-.095.413-.21.413-.117 0-.211.126-.211-.413a.211.211 0 1 1 .421 0M37.363 34.532c0 .57-.109.474-.243.474s-.243.146-.243-.474a.243.243 0 0 1 .486 0M33.384 36.983c0 .758-.144.63-.322.63-.177 0-.322.193-.322-.63a.322.322 0 0 1 .644 0M40.36 31.608c0 1.054-.2.876-.447.876-.248 0-.45.27-.45-.876a.449.449 0 0 1 .897 0" fill="#64a330"/><path d="M40.579 32.113c0 .757-.145.63-.323.63-.177 0-.322.193-.322-.63a.322.322 0 0 1 .645 0M42.085 30.637c0 1.02-.195.848-.434.848-.24 0-.434.26-.434-.848a.435.435 0 0 1 .868 0" fill="#64a330"/><path d="M41.209 31.245c0 1.02-.195.848-.435.848-.239 0-.433.26-.433-.848a.434.434 0 0 1 .868 0" fill="#64a330"/><path d="M41.875 31.245c0 1.02-.195.848-.433.848-.24 0-.435.26-.435-.848a.435.435 0 0 1 .868 0" fill="#64a330"/><path d="M42.613 30.877c0 1.02-.195.848-.434.848-.24 0-.434.26-.434-.848a.435.435 0 0 1 .868 0" fill="#64a330"/><path d="M42.912 30.132c0 1.02-.195.849-.434.849-.24 0-.434.259-.434-.849a.434.434 0 1 1 .868 0M41.124 31.57c0 1.02-.194.848-.434.848s-.434.26-.434-.847a.434.434 0 0 1 .868 0M43.78 29.983c0 1.02-.195.848-.434.848-.24 0-.434.26-.434-.848a.433.433 0 0 1 .867 0M44.725 29.248c0 1.019-.195.847-.434.847-.24 0-.434.26-.434-.847a.434.434 0 1 1 .868 0" fill="#64a330"/><path d="M43.141 30.593c0 .796-.152.662-.338.662-.187 0-.34.202-.34-.662a.339.339 0 0 1 .678 0M44.213 29.525c0 1.02-.194.848-.434.848-.239 0-.433.26-.433-.848a.435.435 0 0 1 .867 0" fill="#64a330"/><path d="M44.424 29.975c0 .496-.095.412-.21.412-.118 0-.212.127-.212-.412a.21.21 0 0 1 .423 0M45.116 29.622c0 .57-.11.475-.243.475-.134 0-.243.146-.243-.475a.243.243 0 1 1 .486 0M41.137 32.074c0 .757-.144.629-.322.629-.177 0-.322.193-.322-.63a.322.322 0 1 1 .643 0" fill="#64a330"/><path d="M18.254 32.383l-5.39-3.357v-7l5.39 3.357v7" fill="#d9f1da"/><path d="M11.487 29.985l5.287 3.357v1.71l-5.287-3.396v-1.67" fill="#cd4262"/><path d="M16.774 35.052l1.48-.96v-1.709l-1.48.96v1.709" fill="#a63474"/><path d="M17.774 25.962l-4.465-2.838v6.178l4.465 2.783zm.48 6.421l-5.39-3.357v-7l5.39 3.357v7" fill="#b4981f"/><path d="M15.295 30.83h.419v-6.6h-.419v6.6" fill="#b4981f"/><path d="M18.254 32.383l-1.48.96-5.287-3.358 1.377-.96 5.39 3.358" fill="#f04451"/><path d="M17.94 32.378l-1.198.777-4.942-3.163 1.117-.779 5.023 3.165" fill="#48312f"/><path d="M16.801 31.63c0 1.054.2.876.448.876s.449.269.449-.876a.449.449 0 0 0-.897 0" fill="#64a330"/><path d="M16.583 32.135c0 .757.145.63.322.63.178 0 .322.192.322-.63a.322.322 0 0 0-.644 0M15.077 30.66c0 1.018.195.847.434.847.24 0 .435.26.435-.847a.435.435 0 0 0-.869 0" fill="#64a330"/><path d="M15.953 31.268c0 1.019.194.847.434.847s.433.26.433-.847a.434.434 0 0 0-.867 0" fill="#64a330"/><path d="M15.287 31.268c0 1.019.194.847.433.847.24 0 .434.26.434-.847a.433.433 0 1 0-.867 0" fill="#64a330"/><path d="M14.548 30.9c0 1.019.195.847.434.847.24 0 .434.26.434-.846a.433.433 0 1 0-.868 0" fill="#64a330"/><path d="M14.25 30.154c0 1.02.195.848.434.848s.434.26.434-.848a.434.434 0 0 0-.868 0M16.038 31.593c0 1.02.194.847.433.847.24 0 .434.26.434-.847a.434.434 0 0 0-.867 0" fill="#64a330"/><path d="M13.382 30.006c0 1.02.195.848.435.848s.433.26.433-.848a.434.434 0 1 0-.868 0M12.438 29.27c0 1.02.193.847.433.847s.433.26.433-.847a.433.433 0 1 0-.866 0" fill="#64a330"/><path d="M14.02 30.615c0 .796.152.662.339.662.187 0 .339.202.339-.662a.34.34 0 0 0-.678 0M12.948 29.547c0 1.02.195.848.434.848.24 0 .435.26.435-.848a.434.434 0 1 0-.869 0" fill="#64a330"/><path d="M12.737 29.998c0 .496.095.413.211.413.117 0 .211.126.211-.413a.21.21 0 1 0-.422 0M12.046 29.644c0 .57.109.475.243.475s.242.145.242-.475a.243.243 0 1 0-.485 0M16.024 32.096c0 .756.145.63.322.63.178 0 .322.192.322-.63a.322.322 0 0 0-.644 0" fill="#64a330"/></svg>