<svg xmlns="http://www.w3.org/2000/svg" width="186.207" height="189.855" viewBox="0 0 49.267 50.232"><path d="M24.633 31.484L1.026 16.638 24.633 1.794l23.608 14.844-23.608 14.846" fill="#fff"/><path d="M24.633 31.484l.094-.15-23.37-14.696L24.633 2.002 47.91 16.638 24.54 31.335l.093.149.094-.15-.094.15.094.15 23.608-14.846a.176.176 0 0 0 0-.299L24.727 1.644a.175.175 0 0 0-.187 0L.932 16.49a.176.176 0 0 0 0 .299L24.54 31.634c.057.036.13.036.187 0l-.094-.15" fill="#53412f"/><path d="M1.026 35.387V16.638l23.607 14.846v18.748L1.026 35.387" fill="#d2b06e"/><path d="M48.241 16.638v18.749L24.633 50.232V31.484l23.608-14.846" fill="#e99245"/><path d="M24.633 30.981L0 15.491 24.633 0l24.634 15.49-24.634 15.491" fill="#8a6034"/><path d="M0 17.786V15.49l24.633 15.491v2.295L0 17.786" fill="#d16f5e"/><path d="M49.267 15.49v2.296l-24.634 15.49v-2.295l24.634-15.49" fill="#84483d"/><path d="M1.026 35.387v-.798l23.607 14.845v.798L1.026 35.387" fill="#d16f5e"/><path d="M48.241 35.387v-.798L24.633 49.434v.798l23.608-14.845" fill="#84483d"/><path d="M24.633 28.406L4.095 15.49 24.633 2.575l20.54 12.915-20.54 12.916" fill="#4e3520"/><path d="M24.633 2.575v1.58L5.393 16.306l-1.298-.817L24.633 2.575" fill="#372419"/><path d="M24.633 4.154l19.24 12.153 1.3-.817-20.54-12.915v1.58" fill="#664525"/><path d="M2.314 23.042v-3.34l2.835 1.735v3.417l-2.835-1.812" fill="#5ecadc"/><path d="M2.598 19.875l-.284-.174v3.4l.284-.178v-3.048" fill="#d79b5f"/><path d="M2.314 23.1l2.835 1.754v-.343l-2.55-1.588-.285.177" fill="#a4744c"/><path d="M2.598 20.462l.931 3.041.646.402-1.143-3.764-.434-.266v.587" fill="#88d6df"/><path d="M3.84 20.635l-.17-.104v3.06l.17.211v-3.167" fill="#a4744c"/><path d="M3.998 20.732l.853 3.594.104.065-.835-3.585-.122-.074" fill="#88d6df"/><path d="M2.314 27.848v-3.34l2.835 1.735v3.417l-2.835-1.812" fill="#5ecadc"/><path d="M2.598 24.68l-.284-.172v3.399l.284-.178v-3.048" fill="#d79b5f"/><path d="M2.314 27.907L5.15 29.66v-.342l-2.55-1.589-.285.178" fill="#a4744c"/><path d="M2.598 25.268l.931 3.041.646.402-1.143-3.764-.434-.266v.587" fill="#88d6df"/><path d="M3.84 25.442l-.17-.104v3.058l.17.212v-3.166" fill="#a4744c"/><path d="M3.998 25.538l.853 3.594.104.065-.835-3.584-.122-.075" fill="#88d6df"/><path d="M2.314 32.985v-3.339l2.835 1.735v3.417l-2.835-1.813" fill="#5ecadc"/><path d="M2.598 29.82l-.284-.174v3.399l.284-.177V29.82" fill="#d79b5f"/><path d="M2.314 33.045l2.835 1.753v-.342l-2.55-1.588-.285.177" fill="#a4744c"/><path d="M2.598 30.407l.931 3.04.646.402-1.143-3.764-.434-.265v.587" fill="#88d6df"/><path d="M3.84 30.58l-.17-.105v3.059l.17.212V30.58" fill="#a4744c"/><path d="M3.998 30.676l.853 3.594.104.065-.835-3.584-.122-.075" fill="#88d6df"/><path d="M6.46 25.71v-3.339l2.835 1.735v3.417l-2.834-1.812" fill="#5ecadc"/><path d="M6.745 22.544l-.284-.173v3.4l.284-.179v-3.048" fill="#d79b5f"/><path d="M6.46 25.77l2.835 1.753v-.342l-2.55-1.589-.284.178" fill="#a4744c"/><path d="M6.745 23.132l.93 3.04.647.402-1.144-3.764-.433-.266v.588" fill="#88d6df"/><path d="M7.987 23.305l-.171-.104v3.058l.17.212v-3.166" fill="#a4744c"/><path d="M8.144 23.401l.854 3.594.104.065-.835-3.584-.123-.075" fill="#88d6df"/><path d="M6.46 30.517v-3.34l2.835 1.735v3.418l-2.834-1.813" fill="#5ecadc"/><path d="M6.745 27.35l-.284-.173v3.399l.284-.177V27.35" fill="#d79b5f"/><path d="M6.46 30.576l2.835 1.754v-.343L6.745 30.4l-.284.177" fill="#a4744c"/><path d="M6.745 27.938l.93 3.04.647.402-1.144-3.764-.433-.265v.587" fill="#88d6df"/><path d="M7.987 28.11l-.171-.103v3.058l.17.213V28.11" fill="#a4744c"/><path d="M8.144 28.207l.854 3.594.104.065-.835-3.584-.123-.075" fill="#88d6df"/><path d="M6.46 35.656v-3.34l2.835 1.734v3.417l-2.834-1.811" fill="#5ecadc"/><path d="M6.745 32.489l-.284-.174v3.4l.284-.178V32.49" fill="#d79b5f"/><path d="M6.46 35.714l2.835 1.753v-.342l-2.55-1.588-.284.177" fill="#a4744c"/><path d="M6.745 33.076l.93 3.04.647.403-1.144-3.765-.433-.265v.587" fill="#88d6df"/><path d="M7.987 33.249l-.171-.104v3.059l.17.211V33.25" fill="#a4744c"/><path d="M8.144 33.345l.854 3.594.104.065-.835-3.584-.123-.075" fill="#88d6df"/><path d="M11.126 28.56v-3.34l2.835 1.735v3.417l-2.835-1.813" fill="#5ecadc"/><path d="M11.41 25.393l-.284-.173v3.398l.284-.177v-3.048" fill="#d79b5f"/><path d="M11.126 28.618l2.835 1.754v-.342L11.41 28.44l-.284.177" fill="#a4744c"/><path d="M11.41 25.98l.931 3.04.646.403-1.143-3.764-.434-.266v.587" fill="#88d6df"/><path d="M12.652 26.153l-.17-.104v3.059l.17.212v-3.167" fill="#a4744c"/><path d="M12.81 26.25l.854 3.594.103.065-.834-3.584-.123-.075" fill="#88d6df"/><path d="M11.126 33.366v-3.34l2.835 1.735v3.417l-2.835-1.812" fill="#5ecadc"/><path d="M11.41 30.2l-.284-.174v3.398l.284-.176v-3.049" fill="#d79b5f"/><path d="M11.126 33.424l2.835 1.754v-.343l-2.551-1.587-.284.176" fill="#a4744c"/><path d="M11.41 30.786l.931 3.04.646.403-1.143-3.765-.434-.265v.587" fill="#88d6df"/><path d="M12.652 30.96l-.17-.105v3.059l.17.212v-3.167" fill="#a4744c"/><path d="M12.81 31.056l.854 3.593.103.065-.834-3.583-.123-.075" fill="#88d6df"/><path d="M11.126 38.504v-3.34l2.835 1.735v3.417l-2.835-1.812" fill="#5ecadc"/><path d="M11.41 35.337l-.284-.174v3.4l.284-.178v-3.048" fill="#d79b5f"/><path d="M11.126 38.562l2.835 1.754v-.342l-2.551-1.589-.284.177" fill="#a4744c"/><path d="M11.41 35.924l.931 3.041.646.402-1.143-3.765-.434-.265v.587" fill="#88d6df"/><path d="M12.652 36.097l-.17-.104v3.06l.17.212v-3.168" fill="#a4744c"/><path d="M12.81 36.194l.854 3.594.103.064-.834-3.583-.123-.075" fill="#88d6df"/><path d="M15.532 31.394v-3.34l2.835 1.735v3.417l-2.835-1.812" fill="#5ecadc"/><path d="M15.817 28.227l-.285-.173v3.399l.285-.177v-3.049" fill="#d79b5f"/><path d="M15.532 31.453l2.835 1.753v-.342l-2.55-1.588-.285.177" fill="#a4744c"/><path d="M15.817 28.814l.93 3.041.646.402-1.143-3.764-.433-.266v.587" fill="#88d6df"/><path d="M17.058 28.987l-.17-.104v3.06l.17.212v-3.168" fill="#a4744c"/><path d="M17.215 29.084l.854 3.594.104.064-.834-3.583-.124-.075" fill="#88d6df"/><path d="M15.532 36.2v-3.34l2.835 1.735v3.417L15.532 36.2" fill="#5ecadc"/><path d="M15.817 33.033l-.285-.174v3.4l.285-.178v-3.048" fill="#d79b5f"/><path d="M15.532 36.26l2.835 1.752v-.342l-2.55-1.589-.285.178" fill="#a4744c"/><path d="M15.817 33.62l.93 3.041.646.402L16.25 33.3l-.433-.266v.588" fill="#88d6df"/><path d="M17.058 33.793l-.17-.103v3.058l.17.213v-3.168" fill="#a4744c"/><path d="M17.215 33.89l.854 3.594.104.065-.834-3.584-.124-.075" fill="#88d6df"/><path d="M15.532 41.338v-3.34l2.835 1.735v3.418l-2.835-1.813" fill="#5ecadc"/><path d="M15.817 38.171l-.285-.173v3.4l.285-.179v-3.048" fill="#d79b5f"/><path d="M15.532 41.397l2.835 1.754v-.343l-2.55-1.589-.285.178" fill="#a4744c"/><path d="M15.817 38.759l.93 3.04.646.402-1.143-3.764-.433-.266v.588" fill="#88d6df"/><path d="M17.058 38.932l-.17-.104v3.058l.17.212v-3.166" fill="#a4744c"/><path d="M17.215 39.028l.854 3.594.104.065-.834-3.584-.124-.075" fill="#88d6df"/><path d="M19.939 34.136v-3.34l2.834 1.735v3.417l-2.834-1.812" fill="#5ecadc"/><path d="M20.222 30.97l-.283-.174v3.399l.283-.177v-3.049" fill="#d79b5f"/><path d="M19.939 34.195l2.834 1.753v-.342l-2.55-1.588-.284.177" fill="#a4744c"/><path d="M20.222 31.557l.931 3.041.646.401-1.143-3.764-.434-.266v.588" fill="#88d6df"/><path d="M21.464 31.73l-.17-.105v3.06l.17.212V31.73" fill="#a4744c"/><path d="M21.622 31.827l.854 3.594.103.064-.835-3.584-.122-.074" fill="#88d6df"/><path d="M19.939 38.942v-3.34l2.834 1.735v3.417l-2.834-1.812" fill="#5ecadc"/><path d="M20.222 35.776l-.283-.174v3.4l.283-.178v-3.048" fill="#d79b5f"/><path d="M19.939 39.001l2.834 1.753v-.342l-2.55-1.588-.284.177" fill="#a4744c"/><path d="M20.222 36.363l.931 3.04.646.402-1.143-3.764-.434-.265v.587" fill="#88d6df"/><path d="M21.464 36.535l-.17-.104v3.06l.17.212v-3.168" fill="#a4744c"/><path d="M21.622 36.632l.854 3.595.103.064-.835-3.584-.122-.075" fill="#88d6df"/><path d="M19.939 44.08v-3.34l2.834 1.736v3.416l-2.834-1.812" fill="#5ecadc"/><path d="M20.222 40.913l-.283-.173v3.4l.283-.178v-3.049" fill="#d79b5f"/><path d="M19.939 44.14l2.834 1.752v-.342l-2.55-1.588-.284.178" fill="#a4744c"/><path d="M20.222 41.501l.931 3.04.646.403-1.143-3.765-.434-.266v.588" fill="#88d6df"/><path d="M21.464 41.673l-.17-.103v3.059l.17.212v-3.168" fill="#a4744c"/><path d="M21.622 41.77l.854 3.594.103.065-.835-3.583-.122-.075" fill="#88d6df"/><path d="M47.18 23.036v-3.34l-2.834 1.735v3.417l2.834-1.812" fill="#4dafc3"/><path d="M46.896 19.87l.284-.174v3.399l-.284-.177V19.87" fill="#ba8952"/><path d="M47.18 23.095l-2.834 1.753v-.342l2.55-1.588.284.177" fill="#8a6243"/><path d="M46.896 20.457l-.931 3.04-.646.402 1.143-3.764.434-.265v.587" fill="#79bdc6"/><path d="M45.654 20.63l.17-.105v3.06l-.17.212v-3.168" fill="#8a6243"/><path d="M45.497 20.726l-.854 3.595-.104.063.835-3.583.123-.075" fill="#79bdc6"/><path d="M47.18 27.842v-3.34l-2.834 1.735v3.417l2.834-1.812" fill="#4dafc3"/><path d="M46.896 24.675l.284-.173V27.9l-.284-.177v-3.048" fill="#ba8952"/><path d="M47.18 27.9l-2.834 1.754v-.342l2.55-1.589.284.177" fill="#8a6243"/><path d="M46.896 25.262l-.931 3.042-.646.402 1.143-3.765.434-.266v.587" fill="#79bdc6"/><path d="M45.654 25.435l.17-.104v3.06l-.17.212v-3.168" fill="#8a6243"/><path d="M45.497 25.532l-.854 3.594-.104.065.835-3.584.123-.075" fill="#79bdc6"/><path d="M47.18 32.98v-3.34l-2.834 1.735v3.417l2.834-1.812" fill="#4dafc3"/><path d="M46.896 29.813l.284-.173v3.4l-.284-.178v-3.049" fill="#ba8952"/><path d="M47.18 33.04l-2.834 1.752v-.342l2.55-1.588.284.177" fill="#8a6243"/><path d="M46.896 30.401l-.931 3.04-.646.402 1.143-3.764.434-.266v.588" fill="#79bdc6"/><path d="M45.654 30.573l.17-.104v3.06l-.17.212v-3.168" fill="#8a6243"/><path d="M45.497 30.67l-.854 3.594-.104.065.835-3.584.123-.074" fill="#79bdc6"/><path d="M43.033 25.706v-3.34L40.198 24.1v3.416l2.835-1.811" fill="#4dafc3"/><path d="M42.75 22.539l.283-.174v3.4l-.284-.178v-3.048" fill="#ba8952"/><path d="M43.033 25.764l-2.835 1.753v-.342l2.551-1.588.284.177" fill="#8a6243"/><path d="M42.75 23.126l-.932 3.04-.646.403 1.143-3.764.434-.266v.587" fill="#79bdc6"/><path d="M41.507 23.299l.17-.105v3.06l-.17.212V23.3" fill="#8a6243"/><path d="M41.35 23.396l-.854 3.594-.104.065.834-3.585.124-.074" fill="#79bdc6"/><path d="M43.033 30.511v-3.34l-2.835 1.736v3.416l2.835-1.812" fill="#4dafc3"/><path d="M42.75 27.345l.283-.173v3.399l-.284-.178v-3.048" fill="#ba8952"/><path d="M43.033 30.57l-2.835 1.753v-.341l2.551-1.59.284.179" fill="#8a6243"/><path d="M42.75 27.932l-.932 3.04-.646.403 1.143-3.764.434-.266v.587" fill="#79bdc6"/><path d="M41.507 28.105l.17-.104v3.059l-.17.212v-3.167" fill="#8a6243"/><path d="M41.35 28.202l-.854 3.594-.104.064.834-3.583.124-.075" fill="#79bdc6"/><path d="M38.368 28.554v-3.34l-2.834 1.735v3.417l2.834-1.812" fill="#4dafc3"/><path d="M38.084 25.387l.284-.174v3.4l-.284-.178v-3.048" fill="#ba8952"/><path d="M38.368 28.613l-2.834 1.753v-.342l2.55-1.589.284.178" fill="#8a6243"/><path d="M38.084 25.975l-.931 3.04-.646.402 1.143-3.764.434-.266v.588" fill="#79bdc6"/><path d="M36.842 26.147l.17-.104v3.06l-.17.211v-3.167" fill="#8a6243"/><path d="M36.685 26.244l-.854 3.594-.104.065.835-3.584.123-.075" fill="#79bdc6"/><path d="M38.368 33.36v-3.34l-2.834 1.735v3.418l2.834-1.813" fill="#4dafc3"/><path d="M38.084 30.193l.284-.173v3.399l-.284-.177v-3.05" fill="#ba8952"/><path d="M38.368 33.419l-2.834 1.754v-.343l2.55-1.588.284.177" fill="#8a6243"/><path d="M38.084 30.78l-.931 3.041-.646.402 1.143-3.764.434-.266v.588" fill="#79bdc6"/><path d="M36.842 30.954l.17-.104v3.058l-.17.212v-3.166" fill="#8a6243"/><path d="M36.685 31.05l-.854 3.594-.104.065.835-3.584.123-.075" fill="#79bdc6"/><path d="M33.962 31.388v-3.34l-2.834 1.735V33.2l2.834-1.813" fill="#4dafc3"/><path d="M33.678 28.222l.284-.174v3.399l-.284-.177v-3.048" fill="#ba8952"/><path d="M33.962 31.447l-2.834 1.754v-.343l2.55-1.588.284.177" fill="#8a6243"/><path d="M33.678 28.809l-.93 3.04-.647.403 1.143-3.765.434-.265v.587" fill="#79bdc6"/><path d="M32.437 28.982l.17-.104v3.059l-.17.211v-3.166" fill="#8a6243"/><path d="M32.279 29.078l-.854 3.594-.104.065.834-3.584.124-.075" fill="#79bdc6"/><path d="M33.962 36.194v-3.34l-2.834 1.736v3.417l2.834-1.813" fill="#4dafc3"/><path d="M33.678 33.027l.284-.173v3.399l-.284-.177v-3.049" fill="#ba8952"/><path d="M33.962 36.253l-2.834 1.754v-.343l2.55-1.588.284.177" fill="#8a6243"/><path d="M33.678 33.615l-.93 3.041-.647.402 1.143-3.765.434-.266v.588" fill="#79bdc6"/><path d="M32.437 33.788l.17-.104v3.059l-.17.212v-3.167" fill="#8a6243"/><path d="M32.279 33.885l-.854 3.594-.104.064.834-3.584.124-.074" fill="#79bdc6"/><path d="M33.962 41.332v-3.34l-2.834 1.736v3.416l2.834-1.812" fill="#4dafc3"/><path d="M33.678 38.166l.284-.174v3.4l-.284-.178v-3.048" fill="#ba8952"/><path d="M33.962 41.391l-2.834 1.753v-.342l2.55-1.588.284.177" fill="#8a6243"/><path d="M33.678 38.753l-.93 3.04-.647.403 1.143-3.764.434-.266v.587" fill="#79bdc6"/><path d="M32.437 38.926l.17-.105v3.06l-.17.212v-3.167" fill="#8a6243"/><path d="M32.279 39.023l-.854 3.594-.104.065.834-3.585.124-.074" fill="#79bdc6"/><path d="M29.556 34.13v-3.34l-2.835 1.735v3.418l2.835-1.812" fill="#4dafc3"/><path d="M29.272 30.964l.284-.174v3.4l-.284-.178v-3.048" fill="#ba8952"/><path d="M29.556 34.19l-2.835 1.753V35.6l2.551-1.588.284.177" fill="#8a6243"/><path d="M29.272 31.551l-.931 3.04-.646.402 1.143-3.764.434-.265v.587" fill="#79bdc6"/><path d="M28.03 31.724l.17-.104v3.058l-.17.213v-3.167" fill="#8a6243"/><path d="M27.873 31.82l-.854 3.594-.103.065.834-3.584.123-.074" fill="#79bdc6"/><path d="M29.556 38.936v-3.34l-2.835 1.736v3.417l2.835-1.813" fill="#4dafc3"/><path d="M29.272 35.77l.284-.174v3.399l-.284-.177V35.77" fill="#ba8952"/><path d="M29.556 38.995l-2.835 1.754v-.343l2.551-1.588.284.177" fill="#8a6243"/><path d="M29.272 36.357l-.931 3.041-.646.402 1.143-3.764.434-.266v.587" fill="#79bdc6"/><path d="M28.03 36.53l.17-.104v3.059l-.17.212V36.53" fill="#8a6243"/><path d="M27.873 36.627l-.854 3.594-.103.064.834-3.583.123-.075" fill="#79bdc6"/><path d="M29.556 44.075v-3.34L26.72 42.47v3.417l2.835-1.812" fill="#4dafc3"/><path d="M29.272 40.908l.284-.174v3.4l-.284-.178v-3.048" fill="#ba8952"/><path d="M29.556 44.133l-2.835 1.754v-.343l2.551-1.588.284.177" fill="#8a6243"/><path d="M29.272 41.495l-.931 3.041-.646.402 1.143-3.764.434-.266v.587" fill="#79bdc6"/><path d="M28.03 41.668l.17-.104v3.06l-.17.211v-3.167" fill="#8a6243"/><path d="M27.873 41.765l-.854 3.594-.103.065.834-3.585.123-.074" fill="#79bdc6"/><path d="M42.436 39.026l-.02-6.486-4.818 2.996v6.557l4.838-3.067" fill="#b56553"/><path d="M42.436 39.026l-.554-.242-4.284 2.725v.584l4.838-3.067" fill="#714d2b"/><path d="M41.9 38.793v-5.936l-4.302 2.68v5.972l4.303-2.716" fill="#2e4671"/><path d="M41.49 36.176V33.65l-3.624 2.228v2.585l3.623-2.286" fill="#4dafc3"/><path d="M39.594 38.462h.167v-4.079h-.167v4.079" fill="#2e4671"/><path d="M23.241 7.287l-3.63-2.282 3.717-2.437 3.63 2.282-3.717 2.437" fill="#372419"/><path d="M19.611 7.814v-2.81l3.63 2.283v2.81l-3.63-2.283" fill="#d2b06e"/><path d="M26.958 4.85v2.81l-3.717 2.438v-2.81l3.717-2.438" fill="#e99245"/><path d="M21.426 8.955v-1.81l1.02.662v1.811l-1.02-.663" fill="#2e4671"/></svg>