<svg xmlns="http://www.w3.org/2000/svg" width="200.304" height="221.867" viewBox="0 0 52.997 58.702"><path d="M20.513 33.178l32.484-20.279L32.483 0 0 20.28l20.513 12.898" fill="#c5b793"/><path d="M52.997 38.423V12.9L20.513 33.178v25.524l32.484-20.279" fill="#797351"/><path d="M0 20.28v25.523l20.513 12.9V33.177L0 20.279" fill="#bcb07a"/><path d="M20.962 30.962l28.515-17.778L32.035 2.217 3.52 19.994l17.442 10.968" fill="#716956"/><path d="M32.035 2.217v1.025L4.528 20.628l-1.008-.634L32.035 2.217" fill="#6d481a"/><path d="M32.035 3.242l16.468 10.55.974-.608L32.035 2.217v1.025" fill="#281e15"/><path d="M10.604 19.467l5.05-3.177-5.171-3.391-5.053 3.177 5.174 3.39" fill="#dbc6e6"/><path d="M15.655 20.2v-3.91l-5.051 3.177v3.91l5.05-3.177" fill="#797351"/><path d="M5.43 16.076v3.91l5.174 3.392v-3.911l-5.174-3.39" fill="#bcb07a"/><path d="M13.13 21.789v-2.52l-1.42.921v2.52l1.42-.921" fill="#1c1814"/><path d="M52.997 38.423l-32.484 20.28v-.551l32.484-20.35v.621" fill="#8d826f"/><path d="M20.513 58.702L0 45.803v-.488l20.513 12.837v.55" fill="#c5b793"/><path d="M50.897 21.156v-4.111l-3.607 2.274v4.112l3.607-2.275" fill="#6b869f"/><path d="M50.897 21.156l-.456-.253v-3.571l.456-.287v4.111" fill="#281e15"/><path d="M50.441 20.903l-3.15 1.996v.532l3.606-2.275-.456-.253" fill="#6d481a"/><path d="M50.294 20.864v-3.21l-2.816 1.776v3.21l2.816-1.776" fill="#3a8ec0"/><path d="M44.99 24.718v-4.112l-3.607 2.275v4.111l3.607-2.274" fill="#6b869f"/><path d="M44.99 24.718l-.456-.254v-3.57l.456-.288v4.112" fill="#281e15"/><path d="M44.534 24.464l-3.15 1.996v.532l3.606-2.274-.456-.254" fill="#6d481a"/><path d="M44.387 24.425v-3.21l-2.816 1.776v3.21l2.816-1.776" fill="#3a8ec0"/><path d="M39.04 28.576v-4.112l-3.607 2.275v4.112l3.608-2.275" fill="#6b869f"/><path d="M39.04 28.576l-.456-.254v-3.57l.457-.288v4.112" fill="#281e15"/><path d="M38.584 28.322l-3.15 1.996v.533l3.607-2.275-.457-.254" fill="#6d481a"/><path d="M38.438 28.283v-3.21L35.62 26.85v3.21l2.817-1.777" fill="#3a8ec0"/><path d="M33.111 32.236v-4.111L29.504 30.4v4.11l3.607-2.274" fill="#6b869f"/><path d="M33.111 32.236l-.456-.253v-3.57l.456-.288v4.111" fill="#281e15"/><path d="M32.655 31.983l-3.151 1.996v.532l3.607-2.275-.456-.253" fill="#6d481a"/><path d="M32.509 31.944v-3.21l-2.817 1.776v3.21l2.817-1.776" fill="#3a8ec0"/><path d="M27.182 35.9v-4.112l-3.607 2.275v4.112l3.607-2.275" fill="#6b869f"/><path d="M27.182 35.9l-.455-.254v-3.57l.455-.288V35.9" fill="#281e15"/><path d="M26.727 35.646l-3.152 1.996v.533l3.607-2.275-.455-.254" fill="#6d481a"/><path d="M26.58 35.608v-3.211l-2.816 1.777v3.21l2.816-1.776" fill="#3a8ec0"/><path d="M50.897 28.16v-4.11l-3.607 2.275v4.11l3.607-2.274" fill="#797351"/><path d="M50.897 28.16l-.455-.252v-3.571l.455-.287v4.11" fill="#281e15"/><path d="M50.442 27.908l-3.152 1.996v.532l3.607-2.275-.455-.253" fill="#6d481a"/><path d="M50.295 27.869v-3.21l-2.817 1.776v3.21l2.817-1.776" fill="#3a8ec0"/><path d="M44.99 31.722v-4.111l-3.607 2.275v4.112l3.607-2.276" fill="#797351"/><path d="M44.99 31.722l-.456-.253v-3.57l.456-.288v4.111" fill="#281e15"/><path d="M44.534 31.469l-3.15 1.997v.532l3.606-2.276-.456-.253" fill="#6d481a"/><path d="M44.387 31.43v-3.21l-2.816 1.776v3.21l2.816-1.776" fill="#3a8ec0"/><path d="M39.04 35.58v-4.11l-3.607 2.275v4.111l3.608-2.275" fill="#797351"/><path d="M39.04 35.58l-.456-.253v-3.57l.457-.288v4.111" fill="#281e15"/><path d="M38.584 35.327l-3.15 1.996v.532l3.607-2.275-.457-.253" fill="#6d481a"/><path d="M38.438 35.288v-3.21l-2.817 1.776v3.21l2.817-1.776" fill="#3a8ec0"/><path d="M33.111 39.24v-4.11l-3.607 2.275v4.11l3.607-2.274" fill="#797351"/><path d="M33.111 39.24l-.456-.253v-3.57l.456-.287v4.11" fill="#281e15"/><path d="M32.655 38.987l-3.151 1.997v.532l3.607-2.275-.456-.254" fill="#6d481a"/><path d="M32.509 38.949v-3.21l-2.817 1.776v3.21l2.817-1.776" fill="#3a8ec0"/><path d="M27.182 42.904v-4.111l-3.607 2.275v4.112l3.607-2.276" fill="#797351"/><path d="M27.182 42.904l-.455-.253v-3.57l.455-.288v4.111" fill="#281e15"/><path d="M26.727 42.65l-3.152 1.998v.532l3.607-2.276-.455-.253" fill="#6d481a"/><path d="M26.58 42.612v-3.21l-2.816 1.776v3.211l2.816-1.777" fill="#3a8ec0"/><path d="M50.897 35.166v-4.111l-3.607 2.274v4.111l3.607-2.274" fill="#797351"/><path d="M50.897 35.166l-.456-.254v-3.57l.456-.287v4.11" fill="#281e15"/><path d="M50.441 34.912l-3.15 1.997v.531l3.606-2.274-.456-.254" fill="#6d481a"/><path d="M50.294 34.874v-3.21l-2.816 1.776v3.21l2.816-1.776" fill="#3a8ec0"/><path d="M44.99 38.728v-4.112l-3.607 2.275v4.111l3.607-2.274" fill="#797351"/><path d="M44.99 38.728l-.456-.254v-3.57l.456-.288v4.112" fill="#281e15"/><path d="M44.534 38.474l-3.15 1.997v.531l3.606-2.274-.456-.254" fill="#6d481a"/><path d="M44.387 38.435v-3.21L41.571 37v3.21l2.816-1.776" fill="#3a8ec0"/><path d="M39.04 42.585v-4.111l-3.607 2.274v4.112l3.608-2.275" fill="#797351"/><path d="M39.04 42.585l-.456-.253v-3.57l.457-.288v4.111" fill="#281e15"/><path d="M38.584 42.332l-3.15 1.996v.532l3.607-2.275-.457-.253" fill="#6d481a"/><path d="M38.438 42.293v-3.21L35.62 40.86v3.21l2.817-1.776" fill="#3a8ec0"/><path d="M33.111 46.246v-4.111l-3.607 2.274v4.112l3.607-2.275" fill="#797351"/><path d="M33.111 46.246l-.456-.253v-3.57l.456-.288v4.111" fill="#281e15"/><path d="M32.655 45.993l-3.15 1.996v.532l3.606-2.275-.456-.253" fill="#6d481a"/><path d="M32.509 45.954v-3.21l-2.817 1.776v3.21l2.817-1.776" fill="#3a8ec0"/><path d="M27.183 49.91v-4.112l-3.607 2.275v4.112l3.607-2.275" fill="#797351"/><path d="M27.183 49.91l-.456-.254v-3.57l.456-.288v4.112" fill="#281e15"/><path d="M26.727 49.656l-3.15 1.996v.533l3.606-2.275-.456-.254" fill="#6d481a"/><path d="M26.58 49.617v-3.21l-2.816 1.777v3.21l2.816-1.777" fill="#3a8ec0"/><path d="M2.046 29.186v-4.112l3.608 2.275v4.111l-3.608-2.274" fill="#5b7589"/><path d="M2.046 29.186l.457-.254v-3.57l-.457-.288v4.112" fill="#4f4635"/><path d="M2.503 28.932l3.151 1.997v.531l-3.608-2.274.457-.254" fill="#98641e"/><path d="M2.65 28.894v-3.211l2.816 1.777v3.21l-2.817-1.776" fill="#449ed4"/><path d="M7.975 32.846v-4.111l3.607 2.275v4.111l-3.607-2.275" fill="#5b7589"/><path d="M7.975 32.846l.457-.254v-3.57l-.457-.287v4.111" fill="#4f4635"/><path d="M8.432 32.592l3.15 1.997v.532l-3.607-2.275.457-.254" fill="#98641e"/><path d="M8.578 32.554v-3.21l2.816 1.776v3.21l-2.816-1.776" fill="#449ed4"/><path d="M13.904 36.51V32.4l3.607 2.274v4.112l-3.607-2.275" fill="#5b7589"/><path d="M13.904 36.51l.456-.253v-3.57l-.456-.288v4.111" fill="#4f4635"/><path d="M14.36 36.257l3.15 1.996v.532l-3.606-2.275.456-.253" fill="#98641e"/><path d="M14.507 36.218v-3.21l2.816 1.776v3.21l-2.816-1.776" fill="#449ed4"/><path d="M2.046 36.19v-4.11l3.608 2.274v4.112L2.046 36.19" fill="#5b7589"/><path d="M2.046 36.19l.457-.253v-3.57l-.457-.288v4.112" fill="#4f4635"/><path d="M2.503 35.937l3.151 1.997v.532L2.046 36.19l.457-.254" fill="#98641e"/><path d="M2.65 35.898v-3.21l2.816 1.777v3.21l-2.817-1.777" fill="#449ed4"/><path d="M7.975 39.851V35.74l3.607 2.274v4.112L7.975 39.85" fill="#5b7589"/><path d="M7.975 39.851l.457-.253v-3.57l-.457-.288v4.111" fill="#4f4635"/><path d="M8.432 39.598l3.15 1.996v.532L7.975 39.85l.457-.253" fill="#98641e"/><path d="M8.578 39.56v-3.21l2.816 1.775v3.21l-2.816-1.776" fill="#449ed4"/><path d="M13.904 43.515v-4.111l3.607 2.274v4.112l-3.607-2.275" fill="#5b7589"/><path d="M13.904 43.515l.456-.254v-3.57l-.456-.287v4.11" fill="#4f4635"/><path d="M14.36 43.261l3.15 1.997v.532l-3.606-2.275.456-.254" fill="#98641e"/><path d="M14.507 43.223v-3.21l2.816 1.776v3.21l-2.816-1.776" fill="#449ed4"/><path d="M2.046 43.196v-4.111l3.607 2.274v4.111l-3.607-2.274" fill="#5b7589"/><path d="M2.046 43.196l.457-.254v-3.57l-.457-.287v4.11" fill="#4f4635"/><path d="M2.503 42.942l3.15 1.996v.532l-3.607-2.274.457-.254" fill="#98641e"/><path d="M2.65 42.903v-3.21l2.816 1.777v3.21l-2.817-1.777" fill="#449ed4"/><path d="M7.975 46.857v-4.112l3.607 2.275v4.111l-3.607-2.274" fill="#5b7589"/><path d="M7.975 46.857l.457-.254v-3.571l-.457-.287v4.112" fill="#4f4635"/><path d="M8.432 46.603l3.15 1.996v.532l-3.607-2.274.457-.254" fill="#98641e"/><path d="M8.578 46.564v-3.21l2.816 1.777v3.21l-2.816-1.777" fill="#449ed4"/><path d="M13.904 50.52v-4.11l3.607 2.274v4.112l-3.607-2.275" fill="#5b7589"/><path d="M13.904 50.52l.455-.253v-3.57l-.455-.288v4.111" fill="#4f4635"/><path d="M14.36 50.267l3.15 1.996v.532l-3.606-2.275.455-.253" fill="#98641e"/><path d="M14.506 50.227v-3.21l2.817 1.777v3.21l-2.817-1.777" fill="#449ed4"/><path d="M33.158 8.154l-3.387-2.13L33.24 3.75l3.388 2.13-3.47 2.274" fill="#e4d5aa"/><path d="M29.771 7.344v-1.32l3.387 2.13v1.32l-3.387-2.13" fill="#d9c173"/><path d="M36.627 5.88V7.2l-3.47 2.274v-1.32l3.47-2.274" fill="#776944"/><path d="M35.311 5.952c0 .642-.946 1.163-2.113 1.163-1.166 0-2.112-.52-2.112-1.163 0-.642.946-1.163 2.112-1.163 1.167 0 2.113.52 2.113 1.163" fill="#8e7b5b"/><path d="M34.34 5.952c0 .346-.512.628-1.142.628-.63 0-1.14-.282-1.14-.628 0-.347.51-.628 1.14-.628.63 0 1.141.281 1.141.628" fill="#e4d5aa"/><path d="M33.198 5.091c-.862 0-1.562.386-1.562.861s.7.86 1.562.86c.864 0 1.563-.385 1.563-.86s-.7-.86-1.563-.86zm1.816.861c0 .552-.812 1-1.816 1-1.002 0-1.815-.448-1.815-1s.813-.999 1.815-.999c1.004 0 1.816.447 1.816 1m.256 6.541l-3.387-2.13 3.468-2.275 3.388 2.13-3.47 2.275" fill="#e4d5aa"/><path d="M31.883 11.683v-1.32l3.386 2.13v1.32l-3.386-2.13" fill="#d9c173"/><path d="M38.739 10.22v1.32l-3.47 2.274v-1.32l3.47-2.274" fill="#776944"/><path d="M37.423 10.291c0 .643-.946 1.163-2.113 1.163-1.166 0-2.112-.52-2.112-1.163 0-.642.946-1.163 2.112-1.163 1.167 0 2.113.521 2.113 1.163" fill="#8e7b5b"/><path d="M36.451 10.291c0 .347-.511.628-1.14.628-.63 0-1.141-.281-1.141-.628 0-.346.51-.627 1.14-.627.63 0 1.141.28 1.141.627" fill="#e4d5aa"/><path d="M35.31 9.43c-.863 0-1.562.386-1.562.861 0 .476.7.86 1.562.86.863 0 1.563-.384 1.563-.86 0-.475-.7-.86-1.563-.86zm1.816.861c0 .552-.813 1-1.816 1-1.002 0-1.815-.448-1.815-1s.813-.999 1.815-.999c1.003 0 1.816.447 1.816 1" fill="#e4d5aa"/></svg>