<?xml version="1.0" encoding="UTF-8" standalone="no"?>
<svg
   xmlns:dc="http://purl.org/dc/elements/1.1/"
   xmlns:cc="http://creativecommons.org/ns#"
   xmlns:rdf="http://www.w3.org/1999/02/22-rdf-syntax-ns#"
   xmlns:svg="http://www.w3.org/2000/svg"
   xmlns="http://www.w3.org/2000/svg"
   xmlns:sodipodi="http://sodipodi.sourceforge.net/DTD/sodipodi-0.dtd"
   xmlns:inkscape="http://www.inkscape.org/namespaces/inkscape"
   width="52.997276mm"
   height="58.702431mm"
   viewBox="0 0 52.997276 58.702431"
   version="1.1"
   id="svg47010"
   inkscape:version="1.0.2 (e86c870879, 2021-01-15)"
   sodipodi:docname="office.svg">
  <defs
     id="defs47004" />
  <sodipodi:namedview
     id="base"
     pagecolor="#ffffff"
     bordercolor="#666666"
     borderopacity="1.0"
     inkscape:pageopacity="0.0"
     inkscape:pageshadow="2"
     inkscape:zoom="0.35"
     inkscape:cx="1697.2952"
     inkscape:cy="365.21945"
     inkscape:document-units="mm"
     inkscape:current-layer="layer1"
     inkscape:document-rotation="0"
     showgrid="false"
     inkscape:window-width="1920"
     inkscape:window-height="1016"
     inkscape:window-x="0"
     inkscape:window-y="0"
     inkscape:window-maximized="1" />
  <metadata
     id="metadata47007">
    <rdf:RDF>
      <cc:Work
         rdf:about="">
        <dc:format>image/svg+xml</dc:format>
        <dc:type
           rdf:resource="http://purl.org/dc/dcmitype/StillImage" />
        <dc:title></dc:title>
      </cc:Work>
    </rdf:RDF>
  </metadata>
  <g
     inkscape:label="Layer 1"
     inkscape:groupmode="layer"
     id="layer1"
     transform="translate(343.24268,-51.535687)">
    <g
       id="g46740"
       transform="matrix(0.35277777,0,0,-0.35277777,-371.49969,362.6165)">
      <path
         d="m 138.2471,787.7549 92.08,57.484 -58.15,36.565 -92.078,-57.485 z"
         style="fill:#c8ba9e;fill-opacity:1;fill-rule:nonzero;stroke:none"
         id="path34914" />
      <path
         d="m 230.3271,772.8877 v 72.352 l -92.08,-57.485 v -72.351 z"
         style="fill:#81785b;fill-opacity:1;fill-rule:nonzero;stroke:none"
         id="path34918" />
      <path
         d="m 80.0986,824.3193 v -72.352 l 58.148,-36.564 v 72.352 z"
         style="fill:#c1b289;fill-opacity:1;fill-rule:nonzero;stroke:none"
         id="path34922" />
      <path
         d="m 139.5186,794.0381 80.83,50.393 -49.443,31.089 -80.828,-50.392 z"
         style="fill:#796f5e;fill-opacity:1;fill-rule:nonzero;stroke:none"
         id="path34926" />
      <path
         d="m 170.9053,875.5205 v -2.908 l -77.973,-49.281 -2.855,1.796 z"
         style="fill:#745020;fill-opacity:1;fill-rule:nonzero;stroke:none"
         id="path34930" />
      <path
         d="m 170.9053,872.6123 46.682,-29.902 2.761,1.72 -49.443,31.09 z"
         style="fill:#2d2111;fill-opacity:1;fill-rule:nonzero;stroke:none"
         id="path34934" />
      <path
         d="m 110.1572,826.6221 14.316,9.004 -14.66,9.613 -14.322,-9.006 z"
         style="fill:#d7cae2;fill-opacity:1;fill-rule:nonzero;stroke:none"
         id="path34938" />
      <path
         d="m 124.4736,824.5439 v 11.082 l -14.316,-9.004 v -11.086 z"
         style="fill:#81785b;fill-opacity:1;fill-rule:nonzero;stroke:none"
         id="path34942" />
      <path
         d="m 95.4912,836.2334 v -11.084 l 14.666,-9.613 v 11.086 z"
         style="fill:#c1b289;fill-opacity:1;fill-rule:nonzero;stroke:none"
         id="path34946" />
      <path
         d="m 117.3154,820.04 v 7.145 l -4.021,-2.614 v -7.144 z"
         style="fill:#1b1610;fill-opacity:1;fill-rule:nonzero;stroke:none"
         id="path34950" />
      <path
         d="m 230.3271,772.8877 -92.08,-57.484 v 1.56 l 92.08,57.684 z"
         style="fill:#938777;fill-opacity:1;fill-rule:nonzero;stroke:none"
         id="path34954" />
      <path
         d="m 138.2471,715.4033 -58.148,36.564 v 1.383 l 58.148,-36.386 z"
         style="fill:#c8ba9e;fill-opacity:1;fill-rule:nonzero;stroke:none"
         id="path34958" />
      <path
         d="m 224.374,821.833 v 11.654 l -10.225,-6.447 v -11.654 z"
         style="fill:#6f899e;fill-opacity:1;fill-rule:nonzero;stroke:none"
         id="path34962" />
      <path
         d="m 224.374,821.833 -1.293,0.719 v 10.121 l 1.293,0.814 z"
         style="fill:#2d2111;fill-opacity:1;fill-rule:nonzero;stroke:none"
         id="path34966" />
      <path
         d="m 223.0811,822.5518 -8.932,-5.658 v -1.508 l 10.225,6.447 z"
         style="fill:#745020;fill-opacity:1;fill-rule:nonzero;stroke:none"
         id="path34970" />
      <path
         d="m 222.665,822.6611 v 9.102 l -7.982,-5.036 v -9.099 z"
         style="fill:#048ebb;fill-opacity:1;fill-rule:nonzero;stroke:none"
         id="path34974" />
      <path
         d="m 207.6299,811.7373 v 11.656 l -10.225,-6.449 v -11.654 z"
         style="fill:#6f899e;fill-opacity:1;fill-rule:nonzero;stroke:none"
         id="path34978" />
      <path
         d="m 207.6299,811.7373 -1.293,0.719 v 10.121 l 1.293,0.816 z"
         style="fill:#2d2111;fill-opacity:1;fill-rule:nonzero;stroke:none"
         id="path34982" />
      <path
         d="m 206.3369,812.4561 -8.932,-5.658 v -1.508 l 10.225,6.447 z"
         style="fill:#745020;fill-opacity:1;fill-rule:nonzero;stroke:none"
         id="path34986" />
      <path
         d="m 205.9209,812.5674 v 9.1 l -7.982,-5.036 v -9.099 z"
         style="fill:#048ebb;fill-opacity:1;fill-rule:nonzero;stroke:none"
         id="path34990" />
      <path
         d="m 190.7646,800.8018 v 11.654 l -10.225,-6.447 v -11.656 z"
         style="fill:#6f899e;fill-opacity:1;fill-rule:nonzero;stroke:none"
         id="path34994" />
      <path
         d="m 190.7646,800.8018 -1.293,0.719 v 10.121 l 1.293,0.814 z"
         style="fill:#2d2111;fill-opacity:1;fill-rule:nonzero;stroke:none"
         id="path34998" />
      <path
         d="m 189.4717,801.5205 -8.932,-5.658 v -1.51 l 10.225,6.449 z"
         style="fill:#745020;fill-opacity:1;fill-rule:nonzero;stroke:none"
         id="path35002" />
      <path
         d="m 189.0557,801.6299 v 9.102 l -7.984,-5.038 v -9.099 z"
         style="fill:#048ebb;fill-opacity:1;fill-rule:nonzero;stroke:none"
         id="path35006" />
      <path
         d="m 173.958,790.4248 v 11.654 l -10.227,-6.447 v -11.654 z"
         style="fill:#6f899e;fill-opacity:1;fill-rule:nonzero;stroke:none"
         id="path35010" />
      <path
         d="m 173.958,790.4248 -1.293,0.719 v 10.121 l 1.293,0.814 z"
         style="fill:#2d2111;fill-opacity:1;fill-rule:nonzero;stroke:none"
         id="path35014" />
      <path
         d="m 172.665,791.1436 -8.934,-5.658 v -1.508 l 10.227,6.447 z"
         style="fill:#745020;fill-opacity:1;fill-rule:nonzero;stroke:none"
         id="path35018" />
      <path
         d="m 172.249,791.2529 v 9.102 l -7.984,-5.036 v -9.099 z"
         style="fill:#048ebb;fill-opacity:1;fill-rule:nonzero;stroke:none"
         id="path35022" />
      <path
         d="m 157.1514,780.04 v 11.654 l -10.225,-6.447 v -11.656 z"
         style="fill:#6f899e;fill-opacity:1;fill-rule:nonzero;stroke:none"
         id="path35026" />
      <path
         d="m 157.1514,780.04 -1.291,0.719 v 10.121 l 1.291,0.814 z"
         style="fill:#2d2111;fill-opacity:1;fill-rule:nonzero;stroke:none"
         id="path35030" />
      <path
         d="m 155.8604,780.7588 -8.934,-5.658 v -1.51 l 10.225,6.449 z"
         style="fill:#745020;fill-opacity:1;fill-rule:nonzero;stroke:none"
         id="path35034" />
      <path
         d="m 155.4443,780.8682 v 9.102 l -7.984,-5.038 v -9.099 z"
         style="fill:#048ebb;fill-opacity:1;fill-rule:nonzero;stroke:none"
         id="path35038" />
      <path
         d="m 224.374,801.9775 v 11.654 l -10.225,-6.449 v -11.654 z"
         style="fill:#81785b;fill-opacity:1;fill-rule:nonzero;stroke:none"
         id="path35042" />
      <path
         d="m 224.374,801.9775 -1.291,0.717 v 10.123 l 1.291,0.814 z"
         style="fill:#2d2111;fill-opacity:1;fill-rule:nonzero;stroke:none"
         id="path35046" />
      <path
         d="m 223.083,802.6943 -8.934,-5.658 v -1.508 l 10.225,6.449 z"
         style="fill:#745020;fill-opacity:1;fill-rule:nonzero;stroke:none"
         id="path35050" />
      <path
         d="m 222.667,802.8057 v 9.1 l -7.984,-5.036 v -9.099 z"
         style="fill:#048ebb;fill-opacity:1;fill-rule:nonzero;stroke:none"
         id="path35054" />
      <path
         d="m 207.6299,791.8818 v 11.654 l -10.225,-6.449 v -11.654 z"
         style="fill:#81785b;fill-opacity:1;fill-rule:nonzero;stroke:none"
         id="path35058" />
      <path
         d="m 207.6299,791.8818 -1.293,0.719 v 10.121 l 1.293,0.814 z"
         style="fill:#2d2111;fill-opacity:1;fill-rule:nonzero;stroke:none"
         id="path35062" />
      <path
         d="m 206.3369,792.6006 -8.932,-5.66 v -1.508 l 10.225,6.449 z"
         style="fill:#745020;fill-opacity:1;fill-rule:nonzero;stroke:none"
         id="path35066" />
      <path
         d="m 205.9209,792.71 v 9.1 l -7.982,-5.036 v -9.099 z"
         style="fill:#048ebb;fill-opacity:1;fill-rule:nonzero;stroke:none"
         id="path35070" />
      <path
         d="m 190.7646,780.9463 v 11.654 l -10.225,-6.449 v -11.654 z"
         style="fill:#81785b;fill-opacity:1;fill-rule:nonzero;stroke:none"
         id="path35074" />
      <path
         d="m 190.7646,780.9463 -1.293,0.717 v 10.121 l 1.293,0.816 z"
         style="fill:#2d2111;fill-opacity:1;fill-rule:nonzero;stroke:none"
         id="path35078" />
      <path
         d="m 189.4717,781.6631 -8.932,-5.658 v -1.508 l 10.225,6.449 z"
         style="fill:#745020;fill-opacity:1;fill-rule:nonzero;stroke:none"
         id="path35082" />
      <path
         d="m 189.0557,781.7744 v 9.1 l -7.982,-5.036 v -9.099 z"
         style="fill:#048ebb;fill-opacity:1;fill-rule:nonzero;stroke:none"
         id="path35086" />
      <path
         d="m 173.958,770.5693 v 11.654 l -10.227,-6.449 v -11.654 z"
         style="fill:#81785b;fill-opacity:1;fill-rule:nonzero;stroke:none"
         id="path35090" />
      <path
         d="m 173.958,770.5693 -1.293,0.719 v 10.121 l 1.293,0.814 z"
         style="fill:#2d2111;fill-opacity:1;fill-rule:nonzero;stroke:none"
         id="path35094" />
      <path
         d="m 172.665,771.2881 -8.934,-5.66 v -1.508 l 10.227,6.449 z"
         style="fill:#745020;fill-opacity:1;fill-rule:nonzero;stroke:none"
         id="path35098" />
      <path
         d="m 172.249,771.3975 v 9.1 l -7.984,-5.036 v -9.099 z"
         style="fill:#048ebb;fill-opacity:1;fill-rule:nonzero;stroke:none"
         id="path35102" />
      <path
         d="m 157.1514,760.1846 v 11.654 l -10.225,-6.449 v -11.654 z"
         style="fill:#81785b;fill-opacity:1;fill-rule:nonzero;stroke:none"
         id="path35106" />
      <path
         d="m 157.1514,760.1846 -1.291,0.719 v 10.119 l 1.291,0.816 z"
         style="fill:#2d2111;fill-opacity:1;fill-rule:nonzero;stroke:none"
         id="path35110" />
      <path
         d="m 155.8604,760.9033 -8.934,-5.66 v -1.508 l 10.225,6.449 z"
         style="fill:#745020;fill-opacity:1;fill-rule:nonzero;stroke:none"
         id="path35114" />
      <path
         d="m 155.4443,761.0127 v 9.1 l -7.984,-5.036 v -9.101 z"
         style="fill:#048ebb;fill-opacity:1;fill-rule:nonzero;stroke:none"
         id="path35118" />
      <path
         d="m 224.374,782.1201 v 11.654 l -10.225,-6.447 v -11.654 z"
         style="fill:#81785b;fill-opacity:1;fill-rule:nonzero;stroke:none"
         id="path35122" />
      <path
         d="m 224.374,782.1201 -1.293,0.719 v 10.121 l 1.293,0.814 z"
         style="fill:#2d2111;fill-opacity:1;fill-rule:nonzero;stroke:none"
         id="path35126" />
      <path
         d="m 223.0811,782.8389 -8.932,-5.66 v -1.506 l 10.225,6.447 z"
         style="fill:#745020;fill-opacity:1;fill-rule:nonzero;stroke:none"
         id="path35130" />
      <path
         d="m 222.665,782.9482 v 9.102 l -7.982,-5.038 v -9.099 z"
         style="fill:#048ebb;fill-opacity:1;fill-rule:nonzero;stroke:none"
         id="path35134" />
      <path
         d="m 207.6299,772.0244 v 11.656 l -10.225,-6.449 v -11.654 z"
         style="fill:#81785b;fill-opacity:1;fill-rule:nonzero;stroke:none"
         id="path35138" />
      <path
         d="m 207.6299,772.0244 -1.293,0.719 v 10.121 l 1.293,0.816 z"
         style="fill:#2d2111;fill-opacity:1;fill-rule:nonzero;stroke:none"
         id="path35142" />
      <path
         d="m 206.3369,772.7432 -8.932,-5.66 v -1.506 l 10.225,6.447 z"
         style="fill:#745020;fill-opacity:1;fill-rule:nonzero;stroke:none"
         id="path35146" />
      <path
         d="m 205.9209,772.8525 v 9.102 l -7.984,-5.036 v -9.101 z"
         style="fill:#048ebb;fill-opacity:1;fill-rule:nonzero;stroke:none"
         id="path35150" />
      <path
         d="m 190.7646,761.0889 v 11.654 l -10.225,-6.447 v -11.654 z"
         style="fill:#81785b;fill-opacity:1;fill-rule:nonzero;stroke:none"
         id="path35154" />
      <path
         d="m 190.7646,761.0889 -1.293,0.719 v 10.121 l 1.293,0.814 z"
         style="fill:#2d2111;fill-opacity:1;fill-rule:nonzero;stroke:none"
         id="path35158" />
      <path
         d="m 189.4717,761.8076 -8.932,-5.658 v -1.508 l 10.225,6.447 z"
         style="fill:#745020;fill-opacity:1;fill-rule:nonzero;stroke:none"
         id="path35162" />
      <path
         d="m 189.0557,761.917 v 9.1 l -7.984,-5.036 v -9.099 z"
         style="fill:#048ebb;fill-opacity:1;fill-rule:nonzero;stroke:none"
         id="path35166" />
      <path
         d="m 173.958,750.7119 v 11.654 l -10.225,-6.447 v -11.654 z"
         style="fill:#81785b;fill-opacity:1;fill-rule:nonzero;stroke:none"
         id="path35170" />
      <path
         d="m 173.958,750.7119 -1.293,0.719 v 10.121 l 1.293,0.814 z"
         style="fill:#2d2111;fill-opacity:1;fill-rule:nonzero;stroke:none"
         id="path35174" />
      <path
         d="m 172.665,751.4307 -8.932,-5.658 v -1.508 l 10.225,6.447 z"
         style="fill:#745020;fill-opacity:1;fill-rule:nonzero;stroke:none"
         id="path35178" />
      <path
         d="m 172.249,751.54 v 9.102 l -7.984,-5.038 v -9.097 z"
         style="fill:#048ebb;fill-opacity:1;fill-rule:nonzero;stroke:none"
         id="path35182" />
      <path
         d="m 157.1533,740.3271 v 11.654 l -10.225,-6.447 v -11.656 z"
         style="fill:#81785b;fill-opacity:1;fill-rule:nonzero;stroke:none"
         id="path35186" />
      <path
         d="m 157.1533,740.3271 -1.293,0.719 v 10.121 l 1.293,0.814 z"
         style="fill:#2d2111;fill-opacity:1;fill-rule:nonzero;stroke:none"
         id="path35190" />
      <path
         d="m 155.8604,741.0459 -8.932,-5.658 v -1.51 l 10.225,6.449 z"
         style="fill:#745020;fill-opacity:1;fill-rule:nonzero;stroke:none"
         id="path35194" />
      <path
         d="m 155.4443,741.1553 v 9.1 l -7.982,-5.036 v -9.099 z"
         style="fill:#048ebb;fill-opacity:1;fill-rule:nonzero;stroke:none"
         id="path35198" />
      <path
         d="m 85.8994,799.0713 v 11.656 l 10.227,-6.449 v -11.654 z"
         style="fill:#617989;fill-opacity:1;fill-rule:nonzero;stroke:none"
         id="path35202" />
      <path
         d="m 85.8994,799.0713 1.293,0.719 v 10.121 l -1.293,0.816 z"
         style="fill:#564d3c;fill-opacity:1;fill-rule:nonzero;stroke:none"
         id="path35206" />
      <path
         d="m 87.1924,799.79 8.934,-5.658 v -1.508 l -10.227,6.447 z"
         style="fill:#9e6c29;fill-opacity:1;fill-rule:nonzero;stroke:none"
         id="path35210" />
      <path
         d="m 87.6084,799.8994 v 9.102 l 7.984,-5.036 v -9.101 z"
         style="fill:#139dcf;fill-opacity:1;fill-rule:nonzero;stroke:none"
         id="path35214" />
      <path
         d="m 102.7061,788.6963 v 11.654 l 10.225,-6.449 v -11.654 z"
         style="fill:#617989;fill-opacity:1;fill-rule:nonzero;stroke:none"
         id="path35218" />
      <path
         d="m 102.7061,788.6963 1.293,0.719 v 10.119 l -1.293,0.816 z"
         style="fill:#564d3c;fill-opacity:1;fill-rule:nonzero;stroke:none"
         id="path35222" />
      <path
         d="m 103.999,789.415 8.932,-5.66 v -1.508 l -10.225,6.449 z"
         style="fill:#9e6c29;fill-opacity:1;fill-rule:nonzero;stroke:none"
         id="path35226" />
      <path
         d="m 104.415,789.5244 v 9.1 l 7.982,-5.036 v -9.099 z"
         style="fill:#139dcf;fill-opacity:1;fill-rule:nonzero;stroke:none"
         id="path35230" />
      <path
         d="m 119.5107,778.3096 v 11.654 l 10.225,-6.447 v -11.654 z"
         style="fill:#617989;fill-opacity:1;fill-rule:nonzero;stroke:none"
         id="path35234" />
      <path
         d="m 119.5107,778.3096 1.293,0.719 v 10.121 l -1.293,0.814 z"
         style="fill:#564d3c;fill-opacity:1;fill-rule:nonzero;stroke:none"
         id="path35238" />
      <path
         d="m 120.8037,779.0283 8.932,-5.658 v -1.508 l -10.225,6.447 z"
         style="fill:#9e6c29;fill-opacity:1;fill-rule:nonzero;stroke:none"
         id="path35242" />
      <path
         d="m 121.2197,779.1396 v 9.1 l 7.982,-5.036 v -9.101 z"
         style="fill:#139dcf;fill-opacity:1;fill-rule:nonzero;stroke:none"
         id="path35246" />
      <path
         d="m 85.8994,779.2158 v 11.654 l 10.227,-6.447 v -11.656 z"
         style="fill:#617989;fill-opacity:1;fill-rule:nonzero;stroke:none"
         id="path35250" />
      <path
         d="m 85.8994,779.2158 1.293,0.719 v 10.119 l -1.293,0.816 z"
         style="fill:#564d3c;fill-opacity:1;fill-rule:nonzero;stroke:none"
         id="path35254" />
      <path
         d="m 87.1924,779.9346 8.934,-5.66 v -1.508 l -10.227,6.449 z"
         style="fill:#9e6c29;fill-opacity:1;fill-rule:nonzero;stroke:none"
         id="path35258" />
      <path
         d="m 87.6084,780.0439 v 9.1 l 7.984,-5.036 v -9.099 z"
         style="fill:#139dcf;fill-opacity:1;fill-rule:nonzero;stroke:none"
         id="path35262" />
      <path
         d="m 102.7061,768.8389 v 11.654 l 10.225,-6.447 v -11.654 z"
         style="fill:#617989;fill-opacity:1;fill-rule:nonzero;stroke:none"
         id="path35266" />
      <path
         d="m 102.7061,768.8389 1.293,0.719 v 10.121 l -1.293,0.814 z"
         style="fill:#564d3c;fill-opacity:1;fill-rule:nonzero;stroke:none"
         id="path35270" />
      <path
         d="m 103.999,769.5576 8.932,-5.658 v -1.508 l -10.225,6.447 z"
         style="fill:#9e6c29;fill-opacity:1;fill-rule:nonzero;stroke:none"
         id="path35274" />
      <path
         d="m 104.415,769.667 v 9.1 l 7.982,-5.036 v -9.097 z"
         style="fill:#139dcf;fill-opacity:1;fill-rule:nonzero;stroke:none"
         id="path35278" />
      <path
         d="m 119.5107,758.4541 v 11.654 l 10.225,-6.447 v -11.656 z"
         style="fill:#617989;fill-opacity:1;fill-rule:nonzero;stroke:none"
         id="path35282" />
      <path
         d="m 119.5107,758.4541 1.293,0.719 v 10.121 l -1.293,0.814 z"
         style="fill:#564d3c;fill-opacity:1;fill-rule:nonzero;stroke:none"
         id="path35286" />
      <path
         d="m 120.8037,759.1729 8.932,-5.66 v -1.508 l -10.225,6.449 z"
         style="fill:#9e6c29;fill-opacity:1;fill-rule:nonzero;stroke:none"
         id="path35290" />
      <path
         d="m 121.2197,759.2822 v 9.1 l 7.982,-5.036 v -9.099 z"
         style="fill:#139dcf;fill-opacity:1;fill-rule:nonzero;stroke:none"
         id="path35294" />
      <path
         d="m 85.8994,759.3584 v 11.654 l 10.225,-6.447 v -11.654 z"
         style="fill:#617989;fill-opacity:1;fill-rule:nonzero;stroke:none"
         id="path35298" />
      <path
         d="m 85.8994,759.3584 1.293,0.719 v 10.121 l -1.293,0.814 z"
         style="fill:#564d3c;fill-opacity:1;fill-rule:nonzero;stroke:none"
         id="path35302" />
      <path
         d="m 87.1924,760.0771 8.932,-5.658 v -1.508 l -10.225,6.447 z"
         style="fill:#9e6c29;fill-opacity:1;fill-rule:nonzero;stroke:none"
         id="path35306" />
      <path
         d="m 87.6084,760.1885 v 9.1 l 7.984,-5.038 v -9.097 z"
         style="fill:#139dcf;fill-opacity:1;fill-rule:nonzero;stroke:none"
         id="path35310" />
      <path
         d="m 102.7061,748.9814 v 11.654 l 10.225,-6.447 v -11.654 z"
         style="fill:#617989;fill-opacity:1;fill-rule:nonzero;stroke:none"
         id="path35314" />
      <path
         d="m 102.7061,748.9814 1.293,0.719 v 10.123 l -1.293,0.812 z"
         style="fill:#564d3c;fill-opacity:1;fill-rule:nonzero;stroke:none"
         id="path35318" />
      <path
         d="m 103.999,749.7002 8.932,-5.658 v -1.508 l -10.225,6.447 z"
         style="fill:#9e6c29;fill-opacity:1;fill-rule:nonzero;stroke:none"
         id="path35322" />
      <path
         d="m 104.415,749.8115 v 9.1 l 7.982,-5.038 v -9.097 z"
         style="fill:#139dcf;fill-opacity:1;fill-rule:nonzero;stroke:none"
         id="path35326" />
      <path
         d="m 119.5107,738.5967 v 11.654 l 10.225,-6.447 v -11.656 z"
         style="fill:#617989;fill-opacity:1;fill-rule:nonzero;stroke:none"
         id="path35330" />
      <path
         d="m 119.5107,738.5967 1.291,0.719 v 10.121 l -1.291,0.814 z"
         style="fill:#564d3c;fill-opacity:1;fill-rule:nonzero;stroke:none"
         id="path35334" />
      <path
         d="m 120.8018,739.3154 8.934,-5.658 v -1.51 l -10.225,6.449 z"
         style="fill:#9e6c29;fill-opacity:1;fill-rule:nonzero;stroke:none"
         id="path35338" />
      <path
         d="m 121.2178,739.4268 v 9.1 l 7.984,-5.038 v -9.099 z"
         style="fill:#139dcf;fill-opacity:1;fill-rule:nonzero;stroke:none"
         id="path35342" />
      <path
         d="m 174.0889,858.6895 -9.6,6.039 9.83,6.445 9.604,-6.039 z"
         style="fill:#e5d5b5;fill-opacity:1;fill-rule:nonzero;stroke:none"
         id="path35346" />
      <path
         d="m 164.4893,860.9863 v 3.742 l 9.6,-6.039 v -3.742 z"
         style="fill:#ddc487;fill-opacity:1;fill-rule:nonzero;stroke:none"
         id="path35350" />
      <path
         d="m 183.9229,865.1348 v -3.742 l -9.834,-6.446 v 3.743 z"
         style="fill:#7f6f4e;fill-opacity:1;fill-rule:nonzero;stroke:none"
         id="path35354" />
      <path
         d="m 180.1924,864.9316 c 0,-1.82 -2.682,-3.297 -5.988,-3.297 -3.307,0 -5.987,1.477 -5.987,3.297 0,1.82 2.68,3.297 5.987,3.297 3.306,0 5.988,-1.477 5.988,-3.297"
         style="fill:#948166;fill-opacity:1;fill-rule:nonzero;stroke:none"
         id="path35358" />
      <path
         d="m 177.4385,864.9316 c 0,-0.982 -1.449,-1.779 -3.234,-1.779 -1.786,0 -3.233,0.797 -3.233,1.779 0,0.982 1.447,1.779 3.233,1.779 1.785,0 3.234,-0.797 3.234,-1.779"
         style="fill:#e5d5b5;fill-opacity:1;fill-rule:nonzero;stroke:none"
         id="path35362" />
      <path
         d="m 174.2041,867.3711 c -2.445,0 -4.43,-1.094 -4.43,-2.439 0,-1.348 1.985,-2.438 4.43,-2.438 2.447,0 4.43,1.09 4.43,2.438 0,1.345 -1.983,2.439 -4.43,2.439 m 5.146,-2.439 c 0,-1.565 -2.302,-2.832 -5.146,-2.832 -2.842,0 -5.145,1.267 -5.145,2.832 0,1.564 2.303,2.832 5.145,2.832 2.844,0 5.146,-1.268 5.146,-2.832"
         style="fill:#e5d5b5;fill-opacity:1;fill-rule:nonzero;stroke:none"
         id="path35366" />
      <path
         d="m 180.0752,846.3887 -9.6,6.039 9.83,6.445 9.604,-6.039 z"
         style="fill:#e5d5b5;fill-opacity:1;fill-rule:nonzero;stroke:none"
         id="path35370" />
      <path
         d="m 170.4756,848.6855 v 3.742 l 9.6,-6.039 v -3.742 z"
         style="fill:#ddc487;fill-opacity:1;fill-rule:nonzero;stroke:none"
         id="path35374" />
      <path
         d="m 189.9092,852.834 v -3.742 l -9.834,-6.446 v 3.743 z"
         style="fill:#7f6f4e;fill-opacity:1;fill-rule:nonzero;stroke:none"
         id="path35378" />
      <path
         d="m 186.1787,852.6309 c 0,-1.82 -2.682,-3.297 -5.988,-3.297 -3.307,0 -5.987,1.477 -5.987,3.297 0,1.82 2.68,3.297 5.987,3.297 3.306,0 5.988,-1.477 5.988,-3.297"
         style="fill:#948166;fill-opacity:1;fill-rule:nonzero;stroke:none"
         id="path35382" />
      <path
         d="m 183.4248,852.6309 c 0,-0.982 -1.449,-1.779 -3.234,-1.779 -1.786,0 -3.233,0.797 -3.233,1.779 0,0.982 1.447,1.779 3.233,1.779 1.785,0 3.234,-0.797 3.234,-1.779"
         style="fill:#e5d5b5;fill-opacity:1;fill-rule:nonzero;stroke:none"
         id="path35386" />
      <path
         d="m 180.1904,855.0703 c -2.445,0 -4.43,-1.092 -4.43,-2.439 0,-1.348 1.985,-2.438 4.43,-2.438 2.445,0 4.43,1.09 4.43,2.438 0,1.347 -1.985,2.439 -4.43,2.439 m 5.146,-2.439 c 0,-1.565 -2.302,-2.832 -5.146,-2.832 -2.842,0 -5.145,1.267 -5.145,2.832 0,1.564 2.303,2.832 5.145,2.832 2.844,0 5.146,-1.268 5.146,-2.832"
         style="fill:#e5d5b5;fill-opacity:1;fill-rule:nonzero;stroke:none"
         id="path35390" />
    </g>
  </g>
</svg>
