<?xml version="1.0" encoding="UTF-8" standalone="no"?>
<svg
   xmlns:dc="http://purl.org/dc/elements/1.1/"
   xmlns:cc="http://creativecommons.org/ns#"
   xmlns:rdf="http://www.w3.org/1999/02/22-rdf-syntax-ns#"
   xmlns:svg="http://www.w3.org/2000/svg"
   xmlns="http://www.w3.org/2000/svg"
   xmlns:sodipodi="http://sodipodi.sourceforge.net/DTD/sodipodi-0.dtd"
   xmlns:inkscape="http://www.inkscape.org/namespaces/inkscape"
   width="69.712448mm"
   height="72.818413mm"
   viewBox="0 0 69.712448 72.818413"
   version="1.1"
   id="svg49200"
   inkscape:version="1.0.2 (e86c870879, 2021-01-15)"
   sodipodi:docname="office-large.svg">
  <defs
     id="defs49194">
    <clipPath
       clipPathUnits="userSpaceOnUse"
       id="clipPath34398">
      <path
         d="m 475.488,812.535 h 0.429 v -69.212 h -0.429 z"
         id="path34396" />
    </clipPath>
    <clipPath
       clipPathUnits="userSpaceOnUse"
       id="clipPath34412">
      <path
         d="m 486.24,805.656 h 0.429 v -69.214 h -0.429 z"
         id="path34410" />
    </clipPath>
    <clipPath
       clipPathUnits="userSpaceOnUse"
       id="clipPath34426">
      <path
         d="m 498.5,798.223 h 0.429 V 729.009 H 498.5 Z"
         id="path34424" />
    </clipPath>
    <clipPath
       clipPathUnits="userSpaceOnUse"
       id="clipPath34440">
      <path
         d="m 510.005,790.988 h 0.43 v -69.212 h -0.43 z"
         id="path34438" />
    </clipPath>
    <clipPath
       clipPathUnits="userSpaceOnUse"
       id="clipPath34454">
      <path
         d="m 522.048,783.151 h 0.432 V 713.94 h -0.432 z"
         id="path34452" />
    </clipPath>
    <clipPath
       clipPathUnits="userSpaceOnUse"
       id="clipPath34468">
      <path
         d="m 470.345,806.93 h 59.932 v -35.365 h -59.932 z"
         id="path34466" />
    </clipPath>
    <clipPath
       clipPathUnits="userSpaceOnUse"
       id="clipPath34484">
      <path
         d="m 470.648,795.439 h 59.461 v -36.161 h -59.461 z"
         id="path34482" />
    </clipPath>
    <clipPath
       clipPathUnits="userSpaceOnUse"
       id="clipPath34500">
      <path
         d="m 470.515,784.874 h 59.459 v -36.16 h -59.459 z"
         id="path34498" />
    </clipPath>
    <clipPath
       clipPathUnits="userSpaceOnUse"
       id="clipPath34516">
      <path
         d="m 470.648,773.478 h 59.461 v -36.163 h -59.461 z"
         id="path34514" />
    </clipPath>
    <clipPath
       clipPathUnits="userSpaceOnUse"
       id="clipPath34532">
      <path
         d="m 470.648,763.075 h 59.461 v -36.16 h -59.461 z"
         id="path34530" />
    </clipPath>
    <clipPath
       clipPathUnits="userSpaceOnUse"
       id="clipPath34548">
      <path
         d="m 470.58,752.386 h 59.461 V 716.224 H 470.58 Z"
         id="path34546" />
    </clipPath>
    <clipPath
       clipPathUnits="userSpaceOnUse"
       id="clipPath34596">
      <path
         d="m 659.101,813.501 h 0.438 v -70.559 h -0.438 z"
         id="path34594" />
    </clipPath>
    <clipPath
       clipPathUnits="userSpaceOnUse"
       id="clipPath34610">
      <path
         d="m 648.136,806.488 h 0.44 v -70.559 h -0.44 z"
         id="path34608" />
    </clipPath>
    <clipPath
       clipPathUnits="userSpaceOnUse"
       id="clipPath34624">
      <path
         d="m 635.64,798.908 h 0.44 v -70.557 h -0.44 z"
         id="path34622" />
    </clipPath>
    <clipPath
       clipPathUnits="userSpaceOnUse"
       id="clipPath34638">
      <path
         d="m 623.912,791.535 h 0.437 v -70.557 h -0.437 z"
         id="path34636" />
    </clipPath>
    <clipPath
       clipPathUnits="userSpaceOnUse"
       id="clipPath34652">
      <path
         d="m 611.632,783.548 h 0.438 v -70.561 h -0.438 z"
         id="path34650" />
    </clipPath>
    <clipPath
       clipPathUnits="userSpaceOnUse"
       id="clipPath34666">
      <path
         d="m 603.681,807.787 h 61.1 v -36.052 h -61.1 z"
         id="path34664" />
    </clipPath>
    <clipPath
       clipPathUnits="userSpaceOnUse"
       id="clipPath34682">
      <path
         d="m 603.853,796.074 h 60.619 v -36.866 h -60.619 z"
         id="path34680" />
    </clipPath>
    <clipPath
       clipPathUnits="userSpaceOnUse"
       id="clipPath34698">
      <path
         d="m 603.99,785.302 h 60.619 V 748.438 H 603.99 Z"
         id="path34696" />
    </clipPath>
    <clipPath
       clipPathUnits="userSpaceOnUse"
       id="clipPath34714">
      <path
         d="m 603.853,773.683 h 60.619 v -36.866 h -60.619 z"
         id="path34712" />
    </clipPath>
    <clipPath
       clipPathUnits="userSpaceOnUse"
       id="clipPath34730">
      <path
         d="m 603.853,763.079 h 60.619 v -36.867 h -60.619 z"
         id="path34728" />
    </clipPath>
    <clipPath
       clipPathUnits="userSpaceOnUse"
       id="clipPath34746">
      <path
         d="m 603.923,752.181 h 60.618 v -36.866 h -60.618 z"
         id="path34744" />
    </clipPath>
  </defs>
  <sodipodi:namedview
     id="base"
     pagecolor="#ffffff"
     bordercolor="#666666"
     borderopacity="1.0"
     inkscape:pageopacity="0.0"
     inkscape:pageshadow="2"
     inkscape:zoom="0.35"
     inkscape:cx="191.74005"
     inkscape:cy="-16.676105"
     inkscape:document-units="mm"
     inkscape:current-layer="layer1"
     inkscape:document-rotation="0"
     showgrid="false"
     inkscape:window-width="1920"
     inkscape:window-height="1016"
     inkscape:window-x="0"
     inkscape:window-y="0"
     inkscape:window-maximized="1" />
  <metadata
     id="metadata49197">
    <rdf:RDF>
      <cc:Work
         rdf:about="">
        <dc:format>image/svg+xml</dc:format>
        <dc:type
           rdf:resource="http://purl.org/dc/dcmitype/StillImage" />
        <dc:title></dc:title>
      </cc:Work>
    </rdf:RDF>
  </metadata>
  <g
     inkscape:label="Layer 1"
     inkscape:groupmode="layer"
     id="layer1"
     transform="translate(-55.102111,-152.57889)">
    <g
       id="g48894"
       transform="matrix(0.35277777,0,0,-0.35277777,-110.37377,468.2686)">
      <g
         id="g34340"
         transform="translate(554.6675,778.8955)">
        <path
           d="m 0,0 -85.602,53.826 0.141,8.005 85.461,53.737 26.195,0.405 85.237,-53.599 0.576,-8.819 -85.846,-53.979 z"
           style="fill:#f3f3f3;fill-opacity:1;fill-rule:nonzero;stroke:none"
           id="path34342" />
      </g>
      <g
         id="g34344"
         transform="translate(469.0659,742.7061)">
        <path
           d="M 0,0 V 90.016 L 85.602,36.189 v -90.017 z"
           style="fill:#e4e3e1;fill-opacity:1;fill-rule:nonzero;stroke:none"
           id="path34346" />
      </g>
      <g
         id="g34348"
         transform="translate(580.8296,688.4541)">
        <path
           d="m 0,0 v 90.018 l -26.162,0.423 V 0.424 Z"
           style="fill:#d5d4d4;fill-opacity:1;fill-rule:nonzero;stroke:none"
           id="path34350" />
      </g>
      <g
         id="g34352"
         transform="translate(580.8296,688.4541)">
        <path
           d="m 0,0 85.846,53.98 v 90.016 L 0,90.018 Z"
           style="fill:#c7c6c7;fill-opacity:1;fill-rule:nonzero;stroke:none"
           id="path34354" />
      </g>
      <g
         id="g34356"
         transform="translate(556.2163,785.6221)">
        <path
           d="M 0,0 -75.627,47.553 -75.5,54.625 0,102.1 l 23.143,0.357 75.302,-47.352 0.51,-7.792 -75.84,-47.688 z"
           style="fill:#bbb8be;fill-opacity:1;fill-rule:nonzero;stroke:none"
           id="path34358" />
      </g>
      <g
         id="g34756"
         transform="translate(587.1812,697.8428)">
        <path
           d="M 0,0 6.066,4.027 V 82.244 L 0,78.221 Z"
           style="fill:#0d343d;fill-opacity:1;fill-rule:nonzero;stroke:none"
           id="path34758" />
      </g>
      <g
         id="g34788"
         transform="translate(480.7163,840.2471)">
        <path
           d="m 0,0 75.5,47.475 v -6.03 L -0.127,-7.072 Z"
           style="fill:#878787;fill-opacity:1;fill-rule:nonzero;stroke:none"
           id="path34790" />
      </g>
      <g
         id="g34792"
         transform="translate(556.2163,881.6924)">
        <path
           d="M 0,0 23.225,0.541 V 6.387 L 0,6.029 Z"
           style="fill:#686a6a;fill-opacity:1;fill-rule:nonzero;stroke:none"
           id="path34794" />
      </g>
      <g
         id="g34796"
         transform="translate(579.4409,882.2334)">
        <path
           d="M 0,0 75.73,-49.299 75.221,-41.506 0,5.846 Z"
           style="fill:#595a5a;fill-opacity:1;fill-rule:nonzero;stroke:none"
           id="path34798" />
      </g>
      <g
         id="g34800"
         transform="translate(530.3472,704.1807)">
        <path
           d="M 0,0 V 27.662 L 20.531,14.896 v -27.937 z"
           style="fill:#7d7d7d;fill-opacity:1;fill-rule:nonzero;stroke:none"
           id="path34802" />
      </g>
      <g
         id="g34804"
         transform="translate(532.5444,705.29)">
        <path
           d="M 0,0 V 25.197 L 18.334,13.787 V -11.662 Z"
           style="fill:#355b88;fill-opacity:1;fill-rule:nonzero;stroke:none"
           id="path34806" />
      </g>
      <g
         id="g34808"
         transform="translate(530.3472,704.1807)">
        <path
           d="m 0,0 2.277,1.057 18.254,-11.61 v -2.488 z"
           style="fill:#eaeaeb;fill-opacity:1;fill-rule:nonzero;stroke:none"
           id="path34810" />
      </g>
      <g
         id="g47617">
        <g
           id="g34360"
           transform="translate(471.5054,813.8984)">
          <path
             d="M 0,0 55.74,-35.048 V -102.04 L 0,-66.454 Z"
             style="fill:#129cc5;fill-opacity:1;fill-rule:nonzero;stroke:none"
             id="path34362" />
        </g>
        <g
           id="g34364"
           transform="translate(530.8081,765.4932)">
          <path
             d="m 0,0 -1.283,-2.051 -59.713,37.368 1.283,2.051 z"
             style="fill:#e4e3e1;fill-opacity:1;fill-rule:nonzero;stroke:none"
             id="path34366" />
        </g>
        <path
           d="m 505.41,725.46 h -2.42 v 70.442 h 2.42 z"
           style="fill:#e4e3e1;fill-opacity:1;fill-rule:nonzero;stroke:none"
           id="path34368" />
        <path
           d="m 493.605,732.204 h -2.42 v 70.442 h 2.42 z"
           style="fill:#e4e3e1;fill-opacity:1;fill-rule:nonzero;stroke:none"
           id="path34370" />
        <path
           d="m 481.8,739.991 h -2.42 v 70.44 h 2.42 z"
           style="fill:#e4e3e1;fill-opacity:1;fill-rule:nonzero;stroke:none"
           id="path34372" />
        <g
           id="g34374"
           transform="translate(530.8081,754.6338)">
          <path
             d="m 0,0 -1.281,-2.051 -59.713,37.366 1.283,2.051 z"
             style="fill:#e4e3e1;fill-opacity:1;fill-rule:nonzero;stroke:none"
             id="path34376" />
        </g>
        <g
           id="g34378"
           transform="translate(530.8081,743.7705)">
          <path
             d="m 0,0 -1.281,-2.051 -59.713,37.369 1.283,2.051 z"
             style="fill:#e4e3e1;fill-opacity:1;fill-rule:nonzero;stroke:none"
             id="path34380" />
        </g>
        <g
           id="g34382"
           transform="translate(530.8081,732.9092)">
          <path
             d="m 0,0 -1.281,-2.049 -59.713,37.365 1.283,2.051 z"
             style="fill:#e4e3e1;fill-opacity:1;fill-rule:nonzero;stroke:none"
             id="path34384" />
        </g>
        <g
           id="g34386"
           transform="translate(530.8081,722.0479)">
          <path
             d="m 0,0 -1.283,-2.051 -59.713,37.367 1.283,2.051 z"
             style="fill:#e4e3e1;fill-opacity:1;fill-rule:nonzero;stroke:none"
             id="path34388" />
        </g>
        <path
           d="m 517.214,717.89 h -2.418 v 70.44 h 2.418 z"
           style="fill:#e4e3e1;fill-opacity:1;fill-rule:nonzero;stroke:none"
           id="path34390" />
        <g
           id="g34392">
          <g
             id="g34394" />
          <g
             id="g34404">
            <g
               clip-path="url(#clipPath34398)"
               opacity="0.5"
               id="g34402">
              <path
                 d="m 475.917,743.323 h -0.43 v 69.212 h 0.43 z"
                 style="fill:#e4e3e1;fill-opacity:1;fill-rule:nonzero;stroke:none"
                 id="path34400" />
            </g>
          </g>
        </g>
        <g
           id="g34406">
          <g
             id="g34408" />
          <g
             id="g34418">
            <g
               clip-path="url(#clipPath34412)"
               opacity="0.5"
               id="g34416">
              <path
                 d="m 486.669,736.442 h -0.43 v 69.214 h 0.43 z"
                 style="fill:#e4e3e1;fill-opacity:1;fill-rule:nonzero;stroke:none"
                 id="path34414" />
            </g>
          </g>
        </g>
        <g
           id="g34420">
          <g
             id="g34422" />
          <g
             id="g34432">
            <g
               clip-path="url(#clipPath34426)"
               opacity="0.5"
               id="g34430">
              <path
                 d="m 498.929,729.009 h -0.43 v 69.214 h 0.43 z"
                 style="fill:#e4e3e1;fill-opacity:1;fill-rule:nonzero;stroke:none"
                 id="path34428" />
            </g>
          </g>
        </g>
        <g
           id="g34434">
          <g
             id="g34436" />
          <g
             id="g34446">
            <g
               clip-path="url(#clipPath34440)"
               opacity="0.5"
               id="g34444">
              <path
                 d="m 510.435,721.776 h -0.43 v 69.212 h 0.43 z"
                 style="fill:#e4e3e1;fill-opacity:1;fill-rule:nonzero;stroke:none"
                 id="path34442" />
            </g>
          </g>
        </g>
        <g
           id="g34448">
          <g
             id="g34450" />
          <g
             id="g34460">
            <g
               clip-path="url(#clipPath34454)"
               opacity="0.5"
               id="g34458">
              <path
                 d="m 522.48,713.94 h -0.432 v 69.211 h 0.432 z"
                 style="fill:#e4e3e1;fill-opacity:1;fill-rule:nonzero;stroke:none"
                 id="path34456" />
            </g>
          </g>
        </g>
        <g
           id="g34462">
          <g
             id="g34464" />
          <g
             id="g34476">
            <g
               clip-path="url(#clipPath34468)"
               opacity="0.5"
               id="g34474">
              <g
                 transform="translate(530.2769,771.9365)"
                 id="g34472">
                <path
                   d="m 0,0 -0.217,-0.371 -59.715,34.993 0.217,0.371 z"
                   style="fill:#e4e3e1;fill-opacity:1;fill-rule:nonzero;stroke:none"
                   id="path34470" />
              </g>
            </g>
          </g>
        </g>
        <g
           id="g34478">
          <g
             id="g34480" />
          <g
             id="g34492">
            <g
               clip-path="url(#clipPath34484)"
               opacity="0.5"
               id="g34490">
              <g
                 transform="translate(530.1089,759.6475)"
                 id="g34488">
                <path
                   d="m 0,0 -0.223,-0.369 -59.238,35.794 0.223,0.367 z"
                   style="fill:#e4e3e1;fill-opacity:1;fill-rule:nonzero;stroke:none"
                   id="path34486" />
              </g>
            </g>
          </g>
        </g>
        <g
           id="g34494">
          <g
             id="g34496" />
          <g
             id="g34508">
            <g
               clip-path="url(#clipPath34500)"
               opacity="0.5"
               id="g34506">
              <g
                 transform="translate(529.9741,749.0811)"
                 id="g34504">
                <path
                   d="m 0,0 -0.223,-0.367 -59.236,35.793 0.221,0.367 z"
                   style="fill:#e4e3e1;fill-opacity:1;fill-rule:nonzero;stroke:none"
                   id="path34502" />
              </g>
            </g>
          </g>
        </g>
        <g
           id="g34510">
          <g
             id="g34512" />
          <g
             id="g34524">
            <g
               clip-path="url(#clipPath34516)"
               opacity="0.5"
               id="g34522">
              <g
                 transform="translate(530.1089,737.6826)"
                 id="g34520">
                <path
                   d="m 0,0 -0.223,-0.367 -59.238,35.793 0.223,0.369 z"
                   style="fill:#e4e3e1;fill-opacity:1;fill-rule:nonzero;stroke:none"
                   id="path34518" />
              </g>
            </g>
          </g>
        </g>
        <g
           id="g34526">
          <g
             id="g34528" />
          <g
             id="g34540">
            <g
               clip-path="url(#clipPath34532)"
               opacity="0.5"
               id="g34538">
              <g
                 transform="translate(530.1089,727.2822)"
                 id="g34536">
                <path
                   d="m 0,0 -0.223,-0.367 -59.238,35.791 0.223,0.369 z"
                   style="fill:#e4e3e1;fill-opacity:1;fill-rule:nonzero;stroke:none"
                   id="path34534" />
              </g>
            </g>
          </g>
        </g>
        <g
           id="g34542">
          <g
             id="g34544" />
          <g
             id="g34556">
            <g
               clip-path="url(#clipPath34548)"
               opacity="0.5"
               id="g34554">
              <g
                 transform="translate(530.0405,716.5908)"
                 id="g34552">
                <path
                   d="m 0,0 -0.223,-0.367 -59.238,35.791 0.223,0.371 z"
                   style="fill:#e4e3e1;fill-opacity:1;fill-rule:nonzero;stroke:none"
                   id="path34550" />
              </g>
            </g>
          </g>
        </g>
        <g
           id="g34558"
           transform="translate(663.5972,814.8906)">
          <path
             d="m 0,0 -56.824,-35.731 v -68.295 L 0,-67.749 Z"
             style="fill:#129cc5;fill-opacity:1;fill-rule:nonzero;stroke:none"
             id="path34560" />
        </g>
        <g
           id="g34562"
           transform="translate(603.1382,765.5459)">
          <path
             d="m 0,0 1.311,-2.092 60.875,38.095 -1.311,2.09 z"
             style="fill:#c7c6c7;fill-opacity:1;fill-rule:nonzero;stroke:none"
             id="path34564" />
        </g>
        <path
           d="m 629.033,724.731 h 2.467 v 71.812 h -2.467 z"
           style="fill:#c7c6c7;fill-opacity:1;fill-rule:nonzero;stroke:none"
           id="path34566" />
        <path
           d="m 641.07,731.608 h 2.465 v 71.812 h -2.465 z"
           style="fill:#c7c6c7;fill-opacity:1;fill-rule:nonzero;stroke:none"
           id="path34568" />
        <path
           d="m 653.103,739.546 h 2.467 v 71.813 h -2.467 z"
           style="fill:#c7c6c7;fill-opacity:1;fill-rule:nonzero;stroke:none"
           id="path34570" />
        <g
           id="g34572"
           transform="translate(603.1382,754.4717)">
          <path
             d="m 0,0 1.309,-2.09 60.877,38.093 -1.311,2.092 z"
             style="fill:#c7c6c7;fill-opacity:1;fill-rule:nonzero;stroke:none"
             id="path34574" />
        </g>
        <g
           id="g34576"
           transform="translate(603.1382,743.3994)">
          <path
             d="m 0,0 1.309,-2.092 60.877,38.096 -1.311,2.09 z"
             style="fill:#c7c6c7;fill-opacity:1;fill-rule:nonzero;stroke:none"
             id="path34578" />
        </g>
        <g
           id="g34580"
           transform="translate(603.1382,732.3252)">
          <path
             d="m 0,0 1.309,-2.088 60.877,38.094 -1.311,2.09 z"
             style="fill:#c7c6c7;fill-opacity:1;fill-rule:nonzero;stroke:none"
             id="path34582" />
        </g>
        <g
           id="g34584"
           transform="translate(603.1401,721.2529)">
          <path
             d="m 0,0 1.309,-2.092 60.875,38.096 -1.311,2.09 z"
             style="fill:#c7c6c7;fill-opacity:1;fill-rule:nonzero;stroke:none"
             id="path34586" />
        </g>
        <path
           d="m 617,717.013 h 2.467 v 71.812 H 617 Z"
           style="fill:#c7c6c7;fill-opacity:1;fill-rule:nonzero;stroke:none"
           id="path34588" />
        <g
           id="g34590">
          <g
             id="g34592" />
          <g
             id="g34602">
            <g
               clip-path="url(#clipPath34596)"
               opacity="0.5"
               id="g34600">
              <path
                 d="m 659.101,742.942 h 0.437 v 70.559 h -0.437 z"
                 style="fill:#c7c6c7;fill-opacity:1;fill-rule:nonzero;stroke:none"
                 id="path34598" />
            </g>
          </g>
        </g>
        <g
           id="g34604">
          <g
             id="g34606" />
          <g
             id="g34616">
            <g
               clip-path="url(#clipPath34610)"
               opacity="0.5"
               id="g34614">
              <path
                 d="m 648.136,735.929 h 0.439 v 70.56 h -0.439 z"
                 style="fill:#c7c6c7;fill-opacity:1;fill-rule:nonzero;stroke:none"
                 id="path34612" />
            </g>
          </g>
        </g>
        <g
           id="g34618">
          <g
             id="g34620" />
          <g
             id="g34630">
            <g
               clip-path="url(#clipPath34624)"
               opacity="0.5"
               id="g34628">
              <path
                 d="m 635.64,728.351 h 0.439 v 70.558 h -0.439 z"
                 style="fill:#c7c6c7;fill-opacity:1;fill-rule:nonzero;stroke:none"
                 id="path34626" />
            </g>
          </g>
        </g>
        <g
           id="g34632">
          <g
             id="g34634" />
          <g
             id="g34644">
            <g
               clip-path="url(#clipPath34638)"
               opacity="0.5"
               id="g34642">
              <path
                 d="m 623.912,720.978 h 0.437 v 70.558 h -0.437 z"
                 style="fill:#c7c6c7;fill-opacity:1;fill-rule:nonzero;stroke:none"
                 id="path34640" />
            </g>
          </g>
        </g>
        <g
           id="g34646">
          <g
             id="g34648" />
          <g
             id="g34658">
            <g
               clip-path="url(#clipPath34652)"
               opacity="0.5"
               id="g34656">
              <path
                 d="m 611.632,712.987 h 0.437 v 70.561 h -0.437 z"
                 style="fill:#c7c6c7;fill-opacity:1;fill-rule:nonzero;stroke:none"
                 id="path34654" />
            </g>
          </g>
        </g>
        <g
           id="g34660">
          <g
             id="g34662" />
          <g
             id="g34674">
            <g
               clip-path="url(#clipPath34666)"
               opacity="0.5"
               id="g34672">
              <g
                 transform="translate(603.6812,772.1143)"
                 id="g34670">
                <path
                   d="M 0,0 0.223,-0.379 61.1,35.294 60.877,35.673 Z"
                   style="fill:#c7c6c7;fill-opacity:1;fill-rule:nonzero;stroke:none"
                   id="path34668" />
              </g>
            </g>
          </g>
        </g>
        <g
           id="g34676">
          <g
             id="g34678" />
          <g
             id="g34690">
            <g
               clip-path="url(#clipPath34682)"
               opacity="0.5"
               id="g34688">
              <g
                 transform="translate(603.853,759.583)"
                 id="g34686">
                <path
                   d="m 0,0 0.229,-0.375 60.39,36.491 -0.224,0.375 z"
                   style="fill:#c7c6c7;fill-opacity:1;fill-rule:nonzero;stroke:none"
                   id="path34684" />
              </g>
            </g>
          </g>
        </g>
        <g
           id="g34692">
          <g
             id="g34694" />
          <g
             id="g34706">
            <g
               clip-path="url(#clipPath34698)"
               opacity="0.5"
               id="g34704">
              <g
                 transform="translate(603.9897,748.8135)"
                 id="g34702">
                <path
                   d="m 0,0 0.227,-0.375 60.392,36.486 -0.226,0.377 z"
                   style="fill:#c7c6c7;fill-opacity:1;fill-rule:nonzero;stroke:none"
                   id="path34700" />
              </g>
            </g>
          </g>
        </g>
        <g
           id="g34708">
          <g
             id="g34710" />
          <g
             id="g34722">
            <g
               clip-path="url(#clipPath34714)"
               opacity="0.5"
               id="g34720">
              <g
                 transform="translate(603.853,737.1924)"
                 id="g34718">
                <path
                   d="m 0,0 0.229,-0.375 60.39,36.49 -0.224,0.375 z"
                   style="fill:#c7c6c7;fill-opacity:1;fill-rule:nonzero;stroke:none"
                   id="path34716" />
              </g>
            </g>
          </g>
        </g>
        <g
           id="g34724">
          <g
             id="g34726" />
          <g
             id="g34738">
            <g
               clip-path="url(#clipPath34730)"
               opacity="0.5"
               id="g34736">
              <g
                 transform="translate(603.853,726.5889)"
                 id="g34734">
                <path
                   d="m 0,0 0.229,-0.377 60.39,36.49 -0.224,0.377 z"
                   style="fill:#c7c6c7;fill-opacity:1;fill-rule:nonzero;stroke:none"
                   id="path34732" />
              </g>
            </g>
          </g>
        </g>
        <g
           id="g34740">
          <g
             id="g34742" />
          <g
             id="g34754">
            <g
               clip-path="url(#clipPath34746)"
               opacity="0.5"
               id="g34752">
              <g
                 transform="translate(603.9233,715.6904)"
                 id="g34750">
                <path
                   d="m 0,0 0.227,-0.375 60.39,36.49 -0.226,0.375 z"
                   style="fill:#c7c6c7;fill-opacity:1;fill-rule:nonzero;stroke:none"
                   id="path34748" />
              </g>
            </g>
          </g>
        </g>
        <g
           id="g34760"
           transform="translate(584.2573,767.0479)">
          <path
             d="M 0,0 1.367,-2.188 12.836,5.115 11.467,7.301 Z"
             style="fill:#c7c6c7;fill-opacity:1;fill-rule:nonzero;stroke:none"
             id="path34762" />
        </g>
        <g
           id="g34764"
           transform="translate(584.6382,756.8291)">
          <path
             d="M 0,0 1.369,-2.186 12.838,5.115 11.469,7.301 Z"
             style="fill:#c7c6c7;fill-opacity:1;fill-rule:nonzero;stroke:none"
             id="path34766" />
        </g>
        <g
           id="g34768"
           transform="translate(584.0659,746.6104)">
          <path
             d="M 0,0 1.367,-2.186 12.836,5.113 11.467,7.301 Z"
             style="fill:#c7c6c7;fill-opacity:1;fill-rule:nonzero;stroke:none"
             id="path34770" />
        </g>
        <g
           id="g34772"
           transform="translate(584.4468,736.3916)">
          <path
             d="M 0,0 1.367,-2.186 12.836,5.115 11.469,7.301 Z"
             style="fill:#c7c6c7;fill-opacity:1;fill-rule:nonzero;stroke:none"
             id="path34774" />
        </g>
        <g
           id="g34776"
           transform="translate(584.5425,726.1729)">
          <path
             d="M 0,0 1.369,-2.186 12.836,5.115 11.469,7.301 Z"
             style="fill:#c7c6c7;fill-opacity:1;fill-rule:nonzero;stroke:none"
             id="path34778" />
        </g>
        <g
           id="g34780"
           transform="translate(584.9253,715.9541)">
          <path
             d="M 0,0 1.369,-2.186 12.836,5.115 11.469,7.301 Z"
             style="fill:#c7c6c7;fill-opacity:1;fill-rule:nonzero;stroke:none"
             id="path34782" />
        </g>
        <g
           id="g34784"
           transform="translate(584.3511,705.7354)">
          <path
             d="M 0,0 1.369,-2.186 12.838,5.115 11.469,7.303 Z"
             style="fill:#c7c6c7;fill-opacity:1;fill-rule:nonzero;stroke:none"
             id="path34786" />
        </g>
        <g
           id="g34812"
           transform="translate(549.7261,735.9639)">
          <path
             d="M 0,0 -6.064,4.027 V 43.742 L 0,39.719 Z"
             style="fill:#0d343d;fill-opacity:1;fill-rule:nonzero;stroke:none"
             id="path34814" />
        </g>
        <g
           id="g34816"
           transform="translate(552.6519,766.667)">
          <path
             d="m 0,0 -1.367,-2.188 -11.469,7.303 1.367,2.186 z"
             style="fill:#e4e3e1;fill-opacity:1;fill-rule:nonzero;stroke:none"
             id="path34818" />
        </g>
        <g
           id="g34820"
           transform="translate(552.271,756.4482)">
          <path
             d="m 0,0 -1.369,-2.186 -11.469,7.301 1.369,2.186 z"
             style="fill:#e4e3e1;fill-opacity:1;fill-rule:nonzero;stroke:none"
             id="path34822" />
        </g>
        <g
           id="g34824"
           transform="translate(552.8433,746.2295)">
          <path
             d="m 0,0 -1.367,-2.186 -11.469,7.301 1.367,2.186 z"
             style="fill:#e4e3e1;fill-opacity:1;fill-rule:nonzero;stroke:none"
             id="path34826" />
        </g>
        <g
           id="g34828"
           transform="translate(552.4604,736.0107)">
          <path
             d="m 0,0 -1.367,-2.186 -11.469,7.303 1.369,2.184 z"
             style="fill:#e4e3e1;fill-opacity:1;fill-rule:nonzero;stroke:none"
             id="path34830" />
        </g>
        <g
           id="g34832"
           transform="translate(538.7222,753.0459)">
          <path
             d="M 0,0 -6.064,4.025 V 32.932 L 0,28.908 Z"
             style="fill:#0d343d;fill-opacity:1;fill-rule:nonzero;stroke:none"
             id="path34834" />
        </g>
        <g
           id="g34836"
           transform="translate(541.646,772.9365)">
          <path
             d="m 0,0 -1.367,-2.184 -11.469,7.301 1.369,2.184 z"
             style="fill:#e4e3e1;fill-opacity:1;fill-rule:nonzero;stroke:none"
             id="path34838" />
        </g>
        <g
           id="g34840"
           transform="translate(541.2651,762.7197)">
          <path
             d="m 0,0 -1.369,-2.188 -11.467,7.303 1.367,2.186 z"
             style="fill:#e4e3e1;fill-opacity:1;fill-rule:nonzero;stroke:none"
             id="path34842" />
        </g>
        <g
           id="g34844"
           transform="translate(541.8394,752.501)">
          <path
             d="m 0,0 -1.367,-2.188 -11.471,7.303 1.369,2.186 z"
             style="fill:#e4e3e1;fill-opacity:1;fill-rule:nonzero;stroke:none"
             id="path34846" />
        </g>
        <g
           id="g34848"
           transform="translate(622.5562,839.8369)">
          <path
             d="M 0,0 -13.148,8.27 0.314,17.096 13.467,8.827 Z"
             style="fill:#80a5a8;fill-opacity:1;fill-rule:nonzero;stroke:none"
             id="path34850" />
        </g>
        <g
           id="g34852"
           transform="translate(609.4077,842.9814)">
          <path
             d="m 0,0 v 5.125 l 13.148,-8.27 v -5.126 z"
             style="fill:#477a7d;fill-opacity:1;fill-rule:nonzero;stroke:none"
             id="path34854" />
        </g>
        <g
           id="g34856"
           transform="translate(636.0229,848.6641)">
          <path
             d="m 0,0 v -5.125 l -13.467,-8.828 v 5.126 z"
             style="fill:#2c595e;fill-opacity:1;fill-rule:nonzero;stroke:none"
             id="path34858" />
        </g>
        <g
           id="g34860"
           transform="translate(630.9136,848.3857)">
          <path
             d="m 0,0 c 0,-2.494 -3.672,-4.516 -8.199,-4.516 -4.53,0 -8.199,2.022 -8.199,4.516 0,2.492 3.669,4.514 8.199,4.514 C -3.672,4.514 0,2.492 0,0"
             style="fill:#2c595e;fill-opacity:1;fill-rule:nonzero;stroke:none"
             id="path34862" />
        </g>
        <g
           id="g34864"
           transform="translate(627.1421,848.3857)">
          <path
             d="m 0,0 c 0,-1.347 -1.984,-2.438 -4.428,-2.438 -2.445,0 -4.427,1.091 -4.427,2.438 0,1.346 1.982,2.436 4.427,2.436 C -1.984,2.436 0,1.346 0,0"
             style="fill:#80a5a8;fill-opacity:1;fill-rule:nonzero;stroke:none"
             id="path34866" />
        </g>
        <g
           id="g34868"
           transform="translate(622.7144,851.7246)">
          <path
             d="m 0,0 c -3.35,0 -6.066,-1.495 -6.066,-3.339 0,-1.846 2.716,-3.34 6.066,-3.34 3.35,0 6.066,1.494 6.066,3.34 C 6.066,-1.495 3.35,0 0,0 m 7.047,-3.339 c 0,-2.142 -3.154,-3.88 -7.047,-3.88 -3.893,0 -7.047,1.738 -7.047,3.88 0,2.141 3.154,3.879 7.047,3.879 3.893,0 7.047,-1.738 7.047,-3.879"
             style="fill:#80a5a8;fill-opacity:1;fill-rule:nonzero;stroke:none"
             id="path34870" />
        </g>
        <g
           id="g34872"
           transform="translate(637.5015,830.6777)">
          <path
             d="M 0,0 -13.148,8.271 0.314,17.097 13.467,8.827 Z"
             style="fill:#80a5a8;fill-opacity:1;fill-rule:nonzero;stroke:none"
             id="path34874" />
        </g>
        <g
           id="g34876"
           transform="translate(624.353,833.8223)">
          <path
             d="M 0,0 V 5.126 L 13.148,-3.145 V -8.27 Z"
             style="fill:#477a7d;fill-opacity:1;fill-rule:nonzero;stroke:none"
             id="path34878" />
        </g>
        <g
           id="g34880"
           transform="translate(650.9683,839.5049)">
          <path
             d="m 0,0 v -5.125 l -13.467,-8.827 v 5.125 z"
             style="fill:#2c595e;fill-opacity:1;fill-rule:nonzero;stroke:none"
             id="path34882" />
        </g>
        <g
           id="g34884"
           transform="translate(645.8589,839.2266)">
          <path
             d="m 0,0 c 0,-2.493 -3.67,-4.515 -8.197,-4.515 -4.53,0 -8.201,2.022 -8.201,4.515 0,2.492 3.671,4.515 8.201,4.515 C -3.67,4.515 0,2.492 0,0"
             style="fill:#2c595e;fill-opacity:1;fill-rule:nonzero;stroke:none"
             id="path34886" />
        </g>
        <g
           id="g34888"
           transform="translate(642.0874,839.2266)">
          <path
             d="m 0,0 c 0,-1.347 -1.982,-2.438 -4.426,-2.438 -2.447,0 -4.429,1.091 -4.429,2.438 0,1.346 1.982,2.437 4.429,2.437 C -1.982,2.437 0,1.346 0,0"
             style="fill:#80a5a8;fill-opacity:1;fill-rule:nonzero;stroke:none"
             id="path34890" />
        </g>
        <g
           id="g34892"
           transform="translate(637.6616,842.5654)">
          <path
             d="m 0,0 c -3.352,0 -6.066,-1.494 -6.066,-3.339 0,-1.845 2.714,-3.339 6.066,-3.339 3.348,0 6.066,1.494 6.066,3.339 C 6.066,-1.494 3.348,0 0,0 m 7.045,-3.339 c 0,-2.143 -3.154,-3.88 -7.045,-3.88 -3.895,0 -7.049,1.737 -7.049,3.88 0,2.142 3.154,3.879 7.049,3.879 3.891,0 7.045,-1.737 7.045,-3.879"
             style="fill:#80a5a8;fill-opacity:1;fill-rule:nonzero;stroke:none"
             id="path34894" />
        </g>
        <g
           id="g34896"
           transform="translate(520.7046,831.5049)">
          <path
             d="M 0,0 -19.609,12.333 0.469,25.496 20.082,13.164 Z"
             style="fill:#eaeaeb;fill-opacity:1;fill-rule:nonzero;stroke:none"
             id="path34898" />
        </g>
        <g
           id="g34900"
           transform="translate(501.0952,828.6582)">
          <path
             d="M 0,0 V 15.18 L 19.609,2.847 v -15.181 z"
             style="fill:#e4e3e1;fill-opacity:1;fill-rule:nonzero;stroke:none"
             id="path34902" />
        </g>
        <g
           id="g34904"
           transform="translate(540.7866,844.6689)">
          <path
             d="m 0,0 v -15.179 l -20.082,-13.166 v 15.181 z"
             style="fill:#c7c6c7;fill-opacity:1;fill-rule:nonzero;stroke:none"
             id="path34906" />
        </g>
        <g
           id="g34908"
           transform="translate(510.8999,822.4912)">
          <path
             d="M 0,0 V 9.785 L 5.506,6.208 v -9.786 z"
             style="fill:#0d343d;fill-opacity:1;fill-rule:nonzero;stroke:none"
             id="path34910" />
        </g>
      </g>
    </g>
  </g>
</svg>
