<svg xmlns="http://www.w3.org/2000/svg" viewBox="0 0 69.712 72.818"><defs><clipPath clipPathUnits="userSpaceOnUse" id="a"><path d="M475.488 812.535h.429v-69.212h-.429z"/></clipPath><clipPath clipPathUnits="userSpaceOnUse" id="b"><path d="M486.24 805.656h.429v-69.214h-.429z"/></clipPath><clipPath clipPathUnits="userSpaceOnUse" id="c"><path d="M498.5 798.223h.429v-69.214h-.429z"/></clipPath><clipPath clipPathUnits="userSpaceOnUse" id="d"><path d="M510.005 790.988h.43v-69.212h-.43z"/></clipPath><clipPath clipPathUnits="userSpaceOnUse" id="e"><path d="M522.048 783.151h.432V713.94h-.432z"/></clipPath><clipPath clipPathUnits="userSpaceOnUse" id="f"><path d="M470.345 806.93h59.932v-35.365h-59.932z"/></clipPath><clipPath clipPathUnits="userSpaceOnUse" id="g"><path d="M470.648 795.439h59.461v-36.161h-59.461z"/></clipPath><clipPath clipPathUnits="userSpaceOnUse" id="h"><path d="M470.515 784.874h59.459v-36.16h-59.459z"/></clipPath><clipPath clipPathUnits="userSpaceOnUse" id="i"><path d="M470.648 773.478h59.461v-36.163h-59.461z"/></clipPath><clipPath clipPathUnits="userSpaceOnUse" id="j"><path d="M470.648 763.075h59.461v-36.16h-59.461z"/></clipPath><clipPath clipPathUnits="userSpaceOnUse" id="k"><path d="M470.58 752.386h59.461v-36.162H470.58z"/></clipPath><clipPath clipPathUnits="userSpaceOnUse" id="l"><path d="M659.101 813.501h.438v-70.559h-.438z"/></clipPath><clipPath clipPathUnits="userSpaceOnUse" id="m"><path d="M648.136 806.488h.44v-70.559h-.44z"/></clipPath><clipPath clipPathUnits="userSpaceOnUse" id="n"><path d="M635.64 798.908h.44v-70.557h-.44z"/></clipPath><clipPath clipPathUnits="userSpaceOnUse" id="o"><path d="M623.912 791.535h.437v-70.557h-.437z"/></clipPath><clipPath clipPathUnits="userSpaceOnUse" id="p"><path d="M611.632 783.548h.438v-70.561h-.438z"/></clipPath><clipPath clipPathUnits="userSpaceOnUse" id="q"><path d="M603.681 807.787h61.1v-36.052h-61.1z"/></clipPath><clipPath clipPathUnits="userSpaceOnUse" id="r"><path d="M603.853 796.074h60.619v-36.866h-60.619z"/></clipPath><clipPath clipPathUnits="userSpaceOnUse" id="s"><path d="M603.99 785.302h60.619v-36.864H603.99z"/></clipPath><clipPath clipPathUnits="userSpaceOnUse" id="t"><path d="M603.853 773.683h60.619v-36.866h-60.619z"/></clipPath><clipPath clipPathUnits="userSpaceOnUse" id="u"><path d="M603.853 763.079h60.619v-36.867h-60.619z"/></clipPath><clipPath clipPathUnits="userSpaceOnUse" id="v"><path d="M603.923 752.181h60.618v-36.866h-60.618z"/></clipPath></defs><path d="M30.198 40.913L0 21.924.05 19.1 30.198.143 39.44 0l30.07 18.909.203 3.11-30.284 19.043z" fill="#f3f3f3"/><path d="M0 53.68V21.924l30.2 18.989v31.756z" fill="#e4e3e1"/><path d="M39.428 72.818V41.062l-9.23-.15V72.67z" fill="#d5d4d4"/><path d="M39.428 72.818l30.284-19.043V22.02L39.428 41.062z" fill="#c7c6c7"/><path d="M30.745 38.54L4.065 21.764l.045-2.495L30.745 2.521l8.164-.126L65.474 19.1l.18 2.749-26.755 16.823z" fill="#bbb8be"/><path d="M41.669 69.506l2.14-1.42V40.492l-2.14 1.42z" fill="#0d343d"/><path d="M4.11 19.27L30.745 2.52v2.127L4.065 21.764z" fill="#878787"/><path d="M30.745 4.648l8.193-.19V2.394l-8.193.126z" fill="#686a6a"/><path d="M38.938 4.457L65.654 21.85l-.18-2.75L38.938 2.396z" fill="#595a5a"/><path d="M21.619 67.27v-9.758l7.243 4.503v9.856z" fill="#7d7d7d"/><path d="M22.394 66.88v-8.89l6.468 4.025v8.978z" fill="#355b88"/><path d="M21.619 67.27l.803-.372 6.44 4.095v.878z" fill="#eaeaeb"/><path d="M.86 28.564L20.526 40.93v23.633L.86 52.008z" fill="#129cc5"/><path d="M21.781 45.64l-.452.724L.263 33.182l.453-.724z" fill="#e4e3e1"/><path d="M12.822 59.764h-.854v-24.85h.854zm-4.165-2.38h-.854v-24.85h.854zm-4.165-2.747H3.64v-24.85h.853z" fill="#e4e3e1"/><path d="M21.781 49.472l-.451.723L.264 37.013l.453-.723zm0 3.832l-.451.724L.264 40.845l.453-.724zm0 3.832l-.451.722L.264 44.677l.453-.724zm0 3.831l-.452.724L.263 48.509l.453-.724z" fill="#e4e3e1"/><path d="M16.986 62.434h-.853v-24.85h.853z" fill="#e4e3e1"/><g clip-path="url(#a)" opacity=".5" transform="matrix(.35278 0 0 -.35278 -165.476 315.69)"><path d="M475.917 743.323h-.43v69.212h.43z" fill="#e4e3e1"/></g><g clip-path="url(#b)" opacity=".5" transform="matrix(.35278 0 0 -.35278 -165.476 315.69)"><path d="M486.669 736.442h-.43v69.214h.43z" fill="#e4e3e1"/></g><g clip-path="url(#c)" opacity=".5" transform="matrix(.35278 0 0 -.35278 -165.476 315.69)"><path d="M498.929 729.009h-.43v69.214h.43z" fill="#e4e3e1"/></g><g clip-path="url(#d)" opacity=".5" transform="matrix(.35278 0 0 -.35278 -165.476 315.69)"><path d="M510.435 721.776h-.43v69.212h.43z" fill="#e4e3e1"/></g><g clip-path="url(#e)" opacity=".5" transform="matrix(.35278 0 0 -.35278 -165.476 315.69)"><path d="M522.48 713.94h-.432v69.211h.432z" fill="#e4e3e1"/></g><g clip-path="url(#f)" opacity=".5" transform="matrix(.35278 0 0 -.35278 -165.476 315.69)"><path d="M530.277 771.937l-.217-.371-59.715 34.993.217.37z" fill="#e4e3e1"/></g><g clip-path="url(#g)" opacity=".5" transform="matrix(.35278 0 0 -.35278 -165.476 315.69)"><path d="M530.109 759.648l-.223-.37-59.238 35.794.223.367z" fill="#e4e3e1"/></g><g clip-path="url(#h)" opacity=".5" transform="matrix(.35278 0 0 -.35278 -165.476 315.69)"><path d="M529.974 749.081l-.223-.367-59.236 35.793.221.367z" fill="#e4e3e1"/></g><g clip-path="url(#i)" opacity=".5" transform="matrix(.35278 0 0 -.35278 -165.476 315.69)"><path d="M530.109 737.683l-.223-.367-59.238 35.793.223.369z" fill="#e4e3e1"/></g><g clip-path="url(#j)" opacity=".5" transform="matrix(.35278 0 0 -.35278 -165.476 315.69)"><path d="M530.109 727.282l-.223-.367-59.238 35.791.223.37z" fill="#e4e3e1"/></g><g clip-path="url(#k)" opacity=".5" transform="matrix(.35278 0 0 -.35278 -165.476 315.69)"><path d="M530.04 716.59l-.223-.366-59.238 35.79.223.372z" fill="#e4e3e1"/></g><path d="M68.626 28.214L48.58 40.82v24.092l20.046-12.797z" fill="#129cc5"/><path d="M47.298 45.622l.462.738 21.476-13.439-.463-.737z" fill="#c7c6c7"/><path d="M56.433 60.02h.87V34.688h-.87zm4.247-2.425h.869V32.26h-.87zm4.244-2.801h.87V29.46h-.87z" fill="#c7c6c7"/><path d="M47.298 49.529l.462.737 21.476-13.438-.463-.738zm0 3.906l.462.738 21.476-13.44-.463-.737zm0 3.907l.462.736L69.236 44.64l-.463-.738zm.001 3.906l.461.738 21.476-13.44-.463-.737z" fill="#c7c6c7"/><path d="M52.188 62.743h.87V37.41h-.87z" fill="#c7c6c7"/><g clip-path="url(#l)" opacity=".5" transform="matrix(.35278 0 0 -.35278 -165.476 315.69)"><path d="M659.101 742.942h.437v70.559h-.437z" fill="#c7c6c7"/></g><g clip-path="url(#m)" opacity=".5" transform="matrix(.35278 0 0 -.35278 -165.476 315.69)"><path d="M648.136 735.929h.439v70.56h-.439z" fill="#c7c6c7"/></g><g clip-path="url(#n)" opacity=".5" transform="matrix(.35278 0 0 -.35278 -165.476 315.69)"><path d="M635.64 728.351h.439v70.558h-.439z" fill="#c7c6c7"/></g><g clip-path="url(#o)" opacity=".5" transform="matrix(.35278 0 0 -.35278 -165.476 315.69)"><path d="M623.912 720.978h.437v70.558h-.437z" fill="#c7c6c7"/></g><g clip-path="url(#p)" opacity=".5" transform="matrix(.35278 0 0 -.35278 -165.476 315.69)"><path d="M611.632 712.987h.437v70.561h-.437z" fill="#c7c6c7"/></g><g clip-path="url(#q)" opacity=".5" transform="matrix(.35278 0 0 -.35278 -165.476 315.69)"><path d="M603.681 772.114l.223-.379 60.877 35.673-.223.38z" fill="#c7c6c7"/></g><g clip-path="url(#r)" opacity=".5" transform="matrix(.35278 0 0 -.35278 -165.476 315.69)"><path d="M603.853 759.583l.229-.375 60.39 36.491-.224.375z" fill="#c7c6c7"/></g><g clip-path="url(#s)" opacity=".5" transform="matrix(.35278 0 0 -.35278 -165.476 315.69)"><path d="M603.99 748.813l.227-.375 60.392 36.486-.226.377z" fill="#c7c6c7"/></g><g clip-path="url(#t)" opacity=".5" transform="matrix(.35278 0 0 -.35278 -165.476 315.69)"><path d="M603.853 737.192l.229-.375 60.39 36.49-.224.375z" fill="#c7c6c7"/></g><g clip-path="url(#u)" opacity=".5" transform="matrix(.35278 0 0 -.35278 -165.476 315.69)"><path d="M603.853 726.589l.229-.377 60.39 36.49-.224.377z" fill="#c7c6c7"/></g><g clip-path="url(#v)" opacity=".5" transform="matrix(.35278 0 0 -.35278 -165.476 315.69)"><path d="M603.923 715.69l.227-.375 60.39 36.49-.226.375z" fill="#c7c6c7"/></g><path d="M40.637 45.092l.482.772 4.046-2.576-.483-.771zm.134 3.605l.483.771 4.046-2.575-.483-.771zm-.201 3.605l.482.771 4.046-2.575-.483-.771zm.134 3.605l.482.771 4.046-2.575-.482-.772zm.034 3.605l.483.771 4.045-2.575-.482-.772zm.135 3.605l.483.771 4.045-2.575-.482-.772zm-.203 3.605l.483.771 4.046-2.576-.483-.771z" fill="#c7c6c7"/><path d="M28.455 56.058l-2.139-1.42V40.626l2.14 1.419z" fill="#0d343d"/><path d="M29.487 45.227l-.482.772-4.046-2.577.482-.771zm-.134 3.605l-.483.77-4.046-2.575.483-.771zm.202 3.605l-.482.77-4.046-2.575.482-.771zm-.135 3.604l-.482.772-4.046-2.577.483-.77z" fill="#e4e3e1"/><path d="M24.573 50.032l-2.139-1.42V38.414l2.14 1.42z" fill="#0d343d"/><path d="M25.605 43.015l-.482.77-4.046-2.575.482-.77zm-.135 3.605l-.483.771-4.045-2.576.482-.771zm.203 3.604l-.482.772-4.047-2.576.483-.772z" fill="#e4e3e1"/><path d="M54.148 19.414l-4.638-2.918 4.749-3.113 4.64 2.917z" fill="#80a5a8"/><path d="M49.51 18.305v-1.808l4.638 2.917v1.808z" fill="#477a7d"/><path d="M58.899 16.3v1.808l-4.751 3.114v-1.808zm-1.803.098c0 .88-1.295 1.593-2.892 1.593-1.598 0-2.892-.713-2.892-1.593 0-.879 1.294-1.592 2.892-1.592 1.597 0 2.892.713 2.892 1.592" fill="#2c595e"/><path d="M55.766 16.398c0 .475-.7.86-1.562.86-.863 0-1.562-.385-1.562-.86s.7-.86 1.562-.86c.862 0 1.562.385 1.562.86" fill="#80a5a8"/><path d="M54.204 15.22c-1.182 0-2.14.528-2.14 1.178 0 .651.958 1.178 2.14 1.178 1.182 0 2.14-.527 2.14-1.178 0-.65-.958-1.178-2.14-1.178m2.486 1.178c0 .756-1.113 1.369-2.486 1.369-1.373 0-2.486-.613-2.486-1.369 0-.755 1.113-1.368 2.486-1.368 1.373 0 2.486.613 2.486 1.368m2.73 6.247l-4.638-2.918 4.75-3.113 4.64 2.917z" fill="#80a5a8"/><path d="M54.782 21.536v-1.809l4.638 2.918v1.808z" fill="#477a7d"/><path d="M64.171 19.531v1.808l-4.75 3.114v-1.808zm-1.802.099c0 .879-1.295 1.592-2.892 1.592-1.598 0-2.893-.713-2.893-1.593 0-.879 1.295-1.593 2.893-1.593 1.597 0 2.892.714 2.892 1.593" fill="#2c595e"/><path d="M61.038 19.63c0 .474-.699.86-1.561.86-.863 0-1.563-.386-1.563-.86 0-.476.7-.86 1.563-.86.862 0 1.561.384 1.561.86" fill="#80a5a8"/><path d="M59.477 18.451c-1.183 0-2.14.527-2.14 1.178 0 .651.957 1.178 2.14 1.178 1.181 0 2.14-.527 2.14-1.178 0-.65-.959-1.178-2.14-1.178m2.485 1.178c0 .756-1.112 1.37-2.485 1.37-1.374 0-2.487-.614-2.487-1.37 0-.755 1.113-1.368 2.487-1.368 1.373 0 2.485.613 2.485 1.368" fill="#80a5a8"/><path d="M18.217 22.353l-6.917-4.35 7.083-4.644 6.919 4.35z" fill="#eaeaeb"/><path d="M11.3 23.358v-5.356l6.917 4.351v5.356z" fill="#e4e3e1"/><path d="M25.302 17.71v5.354l-7.085 4.645v-5.356z" fill="#c7c6c7"/><path d="M14.758 25.533v-3.452l1.943 1.262v3.452z" fill="#0d343d"/></svg>