<svg xmlns="http://www.w3.org/2000/svg" viewBox="0 0 52.997 58.702"><path d="M20.513 33.178L52.997 12.9 32.483 0 0 20.28z" fill="#c8ba9e"/><path d="M52.997 38.423V12.9L20.513 33.18v25.523z" fill="#81785b"/><path d="M0 20.28v25.523l20.513 12.9V33.177z" fill="#c1b289"/><path d="M20.962 30.962l28.515-17.778L32.035 2.217 3.52 19.994z" fill="#796f5e"/><path d="M32.035 2.217v1.026L4.527 20.628l-1.007-.634z" fill="#745020"/><path d="M32.035 3.243L48.503 13.79l.974-.606L32.035 2.217z" fill="#2d2111"/><path d="M10.604 19.467l5.05-3.176-5.171-3.392-5.053 3.177z" fill="#d7cae2"/><path d="M15.655 20.2v-3.91l-5.05 3.177v3.91z" fill="#81785b"/><path d="M5.43 16.076v3.91l5.174 3.392v-3.911z" fill="#c1b289"/><path d="M13.13 21.789v-2.52l-1.42.921v2.52z" fill="#1b1610"/><path d="M52.997 38.423l-32.484 20.28v-.551l32.484-20.35z" fill="#938777"/><path d="M20.513 58.702L0 45.803v-.487l20.513 12.836z" fill="#c8ba9e"/><path d="M50.897 21.156v-4.11l-3.607 2.273v4.112z" fill="#6f899e"/><path d="M50.897 21.156l-.456-.253v-3.57l.456-.288z" fill="#2d2111"/><path d="M50.441 20.903l-3.151 1.996v.532l3.607-2.275z" fill="#745020"/><path d="M50.294 20.864v-3.21l-2.816 1.776v3.21z" fill="#048ebb"/><path d="M44.99 24.718v-4.112l-3.607 2.275v4.111z" fill="#6f899e"/><path d="M44.99 24.718l-.456-.254v-3.57l.456-.288z" fill="#2d2111"/><path d="M44.534 24.464l-3.15 1.996v.532l3.606-2.274z" fill="#745020"/><path d="M44.387 24.425v-3.21l-2.816 1.776v3.21z" fill="#048ebb"/><path d="M39.04 28.576v-4.112l-3.607 2.275v4.112z" fill="#6f899e"/><path d="M39.04 28.576l-.456-.254v-3.57l.457-.288z" fill="#2d2111"/><path d="M38.584 28.322l-3.15 1.996v.533l3.607-2.275z" fill="#745020"/><path d="M38.438 28.284v-3.211L35.62 26.85v3.21z" fill="#048ebb"/><path d="M33.112 32.237v-4.112L29.504 30.4v4.11z" fill="#6f899e"/><path d="M33.112 32.237l-.457-.254v-3.57l.457-.288z" fill="#2d2111"/><path d="M32.655 31.983l-3.151 1.996v.532l3.608-2.274z" fill="#745020"/><path d="M32.509 31.944v-3.21l-2.817 1.776v3.21z" fill="#048ebb"/><path d="M27.183 35.9v-4.111l-3.608 2.274v4.112z" fill="#6f899e"/><path d="M27.183 35.9l-.456-.254v-3.57l.456-.287z" fill="#2d2111"/><path d="M26.727 35.646l-3.152 1.996v.533l3.608-2.275z" fill="#745020"/><path d="M26.58 35.608v-3.211l-2.816 1.777v3.21z" fill="#048ebb"/><path d="M50.897 28.161V24.05l-3.607 2.275v4.111z" fill="#81785b"/><path d="M50.897 28.161l-.455-.253v-3.571l.455-.287z" fill="#2d2111"/><path d="M50.442 27.908l-3.152 1.996v.532l3.607-2.275z" fill="#745020"/><path d="M50.295 27.869v-3.21l-2.817 1.776v3.21z" fill="#048ebb"/><path d="M44.99 31.723V27.61l-3.607 2.275v4.112z" fill="#81785b"/><path d="M44.99 31.723l-.456-.254v-3.57l.456-.288z" fill="#2d2111"/><path d="M44.534 31.469l-3.15 1.997v.532l3.606-2.275z" fill="#745020"/><path d="M44.387 31.43v-3.21l-2.816 1.777v3.21z" fill="#048ebb"/><path d="M39.04 35.58v-4.11l-3.607 2.275v4.111z" fill="#81785b"/><path d="M39.04 35.58l-.456-.253v-3.57l.457-.288z" fill="#2d2111"/><path d="M38.584 35.327l-3.15 1.996v.532l3.607-2.275z" fill="#745020"/><path d="M38.438 35.288v-3.21l-2.816 1.776v3.21z" fill="#048ebb"/><path d="M33.112 39.241V35.13l-3.608 2.275v4.111z" fill="#81785b"/><path d="M33.112 39.241l-.457-.254v-3.57l.457-.287z" fill="#2d2111"/><path d="M32.655 38.988l-3.151 1.996v.532l3.608-2.275z" fill="#745020"/><path d="M32.509 38.949v-3.21l-2.817 1.776v3.21z" fill="#048ebb"/><path d="M27.183 42.905v-4.112l-3.608 2.275v4.112z" fill="#81785b"/><path d="M27.183 42.905l-.456-.254v-3.57l.456-.288z" fill="#2d2111"/><path d="M26.727 42.651l-3.152 1.997v.532l3.608-2.275z" fill="#745020"/><path d="M26.58 42.612v-3.21l-2.816 1.777v3.21z" fill="#048ebb"/><path d="M50.897 35.166v-4.111l-3.607 2.274v4.112z" fill="#81785b"/><path d="M50.897 35.166l-.456-.253v-3.57l.456-.288z" fill="#2d2111"/><path d="M50.441 34.913l-3.151 1.996v.532l3.607-2.275z" fill="#745020"/><path d="M50.294 34.874v-3.21l-2.816 1.776v3.21z" fill="#048ebb"/><path d="M44.99 38.728v-4.112l-3.607 2.275v4.111z" fill="#81785b"/><path d="M44.99 38.728l-.456-.254v-3.57l.456-.288z" fill="#2d2111"/><path d="M44.534 38.474l-3.15 1.997v.531l3.606-2.274z" fill="#745020"/><path d="M44.387 38.436v-3.211L41.571 37v3.21z" fill="#048ebb"/><path d="M39.04 42.586v-4.112l-3.607 2.275v4.11z" fill="#81785b"/><path d="M39.04 42.586l-.456-.254v-3.57l.457-.288z" fill="#2d2111"/><path d="M38.584 42.332l-3.15 1.996v.532l3.607-2.274z" fill="#745020"/><path d="M38.438 42.293v-3.21L35.62 40.86v3.21z" fill="#048ebb"/><path d="M33.112 46.246v-4.11l-3.608 2.273v4.112z" fill="#81785b"/><path d="M33.112 46.246l-.457-.253v-3.57l.457-.288z" fill="#2d2111"/><path d="M32.655 45.993l-3.15 1.996v.532l3.607-2.275z" fill="#745020"/><path d="M32.509 45.954v-3.21l-2.817 1.777v3.209z" fill="#048ebb"/><path d="M27.183 49.91v-4.111l-3.607 2.274v4.112z" fill="#81785b"/><path d="M27.183 49.91l-.456-.254v-3.57l.456-.287z" fill="#2d2111"/><path d="M26.727 49.656l-3.15 1.996v.533l3.606-2.275z" fill="#745020"/><path d="M26.58 49.618v-3.21l-2.816 1.776v3.21z" fill="#048ebb"/><path d="M2.046 29.186v-4.112l3.608 2.275v4.112z" fill="#617989"/><path d="M2.046 29.186l.457-.253v-3.57l-.457-.289z" fill="#564d3c"/><path d="M2.503 28.933l3.151 1.996v.532l-3.608-2.275z" fill="#9e6c29"/><path d="M2.65 28.894v-3.21l2.816 1.776v3.21z" fill="#139dcf"/><path d="M7.975 32.846v-4.111l3.608 2.275v4.111z" fill="#617989"/><path d="M7.975 32.846l.457-.253v-3.57l-.457-.288z" fill="#564d3c"/><path d="M8.432 32.593l3.15 1.996v.532l-3.607-2.275z" fill="#9e6c29"/><path d="M8.578 32.554v-3.21l2.816 1.776v3.21z" fill="#139dcf"/><path d="M13.904 36.51V32.4l3.607 2.274v4.11z" fill="#617989"/><path d="M13.904 36.51l.456-.253v-3.57l-.456-.288z" fill="#564d3c"/><path d="M14.36 36.257l3.15 1.996v.532l-3.606-2.274z" fill="#9e6c29"/><path d="M14.507 36.218v-3.21l2.815 1.776v3.21z" fill="#139dcf"/><path d="M2.046 36.19v-4.11l3.608 2.274v4.112z" fill="#617989"/><path d="M2.046 36.19l.457-.253v-3.57l-.457-.287z" fill="#564d3c"/><path d="M2.503 35.937l3.151 1.997v.532L2.046 36.19z" fill="#9e6c29"/><path d="M2.65 35.899v-3.21l2.816 1.776v3.21z" fill="#139dcf"/><path d="M7.975 39.852V35.74l3.608 2.275v4.11z" fill="#617989"/><path d="M7.975 39.852l.457-.254v-3.57l-.457-.288z" fill="#564d3c"/><path d="M8.432 39.598l3.15 1.996v.532l-3.607-2.274z" fill="#9e6c29"/><path d="M8.578 39.56v-3.21l2.816 1.776v3.209z" fill="#139dcf"/><path d="M13.904 43.515v-4.111l3.607 2.274v4.112z" fill="#617989"/><path d="M13.904 43.515l.456-.254v-3.57l-.456-.287z" fill="#564d3c"/><path d="M14.36 43.261l3.15 1.997v.532l-3.606-2.275z" fill="#9e6c29"/><path d="M14.507 43.223v-3.21l2.815 1.776V45z" fill="#139dcf"/><path d="M2.046 43.196v-4.111l3.608 2.274v4.111z" fill="#617989"/><path d="M2.046 43.196l.457-.254v-3.57l-.457-.287z" fill="#564d3c"/><path d="M2.503 42.943l3.15 1.996v.532l-3.607-2.275z" fill="#9e6c29"/><path d="M2.65 42.903v-3.21l2.816 1.777v3.21z" fill="#139dcf"/><path d="M7.975 46.857v-4.111l3.608 2.274v4.111z" fill="#617989"/><path d="M7.975 46.857l.457-.254v-3.571l-.457-.286z" fill="#564d3c"/><path d="M8.432 46.603l3.15 1.996v.532l-3.607-2.274z" fill="#9e6c29"/><path d="M8.578 46.564v-3.21l2.816 1.777v3.21z" fill="#139dcf"/><path d="M13.904 50.52v-4.11l3.607 2.274v4.112z" fill="#617989"/><path d="M13.904 50.52l.455-.253v-3.57l-.455-.288z" fill="#564d3c"/><path d="M14.36 50.267l3.15 1.996v.532l-3.606-2.275z" fill="#9e6c29"/><path d="M14.506 50.227v-3.21l2.817 1.777v3.21z" fill="#139dcf"/><path d="M33.158 8.154l-3.387-2.13 3.468-2.274 3.388 2.13z" fill="#e5d5b5"/><path d="M29.771 7.344v-1.32l3.387 2.13v1.32z" fill="#ddc487"/><path d="M36.627 5.88V7.2l-3.47 2.275v-1.32z" fill="#7f6f4e"/><path d="M35.31 5.952c0 .642-.945 1.163-2.112 1.163-1.166 0-2.112-.52-2.112-1.163 0-.642.946-1.163 2.112-1.163 1.167 0 2.113.521 2.113 1.163" fill="#948166"/><path d="M34.34 5.952c0 .347-.512.628-1.142.628-.63 0-1.14-.281-1.14-.628 0-.346.51-.627 1.14-.627.63 0 1.141.28 1.141.627" fill="#e5d5b5"/><path d="M33.198 5.092c-.862 0-1.562.386-1.562.86 0 .476.7.86 1.562.86.864 0 1.563-.384 1.563-.86 0-.474-.7-.86-1.563-.86m1.816.86c0 .552-.812 1-1.816 1-1.002 0-1.815-.448-1.815-1s.813-1 1.815-1c1.004 0 1.816.448 1.816 1m.256 6.542l-3.387-2.13L35.35 8.09l3.388 2.13z" fill="#e5d5b5"/><path d="M31.883 11.683v-1.32l3.387 2.13v1.32z" fill="#ddc487"/><path d="M38.739 10.22v1.32l-3.47 2.274v-1.32z" fill="#7f6f4e"/><path d="M37.423 10.292c0 .642-.946 1.163-2.113 1.163-1.166 0-2.112-.521-2.112-1.163s.946-1.164 2.112-1.164c1.167 0 2.113.522 2.113 1.164" fill="#948166"/><path d="M36.451 10.292c0 .346-.511.627-1.14.627-.63 0-1.141-.281-1.141-.627 0-.347.51-.628 1.14-.628.63 0 1.141.281 1.141.628" fill="#e5d5b5"/><path d="M35.31 9.431c-.862 0-1.563.385-1.563.86 0 .476.7.86 1.563.86s1.563-.384 1.563-.86c0-.475-.7-.86-1.563-.86m1.816.86c0 .553-.813 1-1.816 1-1.002 0-1.815-.447-1.815-1 0-.551.813-.999 1.815-.999 1.003 0 1.816.448 1.816 1" fill="#e5d5b5"/></svg>