<svg xmlns="http://www.w3.org/2000/svg" width="246.147" height="154.781" viewBox="0 0 65.126 40.953"><path d="M32.563 40.953L0 20.475 32.563 0l32.563 20.475z" fill="#d8dded"/><path d="M32.563 36.863L6.503 20.475l26.06-16.386 26.06 16.386z" fill="#72a041"/><path d="M35.006 35.795c0 .78-.83 1.411-1.852 1.411-1.023 0-1.852-.631-1.852-1.41 0-.78.829-1.412 1.852-1.412 1.022 0 1.852.632 1.852 1.411" fill="#72a041"/><path d="M36.267 34.605c0 .779-.83 1.41-1.852 1.41-1.023 0-1.852-.631-1.852-1.41 0-.78.83-1.411 1.852-1.411 1.023 0 1.852.631 1.852 1.41" fill="#72a041"/><path d="M38.12 33.502c0 .78-.83 1.411-1.853 1.411-1.023 0-1.852-.632-1.852-1.41 0-.78.83-1.412 1.852-1.412 1.023 0 1.852.632 1.852 1.411" fill="#72a041"/><path d="M39.492 32.356c0 .779-.83 1.41-1.852 1.41-1.023 0-1.852-.631-1.852-1.41 0-.78.829-1.411 1.852-1.411 1.022 0 1.852.631 1.852 1.41" fill="#72a041"/><path d="M42.326 31.782c0 .78-.83 1.412-1.852 1.412-1.023 0-1.852-.632-1.852-1.412 0-.779.829-1.41 1.852-1.41 1.022 0 1.852.631 1.852 1.41" fill="#72a041"/><path d="M43.737 30.371c0 .78-.83 1.411-1.852 1.411-1.023 0-1.852-.631-1.852-1.41 0-.78.829-1.412 1.852-1.412 1.022 0 1.852.632 1.852 1.411" fill="#72a041"/><path d="M45.589 28.74c0 .779-.83 1.41-1.852 1.41-1.023 0-1.852-.631-1.852-1.41 0-.78.829-1.411 1.852-1.411 1.022 0 1.852.631 1.852 1.41" fill="#72a041"/><path d="M47.132 27.55c0 .778-.83 1.41-1.852 1.41-1.023 0-1.852-.632-1.852-1.41 0-.78.83-1.412 1.852-1.412 1.023 0 1.852.632 1.852 1.411" fill="#72a041"/><path d="M49.558 26.49c0 .78-.83 1.412-1.852 1.412-1.023 0-1.852-.632-1.852-1.411 0-.78.829-1.411 1.852-1.411 1.022 0 1.852.631 1.852 1.41" fill="#72a041"/><path d="M51.233 25.08c0 .779-.83 1.41-1.852 1.41-1.023 0-1.852-.631-1.852-1.41 0-.78.83-1.411 1.852-1.411 1.023 0 1.852.631 1.852 1.41" fill="#72a041"/><path d="M53.262 24.021c0 .78-.83 1.411-1.852 1.411-1.023 0-1.852-.631-1.852-1.41 0-.78.829-1.412 1.852-1.412 1.022 0 1.852.632 1.852 1.411" fill="#72a041"/><path d="M54.938 22.61c0 .78-.83 1.411-1.852 1.411-1.023 0-1.853-.632-1.853-1.41 0-.78.83-1.412 1.853-1.412 1.022 0 1.852.632 1.852 1.411" fill="#72a041"/><path d="M57.451 21.684c0 .78-.83 1.411-1.852 1.411-1.023 0-1.852-.632-1.852-1.41 0-.78.83-1.412 1.852-1.412 1.022 0 1.852.632 1.852 1.411" fill="#72a041"/><path d="M58.642 20.476c0 .78-.83 1.411-1.852 1.411-1.023 0-1.852-.631-1.852-1.41 0-.78.829-1.412 1.852-1.412 1.022 0 1.852.632 1.852 1.411M9.99 20.26c0 .78-.829 1.411-1.851 1.411-1.023 0-1.852-.632-1.852-1.411 0-.78.829-1.411 1.852-1.411 1.022 0 1.852.632 1.852 1.41" fill="#72a041"/><path d="M11.252 19.07c0 .779-.83 1.41-1.852 1.41-1.023 0-1.852-.631-1.852-1.41 0-.78.83-1.412 1.852-1.412 1.023 0 1.852.632 1.852 1.411" fill="#72a041"/><path d="M13.105 17.967c0 .78-.83 1.411-1.853 1.411-1.023 0-1.852-.632-1.852-1.411 0-.78.83-1.411 1.852-1.411 1.023 0 1.853.632 1.853 1.41" fill="#72a041"/><path d="M14.477 16.82c0 .78-.83 1.411-1.852 1.411-1.023 0-1.852-.631-1.852-1.41 0-.78.829-1.412 1.852-1.412 1.022 0 1.852.632 1.852 1.411" fill="#72a041"/><path d="M17.311 16.247c0 .78-.83 1.411-1.852 1.411-1.023 0-1.852-.632-1.852-1.41 0-.78.829-1.412 1.852-1.412 1.022 0 1.852.632 1.852 1.411" fill="#72a041"/><path d="M18.722 14.836c0 .78-.83 1.411-1.852 1.411-1.023 0-1.852-.632-1.852-1.411 0-.78.829-1.411 1.852-1.411 1.022 0 1.852.632 1.852 1.411" fill="#72a041"/><path d="M20.574 13.204c0 .78-.83 1.411-1.852 1.411-1.023 0-1.852-.631-1.852-1.41 0-.78.83-1.412 1.852-1.412 1.022 0 1.852.632 1.852 1.411" fill="#72a041"/><path d="M22.118 12.014c0 .779-.83 1.41-1.852 1.41-1.024 0-1.853-.631-1.853-1.41 0-.78.83-1.411 1.853-1.411 1.022 0 1.852.631 1.852 1.41" fill="#72a041"/><path d="M24.543 10.955c0 .78-.83 1.412-1.852 1.412-1.023 0-1.852-.632-1.852-1.412 0-.779.829-1.41 1.852-1.41 1.022 0 1.852.631 1.852 1.41" fill="#72a041"/><path d="M26.219 9.544c0 .78-.83 1.411-1.852 1.411-1.023 0-1.853-.631-1.853-1.41 0-.78.83-1.412 1.853-1.412 1.022 0 1.852.632 1.852 1.411" fill="#72a041"/><path d="M28.247 8.486c0 .78-.83 1.411-1.852 1.411-1.023 0-1.852-.632-1.852-1.411 0-.78.829-1.411 1.852-1.411 1.022 0 1.852.632 1.852 1.411" fill="#72a041"/><path d="M29.923 7.075c0 .78-.83 1.411-1.852 1.411-1.023 0-1.852-.632-1.852-1.411 0-.78.829-1.411 1.852-1.411 1.022 0 1.852.632 1.852 1.41" fill="#72a041"/><path d="M32.436 6.149c0 .78-.83 1.41-1.852 1.41-1.023 0-1.852-.63-1.852-1.41 0-.78.83-1.411 1.852-1.411 1.023 0 1.852.632 1.852 1.41" fill="#72a041"/><path d="M33.627 4.941c0 .78-.83 1.411-1.852 1.411-1.023 0-1.852-.632-1.852-1.411 0-.78.829-1.411 1.852-1.411 1.022 0 1.852.632 1.852 1.411M11.667 21.2c0 .778-.83 1.41-1.853 1.41-1.023 0-1.852-.632-1.852-1.41 0-.78.83-1.412 1.852-1.412 1.023 0 1.853.632 1.853 1.411" fill="#72a041"/><path d="M13.519 22.862c0 .779-.83 1.41-1.852 1.41-1.023 0-1.853-.631-1.853-1.41 0-.78.83-1.411 1.853-1.411 1.022 0 1.852.631 1.852 1.41" fill="#72a041"/><path d="M15.746 24.021c0 .78-.83 1.411-1.852 1.411-1.023 0-1.852-.631-1.852-1.41 0-.78.83-1.412 1.852-1.412 1.023 0 1.852.632 1.852 1.411" fill="#72a041"/><path d="M17.598 26.138c0 .78-.83 1.411-1.852 1.411-1.023 0-1.852-.632-1.852-1.411 0-.78.83-1.411 1.852-1.411 1.023 0 1.852.632 1.852 1.411" fill="#72a041"/><path d="M20.266 26.844c0 .779-.83 1.41-1.853 1.41-1.023 0-1.852-.631-1.852-1.41 0-.78.83-1.412 1.852-1.412 1.023 0 1.853.632 1.853 1.412" fill="#72a041"/><path d="M22.426 28.255c0 .779-.83 1.41-1.852 1.41-1.023 0-1.852-.631-1.852-1.41 0-.78.83-1.411 1.852-1.411 1.023 0 1.852.631 1.852 1.41" fill="#72a041"/><path d="M24.278 29.313c0 .78-.83 1.411-1.852 1.411-1.023 0-1.852-.632-1.852-1.411 0-.78.83-1.411 1.852-1.411 1.023 0 1.852.632 1.852 1.411m8.643 5.292c0 .779-.83 1.41-1.852 1.41-1.023 0-1.852-.631-1.852-1.41 0-.78.83-1.411 1.852-1.411 1.023 0 1.852.631 1.852 1.41" fill="#72a041"/><path d="M30.584 33.502c0 .78-.83 1.411-1.852 1.411-1.023 0-1.852-.632-1.852-1.41 0-.78.83-1.412 1.852-1.412 1.023 0 1.852.632 1.852 1.411m-4.365-2.557c0 .779-.83 1.41-1.852 1.41-1.023 0-1.853-.631-1.853-1.41 0-.78.83-1.412 1.853-1.412 1.022 0 1.852.632 1.852 1.412" fill="#72a041"/><path d="M28.732 32.091c0 .78-.83 1.411-1.852 1.411-1.023 0-1.852-.632-1.852-1.41 0-.78.83-1.412 1.852-1.412 1.022 0 1.852.632 1.852 1.411m30.246-11.818c0 .78-.829 1.411-1.852 1.411-1.022 0-1.852-.632-1.852-1.411 0-.78.83-1.411 1.852-1.411 1.023 0 1.852.632 1.852 1.411M35.198 4.958c0 .78-.83 1.411-1.852 1.411-1.022 0-1.852-.632-1.852-1.41 0-.78.83-1.412 1.852-1.412 1.023 0 1.852.632 1.852 1.411" fill="#72a041"/><path d="M36.874 5.897c0 .78-.83 1.411-1.852 1.411-1.023 0-1.853-.631-1.853-1.41 0-.78.83-1.412 1.853-1.412 1.023 0 1.852.632 1.852 1.411" fill="#72a041"/><path d="M38.726 7.56c0 .78-.83 1.411-1.852 1.411-1.023 0-1.852-.632-1.852-1.411 0-.78.83-1.411 1.852-1.411 1.023 0 1.852.632 1.852 1.41" fill="#72a041"/><path d="M40.953 8.72c0 .779-.829 1.41-1.852 1.41-1.022 0-1.852-.631-1.852-1.41 0-.78.83-1.412 1.852-1.412 1.023 0 1.852.632 1.852 1.412" fill="#72a041"/><path d="M42.805 10.836c0 .78-.829 1.411-1.852 1.411-1.022 0-1.852-.631-1.852-1.41 0-.78.83-1.412 1.852-1.412 1.023 0 1.852.632 1.852 1.411" fill="#72a041"/><path d="M45.473 11.542c0 .78-.83 1.41-1.852 1.41-1.023 0-1.853-.63-1.853-1.41 0-.78.83-1.411 1.853-1.411 1.023 0 1.852.632 1.852 1.41" fill="#72a041"/><path d="M47.633 12.953c0 .78-.829 1.411-1.852 1.411-1.022 0-1.852-.632-1.852-1.411 0-.78.83-1.411 1.852-1.411 1.023 0 1.852.632 1.852 1.41" fill="#72a041"/><path d="M49.485 14.011c0 .78-.829 1.411-1.852 1.411-1.022 0-1.852-.631-1.852-1.41 0-.78.83-1.412 1.852-1.412 1.023 0 1.852.632 1.852 1.411m8.643 5.292c0 .78-.829 1.411-1.852 1.411-1.022 0-1.852-.632-1.852-1.411 0-.78.83-1.411 1.852-1.411 1.023 0 1.852.632 1.852 1.41" fill="#72a041"/><path d="M55.791 18.2c0 .78-.829 1.412-1.852 1.412-1.022 0-1.852-.632-1.852-1.412 0-.779.83-1.41 1.852-1.41 1.023 0 1.852.631 1.852 1.41m-4.365-2.557c0 .78-.83 1.41-1.852 1.41-1.023 0-1.852-.63-1.852-1.41 0-.78.83-1.411 1.852-1.411 1.023 0 1.852.632 1.852 1.41" fill="#72a041"/><path d="M53.94 16.79c0 .779-.83 1.41-1.853 1.41-1.022 0-1.852-.631-1.852-1.41 0-.78.83-1.412 1.852-1.412 1.023 0 1.852.632 1.852 1.411" fill="#72a041"/><path d="M50.074 19.818c0 .495-.526.896-1.176.896-.65 0-1.176-.401-1.176-.896 0-.494.526-.895 1.176-.895.65 0 1.176.4 1.176.895m2.197-.515c0 .356-.378.644-.845.644-.467 0-.845-.288-.845-.644 0-.356.378-.644.845-.644.467 0 .845.288.845.644m-36.525 1.515c0 .803-.854 1.455-1.908 1.455-1.054 0-1.91-.652-1.91-1.455s.856-1.454 1.91-1.454c1.054 0 1.908.651 1.908 1.454m-1.796 2.277c0 .356-.378.644-.845.644-.468 0-.846-.288-.846-.644 0-.355.378-.643.846-.643.467 0 .845.288.845.643m13.642 4.455c0 .299-.319.541-.712.541-.393 0-.712-.242-.712-.542 0-.3.32-.542.712-.542.393 0 .712.243.712.542m15.446-.705c0 .3-.32.542-.712.542-.393 0-.712-.243-.712-.542 0-.3.32-.543.712-.543.393 0 .712.243.712.543m-9.89-18.711c0 .3-.319.542-.712.542-.392 0-.711-.242-.711-.542 0-.299.319-.542.711-.542.393 0 .712.243.712.542m-3.219.744c0 .514-.549.932-1.224.932-.676 0-1.224-.418-1.224-.932 0-.516.548-.933 1.224-.933.675 0 1.224.417 1.224.933" fill="#587b41"/></svg>