<svg xmlns="http://www.w3.org/2000/svg" viewBox="0 0 52.119 33.118"><path fill="#65a430" d="M26.06 32.774L0 16.386 26.06 0l26.06 16.386-26.06 16.388"/><path fill="#65a430" d="M28.5 31.707c0 .779-.828 1.41-1.851 1.41-1.02 0-1.852-.631-1.852-1.41 0-.78.832-1.412 1.852-1.412 1.023 0 1.852.632 1.852 1.412"/><path fill="#65a430" d="M29.764 30.516c0 .78-.83 1.411-1.852 1.411-1.023 0-1.852-.632-1.852-1.411 0-.78.829-1.411 1.852-1.411 1.023 0 1.852.632 1.852 1.411"/><path fill="#65a430" d="M31.616 29.414c0 .779-.83 1.41-1.852 1.41-1.023 0-1.852-.631-1.852-1.41 0-.78.829-1.412 1.852-1.412 1.023 0 1.852.632 1.852 1.412"/><path fill="#65a430" d="M32.988 28.267c0 .78-.829 1.411-1.852 1.411-1.023 0-1.852-.632-1.852-1.411 0-.78.83-1.411 1.852-1.411 1.023 0 1.852.632 1.852 1.411"/><path fill="#65a430" d="M35.821 27.694c0 .779-.829 1.41-1.852 1.41-1.02 0-1.852-.631-1.852-1.41 0-.78.832-1.411 1.852-1.411 1.023 0 1.852.631 1.852 1.41"/><path fill="#65a430" d="M37.232 26.283c0 .779-.829 1.41-1.852 1.41-1.02 0-1.852-.631-1.852-1.41 0-.78.833-1.411 1.852-1.411 1.023 0 1.852.631 1.852 1.41"/><path fill="#65a430" d="M39.084 24.651c0 .78-.829 1.411-1.852 1.411-1.02 0-1.852-.632-1.852-1.41 0-.78.833-1.412 1.852-1.412 1.023 0 1.852.632 1.852 1.411"/><path fill="#65a430" d="M40.63 23.46c0 .78-.83 1.412-1.853 1.412-1.023 0-1.852-.632-1.852-1.412 0-.779.83-1.41 1.852-1.41 1.023 0 1.852.631 1.852 1.41"/><path fill="#65a430" d="M43.053 22.402c0 .78-.829 1.411-1.852 1.411-1.02 0-1.852-.632-1.852-1.41 0-.78.832-1.412 1.852-1.412 1.023 0 1.852.632 1.852 1.411m3.704-2.469c0 .779-.829 1.41-1.852 1.41-1.02 0-1.852-.631-1.852-1.41 0-.78.833-1.411 1.852-1.411 1.023 0 1.852.631 1.852 1.41m4.191-2.337c0 .78-.829 1.412-1.852 1.412-1.023 0-1.852-.632-1.852-1.412 0-.779.829-1.41 1.852-1.41 1.023 0 1.852.631 1.852 1.41M10.81 12.158c0 .78-.83 1.411-1.853 1.411-1.023 0-1.852-.632-1.852-1.41 0-.78.829-1.412 1.852-1.412 1.023 0 1.852.632 1.852 1.411"/><path fill="#65a430" d="M12.22 10.747c0 .78-.829 1.411-1.852 1.411-1.023 0-1.852-.632-1.852-1.411 0-.78.83-1.411 1.852-1.411 1.023 0 1.852.632 1.852 1.411"/><path fill="#65a430" d="M14.072 9.115c0 .78-.829 1.412-1.852 1.412-1.023 0-1.852-.632-1.852-1.412 0-.779.83-1.41 1.852-1.41 1.023 0 1.852.631 1.852 1.41"/><path fill="#65a430" d="M15.614 7.925c0 .78-.83 1.41-1.852 1.41-1.023 0-1.852-.63-1.852-1.41 0-.78.829-1.411 1.852-1.411 1.023 0 1.852.632 1.852 1.41"/><path fill="#65a430" d="M18.041 6.866c0 .78-.829 1.412-1.852 1.412-1.023 0-1.852-.632-1.852-1.412 0-.779.829-1.41 1.852-1.41 1.023 0 1.852.631 1.852 1.41"/><path fill="#65a430" d="M19.717 5.455c0 .78-.83 1.411-1.852 1.411-1.023 0-1.852-.631-1.852-1.41 0-.78.829-1.412 1.852-1.412 1.023 0 1.852.632 1.852 1.411M5.165 17.11c0 .78-.83 1.412-1.852 1.412-1.023 0-1.852-.632-1.852-1.412 0-.779.829-1.41 1.852-1.41 1.023 0 1.852.631 1.852 1.41m5.93 4.94c0 .779-.83 1.41-1.852 1.41-1.023 0-1.852-.631-1.852-1.41 0-.78.829-1.412 1.852-1.412 1.023 0 1.852.632 1.852 1.411"/><path fill="#65a430" d="M13.762 22.755c0 .78-.83 1.411-1.852 1.411-1.023 0-1.852-.632-1.852-1.411 0-.78.829-1.411 1.852-1.411 1.023 0 1.852.632 1.852 1.41"/><path fill="#65a430" d="M15.924 24.166c0 .78-.829 1.411-1.852 1.411-1.023 0-1.852-.632-1.852-1.411 0-.78.83-1.411 1.852-1.411 1.023 0 1.852.632 1.852 1.411"/><path fill="#65a430" d="M17.776 25.224c0 .78-.829 1.411-1.852 1.411-1.023 0-1.852-.631-1.852-1.41 0-.78.83-1.412 1.852-1.412 1.023 0 1.852.632 1.852 1.411m8.644 5.292c0 .78-.83 1.411-1.853 1.411-1.023 0-1.852-.632-1.852-1.411 0-.78.83-1.411 1.852-1.411 1.024 0 1.853.632 1.853 1.411"/><path fill="#65a430" d="M24.08 29.414c0 .779-.828 1.41-1.851 1.41-1.024 0-1.853-.631-1.853-1.41 0-.78.83-1.412 1.853-1.412 1.023 0 1.852.632 1.852 1.412m-4.364-2.558c0 .78-.83 1.411-1.852 1.411-1.023 0-1.852-.632-1.852-1.411 0-.78.829-1.411 1.852-1.411 1.023 0 1.852.632 1.852 1.41"/><path fill="#65a430" d="M22.229 28.002c0 .78-.83 1.412-1.853 1.412-1.023 0-1.852-.632-1.852-1.412 0-.779.83-1.41 1.852-1.41 1.024 0 1.853.631 1.853 1.41M36.3 6.748c0 .779-.828 1.41-1.851 1.41-1.023 0-1.852-.631-1.852-1.41 0-.78.829-1.412 1.852-1.412 1.023 0 1.852.632 1.852 1.412"/><path fill="#65a430" d="M38.971 7.453c0 .78-.832 1.411-1.852 1.411-1.026 0-1.852-.632-1.852-1.41 0-.78.826-1.412 1.852-1.412 1.02 0 1.852.632 1.852 1.411"/><path fill="#65a430" d="M41.13 8.864c0 .78-.829 1.411-1.852 1.411-1.023 0-1.852-.631-1.852-1.41 0-.78.83-1.412 1.852-1.412 1.023 0 1.852.632 1.852 1.411"/><path fill="#65a430" d="M42.982 9.923c0 .779-.829 1.41-1.852 1.41-1.023 0-1.852-.631-1.852-1.41 0-.78.83-1.412 1.852-1.412 1.023 0 1.852.632 1.852 1.412"/><path fill="#4e7a38" d="M43.572 15.73c0 .494-.53.895-1.179.895s-1.174-.4-1.174-.895.525-.896 1.174-.896c.65 0 1.179.4 1.179.896m2.198-.516c0 .355-.382.644-.847.644-.466 0-.847-.289-.847-.644 0-.355.381-.644.847-.644.465 0 .846.289.846.644M9.243 16.73c0 .803-.854 1.454-1.909 1.454-1.055 0-1.908-.651-1.908-1.455 0-.802.853-1.454 1.908-1.454s1.909.652 1.909 1.454m-1.796 2.278c0 .355-.377.644-.847.644-.465 0-.843-.29-.843-.644 0-.356.378-.644.843-.644.47 0 .847.288.847.644M21.09 23.46c0 .3-.318.543-.714.543-.391 0-.712-.243-.712-.543 0-.299.32-.542.712-.542.396 0 .713.243.713.542m15.445-.705c0 .3-.318.542-.713.542-.392 0-.709-.243-.709-.542 0-.3.317-.543.71-.543.394 0 .712.244.712.543M26.645 4.044c0 .3-.317.543-.712.543-.392 0-.713-.243-.713-.543 0-.299.321-.542.713-.542.395 0 .712.243.712.542m-3.221.744c0 .515-.546.932-1.224.932-.673 0-1.22-.417-1.22-.932 0-.516.547-.933 1.22-.933.678 0 1.224.417 1.224.933"/></svg>