<svg xmlns="http://www.w3.org/2000/svg" xmlns:xlink="http://www.w3.org/1999/xlink" viewBox="0 0 91.535 85"><defs><linearGradient id="a"><stop offset="0" style="stop-color:#fff;stop-opacity:1"/><stop offset="1" style="stop-color:#9b9b9b;stop-opacity:0"/></linearGradient><linearGradient gradientUnits="userSpaceOnUse" y2="173" x2="-1.664" y1="179.5" x1="-4.425" id="b" xlink:href="#a" gradientTransform="rotate(-179.78 0 179.5)"/><pattern patternUnits="userSpaceOnUse" width="6" height="1" patternTransform="scale(10)" id="c"><path style="fill:#000;stroke:none" d="M0-.5h1v2H0z"/></pattern></defs><g transform="translate(33.286 -122)"><path d="M16.643 207l-49.929-30 16.643-10v10l33.286 20 24.964-15v-10l16.643 10z" style="fill:#75ac57;fill-opacity:1;stroke:none;stroke-width:.26458332px;stroke-linecap:butt;stroke-linejoin:miter;stroke-opacity:1"/><path style="fill:#090800;fill-opacity:.23222752;stroke:none;stroke-width:.26458332px;stroke-linecap:butt;stroke-linejoin:miter;stroke-opacity:1" d="M16.643 197l4.213.011 26.481-15.758-5.793-3.328.063 4.075z"/><path style="fill:#5467af;fill-opacity:1;stroke:none;stroke-width:.26458332px;stroke-linecap:butt;stroke-linejoin:miter;stroke-opacity:1" d="M33.286 147l-16.643 10v10l16.643-10z"/><path style="fill:#c49600;fill-opacity:1;stroke:none;stroke-width:1.20000005;stroke-miterlimit:4;stroke-dasharray:none;stroke-dashoffset:52.25196838;stroke-opacity:1" d="M28.354 152.547c.724.966.369 3.019-.795 4.594-1.164 1.575-2.7 2.08-3.435 1.13-.736-.95-.396-2.997.76-4.582 1.157-1.584 2.696-2.11 3.443-1.176"/><path style="fill:#ffe400;fill-opacity:1;stroke:none;stroke-width:.26458332;stroke-linecap:round;stroke-linejoin:round;stroke-miterlimit:4;stroke-dasharray:none;stroke-dashoffset:52.25196838;stroke-opacity:1" d="M26.487 158.252l-.767-.66-1.156.873.206-1.592-.83-.548L24.964 155l.121-1.557 1.072-.06.981-1.393.312 1.25 1.102-.18-.683 1.619.393 1.168-1.163.768-.612 1.637"/><path style="fill:#3d69da;fill-opacity:1;stroke:none;stroke-width:.26458332px;stroke-linecap:butt;stroke-linejoin:miter;stroke-opacity:1" d="M16.643 157l-24.964-15v10l24.964 15z"/><g aria-label="P O L I C E" style="font-style:normal;font-weight:400;font-size:4.58611107px;line-height:1.25;font-family:sans-serif;letter-spacing:0;word-spacing:0;fill:#000;fill-opacity:1;stroke:none;stroke-width:.26458332"><path d="M-3.68 146.893v2.019l.407.245c.151.09.268.073.35-.052.083-.126.124-.35.124-.675a2.39 2.39 0 0 0-.124-.819c-.082-.225-.199-.382-.35-.473l-.408-.245m-.324-.792l.732.44c.27.161.472.42.609.775.138.355.207.794.207 1.32 0 .53-.069.89-.207 1.077-.137.19-.34.203-.609.041l-.408-.245v2.16l-.324-.195V146.1M0 149c-.236-.142-.423-.057-.562.253-.138.31-.207.805-.207 1.484 0 .676.069 1.253.207 1.73.14.476.326.786.562.927.236.142.422.057.559-.254.138-.31.207-.804.207-1.48 0-.68-.07-1.258-.207-1.734-.137-.476-.323-.784-.559-.926m0-.59c.336.202.605.616.806 1.244.201.624.302 1.361.302 2.21 0 .848-.1 1.464-.302 1.85-.201.382-.47.472-.806.27-.337-.202-.607-.616-.81-1.242-.2-.624-.301-1.361-.301-2.21 0-.85.1-1.466.302-1.85.202-.384.472-.475.809-.272M2.662 150.107l.325.195v4.761l1.167.701v.612l-1.492-.896v-5.373M5.54 151.836l.324.195v5.373l-.324-.195v-5.373M9.352 154.54v.767a3.568 3.568 0 0 0-.35-.722 1.284 1.284 0 0 0-.393-.405c-.274-.165-.484-.103-.63.187-.145.286-.218.785-.218 1.495 0 .708.073 1.294.218 1.758.146.462.356.775.63.94.139.083.27.106.393.067.124-.038.241-.138.35-.3v.759a.598.598 0 0 1-.361.171.672.672 0 0 1-.402-.112c-.362-.218-.648-.638-.857-1.26-.209-.624-.313-1.367-.313-2.228 0-.864.104-1.482.313-1.853.209-.374.495-.451.857-.233.144.086.279.21.405.372.127.161.247.36.358.597M10.903 155.058l1.516.911v.612l-1.191-.716v1.59l1.142.687v.612l-1.142-.686v1.947l1.22.733v.612l-1.545-.928v-5.374" style="font-size:4.58611107px;fill:#ececec;fill-opacity:1;stroke:#fff;stroke-width:.26458332;stroke-opacity:1"/></g><path d="M16.643 157v-5l-29.125-17.5v5z" style="fill:#acacac;fill-opacity:1;stroke:none;stroke-width:.26458332px;stroke-linecap:butt;stroke-linejoin:miter;stroke-opacity:1"/><path d="M16.643 152l20.803-12.5v5L16.643 157z" style="fill:#757575;fill-opacity:1;stroke:none;stroke-width:.26458332px;stroke-linecap:butt;stroke-linejoin:miter;stroke-opacity:1"/><path d="M-12.482 134.5L8.32 122l29.125 17.5L16.643 152z" style="fill:#c7c7c7;fill-opacity:1;stroke:none;stroke-width:.26458332px;stroke-linecap:butt;stroke-linejoin:miter;stroke-opacity:1"/><path style="fill:#418c18;fill-opacity:1;stroke:none;stroke-width:.26458332;stroke-linecap:round;stroke-linejoin:round;stroke-miterlimit:4;stroke-dasharray:none;stroke-dashoffset:52.25196838;stroke-opacity:1" d="M-15.306 171.424a1.327 1.233 0 0 1-.422 1.694 1.327 1.233 0 0 1-1.826-.384 1.327 1.233 0 0 1 .404-1.697 1.327 1.233 0 0 1 1.83.367"/><path d="M-16.643 152l8.322-5v5l24.964 15v5z" style="fill:#fff;fill-opacity:1;stroke:none;stroke-width:.26458332px;stroke-linecap:butt;stroke-linejoin:miter;stroke-opacity:1"/><path d="M16.643 172l24.964-15-8.321-5v5l-16.643 10z" style="fill:#efefee;fill-opacity:1;stroke:none;stroke-width:.26458332px;stroke-linecap:butt;stroke-linejoin:miter;stroke-opacity:1"/><path d="M16.643 172v25l24.964-15v-25z" style="fill:#d6d6df;fill-opacity:1;stroke:none;stroke-width:.26458332px;stroke-linecap:butt;stroke-linejoin:miter;stroke-opacity:1"/><path d="M-14.965 173.503a2.844 1.485 0 0 1-.905 2.042 2.844 1.485 0 0 1-3.913-.463 2.844 1.485 0 0 1 .866-2.046 2.844 1.485 0 0 1 3.922.442" style="fill:#418c18;fill-opacity:1;stroke:none;stroke-width:.26458332;stroke-linecap:round;stroke-linejoin:round;stroke-miterlimit:4;stroke-dasharray:none;stroke-dashoffset:52.25196838;stroke-opacity:1"/><ellipse style="fill:#090800;fill-opacity:.23222752;stroke:none;stroke-width:1.45477629;stroke-linecap:round;stroke-linejoin:round;stroke-miterlimit:4;stroke-dasharray:none;stroke-dashoffset:52.25196838;stroke-opacity:1" cx="-17.413" cy="175.866" rx="2.749" ry="1.043"/><path d="M-15.558 169.528a1.327 1.233 0 0 1-.423 1.694 1.327 1.233 0 0 1-1.826-.384 1.327 1.233 0 0 1 .404-1.698 1.327 1.233 0 0 1 1.83.367" style="fill:#418c18;fill-opacity:1;stroke:none;stroke-width:.26458332;stroke-linecap:round;stroke-linejoin:round;stroke-miterlimit:4;stroke-dasharray:none;stroke-dashoffset:52.25196838;stroke-opacity:1"/><path d="M-16.317 171.488a1.327 1.233 0 0 1-.422 1.693 1.327 1.233 0 0 1-1.827-.384 1.327 1.233 0 0 1 .405-1.697 1.327 1.233 0 0 1 1.83.367" style="fill:#418c18;fill-opacity:1;stroke:none;stroke-width:.26458332;stroke-linecap:round;stroke-linejoin:round;stroke-miterlimit:4;stroke-dasharray:none;stroke-dashoffset:52.25196838;stroke-opacity:1"/><path d="M-16.643 152v25l33.286 20v-25z" style="fill:#efefee;fill-opacity:1;stroke:none;stroke-width:.26458332px;stroke-linecap:butt;stroke-linejoin:miter;stroke-opacity:1"/><path d="M4.16 189.5v-15l-8.32-5v15z" style="fill:#addaff;fill-opacity:1;stroke:#9f9f9f;stroke-width:.5291667;stroke-linecap:butt;stroke-linejoin:miter;stroke-miterlimit:4;stroke-dasharray:none;stroke-opacity:1"/><path d="M-14.146 163.5v7l6.657 4v-7z" style="fill:#addaff;fill-opacity:1;stroke:#989898;stroke-width:.26458332px;stroke-linecap:butt;stroke-linejoin:miter;stroke-opacity:1"/><path style="fill:url(#b);fill-opacity:1;stroke:#9f9f9f;stroke-width:.5291667;stroke-linecap:butt;stroke-linejoin:miter;stroke-miterlimit:4;stroke-dasharray:none;stroke-opacity:1" d="M-4.122 169.484l-.058 15 8.302 5.032.058-15z"/><path style="fill:#addaff;fill-opacity:1;stroke:#989898;stroke-width:.26458332px;stroke-linecap:butt;stroke-linejoin:miter;stroke-opacity:1" d="M7.49 176.5v7l6.656 4v-7z"/><path style="fill:url(#c);fill-opacity:1;stroke:none;stroke-width:.26458332px;stroke-linecap:butt;stroke-linejoin:miter;stroke-opacity:1" d="M-14.146 163.5v7l6.657 4v-7z"/><path d="M32.453 172.5v7l-6.657 4v-7z" style="fill:#85abca;fill-opacity:1;stroke:#989898;stroke-width:.26458332px;stroke-linecap:butt;stroke-linejoin:miter;stroke-opacity:1"/><path d="M29.183 186.87a1.919 2.136 0 0 1-.61 2.936 1.919 2.136 0 0 1-2.641-.666 1.919 2.136 0 0 1 .585-2.942 1.919 2.136 0 0 1 2.646.636" style="fill:#75ac57;fill-opacity:1;stroke:none;stroke-width:.16609821;stroke-linecap:round;stroke-linejoin:round;stroke-miterlimit:4;stroke-dasharray:none;stroke-dashoffset:52.25196838;stroke-opacity:1"/><path style="fill:#75ac57;fill-opacity:1;stroke:none;stroke-width:.16609821;stroke-linecap:round;stroke-linejoin:round;stroke-miterlimit:4;stroke-dasharray:none;stroke-dashoffset:52.25196838;stroke-opacity:1" d="M29.183 186.87a1.919 2.136 0 0 1-.61 2.936 1.919 2.136 0 0 1-2.641-.666 1.919 2.136 0 0 1 .585-2.942 1.919 2.136 0 0 1 2.646.636"/><path d="M29.183 186.87a1.919 2.136 0 0 1-.61 2.936 1.919 2.136 0 0 1-2.641-.666 1.919 2.136 0 0 1 .585-2.942 1.919 2.136 0 0 1 2.646.636" style="fill:#75ac57;fill-opacity:1;stroke:none;stroke-width:.16609821;stroke-linecap:round;stroke-linejoin:round;stroke-miterlimit:4;stroke-dasharray:none;stroke-dashoffset:52.25196838;stroke-opacity:1"/><path style="fill:#75ac57;fill-opacity:1;stroke:none;stroke-width:.16609821;stroke-linecap:round;stroke-linejoin:round;stroke-miterlimit:4;stroke-dasharray:none;stroke-dashoffset:52.25196838;stroke-opacity:1" d="M29.183 186.87a1.919 2.136 0 0 1-.61 2.936 1.919 2.136 0 0 1-2.641-.666 1.919 2.136 0 0 1 .585-2.942 1.919 2.136 0 0 1 2.646.636"/><path d="M29.183 186.87a1.919 2.136 0 0 1-.61 2.936 1.919 2.136 0 0 1-2.641-.666 1.919 2.136 0 0 1 .585-2.942 1.919 2.136 0 0 1 2.646.636" style="fill:#75ac57;fill-opacity:1;stroke:none;stroke-width:.16609821;stroke-linecap:round;stroke-linejoin:round;stroke-miterlimit:4;stroke-dasharray:none;stroke-dashoffset:52.25196838;stroke-opacity:1"/><path style="fill:#75ac57;fill-opacity:1;stroke:none;stroke-width:.16609821;stroke-linecap:round;stroke-linejoin:round;stroke-miterlimit:4;stroke-dasharray:none;stroke-dashoffset:52.25196838;stroke-opacity:1" d="M29.436 188.513a1.919 2.136 0 0 1-.61 2.936 1.919 2.136 0 0 1-2.641-.666 1.919 2.136 0 0 1 .585-2.942 1.919 2.136 0 0 1 2.646.636M37.02 184.847a1.919 2.136 0 0 1-.61 2.936 1.919 2.136 0 0 1-2.64-.666 1.919 2.136 0 0 1 .584-2.942 1.919 2.136 0 0 1 2.646.636M30.827 183.9a1.919 2.136 0 0 1-.611 2.935 1.919 2.136 0 0 1-2.64-.666 1.919 2.136 0 0 1 .584-2.942 1.919 2.136 0 0 1 2.646.636"/><path d="M32.66 183.078a1.919 2.136 0 0 1-.611 2.935 1.919 2.136 0 0 1-2.64-.665 1.919 2.136 0 0 1 .584-2.943 1.919 2.136 0 0 1 2.646.637" style="fill:#75ac57;fill-opacity:1;stroke:none;stroke-width:.16609821;stroke-linecap:round;stroke-linejoin:round;stroke-miterlimit:4;stroke-dasharray:none;stroke-dashoffset:52.25196838;stroke-opacity:1"/><path style="fill:#75ac57;fill-opacity:1;stroke:none;stroke-width:.16609821;stroke-linecap:round;stroke-linejoin:round;stroke-miterlimit:4;stroke-dasharray:none;stroke-dashoffset:52.25196838;stroke-opacity:1" d="M33.987 186.238a1.919 2.136 0 0 1-.611 2.936 1.919 2.136 0 0 1-2.64-.666 1.919 2.136 0 0 1 .584-2.942 1.919 2.136 0 0 1 2.647.636"/><path style="fill:#75ac57;fill-opacity:1;stroke:none;stroke-width:.1669254;stroke-linecap:round;stroke-linejoin:round;stroke-miterlimit:4;stroke-dasharray:none;stroke-dashoffset:52.25196838;stroke-opacity:1" d="M31.405 185.587a1.856 2.23 0 0 1-.59 3.066 1.856 2.23 0 0 1-2.554-.695 1.856 2.23 0 0 1 .565-3.073 1.856 2.23 0 0 1 2.56.665"/><path d="M35.883 186.301a1.919 2.136 0 0 1-.61 2.936 1.919 2.136 0 0 1-2.641-.666 1.919 2.136 0 0 1 .585-2.942 1.919 2.136 0 0 1 2.646.636" style="fill:#75ac57;fill-opacity:1;stroke:none;stroke-width:.16609821;stroke-linecap:round;stroke-linejoin:round;stroke-miterlimit:4;stroke-dasharray:none;stroke-dashoffset:52.25196838;stroke-opacity:1"/><path d="M34.24 183.962a1.919 2.136 0 0 1-.611 2.936 1.919 2.136 0 0 1-2.64-.665 1.919 2.136 0 0 1 .584-2.943 1.919 2.136 0 0 1 2.646.637" style="fill:#75ac57;fill-opacity:1;stroke:none;stroke-width:.16609821;stroke-linecap:round;stroke-linejoin:round;stroke-miterlimit:4;stroke-dasharray:none;stroke-dashoffset:52.25196838;stroke-opacity:1"/><path d="M29.5 187.123a1.919 2.136 0 0 1-.612 2.935 1.919 2.136 0 0 1-2.64-.665 1.919 2.136 0 0 1 .585-2.942 1.919 2.136 0 0 1 2.646.636M36.705 187.376a1.919 2.136 0 0 1-.611 2.935 1.919 2.136 0 0 1-2.64-.665 1.919 2.136 0 0 1 .584-2.943 1.919 2.136 0 0 1 2.646.637M33.102 190.03a1.919 2.136 0 0 1-.61 2.936 1.919 2.136 0 0 1-2.641-.666 1.919 2.136 0 0 1 .585-2.942 1.919 2.136 0 0 1 2.646.636" style="fill:#418c18;fill-opacity:1;stroke:none;stroke-width:.16609821;stroke-linecap:round;stroke-linejoin:round;stroke-miterlimit:4;stroke-dasharray:none;stroke-dashoffset:52.25196838;stroke-opacity:1"/><path style="fill:#418c18;fill-opacity:1;stroke:none;stroke-width:.16609821;stroke-linecap:round;stroke-linejoin:round;stroke-miterlimit:4;stroke-dasharray:none;stroke-dashoffset:52.25196838;stroke-opacity:1" d="M30.7 189.398a1.919 2.136 0 0 1-.61 2.936 1.919 2.136 0 0 1-2.641-.666 1.919 2.136 0 0 1 .585-2.942 1.919 2.136 0 0 1 2.646.636M35.188 188.324a1.919 2.136 0 0 1-.611 2.935 1.919 2.136 0 0 1-2.64-.665 1.919 2.136 0 0 1 .584-2.943 1.919 2.136 0 0 1 2.646.637"/><path style="fill:#418c18;fill-opacity:1;stroke:none;stroke-width:.16609821;stroke-linecap:round;stroke-linejoin:round;stroke-miterlimit:4;stroke-dasharray:none;stroke-dashoffset:52.25196838;stroke-opacity:1" d="M33.292 186.554a1.919 2.136 0 0 1-.611 2.936 1.919 2.136 0 0 1-2.64-.666 1.919 2.136 0 0 1 .584-2.942 1.919 2.136 0 0 1 2.646.636"/><path d="M34.24 184.531a1.919 2.136 0 0 1-.611 2.936 1.919 2.136 0 0 1-2.64-.666 1.919 2.136 0 0 1 .584-2.942 1.919 2.136 0 0 1 2.646.636" style="fill:#418c18;fill-opacity:1;stroke:none;stroke-width:.16609821;stroke-linecap:round;stroke-linejoin:round;stroke-miterlimit:4;stroke-dasharray:none;stroke-dashoffset:52.25196838;stroke-opacity:1"/><path style="fill:#418c18;fill-opacity:1;stroke:none;stroke-width:.16609821;stroke-linecap:round;stroke-linejoin:round;stroke-miterlimit:4;stroke-dasharray:none;stroke-dashoffset:52.25196838;stroke-opacity:1" d="M31.332 183.9a1.919 2.136 0 0 1-.61 2.935 1.919 2.136 0 0 1-2.641-.666 1.919 2.136 0 0 1 .585-2.942 1.919 2.136 0 0 1 2.646.636M36.831 185.29a1.919 2.136 0 0 1-.61 2.935 1.919 2.136 0 0 1-2.641-.665 1.919 2.136 0 0 1 .585-2.942 1.919 2.136 0 0 1 2.646.636"/><path d="M-17.77 171.74a1.327 1.233 0 0 1-.423 1.694 1.327 1.233 0 0 1-1.826-.384 1.327 1.233 0 0 1 .404-1.697 1.327 1.233 0 0 1 1.83.367" style="fill:#418c18;fill-opacity:1;stroke:none;stroke-width:.26458332;stroke-linecap:round;stroke-linejoin:round;stroke-miterlimit:4;stroke-dasharray:none;stroke-dashoffset:52.25196838;stroke-opacity:1"/><path style="fill:#418c18;fill-opacity:1;stroke:none;stroke-width:.26458332;stroke-linecap:round;stroke-linejoin:round;stroke-miterlimit:4;stroke-dasharray:none;stroke-dashoffset:52.25196838;stroke-opacity:1" d="M-17.139 170.16a1.327 1.233 0 0 1-.422 1.694 1.327 1.233 0 0 1-1.826-.384 1.327 1.233 0 0 1 .404-1.698 1.327 1.233 0 0 1 1.83.368"/><path d="M-4.16 184.5l-8.322 5 8.321 5 8.322-5z" style="fill:#a89e86;fill-opacity:1;stroke:none;stroke-width:.26458332px;stroke-linecap:butt;stroke-linejoin:miter;stroke-opacity:1"/><path style="fill:#fc0;fill-opacity:0;stroke:#fe0;stroke-width:1.7727083;stroke-linecap:round;stroke-linejoin:round;stroke-miterlimit:4;stroke-dasharray:none;stroke-dashoffset:52.25196838;stroke-opacity:1" d="M18.233 140.456c-3.16 1.898-8.296 1.89-11.472-.019-3.176-1.908-3.19-4.994-.03-6.893 1.517-.911 3.578-1.422 5.73-1.418 2.151.003 4.217.52 5.742 1.436 1.525.917 2.385 2.158 2.391 3.45.006 1.293-.844 2.532-2.36 3.443"/><g style="font-style:normal;font-weight:400;font-size:10.58333302px;line-height:1.25;font-family:sans-serif;letter-spacing:0;word-spacing:0;fill:#fe0;fill-opacity:1;stroke:#fe0;stroke-width:.26458332;stroke-opacity:1"><path d="M13.54 133.25l.907.546-2.916 1.751 3.295 1.98 2.915-1.752.907.545-7.112 4.273-.907-.545 3.387-2.035-3.294-1.98-3.387 2.036-.907-.545 7.112-4.273" style="fill:#fe0;fill-opacity:1;stroke:#fe0;stroke-width:.26458332;stroke-opacity:1" aria-label="H"/></g><path style="fill:#090800;fill-opacity:.23222752;stroke:none;stroke-width:.26458332px;stroke-linecap:butt;stroke-linejoin:miter;stroke-opacity:1" d="M-8.321 142v3l24.964 15v-3zM16.643 157v3l16.643-10v-3zM26.628 192c-.832 1.5 4.993 4 9.986-1 .832-.5.832-4.5 0-5l-.832 2.5c-1.59-1.992-2.799 1.373-5.825 2.5z"/></g></svg>