<svg xmlns="http://www.w3.org/2000/svg" viewBox="0 0 65.126 40.953"><path fill="#dcdff0" d="M32.565 40.953L0 20.476 32.565 0l32.561 20.476-32.561 20.477"/><path fill="#a3b7dd" d="M23.534 35.248l-14.5-9.068 23.467-14.77 14.496 9.066-23.463 14.772"/><path fill="#fff" d="M16.708 30.996l-.847-.563 23.463-14.79.85.561-23.466 14.792"/><path fill="#a3b7dd" d="M36.728 22.249L30 18.036l6.357-4.276 6.728 4.212-6.357 4.277"/><path fill="#a3b7dd" d="M36.728 20.912L30 16.698l2.516-1.538 6.727 4.213-2.515 1.539m-4.622 4.708l-6.727-4.213 3.468-2.024 6.727 4.212-3.468 2.025m-5.253 2.877l-6.727-4.214 2.515-1.538 6.728 4.213-2.516 1.539m-4.621 3.141l-6.727-4.214 2.515-1.539 6.727 4.212-2.515 1.54"/><path fill="#a3b7dd" d="M33.704 18.417c1.64-1.022 3.302-2.05 4.76-3.323l-3.842-2.416-11.088-6.973-14.5 9.067 11.77 7.4 3.033 1.907c3.302-1.864 6.65-3.655 9.867-5.662m9.24-.507L40.6 16.438c-.07.064-.14.13-.211.192-1.56 1.394-3.313 2.547-5.088 3.653-2.98 1.86-6.064 3.548-9.126 5.268l3.193 2.008 12.227 7.69 14.5-9.068-13.152-8.27"/><path fill="#fff" d="M48.422 30.996l.847-.563L16.708 9.957l-.847.562 32.561 20.477"/><path fill="#a3b7dd" d="M16.87 14.895l6.727-4.213-2.515-1.538-6.727 4.212 2.515 1.54m5.454 2.874l6.724-4.212-2.516-1.539-6.727 4.212 2.519 1.54m6.921 4.245l6.33-3.98-2.964-2.876-6.724 4.213 3.358 2.643m3.779 3.604l6.723-4.213-3.986-2.394-5.934 3.732 3.197 2.875m5.252 2.877l6.728-4.214-2.515-1.538-6.728 4.213 2.515 1.539m4.622 3.141l6.727-4.214-2.515-1.539-6.728 4.212 2.516 1.54"/></svg>