<svg xmlns="http://www.w3.org/2000/svg" viewBox="0 0 65.123 40.951">
  <defs/>
  <path fill="#dcdff0" d="M32.561 40.951L0 20.476 32.561 0l32.562 20.476L32.56 40.95"/>
  <path fill="#a3b7dd" d="M23.53 35.247L9.031 26.18 41.593 5.704l14.499 9.066L23.53 35.247"/>
  <path fill="#fff" d="M16.704 30.995l-.847-.562L48.42 9.957l.846.561-32.561 20.477"/>
  <path fill="#a3b7dd" d="M48.256 14.895l-6.727-4.213 2.515-1.538 6.728 4.211-2.516 1.54M42.806 17.771l-6.727-4.213 2.515-1.539 6.724 4.212-2.512 1.54M36.728 20.91L30 16.699l2.512-1.538 6.727 4.212-2.511 1.539M32.103 25.62l-6.728-4.213 2.516-1.539 6.727 4.213-2.515 1.54M26.85 28.496l-6.728-4.213 2.516-1.538 6.727 4.211-2.515 1.54M22.229 31.637L15.5 27.424l2.515-1.539 6.728 4.212-2.515 1.54"/>
</svg>
