<svg xmlns="http://www.w3.org/2000/svg" viewBox="0 0 65.126 40.953"><path d="M32.565 40.953l32.561-20.477L32.565 0 0 20.476l32.565 20.477" fill="#dcdff0"/><path d="M41.596 35.247l14.5-9.066L23.53 5.705 9.031 14.771l32.565 20.476" fill="#a3b7dd"/><path d="M48.422 30.995l.847-.563L16.704 9.957l-.847.561 32.565 20.477" fill="#fff"/><path d="M16.866 14.895l6.728-4.213-2.516-1.538-6.727 4.212 2.515 1.539m5.454 2.876l6.728-4.213-2.516-1.538-6.727 4.212 2.515 1.54m6.079 3.14l6.727-4.214-2.515-1.538-6.728 4.212 2.516 1.54m4.621 4.708l6.727-4.213-2.515-1.538-6.727 4.212 2.515 1.54m5.256 2.875l6.728-4.213-2.515-1.539-6.728 4.212 2.515 1.54m4.622 3.141l6.727-4.213-2.515-1.538-6.728 4.212 2.516 1.54" fill="#a3b7dd"/></svg>