<svg xmlns="http://www.w3.org/2000/svg" width="246.147" height="154.78" viewBox="0 0 65.126 40.952"><path d="M32.561 40.952L0 20.475 32.561 0l32.565 20.475-32.565 20.477" fill="#dcdff0"/><path d="M23.53 35.247L9.031 26.18 41.596 5.704l14.496 9.066L23.53 35.247" fill="#a3b7dd"/><path d="M16.704 30.995l-.847-.563L48.42 9.957l.85.56-32.565 20.478" fill="#fff"/><path d="M48.256 14.895l-6.727-4.214 2.515-1.537 6.728 4.211-2.516 1.54m-5.45 2.875l-6.727-4.212 2.515-1.54 6.727 4.213-2.515 1.54m-6.078 3.139L30 16.699l2.516-1.538 6.727 4.211-2.515 1.54m-4.622 4.708l-6.727-4.213 3.464-2.025 6.728 4.212-3.465 2.026m-5.256 2.876l-6.728-4.214 2.516-1.538 6.727 4.213-2.515 1.539m-4.621 3.141L15.5 27.423l2.515-1.538 6.728 4.212-2.515 1.54" fill="#a3b7dd"/><path d="M33.7 18.416c1.641-1.021 3.303-2.05 4.763-3.323l-3.841-2.415L23.53 5.704 9.031 14.77 20.8 22.172l3.034 1.907c3.302-1.865 6.65-3.655 9.867-5.663" fill="#a3b7dd"/><path d="M35.147 22.598l.847-.563-19.29-12.078-.847.56 19.29 12.08" fill="#fff"/><path d="M16.866 14.895l6.728-4.214-2.516-1.537-6.727 4.211 2.515 1.54m5.454 2.875l6.728-4.212-2.516-1.54-6.727 4.213 2.515 1.54m6.922 4.244l6.329-3.98-2.96-2.875-6.728 4.211 3.359 2.644m3.778 3.605l6.727-4.213-3.986-2.394-5.937 3.731 3.196 2.876" fill="#a3b7dd"/></svg>