<svg xmlns="http://www.w3.org/2000/svg" viewBox="0 0 65.126 40.953">
  <defs/>
  <path fill="#dcdff0" d="M32.561 40.953l32.565-20.477L32.561 0 0 20.476l32.561 20.477"/>
  <path fill="#a3b7dd" d="M32.498 29.544l14.5-9.068L23.53 5.706 9.031 14.77l23.467 14.773"/>
  <path fill="#fff" d="M38.393 24.642l.85-.563L16.704 9.957l-.847.562 22.536 14.123"/>
  <path fill="#a3b7dd" d="M16.866 14.895l6.728-4.213-2.516-1.538-6.727 4.212 2.515 1.54M22.32 17.771l6.728-4.212-2.516-1.54-6.727 4.213 2.515 1.54M28.399 20.912l6.727-4.214-2.515-1.538-6.728 4.212 2.516 1.54M33.514 26.249l5.44-5.125-3.468-2.024-6.728 4.212 4.756 2.937"/>
  <path fill="#a3b7dd" d="M36.03 26.249l6.727-4.213-2.52-1.538-6.727 4.212 2.52 1.539"/>
  <path fill="#a3b7dd" d="M22.183 17.91l2.342-1.473c.07.064.141.13.212.192 1.56 1.394 3.312 2.547 5.087 3.652 2.98 1.86 6.064 3.55 9.13 5.269l-3.193 2.008-12.23 7.69-14.5-9.067 13.152-8.27"/>
  <path fill="#fff" d="M16.704 30.995l-.847-.562 19.908-12.678.846.561-19.907 12.68"/>
  <path fill="#a3b7dd" d="M34.343 21.052l-6.329-3.98 2.963-2.876 6.728 4.213-3.362 2.643M32.12 25.842l-6.727-4.213 2.999-1.766 5.933 3.732-2.205 2.247M26.85 28.496l-6.728-4.213 2.516-1.538 6.727 4.212-2.515 1.54M22.229 31.637L15.5 27.424l2.515-1.539 6.728 4.213-2.515 1.54"/>
</svg>
