<svg xmlns="http://www.w3.org/2000/svg" viewBox="0 0 65.126 40.953"><path fill="#dcdff0" d="M32.565 40.953L0 20.476 32.565 0l32.561 20.476-32.561 20.477"/><path fill="#a3b7dd" d="M23.53 35.247L9.031 26.181 41.596 5.704l14.5 9.067L23.53 35.247"/><path fill="#fff" d="M16.704 30.995l-.847-.562L48.422 9.957l.847.562-32.565 20.476"/><path fill="#a3b7dd" d="M48.26 14.895l-6.727-4.213 2.515-1.538 6.727 4.212-2.515 1.54m-5.454 2.875l-6.727-4.213 2.515-1.538 6.727 4.211-2.515 1.54m-6.078 3.141L30 16.698l2.516-1.538 6.727 4.212-2.515 1.54m-4.622 4.708l-6.727-4.213 3.468-2.024 6.727 4.212-3.468 2.025m-5.256 2.876l-6.728-4.213 2.516-1.538 6.727 4.212-2.515 1.54m-4.621 3.14L15.5 27.424l2.515-1.539 6.728 4.213-2.515 1.54"/><path fill="#a3b7dd" d="M33.704 18.417c1.637-1.022 3.299-2.05 4.76-3.323l-3.842-2.416L23.53 5.704 9.031 14.771l11.772 7.401 3.034 1.907c3.302-1.864 6.647-3.655 9.867-5.662m9.24-.507l-2.346-1.473c-.07.064-.138.13-.208.192-1.56 1.394-3.313 2.547-5.088 3.653-2.984 1.86-6.064 3.548-9.13 5.268l3.193 2.008 12.231 7.69 14.5-9.067-13.152-8.27"/><path fill="#fff" d="M48.422 30.995l.847-.562L16.704 9.957l-.847.562 32.565 20.476"/><path fill="#a3b7dd" d="M16.87 14.895l6.724-4.213-2.516-1.538-6.723 4.212 2.515 1.54m5.45 2.875l6.728-4.213-2.516-1.538-6.727 4.211 2.515 1.54m6.925 4.246l6.33-3.981-2.964-2.876-6.728 4.212 3.362 2.645m3.775 3.603l6.727-4.213-3.986-2.394-5.937 3.732 3.196 2.875m5.256 2.876l6.728-4.213-2.515-1.538-6.728 4.212 2.515 1.54m4.622 3.14l6.727-4.213-2.515-1.539-6.728 4.213 2.516 1.54"/></svg>