<svg xmlns="http://www.w3.org/2000/svg" width="246.147" height="154.781" viewBox="0 0 65.126 40.953"><path d="M32.565 40.953L0 20.476 32.565 0l32.561 20.476-32.561 20.477" fill="#dcdff0"/><path d="M23.53 35.247L9.035 26.181 41.596 5.705l14.5 9.066L23.53 35.247" fill="#a3b7dd"/><path d="M16.704 30.995l-.847-.562L48.422 9.957l.847.561-32.565 20.477" fill="#fff"/><path d="M48.26 14.895l-6.727-4.213 2.515-1.538 6.727 4.212-2.515 1.54m-5.454 2.875l-6.727-4.213 2.515-1.538 6.727 4.212-2.515 1.54" fill="#a3b7dd"/><path d="M33.88 23.883l-6.727-4.214 10.002-6.77 6.656 4.125-9.93 6.859" fill="#a3b7dd"/><path d="M32.106 25.62l-6.727-4.213 2.515-1.538 6.728 4.212-2.516 1.54m-5.256 2.875l-6.728-4.213 2.516-1.538 6.727 4.211-2.515 1.54m-4.621 3.141L15.5 27.424l2.515-1.538 6.728 4.212-2.515 1.54" fill="#a3b7dd"/><path d="M38.566 25.886l-1.704-1.254 8.466-5.47 1.704 1.253-8.466 5.47m-2.572-1.738l-1.704-1.253 8.467-5.471 1.704 1.253-8.467 5.471m-2.515-1.486l-1.704-1.254 8.47-5.47 1.704 1.254-8.47 5.47m-2.572-1.654l-1.704-1.254 8.467-5.471 1.704 1.254-8.467 5.47m-2.41-1.48l-1.704-1.255 8.47-5.47 1.705 1.253-8.47 5.472m-2.375-1.591L24.42 16.68l8.467-5.47 1.704 1.254-8.467 5.471" fill="#fff"/></svg>