<svg xmlns="http://www.w3.org/2000/svg" viewBox="0 0 65.126 40.953"><path d="M32.565 0L0 20.477l32.565 20.476 32.561-20.476L32.565 0" fill="#dcdff0"/><path d="M32.628 11.409L18.13 20.477l23.467 14.77 14.5-9.066-23.47-14.771" fill="#a3b7dd"/><path d="M26.734 16.31l-.85.563 22.538 14.122.847-.56L26.734 16.31" fill="#fff"/><path d="M48.26 26.058l-6.727 4.213 2.515 1.538 6.727-4.212-2.515-1.54m-5.454-2.876l-6.727 4.213 2.515 1.539 6.727-4.212-2.515-1.54m-6.078-3.14L30 24.255l2.516 1.537 6.727-4.212-2.515-1.539m-4.622-4.709l-6.727 4.214 3.468 2.024 6.727-4.212-3.468-2.026" fill="#a3b7dd"/><path d="M27.372 14.848l-5.468 5.443 5.302 3.04 6.728-4.213-6.562-4.27" fill="#a3b7dd"/><path d="M33.704 22.535c1.637 1.023 3.302 2.051 4.76 3.324l-3.842 2.416-11.088 6.973L9.03 26.18l11.772-7.4 3.034-1.908c3.302 1.864 6.65 3.656 9.867 5.662" fill="#a3b7dd"/><path d="M38.04 16.592l.847.563-22.18 13.84-.85-.56L38.04 16.591" fill="#fff"/><path d="M16.87 26.058l6.727 4.213-2.515 1.538-6.727-4.212 2.515-1.54m5.45-2.876l6.728 4.213-2.516 1.539-6.727-4.212 2.515-1.54m6.195-3.691l6.329 3.979-2.233 2.29-6.728-4.212 2.632-2.058m4.505-4.157l6.727 4.214-3.986 2.394-5.934-3.732 3.193-2.876" fill="#a3b7dd"/><path d="M36.195 14.539l6.727 4.214-2.515 1.538-6.727-4.212 2.515-1.54" fill="#a3b7dd"/></svg>