<svg xmlns="http://www.w3.org/2000/svg" viewBox="0 0 65.123 40.951"><path fill="#dcdff0" d="M32.561 40.951L0 20.476 32.561 0l32.562 20.476L32.56 40.95"/><path fill="#a3b7dd" d="M23.53 35.247L9.031 26.18 41.593 5.704l14.499 9.066L23.53 35.247"/><path fill="#fff" d="M16.704 30.995l-.847-.562L48.42 9.957l.846.561-32.561 20.477"/><path fill="#a3b7dd" d="M48.256 14.895l-6.727-4.213 2.515-1.538 6.728 4.211-2.516 1.54m-5.45 2.876l-6.727-4.213 2.515-1.539 6.724 4.212-2.512 1.54m-6.078 3.139L30 16.699l2.512-1.538 6.727 4.212-2.511 1.539m-4.625 4.708l-6.728-4.213 2.516-1.539 6.727 4.213-2.515 1.54m-5.253 2.875l-6.728-4.213 2.516-1.538 6.727 4.211-2.515 1.54m-4.621 3.141L15.5 27.424l2.515-1.539 6.728 4.212-2.515 1.54"/></svg>