<svg xmlns="http://www.w3.org/2000/svg" viewBox="0 0 65.126 40.953">
  <defs/>
  <path fill="#dcdff0" d="M32.561 40.953l32.565-20.477L32.561 0 0 20.476l32.561 20.477"/>
  <path fill="#a3b7dd" d="M41.592 35.248l14.5-9.067L23.53 5.705 9.031 14.771l32.561 20.477"/>
  <path fill="#fff" d="M48.422 30.995l.847-.562L16.704 9.957l-.847.561 32.565 20.477"/>
  <path fill="#a3b7dd" d="M16.866 14.895l6.728-4.213-2.516-1.538-6.727 4.212 2.515 1.54M22.32 17.771l6.728-4.213-2.516-1.538-6.727 4.212 2.515 1.54"/>
  <path fill="#a3b7dd" d="M31.246 23.882l6.727-4.213-10.001-6.77-6.657 4.125 9.93 6.858"/>
  <path fill="#a3b7dd" d="M33.02 25.62l6.727-4.213-2.515-1.538-6.727 4.212 2.515 1.54M38.276 28.497l6.728-4.214-2.515-1.538-6.728 4.212 2.515 1.54M42.898 31.637l6.727-4.213-2.515-1.538-6.728 4.212 2.516 1.54"/>
  <path fill="#fff" d="M26.56 25.886l1.705-1.255-8.467-5.47-1.704 1.254 8.467 5.47M29.132 24.148l1.704-1.255-8.466-5.47-1.704 1.253 8.466 5.472M31.648 22.661l1.704-1.254-8.47-5.47-1.705 1.253 8.47 5.471M34.22 21.007l1.703-1.255-8.47-5.47-1.704 1.254 8.47 5.47M36.629 19.525l1.704-1.254-8.47-5.47-1.704 1.253 8.47 5.471M39.003 17.935l1.704-1.255-8.467-5.47-1.704 1.254 8.467 5.47"/>
</svg>
