<?xml version="1.0" encoding="UTF-8" standalone="no"?>
<svg
   xmlns:dc="http://purl.org/dc/elements/1.1/"
   xmlns:cc="http://creativecommons.org/ns#"
   xmlns:rdf="http://www.w3.org/1999/02/22-rdf-syntax-ns#"
   xmlns:svg="http://www.w3.org/2000/svg"
   xmlns="http://www.w3.org/2000/svg"
   xmlns:sodipodi="http://sodipodi.sourceforge.net/DTD/sodipodi-0.dtd"
   xmlns:inkscape="http://www.inkscape.org/namespaces/inkscape"
   width="61.625408mm"
   height="58.845554mm"
   viewBox="0 0 61.625408 58.845554"
   version="1.1"
   id="svg45456"
   inkscape:version="1.0.2 (e86c870879, 2021-01-15)"
   sodipodi:docname="school.svg">
  <defs
     id="defs45450" />
  <sodipodi:namedview
     id="base"
     pagecolor="#ffffff"
     bordercolor="#666666"
     borderopacity="1.0"
     inkscape:pageopacity="0.0"
     inkscape:pageshadow="2"
     inkscape:zoom="0.35"
     inkscape:cx="1259.3146"
     inkscape:cy="294.06136"
     inkscape:document-units="mm"
     inkscape:current-layer="layer1"
     inkscape:document-rotation="0"
     showgrid="false"
     inkscape:window-width="1920"
     inkscape:window-height="1016"
     inkscape:window-x="0"
     inkscape:window-y="0"
     inkscape:window-maximized="1" />
  <metadata
     id="metadata45453">
    <rdf:RDF>
      <cc:Work
         rdf:about="">
        <dc:format>image/svg+xml</dc:format>
        <dc:type
           rdf:resource="http://purl.org/dc/dcmitype/StillImage" />
        <dc:title></dc:title>
      </cc:Work>
    </rdf:RDF>
  </metadata>
  <g
     inkscape:label="Layer 1"
     inkscape:groupmode="layer"
     id="layer1"
     transform="translate(227.36032,-70.362932)">
    <g
       id="g45142"
       transform="matrix(0.35277777,0,0,-0.35277777,-318.53983,378.27372)">
      <g
         id="g32152"
         transform="translate(302.7446,811.5811)">
        <path
           d="M 0,0 43.788,27.593 0.021,56.196 -43.867,28.599 Z"
           style="fill:#d9a371;fill-opacity:1;fill-rule:nonzero;stroke:none"
           id="path32154" />
      </g>
      <g
         id="g32156"
         transform="translate(302.7759,762.2002)">
        <path
           d="M 0,0 -0.131,49.377 43.756,76.974 V 27.469 Z"
           style="fill:#d9a371;fill-opacity:1;fill-rule:nonzero;stroke:none"
           id="path32158" />
      </g>
      <g
         id="g32160"
         transform="translate(258.8774,840.333)">
        <path
           d="m 0,0 v -49.506 l 43.867,-28.596 v 49.504 z"
           style="fill:#efe0a9;fill-opacity:1;fill-rule:nonzero;stroke:none"
           id="path32162" />
      </g>
      <g
         id="g32164"
         transform="translate(324.9165,840.5674)">
        <path
           d="M 0,0 -43.982,28.998 -66.039,-0.388 -22.172,-28.986 Z"
           style="fill:#c13b33;fill-opacity:1;fill-rule:nonzero;stroke:none"
           id="path32166" />
      </g>
      <g
         id="g32168"
         transform="translate(280.9341,869.5654)">
        <path
           d="m 0,0 21.947,-1.451 43.651,-28.998 -21.616,1.451 z"
           style="fill:#8d1c25;fill-opacity:1;fill-rule:nonzero;stroke:none"
           id="path32170" />
      </g>
      <g
         id="g32172"
         transform="translate(302.7446,762.2314)">
        <path
           d="M 0,0 V 3.834 L -44.283,32.676 V 28.842 Z"
           style="fill:#d9a371;fill-opacity:1;fill-rule:nonzero;stroke:none"
           id="path32174" />
      </g>
      <g
         id="g32176"
         transform="translate(302.7446,811.5811)">
        <path
           d="m 0,0 0.012,-1.059 22.547,29.158 21.229,-1.191 v 0.627 l -21.616,1.451 z"
           style="fill:#690d15;fill-opacity:1;fill-rule:nonzero;stroke:none"
           id="path32178" />
      </g>
      <g
         id="g32180"
         transform="translate(302.7563,810.5225)">
        <path
           d="m 0,0 -43.879,28.651 v 1.006 L -0.012,1.059 Z"
           style="fill:#a31d31;fill-opacity:1;fill-rule:nonzero;stroke:none"
           id="path32182" />
      </g>
      <g
         id="g32184"
         transform="translate(302.7563,766.0674)">
        <path
           d="M 0,0 43.776,27.395 V 23.602 L 0,-3.867 Z"
           style="fill:#a97d59;fill-opacity:1;fill-rule:nonzero;stroke:none"
           id="path32186" />
      </g>
      <g
         id="g32188"
         transform="translate(264.7231,818.1426)">
        <path
           d="M 0,0 V 9.968 L 8.459,4.789 V -5.407 Z"
           style="fill:#41c3db;fill-opacity:1;fill-rule:nonzero;stroke:none"
           id="path32190" />
      </g>
      <g
         id="g32192"
         transform="translate(265.5708,827.5908)">
        <path
           d="M 0,0 -0.848,0.52 V -9.624 L 0,-9.096 Z"
           style="fill:#d9a371;fill-opacity:1;fill-rule:nonzero;stroke:none"
           id="path32194" />
      </g>
      <g
         id="g32196"
         transform="translate(264.7231,817.9668)">
        <path
           d="m 0,0 8.459,-5.231 v 1.019 l -7.611,4.74 z"
           style="fill:#a97d59;fill-opacity:1;fill-rule:nonzero;stroke:none"
           id="path32198" />
      </g>
      <g
         id="g32200"
         transform="translate(265.5708,825.8408)">
        <path
           d="M 0,0 2.777,-9.074 4.705,-10.275 1.295,0.958 0,1.75 Z"
           style="fill:#80cfdf;fill-opacity:1;fill-rule:nonzero;stroke:none"
           id="path32202" />
      </g>
      <g
         id="g32204"
         transform="translate(269.2759,825.3232)">
        <path
           d="m 0,0 -0.508,0.312 v -9.13 L 0,-9.451 Z"
           style="fill:#a97d59;fill-opacity:1;fill-rule:nonzero;stroke:none"
           id="path32206" />
      </g>
      <g
         id="g32208"
         transform="translate(269.7466,825.0352)">
        <path
           d="m 0,0 2.547,-10.726 0.31,-0.193 -2.49,10.695 z"
           style="fill:#80cfdf;fill-opacity:1;fill-rule:nonzero;stroke:none"
           id="path32210" />
      </g>
      <g
         id="g32212"
         transform="translate(276.6958,810.4541)">
        <path
           d="M 0,0 V 9.967 L 8.459,4.789 V -5.408 Z"
           style="fill:#41c3db;fill-opacity:1;fill-rule:nonzero;stroke:none"
           id="path32214" />
      </g>
      <g
         id="g32216"
         transform="translate(277.5415,819.9033)">
        <path
           d="M 0,0 -0.846,0.518 V -9.625 L 0,-9.096 Z"
           style="fill:#d9a371;fill-opacity:1;fill-rule:nonzero;stroke:none"
           id="path32218" />
      </g>
      <g
         id="g32220"
         transform="translate(276.6958,810.2783)">
        <path
           d="m 0,0 8.459,-5.232 v 1.023 L 0.846,0.529 Z"
           style="fill:#a97d59;fill-opacity:1;fill-rule:nonzero;stroke:none"
           id="path32222" />
      </g>
      <g
         id="g32224"
         transform="translate(277.5415,818.1523)">
        <path
           d="M 0,0 2.779,-9.073 4.705,-10.274 1.295,0.958 0,1.751 Z"
           style="fill:#80cfdf;fill-opacity:1;fill-rule:nonzero;stroke:none"
           id="path32226" />
      </g>
      <g
         id="g32228"
         transform="translate(281.2466,817.6338)">
        <path
           d="M 0,0 -0.508,0.313 V -8.816 L 0,-9.449 Z"
           style="fill:#a97d59;fill-opacity:1;fill-rule:nonzero;stroke:none"
           id="path32230" />
      </g>
      <g
         id="g32232"
         transform="translate(281.7173,817.3467)">
        <path
           d="m 0,0 2.547,-10.725 0.31,-0.193 -2.49,10.693 z"
           style="fill:#80cfdf;fill-opacity:1;fill-rule:nonzero;stroke:none"
           id="path32234" />
      </g>
      <g
         id="g32236"
         transform="translate(288.6665,802.5244)">
        <path
           d="M 0,0 V 9.969 L 8.459,4.789 V -5.41 Z"
           style="fill:#41c3db;fill-opacity:1;fill-rule:nonzero;stroke:none"
           id="path32238" />
      </g>
      <g
         id="g32240"
         transform="translate(289.5142,811.9736)">
        <path
           d="M 0,0 -0.848,0.52 V -9.625 L 0,-9.096 Z"
           style="fill:#d9a371;fill-opacity:1;fill-rule:nonzero;stroke:none"
           id="path32242" />
      </g>
      <g
         id="g32244"
         transform="translate(288.6665,802.3486)">
        <path
           d="m 0,0 8.459,-5.234 v 1.023 l -7.611,4.74 z"
           style="fill:#a97d59;fill-opacity:1;fill-rule:nonzero;stroke:none"
           id="path32246" />
      </g>
      <g
         id="g32248"
         transform="translate(289.5142,810.2236)">
        <path
           d="M 0,0 2.779,-9.076 4.705,-10.275 1.295,0.959 0,1.75 Z"
           style="fill:#80cfdf;fill-opacity:1;fill-rule:nonzero;stroke:none"
           id="path32250" />
      </g>
      <g
         id="g32252"
         transform="translate(293.2192,809.7061)">
        <path
           d="m 0,0 -0.508,0.312 v -9.13 L 0,-9.451 Z"
           style="fill:#a97d59;fill-opacity:1;fill-rule:nonzero;stroke:none"
           id="path32254" />
      </g>
      <g
         id="g32256"
         transform="translate(293.688,809.4189)">
        <path
           d="M 0,0 2.549,-10.727 2.857,-10.92 0.367,-0.225 Z"
           style="fill:#80cfdf;fill-opacity:1;fill-rule:nonzero;stroke:none"
           id="path32258" />
      </g>
      <g
         id="g32260"
         transform="translate(264.7231,798.9971)">
        <path
           d="M 0,0 V 9.969 L 8.459,4.789 V -5.408 Z"
           style="fill:#41c3db;fill-opacity:1;fill-rule:nonzero;stroke:none"
           id="path32262" />
      </g>
      <g
         id="g32264"
         transform="translate(265.5708,808.4463)">
        <path
           d="M 0,0 -0.848,0.52 V -9.625 L 0,-9.096 Z"
           style="fill:#d9a371;fill-opacity:1;fill-rule:nonzero;stroke:none"
           id="path32266" />
      </g>
      <g
         id="g32268"
         transform="translate(264.7231,798.8213)">
        <path
           d="m 0,0 8.459,-5.232 v 1.021 l -7.611,4.74 z"
           style="fill:#a97d59;fill-opacity:1;fill-rule:nonzero;stroke:none"
           id="path32270" />
      </g>
      <g
         id="g32272"
         transform="translate(265.5708,806.6963)">
        <path
           d="M 0,0 2.777,-9.076 4.705,-10.275 1.295,0.959 0,1.75 Z"
           style="fill:#80cfdf;fill-opacity:1;fill-rule:nonzero;stroke:none"
           id="path32274" />
      </g>
      <g
         id="g32276"
         transform="translate(269.2759,806.1787)">
        <path
           d="M 0,0 -0.508,0.311 V -8.818 L 0,-9.451 Z"
           style="fill:#a97d59;fill-opacity:1;fill-rule:nonzero;stroke:none"
           id="path32278" />
      </g>
      <g
         id="g32280"
         transform="translate(269.7466,805.8916)">
        <path
           d="m 0,0 2.547,-10.729 0.31,-0.191 -2.49,10.695 z"
           style="fill:#80cfdf;fill-opacity:1;fill-rule:nonzero;stroke:none"
           id="path32282" />
      </g>
      <g
         id="g32284"
         transform="translate(276.6958,791.3096)">
        <path
           d="M 0,0 V 9.967 L 8.459,4.789 V -5.408 Z"
           style="fill:#41c3db;fill-opacity:1;fill-rule:nonzero;stroke:none"
           id="path32286" />
      </g>
      <g
         id="g32288"
         transform="translate(277.5415,800.7568)">
        <path
           d="M 0,0 -0.846,0.52 V -9.623 L 0,-9.096 Z"
           style="fill:#d9a371;fill-opacity:1;fill-rule:nonzero;stroke:none"
           id="path32290" />
      </g>
      <g
         id="g32292"
         transform="translate(276.6958,791.1338)">
        <path
           d="m 0,0 8.459,-5.232 v 1.021 L 0.846,0.527 Z"
           style="fill:#a97d59;fill-opacity:1;fill-rule:nonzero;stroke:none"
           id="path32294" />
      </g>
      <g
         id="g32296"
         transform="translate(277.5415,799.0068)">
        <path
           d="M 0,0 2.779,-9.074 4.705,-10.275 1.295,0.959 0,1.75 Z"
           style="fill:#80cfdf;fill-opacity:1;fill-rule:nonzero;stroke:none"
           id="path32298" />
      </g>
      <g
         id="g32300"
         transform="translate(281.2466,798.4893)">
        <path
           d="M 0,0 -0.508,0.312 V -8.816 L 0,-9.449 Z"
           style="fill:#a97d59;fill-opacity:1;fill-rule:nonzero;stroke:none"
           id="path32302" />
      </g>
      <g
         id="g32304"
         transform="translate(281.7173,798.2021)">
        <path
           d="m 0,0 2.547,-10.727 0.31,-0.191 -2.49,10.693 z"
           style="fill:#80cfdf;fill-opacity:1;fill-rule:nonzero;stroke:none"
           id="path32306" />
      </g>
      <g
         id="g32308"
         transform="translate(288.6665,783.3779)">
        <path
           d="M 0,0 V 9.969 L 8.459,4.791 V -5.408 Z"
           style="fill:#41c3db;fill-opacity:1;fill-rule:nonzero;stroke:none"
           id="path32310" />
      </g>
      <g
         id="g32312"
         transform="translate(289.5142,792.8271)">
        <path
           d="M 0,0 -0.848,0.52 V -9.625 L 0,-9.094 Z"
           style="fill:#d9a371;fill-opacity:1;fill-rule:nonzero;stroke:none"
           id="path32314" />
      </g>
      <g
         id="g32316"
         transform="translate(288.6665,783.2021)">
        <path
           d="m 0,0 8.459,-5.232 v 1.023 l -7.611,4.74 z"
           style="fill:#a97d59;fill-opacity:1;fill-rule:nonzero;stroke:none"
           id="path32318" />
      </g>
      <g
         id="g32320"
         transform="translate(289.5142,791.0771)">
        <path
           d="M 0,0 2.779,-9.074 4.705,-10.273 1.295,0.959 0,1.75 Z"
           style="fill:#80cfdf;fill-opacity:1;fill-rule:nonzero;stroke:none"
           id="path32322" />
      </g>
      <g
         id="g32324"
         transform="translate(293.2192,790.5596)">
        <path
           d="m 0,0 -0.508,0.312 v -9.13 L 0,-9.451 Z"
           style="fill:#a97d59;fill-opacity:1;fill-rule:nonzero;stroke:none"
           id="path32326" />
      </g>
      <g
         id="g32328"
         transform="translate(293.688,790.2725)">
        <path
           d="M 0,0 2.549,-10.727 2.857,-10.92 0.367,-0.225 Z"
           style="fill:#80cfdf;fill-opacity:1;fill-rule:nonzero;stroke:none"
           id="path32330" />
      </g>
      <g
         id="g32332"
         transform="translate(340.0107,802.6455)">
        <path
           d="M 0,0 -43.633,27.437 10.969,63.02 54.859,35.421 Z"
           style="fill:#efe0a9;fill-opacity:1;fill-rule:nonzero;stroke:none"
           id="path32334" />
      </g>
      <g
         id="g32336"
         transform="translate(340.1104,731.2656)">
        <path
           d="M 0,0 V 71.376 L -43.889,98.974 V 27.452 Z"
           style="fill:#efe0a9;fill-opacity:1;fill-rule:nonzero;stroke:none"
           id="path32338" />
      </g>
      <g
         id="g32340"
         transform="translate(394.8701,838.0664)">
        <path
           d="m 0,0 v -65.016 l -54.859,-41.9 v 71.649 z"
           style="fill:#d9a371;fill-opacity:1;fill-rule:nonzero;stroke:none"
           id="path32342" />
      </g>
      <g
         id="g32344"
         transform="translate(317.8364,836.998)">
        <path
           d="M 0,0 54.975,35.82 77.034,1.068 22.174,-34.353 Z"
           style="fill:#c13b33;fill-opacity:1;fill-rule:nonzero;stroke:none"
           id="path32346" />
      </g>
      <g
         id="g32348"
         transform="translate(372.8115,872.7549)">
        <path
           d="m 0,0 -21.943,-6.817 -54.749,-35.757 21.717,6.754 z"
           style="fill:#c13b33;fill-opacity:1;fill-rule:nonzero;stroke:none"
           id="path32350" />
      </g>
      <g
         id="g32352"
         transform="translate(340.0107,731.1504)">
        <path
           d="M 0,0 0.1,3.803 -43.79,31.401 V 27.567 Z"
           style="fill:#d9a371;fill-opacity:1;fill-rule:nonzero;stroke:none"
           id="path32354" />
      </g>
      <g
         id="g32356"
         transform="translate(340.0166,802.6455)">
        <path
           d="m 0,0 -0.012,-1.061 -22.506,34.469 -21.379,-6.5 v 0.627 l 21.717,6.986 z"
           style="fill:#a31d31;fill-opacity:1;fill-rule:nonzero;stroke:none"
           id="path32358" />
      </g>
      <g
         id="g32360"
         transform="translate(340.0107,802.6455)">
        <path
           d="M 0,0 54.859,35.421 V 34.295 L -0.006,-1.061 Z"
           style="fill:#690d15;fill-opacity:1;fill-rule:nonzero;stroke:none"
           id="path32362" />
      </g>
      <g
         id="g32364"
         transform="translate(340.0107,735.0176)">
        <path
           d="M 0,0 5.484,3.43 5.426,-0.365 0,-3.867 Z"
           style="fill:#a97d59;fill-opacity:1;fill-rule:nonzero;stroke:none"
           id="path32366" />
      </g>
      <g
         id="g32368"
         transform="translate(306.9556,752.0391)">
        <path
           d="M 0,0 V 25.608 L 19.008,13.79 v -25.862 z"
           style="fill:#d9a371;fill-opacity:1;fill-rule:nonzero;stroke:none"
           id="path32370" />
      </g>
      <g
         id="g32372"
         transform="translate(308.9907,753.0664)">
        <path
           d="M 0,0 V 23.327 L 16.973,12.763 v -23.56 z"
           style="fill:#355b88;fill-opacity:1;fill-rule:nonzero;stroke:none"
           id="path32374" />
      </g>
      <g
         id="g32376"
         transform="translate(306.9556,752.0391)">
        <path
           d="M 0,0 2.107,0.979 19.008,-9.77 v -2.302 z"
           style="fill:#efe0a9;fill-opacity:1;fill-rule:nonzero;stroke:none"
           id="path32378" />
      </g>
      <g
         id="g32380"
         transform="translate(310.6138,763.3037)">
        <path
           d="M 0,0 V 9.97 L 14.291,1.182 V -9.015 Z"
           style="fill:#41c3db;fill-opacity:1;fill-rule:nonzero;stroke:none"
           id="path32382" />
      </g>
      <path
         d="m 318.088,754.289 h -0.658 v 16.086 h 0.658 z"
         style="fill:#355b88;fill-opacity:1;fill-rule:nonzero;stroke:none"
         id="path32384" />
      <g
         id="g32386"
         transform="translate(389.3623,755.3926)">
        <path
           d="M 0,0 43.785,27.591 0.021,56.196 -43.867,28.597 Z"
           style="fill:#d9a371;fill-opacity:1;fill-rule:nonzero;stroke:none"
           id="path32388" />
      </g>
      <g
         id="g32390"
         transform="translate(389.3936,706.0117)">
        <path
           d="M 0,0 -0.131,49.375 43.754,76.972 V 27.467 Z"
           style="fill:#d9a371;fill-opacity:1;fill-rule:nonzero;stroke:none"
           id="path32392" />
      </g>
      <g
         id="g32394"
         transform="translate(345.4951,784.1436)">
        <path
           d="m 0,0 v -49.505 l 43.867,-28.596 v 49.504 z"
           style="fill:#efe0a9;fill-opacity:1;fill-rule:nonzero;stroke:none"
           id="path32396" />
      </g>
      <g
         id="g32398"
         transform="translate(411.5342,784.376)">
        <path
           d="M 0,0 -43.982,29 -66.039,-0.387 -22.172,-28.983 Z"
           style="fill:#c13b33;fill-opacity:1;fill-rule:nonzero;stroke:none"
           id="path32400" />
      </g>
      <g
         id="g32402"
         transform="translate(367.5518,813.376)">
        <path
           d="M 0,0 21.947,-1.451 65.596,-30.449 43.982,-29 Z"
           style="fill:#8d1c25;fill-opacity:1;fill-rule:nonzero;stroke:none"
           id="path32404" />
      </g>
      <g
         id="g32406"
         transform="translate(389.3623,706.043)">
        <path
           d="M 0,0 V 3.834 L -44.283,32.676 V 28.842 Z"
           style="fill:#d9a371;fill-opacity:1;fill-rule:nonzero;stroke:none"
           id="path32408" />
      </g>
      <g
         id="g32410"
         transform="translate(389.3623,755.3926)">
        <path
           d="m 0,0 0.012,-1.061 22.547,29.158 21.226,-1.192 v 0.629 l -21.613,1.449 z"
           style="fill:#690d15;fill-opacity:1;fill-rule:nonzero;stroke:none"
           id="path32412" />
      </g>
      <g
         id="g32414"
         transform="translate(389.374,754.332)">
        <path
           d="m 0,0 -43.879,28.651 v 1.006 L -0.012,1.061 Z"
           style="fill:#a31d31;fill-opacity:1;fill-rule:nonzero;stroke:none"
           id="path32416" />
      </g>
      <g
         id="g32418"
         transform="translate(389.374,709.8809)">
        <path
           d="M 0,0 43.773,27.393 V 23.598 L 0,-3.869 Z"
           style="fill:#a97d59;fill-opacity:1;fill-rule:nonzero;stroke:none"
           id="path32420" />
      </g>
      <g
         id="g32422"
         transform="translate(351.3408,761.9521)">
        <path
           d="M 0,0 V 9.968 L 8.459,4.789 V -5.408 Z"
           style="fill:#41c3db;fill-opacity:1;fill-rule:nonzero;stroke:none"
           id="path32424" />
      </g>
      <g
         id="g32426"
         transform="translate(352.1885,771.4023)">
        <path
           d="M 0,0 -0.848,0.518 V -9.626 L 0,-9.097 Z"
           style="fill:#d9a371;fill-opacity:1;fill-rule:nonzero;stroke:none"
           id="path32428" />
      </g>
      <g
         id="g32430"
         transform="translate(351.3408,761.7764)">
        <path
           d="m 0,0 8.459,-5.232 v 1.021 l -7.611,4.74 z"
           style="fill:#a97d59;fill-opacity:1;fill-rule:nonzero;stroke:none"
           id="path32432" />
      </g>
      <g
         id="g32434"
         transform="translate(352.1885,769.6494)">
        <path
           d="M 0,0 2.777,-9.074 4.705,-10.273 1.295,0.96 0,1.753 Z"
           style="fill:#80cfdf;fill-opacity:1;fill-rule:nonzero;stroke:none"
           id="path32436" />
      </g>
      <g
         id="g32438"
         transform="translate(355.8936,769.1338)">
        <path
           d="M 0,0 -0.508,0.311 V -8.818 L 0,-9.451 Z"
           style="fill:#a97d59;fill-opacity:1;fill-rule:nonzero;stroke:none"
           id="path32440" />
      </g>
      <g
         id="g32442"
         transform="translate(356.3643,768.8447)">
        <path
           d="m 0,0 2.549,-10.725 0.308,-0.193 -2.49,10.695 z"
           style="fill:#80cfdf;fill-opacity:1;fill-rule:nonzero;stroke:none"
           id="path32444" />
      </g>
      <g
         id="g32446"
         transform="translate(363.3135,754.2656)">
        <path
           d="M 0,0 V 9.966 L 8.459,4.788 V -5.408 Z"
           style="fill:#41c3db;fill-opacity:1;fill-rule:nonzero;stroke:none"
           id="path32448" />
      </g>
      <g
         id="g32450"
         transform="translate(364.1592,763.7139)">
        <path
           d="M 0,0 -0.846,0.518 V -9.624 L 0,-9.097 Z"
           style="fill:#d9a371;fill-opacity:1;fill-rule:nonzero;stroke:none"
           id="path32452" />
      </g>
      <g
         id="g32454"
         transform="translate(363.3135,754.0898)">
        <path
           d="m 0,0 8.459,-5.232 v 1.021 L 0.846,0.527 Z"
           style="fill:#a97d59;fill-opacity:1;fill-rule:nonzero;stroke:none"
           id="path32456" />
      </g>
      <g
         id="g32458"
         transform="translate(364.1592,761.9619)">
        <path
           d="M 0,0 2.779,-9.073 4.705,-10.274 1.295,0.959 0,1.752 Z"
           style="fill:#80cfdf;fill-opacity:1;fill-rule:nonzero;stroke:none"
           id="path32460" />
      </g>
      <g
         id="g32462"
         transform="translate(367.8643,761.4443)">
        <path
           d="M 0,0 -0.508,0.312 V -8.815 L 0,-9.448 Z"
           style="fill:#a97d59;fill-opacity:1;fill-rule:nonzero;stroke:none"
           id="path32464" />
      </g>
      <g
         id="g32466"
         transform="translate(368.335,761.1572)">
        <path
           d="m 0,0 2.547,-10.726 0.31,-0.191 -2.49,10.692 z"
           style="fill:#80cfdf;fill-opacity:1;fill-rule:nonzero;stroke:none"
           id="path32468" />
      </g>
      <g
         id="g32470"
         transform="translate(375.2842,746.3359)">
        <path
           d="M 0,0 V 9.966 L 8.459,4.789 V -5.408 Z"
           style="fill:#41c3db;fill-opacity:1;fill-rule:nonzero;stroke:none"
           id="path32472" />
      </g>
      <g
         id="g32474"
         transform="translate(376.1318,755.7822)">
        <path
           d="M 0,0 -0.848,0.52 V -9.622 L 0,-9.093 Z"
           style="fill:#d9a371;fill-opacity:1;fill-rule:nonzero;stroke:none"
           id="path32476" />
      </g>
      <g
         id="g32478"
         transform="translate(375.2842,746.1602)">
        <path
           d="m 0,0 8.459,-5.232 v 1.021 l -7.611,4.74 z"
           style="fill:#a97d59;fill-opacity:1;fill-rule:nonzero;stroke:none"
           id="path32480" />
      </g>
      <g
         id="g32482"
         transform="translate(376.1318,754.0332)">
        <path
           d="M 0,0 2.779,-9.074 4.705,-10.273 1.295,0.959 0,1.749 Z"
           style="fill:#80cfdf;fill-opacity:1;fill-rule:nonzero;stroke:none"
           id="path32484" />
      </g>
      <g
         id="g32486"
         transform="translate(379.8369,753.5156)">
        <path
           d="M 0,0 -0.508,0.312 V -8.816 L 0,-9.449 Z"
           style="fill:#a97d59;fill-opacity:1;fill-rule:nonzero;stroke:none"
           id="path32488" />
      </g>
      <g
         id="g32490"
         transform="translate(380.3057,753.2285)">
        <path
           d="m 0,0 2.549,-10.727 0.308,-0.191 -2.49,10.693 z"
           style="fill:#80cfdf;fill-opacity:1;fill-rule:nonzero;stroke:none"
           id="path32492" />
      </g>
      <g
         id="g32494"
         transform="translate(351.3408,742.8086)">
        <path
           d="M 0,0 V 9.967 L 8.459,4.789 V -5.408 Z"
           style="fill:#41c3db;fill-opacity:1;fill-rule:nonzero;stroke:none"
           id="path32496" />
      </g>
      <g
         id="g32498"
         transform="translate(352.1885,752.2578)">
        <path
           d="M 0,0 -0.848,0.518 V -9.625 L 0,-9.098 Z"
           style="fill:#d9a371;fill-opacity:1;fill-rule:nonzero;stroke:none"
           id="path32500" />
      </g>
      <g
         id="g32502"
         transform="translate(351.3408,742.6328)">
        <path
           d="m 0,0 8.459,-5.232 v 1.021 L 0.848,0.527 Z"
           style="fill:#a97d59;fill-opacity:1;fill-rule:nonzero;stroke:none"
           id="path32504" />
      </g>
      <g
         id="g32506"
         transform="translate(352.1885,750.5059)">
        <path
           d="M 0,0 2.777,-9.074 4.705,-10.273 1.295,0.959 0,1.752 Z"
           style="fill:#80cfdf;fill-opacity:1;fill-rule:nonzero;stroke:none"
           id="path32508" />
      </g>
      <g
         id="g32510"
         transform="translate(355.8936,749.9883)">
        <path
           d="M 0,0 -0.508,0.312 V -8.816 L 0,-9.449 Z"
           style="fill:#a97d59;fill-opacity:1;fill-rule:nonzero;stroke:none"
           id="path32512" />
      </g>
      <g
         id="g32514"
         transform="translate(356.3643,749.7012)">
        <path
           d="m 0,0 2.549,-10.727 0.308,-0.191 -2.49,10.693 z"
           style="fill:#80cfdf;fill-opacity:1;fill-rule:nonzero;stroke:none"
           id="path32516" />
      </g>
      <g
         id="g32518"
         transform="translate(363.3135,735.1191)">
        <path
           d="M 0,0 V 9.969 L 8.459,4.791 V -5.406 Z"
           style="fill:#41c3db;fill-opacity:1;fill-rule:nonzero;stroke:none"
           id="path32520" />
      </g>
      <g
         id="g32522"
         transform="translate(364.1592,744.5703)">
        <path
           d="M 0,0 -0.846,0.518 V -9.625 L 0,-9.098 Z"
           style="fill:#d9a371;fill-opacity:1;fill-rule:nonzero;stroke:none"
           id="path32524" />
      </g>
      <g
         id="g32526"
         transform="translate(363.3135,734.9453)">
        <path
           d="m 0,0 8.459,-5.232 v 1.021 L 0.846,0.527 Z"
           style="fill:#a97d59;fill-opacity:1;fill-rule:nonzero;stroke:none"
           id="path32528" />
      </g>
      <g
         id="g32530"
         transform="translate(364.1592,742.8184)">
        <path
           d="M 0,0 2.779,-9.074 4.705,-10.273 1.295,0.959 0,1.752 Z"
           style="fill:#80cfdf;fill-opacity:1;fill-rule:nonzero;stroke:none"
           id="path32532" />
      </g>
      <g
         id="g32534"
         transform="translate(367.8643,742.3008)">
        <path
           d="M 0,0 -0.508,0.312 V -8.816 L 0,-9.449 Z"
           style="fill:#a97d59;fill-opacity:1;fill-rule:nonzero;stroke:none"
           id="path32536" />
      </g>
      <g
         id="g32538"
         transform="translate(368.335,742.0137)">
        <path
           d="m 0,0 2.547,-10.727 0.31,-0.191 -2.49,10.693 z"
           style="fill:#80cfdf;fill-opacity:1;fill-rule:nonzero;stroke:none"
           id="path32540" />
      </g>
      <g
         id="g32542"
         transform="translate(375.2842,727.1895)">
        <path
           d="M 0,0 V 9.969 L 8.459,4.791 V -5.408 Z"
           style="fill:#41c3db;fill-opacity:1;fill-rule:nonzero;stroke:none"
           id="path32544" />
      </g>
      <g
         id="g32546"
         transform="translate(376.1318,736.6387)">
        <path
           d="M 0,0 -0.848,0.52 V -9.625 L 0,-9.094 Z"
           style="fill:#d9a371;fill-opacity:1;fill-rule:nonzero;stroke:none"
           id="path32548" />
      </g>
      <g
         id="g32550"
         transform="translate(375.2842,727.0137)">
        <path
           d="m 0,0 8.459,-5.232 v 1.023 l -7.611,4.74 z"
           style="fill:#a97d59;fill-opacity:1;fill-rule:nonzero;stroke:none"
           id="path32552" />
      </g>
      <g
         id="g32554"
         transform="translate(376.1318,734.8887)">
        <path
           d="M 0,0 2.779,-9.074 4.705,-10.273 1.295,0.959 0,1.75 Z"
           style="fill:#80cfdf;fill-opacity:1;fill-rule:nonzero;stroke:none"
           id="path32556" />
      </g>
      <g
         id="g32558"
         transform="translate(379.8369,734.3711)">
        <path
           d="m 0,0 -0.508,0.312 v -9.13 L 0,-9.451 Z"
           style="fill:#a97d59;fill-opacity:1;fill-rule:nonzero;stroke:none"
           id="path32560" />
      </g>
      <g
         id="g32562"
         transform="translate(380.3057,734.084)">
        <path
           d="M 0,0 2.549,-10.727 2.857,-10.92 0.367,-0.225 Z"
           style="fill:#80cfdf;fill-opacity:1;fill-rule:nonzero;stroke:none"
           id="path32564" />
      </g>
      <g
         id="g32566"
         transform="translate(300.7231,807.0654)">
        <path
           d="M 0,0 V 9.967 L 8.457,4.789 V -5.41 Z"
           style="fill:#41c3db;fill-opacity:1;fill-rule:nonzero;stroke:none"
           id="path32568" />
      </g>
      <g
         id="g32570"
         transform="translate(301.5708,816.5127)">
        <path
           d="M 0,0 -0.848,0.52 V -9.623 L 0,-9.096 Z"
           style="fill:#d9a371;fill-opacity:1;fill-rule:nonzero;stroke:none"
           id="path32572" />
      </g>
      <g
         id="g32574"
         transform="translate(300.7231,806.8896)">
        <path
           d="m 0,0 8.457,-5.234 v 1.021 l -7.609,4.74 z"
           style="fill:#a97d59;fill-opacity:1;fill-rule:nonzero;stroke:none"
           id="path32576" />
      </g>
      <g
         id="g32578"
         transform="translate(301.5708,814.7627)">
        <path
           d="M 0,0 2.775,-9.074 4.703,-10.275 1.295,0.959 0,1.75 Z"
           style="fill:#80cfdf;fill-opacity:1;fill-rule:nonzero;stroke:none"
           id="path32580" />
      </g>
      <g
         id="g32582"
         transform="translate(305.2739,814.2451)">
        <path
           d="M 0,0 -0.508,0.311 V -8.816 L 0,-9.451 Z"
           style="fill:#a97d59;fill-opacity:1;fill-rule:nonzero;stroke:none"
           id="path32584" />
      </g>
      <g
         id="g32586"
         transform="translate(305.7446,813.9561)">
        <path
           d="m 0,0 2.549,-10.725 0.308,-0.193 -2.49,10.695 z"
           style="fill:#80cfdf;fill-opacity:1;fill-rule:nonzero;stroke:none"
           id="path32588" />
      </g>
      <g
         id="g32590"
         transform="translate(312.6938,799.376)">
        <path
           d="M 0,0 V 9.969 L 8.459,4.789 V -5.408 Z"
           style="fill:#41c3db;fill-opacity:1;fill-rule:nonzero;stroke:none"
           id="path32592" />
      </g>
      <g
         id="g32594"
         transform="translate(313.5396,808.8252)">
        <path
           d="M 0,0 -0.846,0.52 V -9.625 L 0,-9.096 Z"
           style="fill:#d9a371;fill-opacity:1;fill-rule:nonzero;stroke:none"
           id="path32596" />
      </g>
      <g
         id="g32598"
         transform="translate(312.6938,799.2002)">
        <path
           d="m 0,0 8.459,-5.232 v 1.021 l -7.613,4.74 z"
           style="fill:#a97d59;fill-opacity:1;fill-rule:nonzero;stroke:none"
           id="path32600" />
      </g>
      <g
         id="g32602"
         transform="translate(313.5396,807.0752)">
        <path
           d="M 0,0 2.779,-9.076 4.705,-10.275 1.295,0.957 0,1.75 Z"
           style="fill:#80cfdf;fill-opacity:1;fill-rule:nonzero;stroke:none"
           id="path32604" />
      </g>
      <g
         id="g32606"
         transform="translate(317.2446,806.5576)">
        <path
           d="m 0,0 -0.508,0.312 v -9.13 L 0,-9.451 Z"
           style="fill:#a97d59;fill-opacity:1;fill-rule:nonzero;stroke:none"
           id="path32608" />
      </g>
      <g
         id="g32610"
         transform="translate(317.7153,806.2686)">
        <path
           d="m 0,0 2.547,-10.727 0.31,-0.191 -2.49,10.695 z"
           style="fill:#80cfdf;fill-opacity:1;fill-rule:nonzero;stroke:none"
           id="path32612" />
      </g>
      <g
         id="g32614"
         transform="translate(324.6646,791.4463)">
        <path
           d="M 0,0 V 9.967 L 8.459,4.789 V -5.408 Z"
           style="fill:#41c3db;fill-opacity:1;fill-rule:nonzero;stroke:none"
           id="path32616" />
      </g>
      <g
         id="g32618"
         transform="translate(325.5103,800.8955)">
        <path
           d="M 0,0 -0.846,0.518 V -9.625 L 0,-9.096 Z"
           style="fill:#d9a371;fill-opacity:1;fill-rule:nonzero;stroke:none"
           id="path32620" />
      </g>
      <g
         id="g32622"
         transform="translate(324.6646,791.2705)">
        <path
           d="m 0,0 8.459,-5.232 v 1.021 l -7.613,4.74 z"
           style="fill:#a97d59;fill-opacity:1;fill-rule:nonzero;stroke:none"
           id="path32624" />
      </g>
      <g
         id="g32626"
         transform="translate(325.5103,799.1436)">
        <path
           d="M 0,0 2.781,-9.072 4.707,-10.273 1.295,0.959 0,1.752 Z"
           style="fill:#80cfdf;fill-opacity:1;fill-rule:nonzero;stroke:none"
           id="path32628" />
      </g>
      <g
         id="g32630"
         transform="translate(329.2173,798.626)">
        <path
           d="M 0,0 -0.508,0.312 V -8.816 L 0,-9.449 Z"
           style="fill:#a97d59;fill-opacity:1;fill-rule:nonzero;stroke:none"
           id="path32632" />
      </g>
      <g
         id="g32634"
         transform="translate(329.688,798.3389)">
        <path
           d="m 0,0 2.547,-10.727 0.308,-0.191 -2.49,10.693 z"
           style="fill:#80cfdf;fill-opacity:1;fill-rule:nonzero;stroke:none"
           id="path32636" />
      </g>
      <g
         id="g32638"
         transform="translate(300.7231,791.9033)">
        <path
           d="M 0,0 V 9.967 L 8.457,4.789 V -5.408 Z"
           style="fill:#41c3db;fill-opacity:1;fill-rule:nonzero;stroke:none"
           id="path32640" />
      </g>
      <g
         id="g32642"
         transform="translate(301.5708,801.3525)">
        <path
           d="M 0,0 -0.848,0.518 V -9.625 L 0,-9.096 Z"
           style="fill:#d9a371;fill-opacity:1;fill-rule:nonzero;stroke:none"
           id="path32644" />
      </g>
      <g
         id="g32646"
         transform="translate(300.7231,791.7275)">
        <path
           d="m 0,0 8.457,-5.232 v 1.021 l -7.609,4.74 z"
           style="fill:#a97d59;fill-opacity:1;fill-rule:nonzero;stroke:none"
           id="path32648" />
      </g>
      <g
         id="g32650"
         transform="translate(301.5708,799.6006)">
        <path
           d="M 0,0 2.775,-9.074 4.703,-10.273 1.295,0.959 0,1.752 Z"
           style="fill:#80cfdf;fill-opacity:1;fill-rule:nonzero;stroke:none"
           id="path32652" />
      </g>
      <g
         id="g32654"
         transform="translate(305.2739,799.085)">
        <path
           d="M 0,0 -0.508,0.311 V -8.818 L 0,-9.451 Z"
           style="fill:#a97d59;fill-opacity:1;fill-rule:nonzero;stroke:none"
           id="path32656" />
      </g>
      <g
         id="g32658"
         transform="translate(305.7446,798.7959)">
        <path
           d="m 0,0 2.549,-10.725 0.308,-0.193 -2.49,10.695 z"
           style="fill:#80cfdf;fill-opacity:1;fill-rule:nonzero;stroke:none"
           id="path32660" />
      </g>
      <g
         id="g32662"
         transform="translate(312.6938,784.2158)">
        <path
           d="M 0,0 V 9.967 L 8.459,4.789 V -5.408 Z"
           style="fill:#41c3db;fill-opacity:1;fill-rule:nonzero;stroke:none"
           id="path32664" />
      </g>
      <g
         id="g32666"
         transform="translate(313.5396,793.665)">
        <path
           d="M 0,0 -0.846,0.518 V -9.625 L 0,-9.098 Z"
           style="fill:#d9a371;fill-opacity:1;fill-rule:nonzero;stroke:none"
           id="path32668" />
      </g>
      <g
         id="g32670"
         transform="translate(312.6938,784.04)">
        <path
           d="m 0,0 8.459,-5.232 v 1.021 L 0.846,0.527 Z"
           style="fill:#a97d59;fill-opacity:1;fill-rule:nonzero;stroke:none"
           id="path32672" />
      </g>
      <g
         id="g32674"
         transform="translate(313.5396,791.9131)">
        <path
           d="M 0,0 2.779,-9.074 4.705,-10.275 1.295,0.959 0,1.752 Z"
           style="fill:#80cfdf;fill-opacity:1;fill-rule:nonzero;stroke:none"
           id="path32676" />
      </g>
      <g
         id="g32678"
         transform="translate(317.2446,791.3955)">
        <path
           d="M 0,0 -0.508,0.312 V -8.816 L 0,-9.449 Z"
           style="fill:#a97d59;fill-opacity:1;fill-rule:nonzero;stroke:none"
           id="path32680" />
      </g>
      <g
         id="g32682"
         transform="translate(317.7153,791.1084)">
        <path
           d="m 0,0 2.547,-10.727 0.31,-0.191 -2.49,10.693 z"
           style="fill:#80cfdf;fill-opacity:1;fill-rule:nonzero;stroke:none"
           id="path32684" />
      </g>
      <g
         id="g32686"
         transform="translate(324.6646,776.2861)">
        <path
           d="M 0,0 V 9.967 L 8.459,4.789 V -5.407 Z"
           style="fill:#41c3db;fill-opacity:1;fill-rule:nonzero;stroke:none"
           id="path32688" />
      </g>
      <g
         id="g32690"
         transform="translate(325.5103,785.7334)">
        <path
           d="M 0,0 -0.846,0.52 V -9.623 L 0,-9.094 Z"
           style="fill:#d9a371;fill-opacity:1;fill-rule:nonzero;stroke:none"
           id="path32692" />
      </g>
      <g
         id="g32694"
         transform="translate(324.6646,776.1104)">
        <path
           d="M 0,0 8.459,-5.231 V -4.21 L 0.846,0.529 Z"
           style="fill:#a97d59;fill-opacity:1;fill-rule:nonzero;stroke:none"
           id="path32696" />
      </g>
      <g
         id="g32698"
         transform="translate(325.5103,783.9834)">
        <path
           d="M 0,0 2.781,-9.073 4.707,-10.272 1.295,0.959 0,1.75 Z"
           style="fill:#80cfdf;fill-opacity:1;fill-rule:nonzero;stroke:none"
           id="path32700" />
      </g>
      <g
         id="g32702"
         transform="translate(329.2173,783.4658)">
        <path
           d="M 0,0 -0.508,0.312 V -8.815 L 0,-9.448 Z"
           style="fill:#a97d59;fill-opacity:1;fill-rule:nonzero;stroke:none"
           id="path32704" />
      </g>
      <g
         id="g32706"
         transform="translate(329.688,783.1787)">
        <path
           d="m 0,0 2.547,-10.726 0.308,-0.191 -2.49,10.692 z"
           style="fill:#80cfdf;fill-opacity:1;fill-rule:nonzero;stroke:none"
           id="path32708" />
      </g>
      <g
         id="g32710"
         transform="translate(321.6528,820.145)">
        <path
           d="m 0,0 c 0,-3.848 -2.496,-5.39 -4.975,-4.072 -2.48,1.317 -4.488,5.477 -4.488,8.335 0,2.859 2.402,4.976 4.566,4.326 C -2.733,7.94 0,3.848 0,0"
           style="fill:#a97d59;fill-opacity:1;fill-rule:nonzero;stroke:none"
           id="path32712" />
      </g>
      <g
         id="g32714"
         transform="translate(321.2397,820.3496)">
        <path
           d="M 0,0 C 0.016,-3.553 -2.258,-5.034 -4.559,-3.809 -6.86,-2.584 -8.71,1.195 -8.69,3.888 -8.669,6.58 -6.513,8.525 -4.487,7.917 -2.46,7.31 -0.016,3.552 0,0"
           style="fill:#f59120;fill-opacity:1;fill-rule:nonzero;stroke:none"
           id="path32716" />
      </g>
      <g
         id="g32718"
         transform="translate(320.8682,820.5317)">
        <path
           d="M 0,0 C 0.025,-3.282 -2.049,-4.699 -4.185,-3.563 -6.32,-2.426 -8.027,1.02 -7.993,3.553 -7.959,6.086 -6.016,7.878 -4.118,7.306 -2.221,6.735 -0.025,3.281 0,0"
           style="fill:#dae4e3;fill-opacity:1;fill-rule:nonzero;stroke:none"
           id="path32720" />
      </g>
      <g
         id="g32722"
         transform="translate(320.6338,820.645)">
        <path
           d="m 0,0 c 0.029,-3.109 -1.919,-4.479 -3.948,-3.401 -2.029,1.078 -3.645,4.316 -3.606,6.745 0.04,2.428 1.855,4.125 3.668,3.575 C -2.073,6.37 -0.029,3.108 0,0"
           style="fill:#b8b8b9;fill-opacity:1;fill-rule:nonzero;stroke:none"
           id="path32724" />
      </g>
      <g
         id="g32726"
         transform="translate(320.2041,820.8501)">
        <path
           d="m 0,0 c 0.032,-2.785 -1.687,-4.058 -3.516,-3.093 -1.829,0.966 -3.275,3.83 -3.229,6.057 0.046,2.227 1.636,3.745 3.287,3.236 C -1.807,5.691 -0.032,2.785 0,0"
           style="fill:#dae4e3;fill-opacity:1;fill-rule:nonzero;stroke:none"
           id="path32728" />
      </g>
      <g
         id="g32730"
         transform="translate(317.1621,822.2148)">
        <path
           d="m 0,0 c 0,-0.356 -0.203,-0.555 -0.449,-0.446 -0.246,0.11 -0.442,0.478 -0.438,0.823 0.004,0.345 0.202,0.547 0.446,0.449 C -0.199,0.728 0,0.356 0,0"
           style="fill:#a97d59;fill-opacity:1;fill-rule:nonzero;stroke:none"
           id="path32732" />
      </g>
      <g
         id="g32734"
         transform="translate(319.5742,821.1543)">
        <path
           d="m 0,0 c 0.002,-0.19 -0.114,-0.288 -0.257,-0.221 -1.044,0.489 -1.492,0.683 -2.383,1.07 -0.122,0.053 -0.218,0.235 -0.217,0.409 0.001,0.173 0.099,0.275 0.22,0.225 C -1.751,1.116 -1.309,0.931 -0.266,0.462 -0.123,0.398 -0.002,0.19 0,0"
           style="fill:#a97d59;fill-opacity:1;fill-rule:nonzero;stroke:none"
           id="path32736" />
      </g>
      <g
         id="g32738"
         transform="translate(316.9033,826.5132)">
        <path
           d="m 0,0 c 0,0.148 -0.074,0.294 -0.166,0.323 -0.092,0.029 -0.168,-0.069 -0.169,-0.217 -0.013,-1.702 -0.02,-2.481 -0.034,-4.07 -0.001,-0.138 0.077,-0.283 0.174,-0.324 0.097,-0.042 0.176,0.037 0.176,0.177 C -0.011,-2.502 -0.007,-1.713 0,0"
           style="fill:#a97d59;fill-opacity:1;fill-rule:nonzero;stroke:none"
           id="path32740" />
      </g>
    </g>
  </g>
</svg>
