<svg xmlns="http://www.w3.org/2000/svg" width="145.344" height="166.511" viewBox="0 0 38.456 44.056"><path d="M.563 15.763v17.942l13.367 8.513V24.276L.563 15.763" fill="#eec169"/><path d="M13.93 24.276L7.247 13.042l-6.684 2.72z" fill="#eec169"/><path d="M27.891 0L7.247 13.042l6.683 11.234 20.644-13.043L27.891 0" fill="#8b1926"/><path d="M27.891 0l-6.683 2.72L.563 15.763l6.684-2.721L27.891 0" fill="#c32d30"/><path d="M15.895 24.06L36.54 11l-1.966-1.247L13.93 22.812l1.965 1.247" fill="#efc4a9"/><path d="M13.93 22.812v19.406l1.965 1.252V24.06l-1.965-1.248" fill="#eec169"/><path d="M36.54 11v19.41L15.895 43.47V24.06L36.54 11" fill="#b6564e"/><path d="M22.614 24.626v-3.75l-3.29 2.075v3.75l3.29-2.075" fill="#b6564e"/><path d="M22.614 24.626l-.416-.23v-3.257l.416-.262v3.75" fill="#eec169"/><path d="M22.198 24.396l-2.874 1.82v.486l3.29-2.076-.416-.23" fill="#efc4a9"/><path d="M22.064 24.36v-2.928l-2.569 1.62v2.928l2.57-1.62" fill="#5b86a6"/><path d="M28.097 21.178v-3.75l-3.29 2.074v3.751l3.29-2.075" fill="#b6564e"/><path d="M28.097 21.178l-.416-.231V17.69l.416-.262v3.75" fill="#eec169"/><path d="M27.681 20.947l-2.874 1.82v.486l3.29-2.075-.416-.231" fill="#efc4a9"/><path d="M27.547 20.911v-2.928l-2.569 1.62v2.929l2.57-1.62" fill="#5b86a6"/><path d="M33.58 17.663v-3.75l-3.29 2.075v3.75l3.29-2.075" fill="#b6564e"/><path d="M33.58 17.663l-.416-.232v-3.256l.416-.262v3.75" fill="#eec169"/><path d="M33.164 17.431l-2.874 1.822v.486l3.29-2.076-.416-.232" fill="#efc4a9"/><path d="M33.03 17.397v-2.929l-2.569 1.62v2.93l2.57-1.621" fill="#5b86a6"/><path d="M33.874 32.1v-7.78l-14.931 9.417v7.779l14.931-9.418" fill="#7a3d3b"/><path d="M33.62 32.265V24.76l-14.402 9.084v7.504l14.403-9.084" fill="#5b86a6"/><path d="M23.184 38.848l-.214.13V31.27l.214-.072v7.65m5.651-3.57l-.214.13V27.7l.214-.071v7.649" fill="#7a3d3b"/><path d="M33.874 26.584v-.328l-14.931 9.417V36l14.931-9.417" fill="#7a3d3b"/><path d="M18.742 31.94v2.693l4.923 3.153v-1.194l-4.923-4.652" fill="#2c753e"/><path d="M18.742 31.94l14.904-9.491 4.81 4.583-14.791 9.56-4.923-4.652" fill="#4d7c2d"/><path d="M23.665 37.786v-1.194l14.79-9.56v1.335l-14.79 9.42" fill="#1e4e27"/><path d="M25 35.728l-4.791-4.721 1.388-.884 4.356 4.898v.092l-.953.615" fill="#5d9531"/><path d="M25.008 36.93v-1.194L25 35.728l.953-.615v1.216l-.945.601" fill="#337431"/><path d="M27.245 35.512v-.006l.945-.602v.007l-.945.601" fill="#679d85"/><path d="M27.22 34.294l-4.774-4.706 1.388-.884 4.356 4.898v.065l-.97.627" fill="#5d9531"/><path d="M27.245 35.506v-1.188l-.024-.024.97-.627v1.237l-.946.602" fill="#337431"/><path d="M24.687 28.154l-.004-.004 1.388-.884.004.004-1.388.884" fill="#a67d47"/><path d="M29.453 32.85l-4.766-4.696 1.388-.884 4.352 4.894v.057l-.974.63" fill="#5d9531"/><path d="M29.483 34.074V32.88l-.03-.03.974-.629v1.252l-.944.601" fill="#337431"/><path d="M26.925 26.73l-.005-.006 1.388-.883.005.005-1.388.883" fill="#a67d47"/><path d="M31.678 31.413l-4.753-4.684 1.388-.883 4.351 4.893v.036l-.986.638" fill="#5d9531"/><path d="M31.72 32.648v-1.194l-.042-.041.986-.638v1.271l-.944.602" fill="#337431"/><path d="M33.957 31.236v-.005l.944-.6v.003l-.944.602" fill="#a67d47"/><path d="M33.895 29.98l-4.738-4.668 1.388-.884 4.356 4.898v.003l-1.006.651" fill="#5d9531"/><path d="M33.957 31.231v-1.19l-.062-.06 1.006-.652v1.301l-.944.601" fill="#337431"/><path d="M31.406 23.876l-.011-.012 1.388-.884.01.012-1.387.884" fill="#a67d47"/><path d="M36.133 28.534l-4.727-4.658 1.388-.884 4.345 4.887v.004l-1.006.65" fill="#5d9531"/><path d="M36.194 29.788v-1.194l-.061-.06 1.006-.65v1.303l-.945.601" fill="#337431"/><path d="M9.842 25.431v-2.766l2.427 1.53v2.766l-2.427-1.53" fill="#b6564e"/><path d="M9.842 25.431l.307-.17v-2.402l-.307-.194v2.766" fill="#b6564e"/><path d="M10.149 25.26l2.12 1.343v.358l-2.427-1.53.307-.17" fill="#efc4a9"/><path d="M10.247 25.235v-2.16l1.895 1.195v2.16l-1.895-1.195" fill="#86bdda"/><path d="M5.798 22.888v-2.766l2.427 1.53v2.766l-2.427-1.53" fill="#b6564e"/><path d="M5.798 22.888l.307-.17v-2.402l-.307-.194v2.766" fill="#b6564e"/><path d="M6.105 22.717l2.12 1.343v.358l-2.427-1.53.307-.17" fill="#efc4a9"/><path d="M6.204 22.691v-2.16l1.894 1.195v2.16l-1.894-1.195" fill="#86bdda"/><path d="M1.754 20.295V17.53l2.427 1.53v2.766l-2.427-1.53" fill="#b6564e"/><path d="M1.754 20.295l.307-.17v-2.402l-.307-.193v2.765" fill="#b6564e"/><path d="M2.06 20.125l2.12 1.343v.358l-2.426-1.53.307-.171" fill="#efc4a9"/><path d="M2.16 20.099v-2.16l1.894 1.195v2.16L2.16 20.099" fill="#86bdda"/><path d="M9.842 32.543v-2.765l2.427 1.53v2.765l-2.427-1.53" fill="#b6564e"/><path d="M9.842 32.543l.307-.17V29.97l-.307-.193v2.765" fill="#b6564e"/><path d="M10.149 32.372l2.12 1.343v.358l-2.427-1.53.307-.17" fill="#efc4a9"/><path d="M10.247 32.347v-2.16l1.895 1.195v2.16l-1.895-1.195" fill="#86bdda"/><path d="M5.798 30v-2.766l2.427 1.53v2.766L5.798 30" fill="#b6564e"/><path d="M5.798 30l.307-.17v-2.403l-.307-.193V30" fill="#b6564e"/><path d="M6.105 29.83l2.12 1.342v.358L5.798 30l.307-.17" fill="#efc4a9"/><path d="M6.204 29.803v-2.16l1.894 1.195v2.16l-1.894-1.195" fill="#86bdda"/><path d="M1.754 27.407v-2.765l2.427 1.53v2.766l-2.427-1.53" fill="#b6564e"/><path d="M1.754 27.407l.307-.17v-2.402l-.307-.193v2.765" fill="#b6564e"/><path d="M2.06 27.237l2.12 1.343v.358l-2.426-1.53.307-.171" fill="#efc4a9"/><path d="M2.16 27.21v-2.159l1.894 1.195v2.16L2.16 27.21" fill="#86bdda"/><path d="M9.575 41.673l-3.623-2.279 3.623-3.05 3.624 2.278-3.624 3.05" fill="#4d7c2d"/><path d="M5.952 41.777v-2.383l3.623 2.279v2.383l-3.623-2.279" fill="#2c753e"/><path d="M13.199 38.622v3.155l-3.624 2.279v-2.383l3.624-3.05m-3.624 2.744L6.367 39.35l3.208-2.7 3.208 2.016-3.208 2.701" fill="#1e4e27"/><path d="M9.575 36.65v3.532l.826.49 2.382-2.006-3.208-2.017" fill="#19321c"/><path d="M9.575 40.182l-.827.665-2.38-1.497 3.207-2.7v3.532" fill="#192618"/><path d="M6.562 42.165l-.228-.159V39.64l.228.143v2.383m.658.413l-.227-.16v-2.367l.227.143v2.384m.66.41l-.229-.16v-2.367l.228.143v2.384m1.317.833l-.228-.158v-2.368l.228.143v2.383m-.658-.414l-.228-.159v-2.367l.228.143v2.383" fill="#1e4e27"/><path d="M3.623 37.817L0 35.538l3.623-3.05 3.624 2.278-3.624 3.051" fill="#4d7c2d"/><path d="M0 37.921v-2.383l3.623 2.28V40.2L0 37.92" fill="#2c753e"/><path d="M7.247 34.766v3.155L3.623 40.2v-2.383l3.624-3.051M3.623 37.51L.415 35.495l3.208-2.7 3.209 2.017-3.209 2.7" fill="#1e4e27"/><path d="M3.623 32.793v3.534l.826.489 2.383-2.005-3.209-2.018" fill="#19321c"/><path d="M3.623 36.327l-.827.664-2.38-1.497 3.207-2.7v3.533" fill="#192618"/><path d="M.61 38.309l-.227-.16v-2.367l.228.144v2.383m.658.413l-.228-.159v-2.367l.228.144v2.382m.659.41l-.229-.159v-2.367l.229.143v2.383m1.316.834l-.228-.159V37.44l.228.143v2.383m-.658-.414l-.228-.16v-2.367l.228.144v2.383" fill="#1e4e27"/></svg>