<svg xmlns="http://www.w3.org/2000/svg" viewBox="0 0 55.761 92.043"><path fill="#37568c" d="M1.78 47.643v27.988l26.1 16.412V64.056L1.78 47.643"/><path fill="#2e3c59" d="M53.982 47.643v27.988L27.88 92.043V64.056l26.102-16.413"/><path fill="#419dc9" d="M3.492 49.245l21.871 13.752v26.284L3.493 75.32V49.245"/><path fill="#37568c" d="M26.76 68.237l-.503.805L2.827 54.38l.505-.804L26.76 68.237"/><path fill="#37568c" d="M16.795 83.944h-.95V56.306h.95v27.638m-4.632-2.646h-.95V53.661h.95v27.637m-4.632-3.055h-.949V50.606h.95v27.637"/><path fill="#37568c" d="M26.76 72.498l-.502.806L2.828 58.64l.505-.804L26.76 72.498m0 4.262l-.502.805-23.43-14.662.505-.804L26.76 76.76m0 4.262l-.502.803-23.43-14.66.505-.804 23.427 14.66m0 4.263l-.503.804-23.43-14.661.505-.804 23.428 14.66"/><path fill="#37568c" d="M21.427 86.915h-.95V59.277h.95v27.638M5.224 76.936h-.17V49.78h.17v27.156m4.218 2.7h-.17V52.479h.17v27.157m4.811 2.917h-.17V55.396h.17v27.157m4.514 2.837h-.169V58.234h.17V85.39m4.725 3.075h-.17V61.309h.17v27.156"/><path fill="#37568c" d="M26.551 65.71l-.084.144-23.43-13.73.085-.144 23.43 13.73m-.065 4.82l-.089.146L3.157 56.631l.086-.143 23.244 14.043m-.053 4.146l-.089.144-23.24-14.043.085-.145 23.244 14.044m.053 4.473l-.089.143L3.157 65.25l.086-.144L26.487 79.15m0 4.08l-.089.143L3.157 69.331l.086-.145L26.487 83.23m-.028 4.195l-.087.143L3.129 73.526l.088-.146 23.242 14.045"/><path fill="#3781aa" d="M52.258 49.395l-21.87 13.752v26.284l21.87-13.961V49.395"/><path fill="#2e3c59" d="M28.99 68.388l.503.804 23.43-14.66-.504-.806L28.99 68.388"/><path fill="#2e3c59" d="M38.956 84.095h.949V56.456h-.949v27.639m4.631-2.646h.95V53.811h-.95V81.45m4.633-3.056h.948V50.756h-.949v27.638"/><path fill="#2e3c59" d="M28.99 72.648l.503.806 23.429-14.662-.504-.804-23.427 14.66m-.001 4.263l.503.804 23.429-14.661-.504-.805-23.427 14.662m-.001 4.262l.503.803 23.429-14.66-.504-.805-23.427 14.662m-.001 4.261l.503.805 23.43-14.661-.504-.805L28.99 85.434"/><path fill="#2e3c59" d="M34.324 87.065h.95V59.428h-.95v27.637m16.203-9.979h.169V49.931h-.17v27.155m-4.218 2.701h.17V52.63h-.17v27.157m-4.809 2.916h.168V55.547H41.5v27.156m-4.516 2.838h.168V58.385h-.168V85.54m-4.726 3.075h.17V61.459h-.17v27.156"/><path fill="#2e3c59" d="M29.199 65.86l.085.145 23.43-13.73-.086-.144-23.43 13.728m.066 4.823l.088.144 23.243-14.044-.088-.143-23.243 14.043m.053 4.146l.088.144 23.242-14.044-.087-.145-23.243 14.045m-.053 4.472l.088.144L52.595 65.4l-.088-.145L29.264 79.3m0 4.08l.088.144 23.243-14.043-.088-.144L29.264 83.38m.027 4.195l.088.144L52.62 73.676l-.087-.145L29.29 87.575"/><path fill="#dce8e3" d="M51.314 47.643L27.879 32.908 4.447 47.643 27.88 62.377zm-23.435 17.53L0 47.644l27.88-17.532 27.88 17.531-27.88 17.53"/><path fill="#bbbebb" d="M0 49.87v-2.227l27.88 17.53v1.87L0 49.87"/><path fill="#909493" d="M55.761 47.643v1.869L27.88 67.043v-1.87l27.882-17.53"/><path fill="#37568c" d="M1.778 19.304v27.988L27.88 63.704V35.716L1.778 19.304"/><path fill="#2e3c59" d="M53.982 19.304v27.988L27.88 63.704V35.716l26.102-16.412"/><path fill="#dce8e3" d="M51.314 19.401L27.879 4.667 4.447 19.4 27.88 34.135zm-23.435 17.53L0 19.402 27.88 1.87 55.76 19.4 27.88 36.931"/><path fill="#419dc9" d="M3.859 22.747L25.729 36.5v26.285L3.86 48.82V22.747"/><path fill="#37568c" d="M27.127 41.74l-.503.804L3.195 27.883l.504-.804 23.428 14.66"/><path fill="#37568c" d="M17.162 57.446h-.95V29.808h.95v27.638M12.53 54.8h-.95V27.164h.95v27.638m-4.632-3.057h-.949V24.108h.949v27.637"/><path fill="#37568c" d="M27.127 46l-.503.805L3.195 32.144l.505-.804L27.127 46m0 4.263l-.503.804L3.195 36.405l.505-.804 23.427 14.662m0 4.261l-.503.804-23.429-14.66.505-.805 23.427 14.661m0 4.262l-.503.805L3.195 44.929l.504-.804 23.428 14.66"/><path fill="#37568c" d="M21.794 60.417h-.95V32.78h.95v27.637M5.59 50.438h-.169V23.282h.17v27.156m4.218 2.7h-.17V25.98h.17v27.157m4.811 2.918h-.17V28.898h.17v27.157m4.514 2.838h-.17V31.737h.17v27.156m4.726 3.074h-.17V34.811h.17v27.156"/><path fill="#37568c" d="M26.918 39.211l-.085.146-23.429-13.73.085-.144L26.918 39.21m-.065 4.824l-.088.144L3.523 30.134l.088-.143 23.242 14.043M26.8 48.18l-.088.144L3.471 34.28l.086-.145L26.8 48.18m.053 4.472l-.088.144L3.523 38.752l.088-.145 23.242 14.045m0 4.079l-.088.145L3.523 42.833l.088-.144L26.853 56.73m-.027 4.198l-.088.143L3.495 47.028l.089-.146 23.242 14.046"/><path fill="#3781aa" d="M51.891 22.898L30.021 36.65v26.284l21.87-13.962V22.898"/><path fill="#2e3c59" d="M28.624 41.89l.502.805 23.43-14.662-.504-.804-23.428 14.66"/><path fill="#2e3c59" d="M38.59 57.597h.948V29.96h-.949v27.638m4.631-2.647h.95V27.313h-.95v27.638m4.633-3.055h.949V24.258h-.95v27.638"/><path fill="#2e3c59" d="M28.624 46.15l.502.806 23.43-14.662-.504-.804-23.428 14.66m0 4.263l.502.805 23.43-14.662-.504-.804-23.428 14.661m0 4.262l.502.803 23.43-14.66-.504-.804-23.428 14.661m0 4.261l.502.805 23.43-14.661-.504-.805-23.428 14.661"/><path fill="#2e3c59" d="M33.957 60.568h.95V32.93h-.95v27.638m16.203-9.979h.169V23.433h-.169v27.156m-4.218 2.699h.169V26.131h-.17v27.157m-4.809 2.918h.169V29.049h-.17v27.157m-4.514 2.837h.169V31.887h-.17v27.156m-4.725 3.074h.17V34.961h-.17v27.156"/><path fill="#2e3c59" d="M28.832 39.362l.085.146 23.43-13.73-.085-.146-23.43 13.73m.066 4.822l.087.145 23.243-14.044-.087-.144-23.243 14.043m.052 4.146l.088.144L52.28 34.43l-.087-.144L28.95 48.33m-.052 4.472l.087.144 23.243-14.044-.087-.145-23.243 14.045m0 4.08l.087.144 23.243-14.042-.087-.145-23.243 14.043m.027 4.195l.087.144L52.255 47.18l-.088-.146-23.242 14.044"/><path fill="#bab5bc" d="M27.88 35.716L1.778 19.304 27.88 2.89l26.102 16.413L27.88 35.716"/><path fill="#dce8e3" d="M51.314 17.53L27.879 2.797 4.447 17.531 27.88 32.266zM27.879 35.063L0 17.531 27.88 0l27.88 17.53-27.88 17.533"/><path fill="#bbbebb" d="M0 19.76v-2.23l27.88 17.532v1.87L0 19.76"/><path fill="#909493" d="M55.761 17.53v1.871L27.88 36.931v-1.869l27.882-17.531M27.88 2.891v1.87L5.927 18.465l-1.48-.934L27.88 2.89"/><path fill="#bbbebb" d="M27.88 4.68V2.891l23.434 14.64-1.428.934L27.88 4.68"/></svg>