<svg xmlns="http://www.w3.org/2000/svg" width="155.571" height="174.784" viewBox="0 0 41.161 46.245"><path d="M20.61 26.617L.952 14.255 20.61 1.895l19.659 12.36L20.61 26.617" fill="#bd7f42"/><path d="M20.61 26.617l.094-.15-19.42-12.212L20.61 2.102l19.327 12.153-19.42 12.213.093.149.094-.15-.094.15.094.149 19.658-12.362a.176.176 0 0 0 0-.298L20.704 1.745a.175.175 0 0 0-.188 0L.858 14.105a.176.176 0 0 0 0 .3l19.658 12.361c.058.036.13.036.188 0l-.094-.15" fill="#53412f"/><path d="M.952 33.883V14.255L20.61 26.617v19.628L.952 33.883" fill="#a43821"/><path d="M40.269 33.883V14.255L20.61 26.617v19.628l19.659-12.362" fill="#8e3328"/><path d="M20.581 25.363l17.23-11.367L20.917 3.147 3.35 13.997zM0 13.885L20.982.926l20.18 13.206-20.58 13.33L0 13.884" fill="#c99673"/><path d="M20.581 24.437l17.23-11.366-16.894-10.85L3.35 13.071zM0 12.96L20.982 0l20.18 12.959-20.58 13.577L0 12.959" fill="#f0b67b"/><path d="M41.161 12.959v1.173l-20.58 13.33v-1.173l20.58-13.33" fill="#a27761"/><path d="M0 12.712v1.173l20.581 13.576V26.29L0 12.712" fill="#c99673"/><path d="M20.917 1.974v1.173L4.269 13.43l-.918-.605 17.566-10.85" fill="#a27761"/><path d="M6.146 23.654l-3.034-1.89v-3.188l3.034 1.891v3.187" fill="#def4f2"/><path d="M2.336 22.01l2.977 1.891v.257l-2.977-1.913v-.234" fill="#c99673"/><path d="M5.313 24.158l.833-.246v-.258l-.833.247v.257" fill="#a27761"/><path d="M5.876 20.794l-2.514-1.6v2.725l2.514 1.568zm.27 2.86l-3.034-1.89v-3.188l3.034 1.891v3.187" fill="#c99673"/><path d="M4.48 22.78h.236v-2.962H4.48v2.962" fill="#c99673"/><path d="M6.146 23.654l-.833.247-2.977-1.89.776-.247 3.034 1.89" fill="#f0b67b"/><path d="M11.685 26.842l-3.035-1.89v-3.188l3.035 1.89v3.188" fill="#def4f2"/><path d="M7.874 25.198l2.978 1.89v.258l-2.978-1.913v-.235" fill="#c99673"/><path d="M10.852 27.346l.833-.247v-.257l-.833.247v.257" fill="#a27761"/><path d="M11.415 23.981L8.9 22.383v2.724l2.515 1.568zm.27 2.861l-3.035-1.89v-3.188l3.035 1.89v3.188" fill="#c99673"/><path d="M10.019 25.968h.236v-2.962h-.236v2.962" fill="#c99673"/><path d="M11.685 26.842l-.833.247-2.978-1.891.776-.247 3.035 1.891" fill="#f0b67b"/><path d="M17.223 30.287l-3.035-1.89v-3.188l3.035 1.89v3.188" fill="#def4f2"/><path d="M13.413 28.643l2.977 1.89v.258l-2.977-1.913v-.235" fill="#c99673"/><path d="M16.39 30.79l.833-.246v-.257l-.833.247v.257" fill="#a27761"/><path d="M16.953 27.426l-2.515-1.598v2.724l2.515 1.568zm.27 2.861l-3.035-1.89v-3.188l3.035 1.89v3.188" fill="#c99673"/><path d="M15.558 29.413h.236V26.45h-.236v2.962" fill="#c99673"/><path d="M17.223 30.287l-.833.247-2.977-1.89.775-.248 3.035 1.891" fill="#f0b67b"/><path d="M6.385 33.412L3.351 31.52v-3.187l3.034 1.891v3.188" fill="#def4f2"/><path d="M2.575 31.768l2.977 1.89v.257l-2.977-1.912v-.235" fill="#c99673"/><path d="M5.552 33.915l.833-.246v-.257l-.833.247v.256" fill="#a27761"/><path d="M6.116 30.55L3.6 28.953v2.724l2.515 1.568zm.27 2.862L3.35 31.52v-3.187l3.034 1.891v3.188" fill="#c99673"/><path d="M4.72 32.537h.235v-2.962H4.72v2.962" fill="#c99673"/><path d="M6.385 33.412l-.833.247-2.977-1.891.776-.248 3.034 1.892" fill="#f0b67b"/><path d="M11.924 36.6L8.89 34.707V31.52l3.035 1.892v3.187" fill="#def4f2"/><path d="M8.113 34.955l2.978 1.89v.258L8.113 35.19v-.235" fill="#c99673"/><path d="M11.091 37.103l.833-.247V36.6l-.833.247v.257" fill="#a27761"/><path d="M11.654 33.738l-2.515-1.599v2.725l2.515 1.568zm.27 2.861L8.89 34.708V31.52l3.035 1.892v3.187" fill="#c99673"/><path d="M10.257 35.725h.237v-2.962h-.237v2.962" fill="#c99673"/><path d="M11.924 36.6l-.833.246-2.978-1.89.776-.248 3.035 1.891" fill="#f0b67b"/><path d="M17.463 40.045l-3.035-1.891v-3.188l3.035 1.89v3.189" fill="#def4f2"/><path d="M13.651 38.4l2.979 1.892v.257l-2.979-1.914V38.4" fill="#c99673"/><path d="M16.63 40.549l.833-.247v-.257l-.833.247v.257" fill="#a27761"/><path d="M17.193 37.183l-2.515-1.599v2.725l2.515 1.569zm.27 2.862l-3.035-1.891v-3.188l3.035 1.89v3.189" fill="#c99673"/><path d="M15.797 39.17h.236v-2.962h-.236v2.963" fill="#c99673"/><path d="M17.463 40.045l-.833.247L13.65 38.4l.777-.246 3.035 1.89" fill="#f0b67b"/><path d="M34.962 23.602l3.034-1.891v-3.188l-3.034 1.891v3.188" fill="#def4f2"/><path d="M38.772 21.958l-2.977 1.89v.257l2.977-1.912v-.235" fill="#a27761"/><path d="M35.795 24.105l-.833-.246v-.257l.833.246v.257" fill="#c99673"/><path d="M35.232 23.434l2.515-1.567V19.14l-2.515 1.6zm-.27-3.02l3.034-1.891v3.188l-3.034 1.89v-3.187" fill="#a27761"/><path d="M36.628 22.727h-.237v-2.962h.237v2.962" fill="#a27761"/><path d="M34.962 23.602l.833.246 2.977-1.89-.776-.247-3.034 1.89" fill="#f0b67b"/><path d="M29.423 26.789l3.035-1.89V21.71l-3.035 1.89v3.188" fill="#def4f2"/><path d="M33.233 25.145l-2.977 1.89v.258l2.977-1.913v-.235" fill="#a27761"/><path d="M30.256 27.293l-.833-.247v-.257l.833.246v.258" fill="#c99673"/><path d="M29.693 26.622l2.515-1.568V22.33l-2.515 1.598zm-.27-3.02l3.035-1.891v3.187l-3.035 1.89v-3.186" fill="#a27761"/><path d="M31.09 25.915h-.237v-2.963h.236v2.963" fill="#a27761"/><path d="M29.423 26.789l.833.246 2.977-1.89-.775-.247-3.035 1.89" fill="#f0b67b"/><path d="M23.884 30.234l3.035-1.89v-3.188l-3.035 1.89v3.188" fill="#def4f2"/><path d="M27.695 28.59l-2.978 1.89v.258l2.978-1.913v-.235" fill="#a27761"/><path d="M24.717 30.738l-.833-.247v-.257l.833.247v.257" fill="#c99673"/><path d="M24.154 30.067l2.515-1.568v-2.724l-2.515 1.598zm-.27-3.02l3.035-1.891v3.187l-3.035 1.891v-3.187" fill="#a27761"/><path d="M25.55 29.36h-.235v-2.962h.235v2.962" fill="#a27761"/><path d="M23.884 30.234l.833.247 2.978-1.89-.776-.248-3.035 1.891" fill="#f0b67b"/><path d="M34.723 33.359l3.034-1.892V28.28l-3.034 1.891v3.188" fill="#def4f2"/><path d="M38.533 31.715l-2.978 1.89v.257l2.978-1.912v-.235" fill="#a27761"/><path d="M35.555 33.862l-.832-.246v-.257l.832.246v.257" fill="#c99673"/><path d="M34.993 33.191l2.514-1.567V28.9l-2.514 1.598zm-.27-3.02l3.034-1.89v3.186l-3.034 1.892V30.17" fill="#a27761"/><path d="M36.389 32.484h-.237v-2.962h.237v2.962" fill="#a27761"/><path d="M34.723 33.359l.832.246 2.978-1.89-.776-.248-3.034 1.892" fill="#f0b67b"/><path d="M29.184 36.546l3.034-1.89v-3.189l-3.034 1.892v3.187" fill="#def4f2"/><path d="M32.995 34.902l-2.978 1.891v.257l2.978-1.913v-.235" fill="#a27761"/><path d="M30.017 37.05l-.833-.247v-.257l.833.247v.257" fill="#c99673"/><path d="M29.453 36.379l2.515-1.568v-2.725l-2.515 1.6zm-.269-3.02l3.034-1.892v3.188l-3.034 1.891v-3.187" fill="#a27761"/><path d="M30.85 35.672h-.236V32.71h.236v2.962" fill="#a27761"/><path d="M29.184 36.546l.833.247 2.978-1.89-.777-.248-3.034 1.891" fill="#f0b67b"/><path d="M23.645 39.992L26.68 38.1v-3.188l-3.035 1.89v3.189" fill="#def4f2"/><path d="M27.456 38.347l-2.978 1.892v.257l2.978-1.914v-.235" fill="#a27761"/><path d="M24.478 40.496l-.833-.247v-.257l.833.247v.257" fill="#c99673"/><path d="M23.915 39.824l2.515-1.568v-2.725l-2.515 1.6zm-.27-3.02l3.035-1.891V38.1l-3.035 1.89v-3.187" fill="#a27761"/><path d="M25.311 39.117h-.236v-2.962h.236v2.962" fill="#a27761"/><path d="M23.645 39.992l.833.247 2.978-1.892-.776-.246-3.035 1.89" fill="#f0b67b"/><path d="M32.458 15.91l-3.71-2.334 3.71-2.333 3.71 2.333-3.71 2.333" fill="#f6cba1"/><path d="M32.458 12.907l-3.71-2.334 3.71-3.814 3.71 2.333-3.71 3.815" fill="#fef4ec"/><path d="M32.458 15.91v-3.003l3.71-3.815v4.484l-3.71 2.333" fill="#8e3328"/><path d="M28.747 10.573v3.003l3.71 2.333v-3.002l-3.71-2.334" fill="#a43821"/><path d="M32.458 13.36l-4.06-2.552 4.06-4.172 4.059 2.552-4.06 4.173" fill="#fef4ec"/><path d="M29.759 14.212v-2.17l1.421.865v2.199l-1.421-.894" fill="#c99673"/></svg>