<svg xmlns="http://www.w3.org/2000/svg" width="120.76" height="120.076" viewBox="0 0 31.951 31.77"><path d="M15.962 21.57L.778 12.023l15.184-9.547 15.184 9.547-15.184 9.549" fill="#c2695d"/><path d="M15.996 31.77V21.572L.813 12.024v10.199l15.183 9.547" fill="#c2695d"/><path d="M31.146 11.969v10.199l-15.184 9.547V21.517l15.184-9.548" fill="#a75044"/><path d="M8.291 9.686L23.514 0l7.632 12.022-15.184 9.549L8.29 9.686" fill="#62151e"/><path d="M23.514 0l-7.591 2.358-15.11 9.686 7.478-2.358L23.514 0" fill="#992628"/><path d="M18.1 28.917l4.579-2.852v-5.948l-4.578 2.853v5.947" fill="#d9f1da"/><path d="M23.85 26.88l-4.493 2.852v1.452L23.85 28.3v-1.418" fill="#a55f64"/><path d="M19.357 31.184l-1.256-.815v-1.452l1.256.815v1.452" fill="#cb7679"/><path d="M18.508 28.664l3.794-2.363v-5.25l-3.794 2.41zM18.1 22.97l4.578-2.853v5.948l-4.578 2.852V22.97" fill="#a66564"/><path d="M20.614 27.599h-.356V21.99h.356v5.608" fill="#a66564"/><path d="M18.1 28.917l1.257.815 4.492-2.851-1.17-.816-4.578 2.852" fill="#f39184"/><path d="M18.355 28.908l1.018.66 4.198-2.687-.948-.662-4.268 2.689" fill="#48312f"/><path d="M24.741 24.745l4.579-2.853v-5.948l-4.579 2.853v5.948" fill="#d9f1da"/><path d="M30.49 22.708l-4.492 2.852v1.452l4.492-2.885v-1.419" fill="#a55f64"/><path d="M25.998 27.012l-1.257-.815v-1.452l1.257.815v1.452" fill="#cb7679"/><path d="M25.148 24.492l3.794-2.365v-5.249l-3.794 2.411zm-.407-5.695l4.579-2.853v5.948l-4.579 2.853v-5.948" fill="#a66564"/><path d="M27.255 23.425h-.356v-5.607h.356v5.607" fill="#a66564"/><path d="M24.741 24.745l1.257.815 4.492-2.852-1.17-.816-4.579 2.853" fill="#f39184"/><path d="M25.007 24.74l1.018.66 4.2-2.687-.95-.662-4.268 2.689" fill="#48312f"/><path d="M7.701 26.539l-3.95-2.488v-7.526l3.95 2.488v7.526" fill="#90294d"/><path d="M7.294 19.278L4.129 17.23v7.056l3.165 2zm.407 7.26l-3.95-2.487v-7.526l3.95 2.488v7.526" fill="#cb7679"/><path d="M6.85 19.696l-2.172-1.38v2.067l2.173 1.38zm.164 2.432l-2.5-1.584v-2.592l2.5 1.583v2.593M6.85 23.39l-2.172-1.38v2.068l2.173 1.38zm.164 2.432l-2.5-1.583v-2.593l2.5 1.584v2.592" fill="#c23473"/><path d="M11.192 28.725l-3.95-2.487v-7.526l3.95 2.487v7.526" fill="#90294d"/><path d="M10.784 21.464L7.62 19.418v7.056l3.164 1.998zm.408 7.26l-3.95-2.486v-7.526l3.95 2.487v7.526" fill="#cb7679"/><path d="M10.341 21.882l-2.173-1.38v2.068l2.173 1.38zm.164 2.433l-2.5-1.584v-2.592l2.5 1.583v2.593M10.341 25.578l-2.173-1.381v2.068l2.173 1.38zm.164 2.431l-2.5-1.583v-2.593l2.5 1.584v2.592" fill="#c23473"/><path d="M5.75 15.185l-1.916-1.193v-2.488l1.915 1.193v2.488" fill="#d9f1da"/><path d="M5.578 12.903l-1.586-1.008v2.195l1.586.99zm.171 2.282l-1.915-1.193v-2.488l1.915 1.193v2.488" fill="#a66564"/><path d="M4.698 14.543l.148.09v-2.344h-.148v2.254" fill="#a66564"/><path d="M8.467 16.864L6.552 15.67v-2.487l1.915 1.193v2.488" fill="#d9f1da"/><path d="M8.297 14.582L6.71 13.574v2.195l1.587.989zm.17 2.282L6.552 15.67v-2.487l1.915 1.193v2.488" fill="#a66564"/><path d="M7.416 16.221l.15.09v-2.345h-.15v2.255" fill="#a66564"/><path d="M11.283 18.704l-1.914-1.193v-2.488l1.914 1.194v2.487" fill="#d9f1da"/><path d="M11.112 16.423l-1.586-1.01v2.196l1.586.99zm.17 2.281L9.37 17.511v-2.488l1.914 1.194v2.487" fill="#a66564"/><path d="M10.232 18.062l.149.09v-2.345h-.149v2.255" fill="#a66564"/><path d="M15.346 22.057l.72.48v.782l-.72-.513v-.749" fill="#a55f64"/><path d="M16.065 23.32l15.886-10.035v-.783L16.065 22.537v.782" fill="#cb7679"/><path d="M31.951 12.502L16.065 22.537l-.72-.48 15.8-10.035.806.48" fill="#f39184"/><path d="M16.09 23.32L0 13.284v-.783l16.09 10.035v.782" fill="#cb7679"/><path d="M0 12.502l16.09 10.035.72-.48L.804 12.022l-.805.48" fill="#f39184"/><path d="M24.402 5.902V3.669l1.197.752v3.053l-1.197-1.572" fill="#7e4845"/><path d="M26.796 3.669v3.053l-1.197.752V4.421l1.197-.752" fill="#56332e"/><path d="M23.821 3.741v-.846L25.6 4.013v.847L23.821 3.74" fill="#7e4845"/><path d="M27.377 2.895v.846L25.599 4.86v-.847l1.778-1.118" fill="#56332e"/><path d="M23.821 2.895L25.6 4.013l1.778-1.118-1.778-1.147-1.778 1.147" fill="#d4847a"/><path d="M24.373 2.905l1.226.772 1.226-.772-1.226-.791-1.226.791" fill="#25161b"/><path d="M19.34 28.274c0 .896-.17.745-.381.745-.21 0-.381.228-.381-.745a.381.381 0 0 1 .761 0" fill="#64a330"/><path d="M19.525 28.703c0 .644-.123.535-.274.535-.15 0-.273.164-.273-.535a.274.274 0 0 1 .547 0M20.804 27.45c0 .866-.165.72-.368.72-.203 0-.369.22-.369-.72a.368.368 0 0 1 .737 0" fill="#64a330"/><path d="M20.06 27.966c0 .867-.165.72-.369.72-.203 0-.368.221-.368-.72a.369.369 0 0 1 .737 0" fill="#64a330"/><path d="M20.627 27.967c0 .866-.166.72-.37.72-.203 0-.368.22-.368-.72a.368.368 0 1 1 .738 0" fill="#64a330"/><path d="M21.253 27.655c0 .865-.165.719-.368.719-.203 0-.369.221-.369-.72a.368.368 0 1 1 .737 0" fill="#64a330"/><path d="M21.507 27.021c0 .866-.165.72-.369.72-.203 0-.368.222-.368-.72a.37.37 0 0 1 .737 0M19.988 28.243c0 .866-.165.72-.368.72-.204 0-.369.22-.369-.72a.368.368 0 1 1 .737 0M22.244 26.894c0 .866-.165.721-.368.721-.204 0-.369.22-.369-.72a.369.369 0 0 1 .737 0M23.047 26.27c0 .866-.165.72-.369.72-.203 0-.368.22-.368-.72a.368.368 0 1 1 .737 0" fill="#64a330"/><path d="M21.702 27.413c0 .676-.129.562-.287.562-.16 0-.288.171-.288-.562a.288.288 0 1 1 .575 0M22.613 26.505c0 .866-.165.72-.369.72-.203 0-.368.22-.368-.72a.369.369 0 0 1 .737 0" fill="#64a330"/><path d="M22.792 26.888c0 .421-.08.35-.179.35-.1 0-.18.108-.18-.35a.18.18 0 1 1 .359 0M23.38 26.587c0 .485-.092.404-.207.404-.114 0-.206.123-.206-.404a.206.206 0 1 1 .413 0M20 28.67c0 .643-.123.535-.274.535-.151 0-.273.164-.273-.535a.274.274 0 1 1 .546 0M25.926 24.103c0 .895-.17.745-.38.745s-.381.228-.381-.745a.38.38 0 1 1 .761 0" fill="#64a330"/><path d="M26.112 24.533c0 .642-.123.534-.274.534-.15 0-.274.164-.274-.534a.274.274 0 0 1 .548 0M27.391 23.278c0 .866-.165.721-.368.721-.204 0-.369.22-.369-.72a.369.369 0 0 1 .737 0" fill="#64a330"/><path d="M26.647 23.795c0 .866-.165.72-.369.72-.203 0-.368.221-.368-.72a.37.37 0 0 1 .737 0" fill="#64a330"/><path d="M27.214 23.795c0 .866-.166.72-.369.72-.203 0-.369.221-.369-.72a.37.37 0 0 1 .738 0" fill="#64a330"/><path d="M27.84 23.482c0 .867-.165.721-.368.721-.204 0-.369.22-.369-.72a.368.368 0 0 1 .738 0" fill="#64a330"/><path d="M28.094 22.85c0 .866-.165.72-.368.72-.204 0-.37.22-.37-.72a.369.369 0 0 1 .738 0M26.575 24.071c0 .867-.165.72-.368.72-.204 0-.369.222-.369-.72a.369.369 0 0 1 .737 0M28.831 22.723c0 .866-.165.72-.368.72-.204 0-.369.22-.369-.72a.368.368 0 1 1 .737 0M29.635 22.098c0 .866-.166.72-.369.72-.204 0-.369.22-.369-.72a.368.368 0 1 1 .738 0" fill="#64a330"/><path d="M28.289 23.24c0 .677-.129.563-.287.563-.16 0-.288.172-.288-.562a.288.288 0 0 1 .575 0M29.2 22.333c0 .866-.165.721-.369.721-.203 0-.368.22-.368-.72a.369.369 0 0 1 .737 0" fill="#64a330"/><path d="M29.379 22.716c0 .421-.08.35-.18.35-.098 0-.179.108-.179-.35a.18.18 0 1 1 .359 0M29.967 22.416c0 .485-.093.403-.206.403-.115 0-.207.124-.207-.403a.207.207 0 1 1 .413 0M26.586 24.499c0 .643-.122.534-.273.534-.151 0-.274.165-.274-.534a.274.274 0 0 1 .547 0" fill="#64a330"/></svg>