<svg xmlns="http://www.w3.org/2000/svg" viewBox="0 0 108.823 79.467"><path d="M60.764 72.774L6.506 38.596 48.06 12.468l54.258 34.174-41.554 26.132" fill="#d5852e"/><path d="M97.132 46.207L48.747 15.732l-37.055 23.3L60.076 69.51zM60.345 70.79L9.657 38.86l38.82-24.41 50.69 31.927L60.344 70.79" fill="#fff"/><path d="M95.329 48.33L45.347 16.852l.681-.362 49.983 31.472-.682.366M63.197 68.785L13.215 37.31l.68-.362L63.879 68.42l-.681.366m16.388-11.088L29.604 26.22l.68-.362L80.267 57.33l-.681.367" fill="#fff"/><path d="M55.744 23.095L23.48 42.968l-.815-.5 32.507-19.815.572.442m31.148 19.526l-32.72 20.213-.676-.467 32.788-20.37.608.624" fill="#fff"/><path d="M34.348 33.58l-5.587-3.553 7.05-4.434 5.587 3.554-7.05 4.434m40.128 25.135l-5.587-3.554 7.051-4.434 5.587 3.554-7.051 4.434" fill="#d5852e"/><path d="M48.694.236h-.397v10.218h.397V.236m.771.536h-.397V10.99h.397V.772m10.462 6.542h-.396v10.218h.396V7.314m.772.536h-.397v10.217h.397V7.85" fill="#201d1c"/><path d="M48.51 1.097l-.213.335 12.098 7.693.212-.335L48.51 1.097m-.106 8.575l-.107.168 12.098 7.692.106-.168-12.097-7.692" fill="#201d1c"/><path d="M49.354 2.196l-.058.042 10.148 14.724.058-.042L49.354 2.196m.169-.454l-.058.042 10.15 14.724.057-.043-10.15-14.723m1.028.804l-.058.043 9.248 13.49.058-.043-9.247-13.49m.508.172L51 2.76l8.665 12.692.058-.043-8.665-12.69m1.254 1.005l-.058.043 7.297 10.816.058-.042-7.297-10.817m.339.018l-.057.043 7.06 10.493.058-.043-7.06-10.493m.809.508l-.057.043 6.423 9.62.058-.042-6.424-9.621m.705.44l-.058.042 5.74 8.684.058-.042-5.74-8.685m1.344 1.086l-.057.042 4.135 6.485.058-.042-4.135-6.485m.452.171l-.058.043 3.832 6.069.057-.042-3.831-6.07m.727.394l-.058.043 3.14 5.122.058-.043-3.14-5.121m.639.349l-.059.043 2.398 4.104.058-.042-2.397-4.105m.831.582l-.057.045 1.735 2.977.056-.045-1.735-2.977m.64.434l-.054.049 1.107 1.95.054-.047-1.107-1.952m-.461 8.474l.184.146L49.465 2.86l-.058.042 8.93 13.28m-.846-.537l.058-.042L49.29 3.311l-.058.042 8.26 12.292m-.783-.492l.059-.042L49.16 3.74l-.059.041 7.608 11.372m-.706-.485l.059-.042-6.836-10.26-.058.043 6.835 10.259m-1.022-.723l.059-.042-5.709-8.666-.058.041 5.708 8.667m-.462-.179l.181.115-5.475-8.34-.059.042 5.353 8.183m-.839-.606l.058-.041-4.596-7.026-.059.042 4.596 7.026m-.699-.448l.058-.042-3.867-6.023-.058.042 3.867 6.023m-1.033-.655l.058-.042-2.737-4.498-.058.041 2.737 4.499m-.45-.177l.059-.042-2.317-3.886-.058.04 2.316 3.888m-.857-.646l.058-.041-1.513-2.697-.008.132 1.462 2.606m-.634-.356l.058-.042-.891-1.856-.059.042.892 1.856m10.677-2.922h-.397v10.22h.397V7.956m.772.537h-.397v10.219h.397V8.492m10.462 6.543h-.397v10.219h.397V15.035m.772.535h-.397v10.22h.397V15.57" fill="#201d1c"/><path d="M60.499 8.819l-.214.335 12.098 7.692.213-.335L60.5 8.82m-.108 8.573l-.107.168 12.098 7.693.106-.168-12.097-7.693" fill="#201d1c"/><path d="M61.342 9.918l-.057.042 10.148 14.724.058-.043L61.342 9.918m.17-.455l-.058.043 10.15 14.723.057-.042L61.512 9.463m1.028.805l-.058.042 9.247 13.49.058-.043-9.248-13.489m.509.171l-.058.043 8.665 12.69.058-.041-8.665-12.692m1.252 1.006l-.057.043 7.297 10.817.058-.043L64.3 11.445m.34.019l-.058.042 7.062 10.493.057-.042-7.06-10.493m.809.508l-.057.041 6.423 9.621.058-.042-6.423-9.62m.704.439l-.058.042 5.74 8.685.058-.043-5.74-8.684m1.345 1.085l-.058.043 4.135 6.484.058-.042-4.136-6.485m.453.172l-.058.042 3.831 6.07.058-.043-3.831-6.069m.728.394l-.059.043 3.14 5.121.058-.042-3.14-5.122m.639.349l-.059.043 2.398 4.105.058-.043-2.397-4.105m.83.583l-.056.044 1.735 2.978.055-.046-1.734-2.976m.64.434l-.054.048 1.107 1.95.054-.047-1.107-1.951m-.461 8.474l.184.145-9.057-13.466-.058.041 8.93 13.28m-.846-.535l.059-.042-8.26-12.292-.058.041 8.26 12.293m-.783-.493l.058-.042-7.607-11.371-.059.042 7.608 11.371m-.706-.484l.059-.043-6.836-10.258-.058.04 6.835 10.26m-1.022-.723l.059-.042-5.708-8.666-.059.042 5.708 8.666m-.463-.178l.182.115-5.475-8.34-.059.041 5.352 8.184m-.839-.606l.059-.041-4.596-7.026-.058.041 4.595 7.026m-.699-.447l.059-.042-3.868-6.023-.058.041 3.867 6.024m-1.033-.655l.058-.042-2.737-4.498-.058.04 2.737 4.5m-.45-.178l.058-.04-2.316-3.888-.058.042 2.316 3.886m-.858-.645l.059-.042-1.513-2.697-.008.132 1.462 2.607m-.634-.357l.058-.041-.891-1.857-.059.042.892 1.857m10.83-3.078h-.397v10.218h.397V15.523m.771.536H73.2v10.218h.396V16.059m10.461 6.542h-.396V32.82h.396V22.601m.772.536h-.397v10.217h.397V23.137" fill="#201d1c"/><path d="M72.64 16.384l-.213.336 12.097 7.692.213-.335-12.097-7.693m-.107 8.575l-.106.168 12.097 7.692.107-.167-12.098-7.693" fill="#201d1c"/><path d="M73.483 17.483l-.058.043 10.15 14.724.057-.043-10.15-14.724m.171-.454l-.058.042 10.149 14.724.058-.043L73.653 17.03m1.027.804l-.058.042 9.248 13.49.058-.043-9.248-13.49m.508.172l-.058.042 8.666 12.692.058-.043-8.666-12.69m1.254 1.005l-.058.043L83.68 29.87l.058-.042-7.297-10.817m.34.019l-.057.042 7.06 10.493.059-.043L76.78 19.03m.812.507l-.058.043 6.423 9.62.058-.042-6.423-9.621m.704.44l-.058.042 5.74 8.684.058-.042-5.74-8.684m1.344 1.085l-.057.043 4.135 6.484.058-.042-4.135-6.485m.451.171l-.058.043 3.833 6.069.057-.042-3.832-6.07m.728.395l-.058.042 3.14 5.122.058-.042-3.14-5.122m.639.349l-.058.043 2.397 4.104.058-.042-2.397-4.105m.83.583l-.057.044 1.735 2.977.057-.045-1.735-2.977m.64.434l-.054.049 1.107 1.95.053-.047-1.106-1.952m-.462 8.475l.185.145-9.057-13.466-.058.04 8.93 13.281m-.846-.536l.059-.041-8.26-12.293-.058.042 8.26 12.292m-.783-.492l.058-.042-7.607-11.37-.059.04L80.84 30.44m-.707-.485l.058-.042-6.835-10.259-.058.042 6.835 10.26m-1.022-.724l.059-.042-5.709-8.666-.058.042 5.708 8.666m-.462-.179l.182.115-5.476-8.34-.059.042 5.353 8.183m-.839-.605l.058-.042-4.596-7.026-.058.042 4.595 7.026M77.11 28l.059-.041-3.868-6.024-.058.042L77.11 28m-1.033-.655l.058-.042-2.737-4.498-.058.041 2.737 4.499m-.45-.177l.058-.042-2.316-3.886-.058.041 2.316 3.887m-.858-.646l.058-.041-1.513-2.697-.007.132 1.462 2.606m-.634-.356l.058-.042-.892-1.855-.058.042.892 1.855m10.678-2.921h-.397v10.218h.397V23.245m.771.535h-.397v10.219h.397V23.78m10.462 6.542h-.397v10.219h.397V30.322m.772.535h-.397v10.22h.397v-10.22" fill="#201d1c"/><path d="M84.629 24.106l-.213.335 12.097 7.692.213-.334-12.097-7.693m-.107 8.574l-.106.168 12.097 7.693.106-.167-12.097-7.693" fill="#201d1c"/><path d="M85.472 25.205l-.058.042 10.15 14.724.057-.043-10.149-14.723m.17-.455l-.058.043 10.149 14.723.058-.042L85.642 24.75m1.027.806l-.058.042 9.248 13.49.058-.044-9.248-13.488m.508.17l-.057.043 8.665 12.691.058-.042-8.666-12.692m1.253 1.006l-.057.043 7.297 10.817.058-.043-7.298-10.817m.34.019l-.058.042 7.06 10.493.06-.042-7.062-10.493m.81.508l-.057.042 6.423 9.62.058-.042-6.423-9.62m.704.439l-.058.042 5.74 8.685.058-.043-5.74-8.684m1.345 1.085l-.058.043 4.135 6.484.058-.042-4.135-6.485m.451.172l-.058.042 3.832 6.07.058-.043-3.832-6.069m.729.395l-.058.042 3.139 5.122.058-.043-3.14-5.122m.638.35l-.058.042 2.398 4.105.058-.043-2.398-4.104m.831.582l-.057.044 1.735 2.978.057-.046-1.735-2.976m.64.434l-.054.048 1.107 1.95.053-.047-1.106-1.951m-.462 8.474l.185.146-9.057-13.467-.058.042 8.93 13.279m-.846-.535l.059-.042-8.26-12.292-.058.042 8.259 12.292m-.782-.492l.058-.042-7.608-11.372-.057.042 7.607 11.372m-.706-.485l.058-.042-6.836-10.26-.057.042 6.835 10.26m-1.022-.724l.06-.042-5.71-8.665-.058.041 5.709 8.666m-.464-.178l.182.115-5.475-8.34-.059.041 5.352 8.184m-.839-.605l.059-.042-4.596-7.026-.058.041 4.595 7.026m-.699-.447l.059-.042-3.868-6.023-.059.042 3.868 6.023m-1.034-.655l.059-.042-2.737-4.498-.059.041 2.737 4.499m-.449-.177l.058-.042-2.316-3.887-.058.042 2.316 3.887m-.858-.646l.058-.042-1.513-2.697-.007.132 1.462 2.607m-.634-.356l.058-.042-.892-1.856-.059.042.893 1.856m10.694-2.833h-.397v10.219h.397V31.055m.772.535h-.397v10.22h.397V31.59m10.462 6.543h-.397V48.35h.397V38.133m.771.535h-.396v10.219h.396V38.668" fill="#201d1c"/><path d="M96.634 31.916l-.213.335 12.097 7.693.213-.335-12.097-7.693m-.107 8.574l-.106.169 12.097 7.692.107-.167-12.098-7.693" fill="#201d1c"/><path d="M97.477 33.015l-.057.043 10.149 14.723.058-.042-10.15-14.724m.17-.455l-.057.043 10.148 14.724.058-.042L97.647 32.56m1.027.806l-.057.042 9.247 13.49.058-.043-9.248-13.49m.509.172l-.058.042 8.666 12.692.057-.043-8.665-12.69m1.253 1.005l-.058.043 7.298 10.816.057-.042-7.297-10.817m.34.017l-.058.044 7.06 10.493.059-.043-7.061-10.493m.81.508l-.058.043 6.423 9.62.058-.042-6.423-9.621m.704.439l-.057.043 5.74 8.684.057-.042-5.74-8.685m1.345 1.086l-.058.042 4.136 6.485.058-.042-4.136-6.485m.451.171l-.057.043 3.832 6.069.058-.042-3.833-6.07m.729.395l-.058.042 3.139 5.122.058-.043-3.14-5.12m.639.349l-.058.042 2.398 4.104.058-.042-2.398-4.105m.83.581l-.056.046 1.735 2.977.056-.045-1.735-2.977m.64.434l-.054.049 1.108 1.95.053-.047-1.107-1.952M106.462 47l.184.145-9.056-13.467-.059.042 8.93 13.28m-.846-.536l.059-.042-8.26-12.291-.058.042 8.26 12.291m-.782-.492l.057-.042-7.607-11.371-.058.041 7.608 11.372m-.707-.485l.059-.042-6.836-10.259-.058.042 6.835 10.259m-1.021-.723l.059-.042-5.71-8.666-.058.042 5.709 8.666m-.463-.179l.182.115-5.476-8.34-.058.042 5.352 8.183m-.839-.605l.058-.042-4.596-7.026-.058.042 4.596 7.026m-.7-.448l.059-.041-3.868-6.024-.058.042 3.867 6.023m-1.033-.655l.059-.042-2.737-4.498-.059.041 2.737 4.499m-.449-.177l.057-.042-2.315-3.886-.059.041 2.317 3.888m-.859-.647l.059-.041-1.514-2.697-.006.132 1.461 2.606m-.633-.356l.057-.042-.892-1.856-.058.042.892 1.856M.397 30.816H0v10.22h.397v-10.22m.771.536H.772V41.57h.396V31.352m10.462 6.542h-.396v10.219h.396V37.894m.772.536h-.397v10.218h.397V38.43" fill="#201d1c"/><path d="M.213 31.677L0 32.012l12.098 7.693.213-.335L.213 31.677m-.106 8.575L0 40.42l12.098 7.693.106-.168L.107 40.252" fill="#201d1c"/><path d="M1.057 32.777l-.058.042 10.148 14.724.058-.043L1.057 32.777m.169-.455l-.058.043 10.15 14.723.058-.042-10.15-14.724m1.028.805l-.058.042 9.247 13.49.058-.043-9.247-13.489m.508.171l-.058.043 8.665 12.69.058-.041-8.665-12.692m1.253 1.006l-.058.043 7.297 10.817.058-.043-7.297-10.817m.339.019l-.058.042 7.062 10.493.058-.042-7.062-10.493m.811.507l-.058.042 6.424 9.621.057-.042-6.423-9.62m.704.439l-.058.042 5.74 8.684.058-.042-5.74-8.684m1.345 1.085l-.058.043 4.135 6.484.058-.042-4.135-6.485m.452.172l-.058.042 3.832 6.07.057-.043-3.831-6.069m.728.394l-.059.043 3.14 5.121.058-.042-3.14-5.122m.639.349l-.058.043 2.397 4.105.058-.043-2.397-4.105m.831.582l-.057.044 1.735 2.979.056-.046-1.734-2.977m.639.435l-.054.048 1.107 1.95.054-.047-1.107-1.951m-.462 8.473l.185.146-9.057-13.467-.057.042 8.93 13.28m-.846-.535l.058-.042-8.26-12.292-.058.041 8.26 12.293m-.783-.493l.059-.042L.863 34.32l-.058.042 7.607 11.371m-.706-.485l.059-.042L.929 34.948l-.058.04 6.835 10.26m-1.021-.723l.058-.042-5.708-8.666-.059.042 5.709 8.666m-.463-.178l.182.115-5.476-8.34-.059.04 5.353 8.185m-.84-.607l.059-.04-4.596-7.026-.058.041 4.595 7.026m-.699-.447l.059-.042-3.868-6.023-.058.041 3.867 6.024m-1.033-.656l.058-.041-2.737-4.498-.058.04 2.737 4.5m-.45-.178l.059-.04-2.317-3.888-.058.041L3.2 42.461m-.858-.645l.059-.042-1.513-2.697-.007.132 1.461 2.607m-.634-.356l.058-.042-.891-1.857-.059.042.892 1.857m10.678-2.922h-.397v10.218h.397V38.538m.771.535h-.397v10.219h.397V39.073m10.463 6.543h-.397v10.218h.397V45.616m.771.535h-.397V56.37h.397V46.151" fill="#201d1c"/><path d="M12.202 39.399l-.213.335 12.098 7.692.212-.334-12.097-7.693m-.106 8.575l-.107.167 12.098 7.693.106-.168-12.097-7.692m.95-7.477l-.058.044 10.149 14.723.057-.042-10.148-14.725" fill="#201d1c"/><path d="M13.215 40.043l-.058.042 10.15 14.725.057-.043-10.149-14.724m1.028.805l-.058.043 9.247 13.489.058-.042-9.247-13.49m.508.172l-.058.042 8.665 12.692.058-.043-8.665-12.691m1.253 1.006l-.058.043 7.297 10.816.058-.042-7.297-10.817m.339.018l-.057.042 7.06 10.493.058-.042-7.06-10.493m.81.508l-.058.042 6.423 9.62.059-.042-6.424-9.62m.704.439l-.058.043 5.74 8.684.058-.042-5.74-8.685m1.345 1.085l-.058.043 4.136 6.485.057-.042-4.135-6.486m.452.172l-.058.043 3.832 6.069.058-.043-3.832-6.07m.727.396l-.057.042 3.14 5.122.057-.043-3.14-5.121m.639.349l-.059.043 2.398 4.104.058-.043-2.397-4.104m.83.582l-.056.044 1.735 2.978.056-.045-1.735-2.977m.639.434l-.053.049 1.107 1.95.054-.047-1.107-1.952m-.461 8.475l.184.145-9.057-13.467-.058.041 8.93 13.28m-.845-.536l.057-.04-8.259-12.293-.058.042 8.26 12.291m-.783-.491l.059-.042-7.608-11.371-.059.041 7.608 11.372m-.705-.485l.058-.042-6.836-10.26-.057.043 6.835 10.259m-1.022-.723l.058-.042-5.708-8.666-.06.041 5.71 8.667m-.464-.179l.182.115-5.475-8.34-.059.042 5.353 8.183m-.84-.605l.059-.042-4.596-7.026-.059.042 4.596 7.026m-.699-.448l.058-.041-3.867-6.024-.058.042 3.867 6.023m-1.032-.655l.057-.043-2.737-4.498-.058.042 2.737 4.499m-.449-.177l.058-.042-2.317-3.887-.058.042 2.316 3.887m-.857-.646l.058-.042-1.513-2.696-.008.131 1.463 2.607m-.635-.357l.059-.041-.892-1.856-.059.042.892 1.856m10.83-3.078h-.397v10.22h.397v-10.22m.771.536h-.396v10.219h.396V46.639m10.462 6.542h-.396V63.4h.397V53.18m.771.536h-.397v10.22h.397v-10.22" fill="#201d1c"/><path d="M24.343 46.965l-.213.335 12.097 7.692.213-.334-12.097-7.693m-.107 8.575l-.106.167L36.227 63.4l.107-.167-12.098-7.693" fill="#201d1c"/><path d="M25.186 48.064l-.058.042 10.15 14.724.058-.043-10.15-14.723m.17-.454l-.058.042 10.15 14.723.057-.042L25.356 47.61m1.027.805l-.058.041 9.248 13.49.058-.043-9.248-13.488m.509.17l-.058.043 8.665 12.691.059-.042-8.666-12.692m1.253 1.006l-.058.043 7.297 10.817.058-.043-7.297-10.817m.34.019l-.058.042 7.06 10.493.059-.042-7.061-10.493m.81.508l-.058.042 6.423 9.62.058-.042-6.423-9.62m.705.439l-.059.042 5.74 8.685.058-.043L30 50.557m1.344 1.085l-.058.043 4.136 6.484.058-.042-4.136-6.485m.451.172l-.058.042 3.833 6.07.058-.043-3.833-6.069m.729.394l-.058.043 3.139 5.121.058-.042-3.14-5.122m.638.35l-.057.042 2.397 4.105.058-.043-2.398-4.104m.831.582l-.057.044 1.735 2.978.057-.046-1.735-2.976m.64.434l-.054.048 1.108 1.95.053-.047-1.107-1.951m-.462 8.474l.185.145-9.057-13.466-.058.042 8.93 13.279m-.846-.535l.059-.042-8.26-12.292-.058.042 8.26 12.292m-.783-.493l.058-.041-7.607-11.372-.058.042 7.607 11.372m-.706-.485l.059-.042-6.836-10.26-.058.042 6.835 10.26m-1.021-.724l.058-.042-5.709-8.666-.058.042 5.709 8.666m-.463-.178l.182.115-5.476-8.34-.058.041 5.352 8.184m-.839-.606l.058-.041-4.596-7.026-.058.041 4.596 7.026m-.7-.448l.059-.041-3.868-6.023-.058.042 3.867 6.023m-1.033-.655l.058-.042-2.736-4.498-.059.041 2.737 4.499m-.45-.177l.058-.042-2.315-3.887-.059.042 2.316 3.887m-.858-.646l.059-.042-1.513-2.697-.007.132 1.461 2.607m-.634-.356l.058-.042-.892-1.857-.058.042.892 1.857m10.678-2.922h-.397v10.219h.397V53.825m.772.535h-.397v10.22h.397V54.36m10.462 6.543h-.397V71.12h.397V60.903m.771.535h-.396v10.219h.396V61.438" fill="#201d1c"/><path d="M36.332 54.686l-.213.335 12.097 7.693.213-.335-12.097-7.693m-.107 8.574l-.106.169 12.097 7.692.107-.168-12.098-7.692" fill="#201d1c"/><path d="M37.175 55.785l-.058.043 10.15 14.723.057-.042-10.149-14.724m.17-.455l-.057.043 10.148 14.724.058-.042L37.345 55.33m1.027.806l-.058.042 9.248 13.49.058-.043-9.248-13.49m.508.172l-.058.042 8.666 12.692.058-.043-8.666-12.69m1.254 1.005l-.058.043 7.297 10.816.058-.042-7.297-10.817m.339.018l-.057.043 7.06 10.493.059-.043-7.062-10.493m.811.508l-.058.043 6.423 9.62.058-.042-6.423-9.621m.704.44l-.058.042 5.74 8.684.058-.042-5.74-8.684m1.345 1.085l-.058.042 4.136 6.485.057-.042-4.135-6.485m.451.171l-.058.043 3.833 6.069.058-.042-3.833-6.07m.728.395l-.057.042 3.139 5.122.058-.042-3.14-5.122m.638.35l-.057.042 2.398 4.104.057-.042-2.397-4.105m.829.581l-.056.046 1.735 2.977.057-.045-1.735-2.977m.64.434l-.054.049 1.107 1.95.054-.047-1.107-1.952m-.461 8.475l.184.145-9.056-13.467-.059.042 8.93 13.28m-.846-.536l.059-.042-8.26-12.291-.058.042 8.26 12.29m-.783-.491l.058-.042-7.607-11.371-.058.041 7.607 11.372m-.706-.485l.058-.042-6.835-10.259-.058.042 6.835 10.259m-1.021-.723l.059-.042-5.71-8.666-.058.042 5.709 8.666m-.464-.179l.183.115-5.476-8.34-.059.042 5.353 8.183m-.84-.605l.059-.042-4.596-7.026-.058.042L41.5 66.75m-.698-.448l.059-.041-3.868-6.023-.058.041 3.867 6.023m-1.033-.655l.058-.042-2.737-4.498-.058.041 2.737 4.499m-.449-.177l.057-.042-2.316-3.886-.058.041 2.317 3.888m-.86-.647l.06-.041-1.514-2.697-.007.132 1.462 2.606m-.634-.356l.058-.042-.892-1.856-.058.042.892 1.856m10.694-2.833h-.396v10.22h.396v-10.22m.772.535h-.397v10.22h.397V62.17m10.462 6.543h-.397v10.219h.397V68.713m.772.535h-.397v10.22h.397v-10.22" fill="#201d1c"/><path d="M48.337 62.497l-.212.334 12.097 7.694.212-.336-12.097-7.692m-.107 8.574l-.105.168 12.097 7.693.106-.168-12.098-7.693" fill="#201d1c"/><path d="M49.18 63.596l-.057.042 10.149 14.724.058-.043-10.15-14.723m.17-.456l-.057.044 10.149 14.723.058-.042-10.15-14.724m1.027.805l-.057.042 9.248 13.49.057-.043-9.248-13.489m.509.171l-.058.043 8.666 12.69.058-.041-8.666-12.692m1.254 1.006l-.059.043 7.298 10.817.058-.043-7.298-10.817m.34.019l-.058.042 7.06 10.493.06-.042-7.062-10.493m.811.508l-.059.041 6.423 9.621.058-.042-6.423-9.62m.704.439l-.058.042 5.74 8.685.059-.043-5.74-8.684m1.344 1.086l-.057.042 4.135 6.484.058-.042-4.136-6.484m.452.171l-.058.042 3.832 6.07.058-.043-3.832-6.069m.728.394l-.058.043 3.14 5.121.057-.042-3.139-5.122m.638.35l-.058.042 2.398 4.105.058-.043-2.398-4.105m.83.583l-.056.044 1.735 2.978.056-.046-1.735-2.976m.64.434l-.053.048 1.107 1.95.053-.047-1.107-1.951m-.461 8.474l.184.145-9.056-13.467-.059.042 8.93 13.28m-.845-.535l.058-.042-8.259-12.292-.059.041 8.26 12.293m-.782-.492l.057-.043-7.607-11.371-.058.042 7.608 11.372m-.707-.485l.059-.043-6.836-10.258-.058.041 6.835 10.26m-1.02-.724l.058-.042-5.71-8.666-.057.042 5.708 8.666m-.463-.178l.182.115-5.476-8.34-.058.041 5.352 8.184m-.839-.606l.058-.041-4.595-7.026-.059.041 4.596 7.026m-.699-.447l.058-.042L49 68.048l-.059.041 3.868 6.024m-1.035-.655l.059-.042-2.737-4.498-.059.04 2.737 4.5m-.449-.178l.058-.04-2.316-3.888-.059.042 2.317 3.886m-.859-.645l.059-.042-1.513-2.697-.007.132 1.461 2.607m-.634-.356l.058-.042L49 70.38l-.059.043.892 1.856m58.487-33.755h.397v10.219h-.397v-10.22m-.772.536h.397v10.219h-.397v-10.22m-10.462 6.543h.397V55.82h-.397V45.601m-.772.536h.397v10.219h-.397v-10.22" fill="#201d1c"/><path d="M108.504 39.385l.213.335-12.098 7.693-.213-.335 12.098-7.693m.106 8.575l.107.167-12.098 7.693-.106-.168 12.097-7.692" fill="#201d1c"/><path d="M107.66 40.484l.058.042L97.569 55.25l-.058-.042 10.149-14.724m-.17-.455l.058.043-10.15 14.724-.057-.042 10.15-14.725m-1.028.806l.058.042-9.247 13.49-.058-.043 9.247-13.49m-.509.171l.058.043-8.665 12.691-.058-.042 8.665-12.692m-1.252 1.006l.058.043-7.298 10.817-.058-.043 7.298-10.817m-.34.019l.058.042-7.061 10.493-.058-.042 7.061-10.493m-.81.508l.058.042-6.424 9.62-.058-.042 6.424-9.62m-.704.44l.058.041-5.74 8.685-.059-.043 5.74-8.683m-1.344 1.085l.057.042-4.135 6.484-.058-.042 4.136-6.484m-.453.171l.059.042-3.832 6.07-.058-.043 3.832-6.069m-.728.394l.058.043-3.14 5.121-.058-.042 3.14-5.122m-.639.35l.059.042-2.398 4.105-.058-.043 2.397-4.104m-.83.582l.056.044-1.734 2.978-.056-.045 1.734-2.977m-.639.434l.053.048-1.107 1.95-.054-.047 1.108-1.95m.46 8.473l-.183.146 9.056-13.467.058.042-8.93 13.28m.846-.536l-.058-.042 8.26-12.292.058.042-8.26 12.292m.783-.493l-.059-.041 7.607-11.372.059.042-7.607 11.372m.705-.485l-.058-.042 6.835-10.259.058.041-6.835 10.26m1.022-.724l-.059-.042 5.709-8.665.058.042-5.708 8.665m.463-.178l-.182.115 5.476-8.34.058.041-5.352 8.184m.839-.606l-.058-.041 4.595-7.026.059.041-4.596 7.026m.699-.447l-.058-.042 3.867-6.023.058.042L104.033 51m1.033-.654l-.057-.042 2.736-4.498.058.041-2.737 4.499m.45-.177l-.058-.042 2.316-3.887.059.042-2.317 3.887m.858-.646l-.058-.042 1.513-2.697.007.133-1.462 2.606m.635-.356l-.059-.042.892-1.856.058.042-.891 1.856M96.33 46.245h.398v10.218h-.397V46.245m-.772.535h.397V57h-.397V46.781m-10.462 6.542h.397v10.218h-.397V53.323m-.771.535h.396v10.218h-.396V53.858" fill="#201d1c"/><path d="M96.515 47.106l.213.336-12.098 7.692-.213-.335 12.098-7.693m.105 8.575l.108.168-12.098 7.692-.106-.167L96.62 55.68" fill="#201d1c"/><path d="M95.67 48.205l.059.043L85.58 62.972l-.058-.043 10.149-14.724m-.17-.455l.058.043L85.41 62.517l-.058-.043 10.15-14.723m-1.028.805l.058.042-9.248 13.49-.057-.042 9.247-13.49m-.508.171l.057.042-8.665 12.692-.058-.043 8.666-12.69m-1.253 1.005l.058.043-7.298 10.816-.057-.042 7.297-10.817m-.34.018l.058.043-7.06 10.493-.059-.043 7.061-10.493m-.81.508l.058.043-6.424 9.62-.058-.042 6.424-9.621m-.704.439l.057.043-5.74 8.684-.057-.042 5.74-8.685m-1.345 1.086l.058.043-4.136 6.484-.058-.042 4.136-6.485m-.452.171l.058.043-3.832 6.069-.058-.042 3.832-6.07m-.728.395l.058.042-3.14 5.122-.058-.042 3.14-5.122m-.639.35l.059.042-2.398 4.104-.058-.042 2.397-4.105m-.83.582l.057.045-1.735 2.977-.056-.045 1.734-2.977m-.639.434l.054.049-1.108 1.95-.053-.047 1.107-1.952m.461 8.475l-.184.145 9.056-13.466.058.04-8.93 13.281m.846-.536l-.058-.041 8.26-12.293.058.042-8.26 12.292m.782-.492l-.058-.042 7.608-11.37.058.04-7.608 11.372m.706-.485l-.059-.042 6.836-10.259.058.042-6.835 10.26m1.022-.724l-.059-.042 5.709-8.666.058.042-5.708 8.666m.463-.179l-.182.115 5.476-8.34.058.042-5.352 8.183m.839-.605l-.058-.042 4.596-7.026.058.042-4.596 7.026m.7-.448l-.059-.041 3.867-6.024.058.042-3.866 6.023m1.032-.655l-.058-.042 2.737-4.498.058.041-2.737 4.499m.45-.177l-.058-.041 2.316-3.887.059.041-2.317 3.887m.858-.646l-.059-.041 1.513-2.697.008.132-1.462 2.606m.635-.356l-.059-.042.892-1.856.058.043-.891 1.855m-10.83-3.077h.397V64.03h-.397V53.81m-.772.536h.397v10.219h-.397V54.346m-10.462 6.542h.397v10.22h-.397v-10.22m-.772.536h.397v10.219h-.397v-10.22" fill="#201d1c"/><path d="M84.374 54.672l.213.335L72.489 62.7l-.213-.335 12.098-7.693m.106 8.575l.107.167-12.098 7.693-.106-.167 12.097-7.693" fill="#201d1c"/><path d="M83.53 55.771l.058.042-10.15 14.725-.057-.043 10.15-14.724m-.171-.455l.058.043-10.149 14.724-.057-.042L83.36 55.316m-1.027.806l.058.042-9.248 13.49-.058-.043 9.248-13.489m-.508.171l.058.042-8.666 12.692-.058-.043 8.666-12.691m-1.253 1.006l.057.043-7.297 10.816-.058-.042 7.298-10.817m-.34.018l.058.042-7.06 10.493-.059-.042 7.06-10.493m-.809.508l.057.042-6.423 9.62-.057-.042 6.423-9.62m-.705.44l.058.042-5.74 8.684-.058-.043 5.74-8.683m-1.344 1.085l.057.043-4.135 6.483-.058-.042 4.136-6.484m-.452.171l.058.042-3.832 6.07-.058-.043 3.832-6.069m-.728.394l.058.043-3.14 5.122-.057-.042 3.139-5.123m-.638.35l.058.043-2.398 4.104-.058-.043 2.398-4.104m-.83.582l.056.044-1.735 2.978-.056-.045 1.735-2.977m-.641.434l.054.048-1.107 1.951-.053-.047 1.106-1.952m.462 8.474l-.184.146 9.056-13.467.058.042-8.93 13.28m.846-.536l-.058-.042 8.26-12.292.058.042-8.26 12.292m.782-.492l-.058-.042 7.608-11.372.058.043-7.608 11.371m.706-.485l-.058-.042 6.836-10.259.058.042-6.835 10.26m1.021-.724l-.059-.042 5.71-8.666.057.042-5.708 8.666m.463-.179l-.182.115 5.475-8.34.059.042-5.352 8.183m.839-.606l-.059-.04 4.596-7.027.059.041-4.596 7.026m.699-.447l-.058-.042 3.867-6.023.059.042-3.868 6.023m1.034-.655l-.059-.042 2.737-4.498.059.041-2.737 4.499m.449-.177l-.058-.041 2.316-3.888.059.042-2.317 3.887m.859-.646l-.06-.042 1.514-2.696.007.132-1.461 2.606m.633-.356l-.057-.042.891-1.856.059.042-.893 1.856M72.2 61.533h.398V71.75H72.2V61.533m-.771.535h.397v10.218h-.397V62.068M60.967 68.61h.397v10.22h-.397V68.61m-.772.536h.397v10.218h-.397V69.146" fill="#201d1c"/><path d="M72.385 62.393l.213.336L60.5 70.42l-.213-.335 12.097-7.693m.108 8.576l.106.168L60.5 78.83l-.107-.168 12.098-7.693" fill="#201d1c"/><path d="M71.541 63.492l.058.043L61.45 78.259l-.058-.043 10.15-14.724m-.171-.454l.058.042-10.148 14.724-.059-.042 10.15-14.724m-1.027.805l.057.043-9.248 13.489-.057-.042 9.248-13.49m-.509.172l.058.042-8.666 12.691-.058-.042 8.666-12.691m-1.253 1.005l.058.043-7.298 10.816-.058-.042 7.298-10.817m-.34.018l.058.043-7.06 10.493-.06-.043 7.062-10.493m-.81.508l.058.043-6.423 9.62-.058-.042 6.423-9.62m-.704.439l.057.043-5.74 8.683-.058-.042 5.74-8.684m-1.345 1.085l.058.043-4.135 6.484-.058-.042 4.135-6.485m-.451.172l.058.042-3.832 6.07-.058-.043 3.832-6.07m-.728.395l.058.042-3.14 5.123-.057-.043 3.14-5.122m-.639.35l.058.042-2.398 4.104-.058-.042 2.398-4.104m-.83.581l.056.045-1.735 2.977-.056-.045 1.735-2.977m-.64.434l.053.05-1.107 1.95-.053-.048 1.107-1.952m.461 8.475l-.184.146 9.056-13.467.059.041-8.93 13.28m.845-.536l-.058-.041 8.259-12.292.059.042-8.26 12.291m.782-.491l-.057-.043 7.607-11.37.058.04-7.608 11.372m.707-.485l-.059-.042 6.836-10.259.058.043-6.835 10.258m1.021-.722l-.059-.042 5.71-8.666.057.04-5.708 8.668m.463-.18l-.182.115 5.476-8.34.058.043-5.352 8.182m.839-.605l-.058-.042 4.595-7.026.059.042-4.596 7.026m.699-.447l-.058-.042 3.867-6.023.059.042-3.868 6.023m1.034-.656l-.059-.042 2.737-4.498.059.042-2.737 4.498m.449-.176l-.058-.042 2.316-3.887.059.041-2.317 3.888m.859-.647l-.059-.04 1.513-2.698.007.132-1.461 2.606m.634-.356l-.058-.042.891-1.855.059.042-.892 1.855M48.263 0h.397v10.219h-.397V0m-.772.535h.397v10.22h-.397V.534M37.029 7.077h.397v10.22h-.397V7.076m-.772.537h.397v10.219h-.397V7.612" fill="#201d1c"/><path d="M48.447.861l.213.335-12.098 7.693-.213-.335L48.447.861m.106 8.575l.107.167-12.098 7.693-.106-.167 12.097-7.693" fill="#201d1c"/><path d="M47.603 1.96l.058.042-10.149 14.725-.058-.043L47.603 1.96m-.17-.455l.058.043-10.15 14.724-.057-.042 10.15-14.725m-1.028.805l.058.043-9.247 13.49-.058-.043 9.247-13.49m-.509.172l.058.042-8.665 12.691-.057-.042 8.664-12.691m-1.252 1.006l.058.042-7.298 10.817-.057-.043 7.297-10.816m-.34.018l.058.042-7.061 10.493-.058-.042 7.061-10.493m-.81.508l.058.042-6.424 9.62-.058-.042 6.424-9.62m-.705.44l.058.042-5.74 8.684-.058-.043 5.74-8.683m-1.344 1.085l.058.043-4.136 6.483-.058-.042 4.136-6.484m-.452.171l.058.042-3.832 6.07-.058-.043 3.832-6.069m-.728.394l.058.043-3.14 5.122-.058-.042 3.14-5.123m-.638.35l.058.043-2.398 4.104-.058-.043 2.398-4.104m-.831.582l.057.044-1.735 2.978-.056-.045 1.734-2.977m-.639.434l.053.048-1.107 1.95-.054-.046 1.108-1.952m.461 8.474l-.184.146L47.49 2.623l.058.042-8.93 13.28m.847-.536l-.058-.042 8.26-12.291.058.041-8.26 12.292m.782-.492l-.058-.042 7.607-11.372.059.042-7.608 11.372m.706-.485l-.059-.042L47.73 4.131l.058.042-6.835 10.26m1.022-.724l-.059-.042L47.625 5l.059.042-5.71 8.666m.464-.178l-.182.115 5.476-8.34.058.042-5.352 8.183m.839-.606l-.059-.04 4.596-7.027.059.041-4.596 7.026m.7-.447l-.059-.042 3.868-6.023.057.042-3.866 6.023m1.033-.655l-.059-.042 2.737-4.498.058.041-2.737 4.499m.451-.177l-.06-.041 2.317-3.888.059.042-2.317 3.887m.858-.645l-.059-.043 1.514-2.696.007.132-1.462 2.606m.635-.356l-.059-.042.892-1.856.058.042-.891 1.856M36.274 7.722h.397V17.94h-.397V7.722m-.772.535h.397v10.218h-.397V8.257M25.04 14.8h.397v10.218h-.397V14.799m-.771.536h.397v10.218h-.397V15.335" fill="#201d1c"/><path d="M36.458 8.582l.213.336-12.098 7.692-.213-.335 12.098-7.693m.106 8.575l.107.168-12.098 7.693-.106-.168 12.097-7.693" fill="#201d1c"/><path d="M35.614 9.681l.058.043-10.149 14.724-.058-.042L35.614 9.68m-.17-.453l.058.042-10.149 14.724-.058-.042 10.15-14.724m-1.028.805l.058.043-9.248 13.488-.057-.042 9.247-13.49m-.508.172l.058.043L25.3 22.937l-.058-.042 8.666-12.692m-1.252 1.007l.058.042-7.298 10.816-.058-.042 7.298-10.816m-.34.018l.058.042-7.061 10.493-.058-.042 7.061-10.493m-.81.507l.058.043-6.424 9.62-.058-.042 6.424-9.62m-.704.439l.058.042-5.74 8.684-.058-.042 5.74-8.684m-1.345 1.085l.058.043-4.136 6.484-.058-.042 4.136-6.485m-.452.172l.058.042-3.832 6.07-.058-.043 3.832-6.07m-.728.395l.058.042-3.14 5.123-.058-.043 3.14-5.122m-.639.35l.059.042-2.398 4.104-.058-.042 2.397-4.104m-.83.581l.057.045-1.735 2.977-.056-.045 1.734-2.977m-.639.434l.054.05-1.108 1.95-.053-.048 1.107-1.952m.461 8.475l-.184.146 9.056-13.467.058.041-8.93 13.28m.846-.536l-.058-.041 8.26-12.292.058.042-8.26 12.291m.783-.492l-.059-.042 7.607-11.37.06.04-7.608 11.372m.705-.485l-.058-.042 6.835-10.259.058.042-6.835 10.259m1.022-.723l-.058-.042 5.708-8.665.058.04-5.708 8.668m.463-.18l-.182.115 5.476-8.34.058.042-5.352 8.183m.839-.605l-.058-.042 4.595-7.026.059.042-4.596 7.026m.699-.448l-.058-.041 3.867-6.023.058.042-3.867 6.022m1.033-.655l-.057-.042 2.736-4.498.058.042-2.737 4.498m.45-.176l-.058-.042 2.316-3.887.059.041-2.317 3.888m.858-.647l-.058-.04 1.513-2.698.007.132-1.462 2.607m.635-.357l-.059-.042.892-1.855.058.042-.891 1.855m-10.83-3.077h.397v10.219h-.397V15.287m-.773.535h.398v10.22h-.397v-10.22m-10.462 6.543h.397v10.219h-.397v-10.22m-.772.536h.397v10.22h-.397V22.9" fill="#201d1c"/><path d="M24.317 16.148l.213.335-12.097 7.693-.213-.335 12.097-7.693m.107 8.575l.106.168-12.097 7.693-.107-.168 12.098-7.693" fill="#201d1c"/><path d="M23.473 17.247l.058.042-10.15 14.725-.057-.043 10.15-14.724m-.171-.454l.058.042L13.213 31.56l-.058-.042 10.148-14.724m-1.026.804l.057.042-9.248 13.49-.058-.043 9.249-13.489m-.509.172l.058.042-8.666 12.69-.058-.041 8.666-12.692m-1.253 1.006l.058.043-7.298 10.816-.058-.042 7.298-10.817m-.34.019l.058.042-7.06 10.493-.06-.042 7.062-10.493m-.81.507l.058.043L13 28.964l-.058-.043 6.423-9.62m-.705.44l.058.042-5.74 8.684-.058-.042 5.74-8.684m-1.344 1.085l.058.043-4.136 6.484-.058-.042 4.136-6.485m-.452.172l.058.042-3.832 6.07-.058-.043 3.832-6.07m-.728.395l.058.042-3.14 5.122-.057-.042 3.14-5.122m-.639.349l.058.043-2.398 4.104-.058-.042 2.398-4.105m-.83.582l.056.045-1.735 2.977-.056-.045 1.735-2.977m-.64.434l.053.049-1.107 1.95-.053-.047 1.107-1.952m.462 8.475l-.186.145 9.057-13.467.059.042-8.93 13.28m.845-.536l-.058-.042 8.259-12.291.058.041-8.259 12.292m.782-.492l-.057-.041 7.607-11.372.058.042-7.608 11.371m.707-.484l-.059-.043 6.836-10.259.058.042-6.835 10.26m1.021-.724l-.059-.042 5.71-8.666.057.042-5.708 8.666m.463-.179l-.182.115 5.476-8.34.058.042-5.352 8.183m.839-.605l-.059-.042 4.596-7.026.059.042-4.596 7.026m.699-.447l-.058-.042 3.867-6.023.059.041-3.868 6.024m1.034-.655l-.059-.043 2.737-4.498.059.042-2.737 4.498m.449-.177l-.058-.041 2.316-3.887.059.042-2.317 3.886m.859-.645l-.059-.042 1.513-2.697.007.132-1.461 2.607m.634-.357l-.058-.042.891-1.856.059.042-.892 1.856m-10.678-2.921h.397v10.218h-.397V23.01m-.772.534h.397v10.219h-.397V23.544M.91 30.087h.397v10.218H.91V30.087m-.772.535h.397V40.84H.138V30.622" fill="#201d1c"/><path d="M12.328 23.87l.213.335L.443 31.897l-.212-.335 12.097-7.692m.107 8.574l.106.169L.443 40.305l-.106-.168 12.098-7.693" fill="#201d1c"/><path d="M11.484 24.969l.058.042L1.393 39.735l-.058-.042 10.15-14.724m-.171-.454l.058.042L1.223 39.28l-.057-.043 10.148-14.723m-1.026.806l.058.042L1.097 38.85l-.057-.042 9.248-13.49m-.509.172l.058.043L1.17 38.225l-.058-.043L9.78 25.49m-1.254 1.007l.058.042-7.298 10.817-.058-.042 7.298-10.817m-.34.018l.058.042-7.06 10.493-.059-.042 7.061-10.493m-.81.507l.058.043-6.423 9.62-.058-.042 6.423-9.62m-.704.439l.058.043-5.74 8.684-.059-.043 5.74-8.684m-1.344 1.085l.057.043-4.135 6.484-.058-.042 4.136-6.485m-.452.172l.058.043-3.832 6.068-.058-.042 3.832-6.07m-.728.396l.058.042-3.14 5.122-.057-.043 3.139-5.121m-.637.349l.057.043-2.398 4.103-.058-.041 2.398-4.105m-.83.582l.056.044L1 33.067l-.056-.045 1.735-2.977m-.64.434l.053.049-1.107 1.95-.053-.047 1.107-1.952m.461 8.474l-.184.146 9.056-13.467.059.041-8.93 13.28m.845-.535l-.058-.042 8.26-12.292.058.042-8.26 12.292m.783-.493l-.058-.042 7.607-11.37.058.04-7.607 11.372m.706-.485l-.059-.042 6.836-10.258.058.042L4.835 37.44m1.021-.722l-.059-.043 5.71-8.665.057.041-5.708 8.667m.463-.179l-.182.115 5.476-8.34.058.042-5.352 8.183m.839-.605l-.058-.042 4.595-7.026.059.042-4.596 7.026m.699-.448l-.058-.042 3.867-6.023.059.042-3.868 6.023m1.034-.656l-.059-.042 2.737-4.497.059.04-2.737 4.5m.449-.177l-.058-.042 2.316-3.887.059.041-2.317 3.888m.859-.646l-.059-.041 1.513-2.697.007.131-1.461 2.607m.634-.357l-.058-.042.891-1.855.059.042-.892 1.855" fill="#201d1c"/></svg>