<svg xmlns="http://www.w3.org/2000/svg" viewBox="0 0 294.585 236.22"><defs><clipPath clipPathUnits="userSpaceOnUse" id="b"><path d="M1068.58 1045.64h34.24v-20.21h-34.24z"/></clipPath><clipPath clipPathUnits="userSpaceOnUse" id="a"><path d="M1107.73 1023.4h34.24v-20.21h-34.24z"/></clipPath></defs><path style="fill:silver;fill-opacity:1;stroke:none;stroke-width:1px;stroke-linecap:butt;stroke-linejoin:miter;stroke-opacity:1" d="M0 132.283l114.56-66.141 180.025 103.937-114.56 66.141z"/><g style="opacity:.5" clip-path="url(#a)" transform="matrix(1.33333 0 0 -1.33333 -1370.143 1497.75)"><path style="fill:#231f20;fill-opacity:1;fill-rule:nonzero;stroke:none" d="M1141.969 1009.154l-10.033-5.96-24.203 15.287 9.568 4.923z"/></g><path style="fill:#989898;fill-opacity:1;fill-rule:nonzero;stroke:none" d="M109.125 139.848l3.211 2.032v-7.754l-3.21-2.032z"/><path style="fill:#f7fafd;fill-opacity:1;fill-rule:nonzero;stroke:none" d="M109.125 132.093l.916-.625 3.212 2.033-.917.624z"/><path style="fill:#e2e2e1;fill-opacity:1;fill-rule:nonzero;stroke:none" d="M113.253 141.256l-.916.625v-7.756l.916-.624z"/><path style="fill:#989898;fill-opacity:1;fill-rule:nonzero;stroke:none" d="M136.584 156.93l3.21 2.032v-7.754l-3.21-2.032z"/><path style="fill:#f7fafd;fill-opacity:1;fill-rule:nonzero;stroke:none" d="M136.584 149.175l.916-.625 3.212 2.033-.918.624z"/><path style="fill:#e2e2e1;fill-opacity:1;fill-rule:nonzero;stroke:none" d="M140.711 158.338l-.916.625v-7.756l.916-.624z"/><path style="fill:#989898;fill-opacity:1;fill-rule:nonzero;stroke:none" d="M121.17 137.81l3.21 2.032v-22.837l-3.21-2.033z"/><path style="fill:#f7fafd;fill-opacity:1;fill-rule:nonzero;stroke:none" d="M121.17 114.972l.916-.625 3.212 2.033-.918.624z"/><path style="fill:#e2e2e1;fill-opacity:1;fill-rule:nonzero;stroke:none" d="M125.297 139.218l-.916.625v-22.838l.916-.626z"/><path style="fill:#989898;fill-opacity:1;fill-rule:nonzero;stroke:none" d="M144.516 152.333l3.213 2.032v-22.838l-3.213-2.033z"/><path style="fill:#f7fafd;fill-opacity:1;fill-rule:nonzero;stroke:none" d="M144.516 129.494l.916-.625 3.215 2.033-.918.624z"/><path style="fill:#e2e2e1;fill-opacity:1;fill-rule:nonzero;stroke:none" d="M148.646 153.74l-.916.626v-22.84l.916-.624z"/><path style="fill:#f7fafd;fill-opacity:1;fill-rule:nonzero;stroke:none" d="M151.008 139.774l-31.221-19.621-1.325.69 31.336 19.692z"/><path style="fill:#e2e2e1;fill-opacity:1;fill-rule:nonzero;stroke:none" d="M151.008 139.774v5.044l-1.21.761v-5.044z"/><path style="fill:#989898;fill-opacity:1;fill-rule:nonzero;stroke:none" d="M149.797 140.536l-31.336-19.695v5.044l31.336 19.695z"/><path style="fill:#f7fafd;fill-opacity:1;fill-rule:nonzero;stroke:none" d="M151.008 133.97l-31.221-19.623-1.325.689 31.336 19.695z"/><path style="fill:#e2e2e1;fill-opacity:1;fill-rule:nonzero;stroke:none" d="M151.008 133.97v5.042l-1.21.763v-5.044z"/><path style="fill:#989898;fill-opacity:1;fill-rule:nonzero;stroke:none" d="M149.797 134.731l-31.336-19.695v5.044l31.336 19.694z"/><path style="fill:#f7fafd;fill-opacity:1;fill-rule:nonzero;stroke:none" d="M149.373 145.464l-31.222-19.621-5.109 2.605 31.336 19.696z"/><path style="fill:#e2e2e1;fill-opacity:1;fill-rule:nonzero;stroke:none" d="M149.373 145.464v1.048l-4.995 2.679v-1.047z"/><path style="fill:#989898;fill-opacity:1;fill-rule:nonzero;stroke:none" d="M144.378 148.144l-31.336-19.695v1.047l31.336 19.694z"/><path style="fill:#f7fafd;fill-opacity:1;fill-rule:nonzero;stroke:none" d="M143.894 148.484l-31.22-19.622-5.108 2.606 31.336 19.696z"/><path style="fill:#e2e2e1;fill-opacity:1;fill-rule:nonzero;stroke:none" d="M143.894 148.484v1.046l-4.992 2.68v-1.046z"/><g><path style="fill:#989898;fill-opacity:1;fill-rule:nonzero;stroke:none" d="M138.901 151.163l-31.336-19.694v1.046l31.336 19.695z"/></g><g><g style="opacity:.5" clip-path="url(#b)" transform="matrix(1.33333 0 0 -1.33333 -1223.754 1576.534)"><path style="fill:#231f20;fill-opacity:1;fill-rule:nonzero;stroke:none" d="M1068.58 1031.393l10.031-5.96 24.205 15.287-9.57 4.923z"/></g><path style="fill:#989898;fill-opacity:1;fill-rule:nonzero;stroke:none" d="M244.377 188.982l-3.211 2.032v-7.755l3.21-2.032z"/><path style="fill:#f7fafd;fill-opacity:1;fill-rule:nonzero;stroke:none" d="M244.377 181.227l-.916-.625-3.212 2.033.917.624z"/><path style="fill:#e2e2e1;fill-opacity:1;fill-rule:nonzero;stroke:none" d="M240.25 190.39l.915.625v-7.756l-.916-.624z"/><path style="fill:#989898;fill-opacity:1;fill-rule:nonzero;stroke:none" d="M216.918 206.064l-3.21 2.032v-7.754l3.21-2.032z"/><path style="fill:#f7fafd;fill-opacity:1;fill-rule:nonzero;stroke:none" d="M216.918 198.309l-.916-.625-3.212 2.033.918.624z"/><path style="fill:#e2e2e1;fill-opacity:1;fill-rule:nonzero;stroke:none" d="M212.79 207.472l.917.625v-7.756l-.916-.624z"/><path style="fill:#989898;fill-opacity:1;fill-rule:nonzero;stroke:none" d="M232.332 186.944l-3.21 2.032V166.14l3.21-2.033z"/><path style="fill:#f7fafd;fill-opacity:1;fill-rule:nonzero;stroke:none" d="M232.332 164.106l-.916-.626-3.212 2.034.918.624z"/><path style="fill:#e2e2e1;fill-opacity:1;fill-rule:nonzero;stroke:none" d="M228.205 188.352l.916.625V166.14l-.916-.626z"/><path style="fill:#989898;fill-opacity:1;fill-rule:nonzero;stroke:none" d="M208.983 201.466l-3.21 2.032v-22.837l3.21-2.033z"/><path style="fill:#f7fafd;fill-opacity:1;fill-rule:nonzero;stroke:none" d="M208.983 178.628l-.916-.625-3.212 2.033.918.624z"/><path style="fill:#e2e2e1;fill-opacity:1;fill-rule:nonzero;stroke:none" d="M204.856 202.874l.916.625v-22.838l-.916-.626z"/><path style="fill:#f7fafd;fill-opacity:1;fill-rule:nonzero;stroke:none" d="M202.494 188.908l31.221-19.621 1.325.689-31.336 19.693z"/><path style="fill:#e2e2e1;fill-opacity:1;fill-rule:nonzero;stroke:none" d="M202.494 188.908v5.044l1.21.761v-5.044z"/><path style="fill:#989898;fill-opacity:1;fill-rule:nonzero;stroke:none" d="M203.705 189.67l31.336-19.695v5.044l-31.336 19.695z"/><path style="fill:#f7fafd;fill-opacity:1;fill-rule:nonzero;stroke:none" d="M202.494 183.103l31.221-19.622 1.325.689-31.336 19.695z"/><path style="fill:#e2e2e1;fill-opacity:1;fill-rule:nonzero;stroke:none" d="M202.494 183.103v5.043l1.21.763v-5.044z"/><path style="fill:#989898;fill-opacity:1;fill-rule:nonzero;stroke:none" d="M203.705 183.865l31.336-19.695v5.044l-31.336 19.694z"/><path style="fill:#f7fafd;fill-opacity:1;fill-rule:nonzero;stroke:none" d="M204.13 194.598l31.22-19.621 5.107 2.605-31.333 19.696z"/><path style="fill:#e2e2e1;fill-opacity:1;fill-rule:nonzero;stroke:none" d="M204.13 194.598v1.048l4.994 2.679v-1.047z"/><path style="fill:#989898;fill-opacity:1;fill-rule:nonzero;stroke:none" d="M209.124 197.278l31.333-19.695v1.047l-31.333 19.694z"/><path style="fill:#f7fafd;fill-opacity:1;fill-rule:nonzero;stroke:none" d="M209.606 197.618l31.221-19.622 5.107 2.606-31.334 19.696z"/><path style="fill:#e2e2e1;fill-opacity:1;fill-rule:nonzero;stroke:none" d="M209.606 197.618v1.046l4.994 2.68v-1.046z"/><g><path style="fill:#989898;fill-opacity:1;fill-rule:nonzero;stroke:none" d="M214.6 200.297l31.334-19.694v1.046L214.6 201.344z"/></g></g><g><path style="fill:#eb875b;fill-opacity:1;stroke:none;stroke-width:1px;stroke-linecap:butt;stroke-linejoin:miter;stroke-opacity:1" d="M222.575 98.268v56.693l6.547 3.78v-56.694z"/><path style="fill:#bd5f21;fill-opacity:1;stroke:none;stroke-width:1px;stroke-linecap:butt;stroke-linejoin:miter;stroke-opacity:1" d="M229.122 158.74l6.546-3.78v-49.133l-6.546-3.78z"/></g><g><path d="M163.658 132.283v56.693l6.547 3.78v-56.693z" style="fill:#eb875b;fill-opacity:1;stroke:none;stroke-width:1px;stroke-linecap:butt;stroke-linejoin:miter;stroke-opacity:1"/><path d="M170.205 192.756l6.546-3.78v-49.133l-6.546-3.78z" style="fill:#bd5f21;fill-opacity:1;stroke:none;stroke-width:1px;stroke-linecap:butt;stroke-linejoin:miter;stroke-opacity:1"/></g><path style="fill:#eb875b;fill-opacity:1;stroke:none;stroke-width:1px;stroke-linecap:butt;stroke-linejoin:miter;stroke-opacity:1" d="M114.56 28.346v37.796l32.733 18.897V47.244z"/><path style="fill:#bd5f21;fill-opacity:1;stroke:none;stroke-width:1px;stroke-linecap:butt;stroke-linejoin:miter;stroke-opacity:1" d="M147.292 85.04l16.366-28.347 16.366 9.449V28.346l-32.731 18.898z"/><path style="fill:#7b91ee;fill-opacity:1;stroke:none;stroke-width:1px;stroke-linecap:butt;stroke-linejoin:miter;stroke-opacity:1" d="M130.927 18.898l-16.366 9.448 32.731 18.898z"/><path style="fill:#7b91ee;fill-opacity:1;stroke:none;stroke-width:1px;stroke-linecap:butt;stroke-linejoin:miter;stroke-opacity:1" d="M163.658 56.693l49.098 28.346-32.732 56.693-114.56-66.141 32.731-56.693 16.366 9.448v37.796l32.731 18.897z"/><path style="fill:#3469b5;fill-opacity:1;stroke:none;stroke-width:1px;stroke-linecap:butt;stroke-linejoin:miter;stroke-opacity:1" d="M180.024 141.732l65.464-37.795-32.732-18.898zM130.927 18.898l16.365 28.346 32.732-18.898L163.658 0z"/><ellipse style="fill:#fffddf;fill-opacity:1;stroke:none;stroke-width:.34049946;stroke-linecap:round;stroke-miterlimit:4;stroke-dasharray:none;stroke-opacity:1" cx="90.726" cy="111.85" rx="9.942" ry="12.686" transform="matrix(.88408 -.46734 .45544 .89027 0 0)"/><path style="opacity:.95999995;fill:none;stroke:#5d5a5a;stroke-width:.64550036px;stroke-linecap:round;stroke-linejoin:miter;stroke-opacity:1" d="M130.927 50.394v6.299l3.273 3.15"/><path style="fill:#eb875b;fill-opacity:1;stroke:none;stroke-width:1px;stroke-linecap:butt;stroke-linejoin:miter;stroke-opacity:1" d="M81.83 85.04v56.692l-6.547-3.78V81.26z"/><path style="fill:#bd5f21;fill-opacity:1;stroke:none;stroke-width:1px;stroke-linecap:butt;stroke-linejoin:miter;stroke-opacity:1" d="M81.83 141.732l6.546-3.78V88.82l-6.547-3.78z"/></svg>