<svg xmlns="http://www.w3.org/2000/svg" viewBox="0 0 13.618 24.402"><defs><clipPath clipPathUnits="userSpaceOnUse" id="a"><path d="M9666.14 8931.06s42.91-23.31 4.8-66.35c0 0 42.03 12.36 34.47-19.17 0 0 36.18-50.79 9.87-81.04 0 0 33.67-38.7 27.38-53.01 0 0 19.67-38.71-2.32-54.25 0 0 47.24-24.11 28.61-78.65 0 0 37.03-43.02 6.78-49.99 0 0 11.21-32.78-24.63-34.35 0 0-17.33-39.07-51.53-22.34 0 0-27.38-11.08-47.42 7.44 0 0-33.75-12.03-60.64 6.23 0 0-37.78-37.78-55.67-18.41 0 0-28.96-5-17.2 31.88 0 0-41.84 4.35-44.49 33.07 0 0-40.14-55.7-35.96-55.93 4.2-.22 118.12-104.52 118.12-104.52l125.69 13.16 96.17-5.66 92.3 40 25.84 138.15-154.43 298.48-27.83 72.92-47.17 16.13-.74-13.79"/></clipPath></defs><path d="M6.686 24.402c-2.696 0-4.882-1.02-4.882-2.278 0-1.259 2.186-2.278 4.882-2.278 2.696 0 4.882 1.02 4.882 2.278s-2.186 2.278-4.882 2.278" fill="#8c8b8c"/><path d="M8.464 21.911s-.556.39-1.613.39c-.955 0-1.613-.39-1.613-.39l.889-8.093h1.612l.725 8.093" fill="#8f4141"/><path d="M8.464 21.911s-.556.39-1.613.39c.9-1.09.315-8.483.315-8.483h.573l.725 8.093" fill="#6b2b27"/><path d="M7.435 18.236l-.386-1.208-.116 1.481-.182-.312-.066 2.053.235-.688.14 1.364.597-1.091-.222-1.599m-.879-.884l-.13-.428.192-1.377.067.78.166-.378v1.17l-.295.233m-.208 4.353l-.139-.48.069-.806zm-.516-1.389v-.584s.39-.896.377-.819a92.34 92.34 0 0 1-.377 1.403m1.088-5.003l-.07-.962.147.481z" fill="#6b2b27"/><path d="M13.437 14.912c.115.205.18.44.18.692 0 .804-.667 1.456-1.493 1.456-.2 0-.39-.037-.564-.109.03-.14.05-.287.05-.437 0-.17-.022-.336-.066-.492h.019c.836 0 1.556-.456 1.874-1.11" fill="#2a843b"/><path d="M13.618 14.15a1.7 1.7 0 0 1-.181.762 1.5 1.5 0 0 0-1.313-.761c-.19 0-.37.034-.536.1a2.961 2.961 0 0 0 1.07-1.684c.576.33.96.917.96 1.584" fill="#2a843b"/><path d="M12.124 14.15a1.5 1.5 0 0 1 1.313.762c-.318.654-1.038 1.11-1.874 1.11h-.019a1.524 1.524 0 0 0-.075-.228 1.634 1.634 0 0 0-.047-1.419c.057-.04.113-.08.166-.125.165-.065.346-.1.536-.1m.599-2.188c0 .208-.022.408-.066.605a2.198 2.198 0 0 0-1.094-.287c-.776 0-1.453.393-1.803.973a2.629 2.629 0 0 0-.448-.038c-.6 0-1.145.194-1.55.512a1.863 1.863 0 0 0-.683-1.033 2.524 2.524 0 0 0 .268-1.347l.053.004c.805 0 1.465-.98 1.519-2.224.096.727.642 1.282 1.3 1.282.527 0 .982-.353 1.19-.867.796.543 1.314 1.425 1.314 2.42" fill="#2a843b"/><path d="M12.657 12.567a2.961 2.961 0 0 1-1.07 1.683 1.14 1.14 0 0 0-.19.085c-.299-.552-.904-.96-1.637-1.082.35-.58 1.027-.973 1.803-.973.402 0 .78.106 1.094.287m-1.113 3.455c.044.156.066.321.066.492 0 .15-.02.297-.05.437a1.47 1.47 0 0 1-.618-.461c.169-.138.31-.3.412-.477h.003c.06.006.125.009.187.009" fill="#2a843b"/><path d="M11.544 16.022c-.062 0-.128-.003-.187-.01.044-.068.084-.143.112-.218.032.075.056.15.075.228m.066-.886c0 .231-.047.452-.14.658a2.043 2.043 0 0 0-.665-.87c.069-.121.153-.234.25-.33a2.96 2.96 0 0 0 .368-.219c.121.234.187.49.187.761m-.069-6.249c0 .234-.047.458-.131.655a3.318 3.318 0 0 0-1.902-.586c-.2 0-.396.015-.587.05l.004-.05c0-.047 0-.09-.006-.137.137.03.283.05.433.05.848 0 1.54-.55 1.6-1.245.355.272.59.736.59 1.263m.046 5.363c-.053.044-.11.085-.165.125l-.025-.04a1.15 1.15 0 0 1 .19-.085" fill="#2a843b"/><path d="M11.47 15.794c-.029.075-.07.15-.113.219h-.003a2.175 2.175 0 0 1-.702-.185 1.431 1.431 0 0 1 .152-.904c.297.228.531.527.665.87m-.071-1.459l.025.04a2.96 2.96 0 0 1-.368.219c.1-.103.215-.19.343-.26m.012-4.792c-.209.514-.664.867-1.191.867-.658 0-1.204-.555-1.3-1.282.002-.04.006-.08.002-.121.19-.035.387-.05.587-.05.71 0 1.369.215 1.902.586" fill="#2a843b"/><path d="M11.398 14.335a1.404 1.404 0 0 0-.343.259 2.577 2.577 0 0 1-.456.193c-.308-.187-.67-.3-1.06-.318a1.71 1.71 0 0 1 .221-1.216c.733.122 1.338.53 1.638 1.082m-.456 2.155c.16.202.372.364.618.461-.213.923-1.092 1.615-2.146 1.615-.776 0-1.46-.377-1.846-.948.387-.18.658-.449.727-.76a2.6 2.6 0 0 0 1.017.202c.638 0 1.216-.218 1.63-.57" fill="#2a843b"/><path d="M11.354 16.013a1.75 1.75 0 0 1-.412.477 1.394 1.394 0 0 1-.29-.662c.215.097.452.163.702.185m-.396-8.489c0 .035 0 .069-.006.1a1.188 1.188 0 0 0-.733-.256c-.67 0-1.222.574-1.307 1.316A3.062 3.062 0 0 0 8.501 7.3c.128.047.262.068.399.068.561 0 1.06-.38 1.35-.96.427.243.708.652.708 1.116" fill="#2a843b"/><path d="M10.942 16.49c-.414.352-.992.57-1.63.57-.365 0-.712-.072-1.017-.203a.701.701 0 0 0-.025-.415c.468-.193.773-.52.773-.888 0-.268-.159-.514-.424-.702.28.075.58.116.89.116.07 0 .14-.004.208-.006.193.377.524.683.935.866.038.247.14.474.29.662m.113-1.896a1.534 1.534 0 0 0-.25.33 3.474 3.474 0 0 0-.206-.137c.16-.05.312-.116.456-.193" fill="#2a843b"/><path d="M10.805 14.924a1.431 1.431 0 0 0-.153.904 1.924 1.924 0 0 1-.935-.866c.309-.02.605-.079.882-.175.072.044.14.09.206.137m.147-7.3c-.06.696-.752 1.244-1.6 1.244a1.97 1.97 0 0 1-.433-.05.66.66 0 0 0-.007-.134c.085-.742.637-1.316 1.307-1.316.271 0 .524.094.733.256m-.415-2.451c0 .459-.106.882-.287 1.235a1.843 1.843 0 0 0-.898-.228c-.555 0-1.042.234-1.328.593a1.015 1.015 0 0 0-.21-.122A3.866 3.866 0 0 0 7.32 5.38c.901-.184 1.58-1.032 1.58-2.046l-.002-.037c.125-.06.23-.16.308-.284.758.194 1.332 1.088 1.332 2.161" fill="#2a843b"/><path d="M10.25 6.408c-.29.58-.789.96-1.35.96a1.16 1.16 0 0 1-.4-.068 1.705 1.705 0 0 0-.476-.527c.286-.359.773-.593 1.328-.593.33 0 .642.085.898.228m.35 8.379a3.297 3.297 0 0 1-.883.175 1.534 1.534 0 0 1-.178-.493c.39.019.752.13 1.06.318" fill="#2a843b"/><path d="M9.717 14.962c-.069.002-.137.006-.209.006-.309 0-.608-.04-.889-.116a1.484 1.484 0 0 0-.25-.143 2.333 2.333 0 0 1 1.045-.246c.04 0 .085 0 .125.006.031.174.09.34.178.493" fill="#2a843b"/><path d="M9.312 13.215c.152 0 .305.013.448.038a1.71 1.71 0 0 0-.22 1.216c-.041-.006-.085-.006-.126-.006-.377 0-.732.09-1.044.246a2.12 2.12 0 0 0-.537-.18l-.052-.032a1.724 1.724 0 0 0-.02-.77 2.516 2.516 0 0 1 1.55-.512m.041-10.721a.94.94 0 0 1-.147.518 1.255 1.255 0 0 0-.305-.037l-.031.003A2.105 2.105 0 0 0 8.3 1.833a.858.858 0 0 0 .05-.134.614.614 0 0 1 .278-.065c.399 0 .723.384.723.86" fill="#2a843b"/><path d="M9.205 3.012a.749.749 0 0 1-.308.284c0-.109-.01-.215-.028-.318l.03-.003c.104 0 .207.012.306.037m-.286 5.807c.006.046.006.09.006.137l-.004.05-.015.003C8.9 8.968 8.9 8.928 8.9 8.887l.003-.072.016.004" fill="#2a843b"/><path d="M8.921 9.006c.004.04 0 .08-.002.121a.721.721 0 0 1-.013-.118l.015-.003m-.002-.187l-.016-.004a.91.91 0 0 1 .01-.13.66.66 0 0 1 .006.134" fill="#2a843b"/><path d="M8.912 8.684a.91.91 0 0 0-.009.131c-.465-.115-.845-.399-1.032-.77.021-.168.031-.343.031-.52 0-.178-.01-.35-.028-.521l.044-.078c.171.174.368.305.583.374.224.368.377.851.411 1.384m-.006.325c0 .04.006.08.013.118-.054 1.244-.714 2.224-1.52 2.224l-.052-.004a2.474 2.474 0 0 0-.409-1.188c.066-.068.128-.14.188-.218l.003-.003a3.276 3.276 0 0 1 1.777-.93" fill="#2a843b"/><path d="M8.9 8.887c0 .04 0 .081.006.122a3.276 3.276 0 0 0-1.777.929c.386-.496.655-1.154.742-1.893.187.371.567.655 1.032.77l-.003.072m-.003-5.591l.003.037c0 1.014-.68 1.862-1.581 2.046l-.05-.078c-.006-.04-.006-.084-.006-.128 0-.876.38-1.63.935-1.983a.653.653 0 0 0 .43.168.604.604 0 0 0 .269-.062" fill="#2a843b"/><path d="M8.869 2.978c.019.103.028.209.028.318a.604.604 0 0 1-.268.062.653.653 0 0 1-.43-.168 1.24 1.24 0 0 1 .67-.212M8.62 14.852c.264.188.423.434.423.702 0 .368-.305.695-.773.889-.112-.312-.437-.577-.873-.736a2.12 2.12 0 0 1 .904-.96c.103.04.21.074.318.105" fill="#2a843b"/><path d="M8.37 14.71c.09.04.174.09.25.142a3.532 3.532 0 0 1-.319-.106l.069-.037m-.346-7.936c.18.125.342.305.477.527a1.442 1.442 0 0 1-.583-.374c.03-.054.065-.103.106-.153m.277-4.94c.293.303.499.699.568 1.145a1.24 1.24 0 0 0-.67.212.912.912 0 0 1-.297-.696c0-.062.006-.12.016-.177a1.16 1.16 0 0 0 .383-.484m.122-.586c0 .16-.025.312-.072.452a.686.686 0 0 0-.115.072 1.86 1.86 0 0 0-1.887-.424c-.006-.031-.006-.065-.006-.1C6.343.558 6.81 0 7.384 0c.574 0 1.039.558 1.039 1.247" fill="#2a843b"/><path d="M8.37 14.71l-.069.036a3.045 3.045 0 0 1-.468-.218c.197.04.378.1.537.181M8.351 1.7a.886.886 0 0 1-.05.133l-.065-.062a.686.686 0 0 1 .115-.072m-.034 14.996c0 .056-.007.11-.022.162a2.06 2.06 0 0 1-.487-.27 2.17 2.17 0 0 0 .462-.144.701.701 0 0 1 .047.252" fill="#2a843b"/><path d="M8.236 1.77l.065.063a1.16 1.16 0 0 1-.383.484.859.859 0 0 1 .318-.546" fill="#2a843b"/><path d="M8.236 1.77a.859.859 0 0 0-.318.547.904.904 0 0 1-.534.177c-.545 0-.994-.505-1.035-1.147.187-.065.387-.1.596-.1.495 0 .947.197 1.29.524" fill="#2a843b"/><path d="M7.902 2.494c0 .288.115.54.296.696-.555.352-.935 1.107-.935 1.983 0 .044 0 .088.006.128-.461-.692-1.135-1.129-1.887-1.129-.074 0-.15.003-.224.016a2.231 2.231 0 0 1-.171-.855c0-.929.573-1.718 1.362-1.986.04.642.49 1.147 1.035 1.147a.904.904 0 0 0 .534-.177c-.01.056-.016.115-.016.177m.399 12.252a2.12 2.12 0 0 0-.904.96 2.306 2.306 0 0 0-.306-.083l-.006-.025c.35-.268.602-.649.692-1.083l.056.013c.147.084.306.16.468.218m-.277-7.973c-.041.05-.075.1-.106.153l-.07-.07a1.544 1.544 0 0 0-.033-.205c.071.031.143.072.209.122m.246 9.67c-.14.062-.296.112-.462.143a1.948 1.948 0 0 1-.523-.549 1.71 1.71 0 0 1 .112-.33c.436.159.76.424.873.736" fill="#2a843b"/><path d="M8.295 16.857c-.069.312-.34.58-.727.761a1.866 1.866 0 0 1-.336-.973c.202 0 .395-.021.576-.059.147.11.31.203.487.271m-.377-9.931l-.044.078c-.01-.05-.016-.097-.025-.147l.069.069m-.044.078c.018.171.028.343.028.52 0 .178-.01.353-.031.521a1.183 1.183 0 0 1-.122-.52c0-.184.044-.362.125-.521" fill="#2a843b"/><path d="M7.849 6.857c.01.05.015.097.025.147a1.146 1.146 0 0 0-.125.52c0 .185.044.362.122.521-.087.74-.356 1.397-.742 1.893l-.003.003c-.066.069-.128.14-.19.215a2.757 2.757 0 0 0-1.052-.938 3.614 3.614 0 0 1-.009-.262c0-1.323.683-2.395 1.525-2.395.087 0 .171.012.256.034.056.097.125.184.193.262" fill="#2a843b"/><path d="M7.849 6.857a1.657 1.657 0 0 1-.193-.262.74.74 0 0 1 .159.056c.015.069.028.138.034.206m-.016 7.671l-.056-.013.004-.018zm-.548 1.509c.13.21.308.396.523.55-.18.037-.374.058-.576.058-.01-.043-.01-.087-.01-.13 0-.166.022-.325.063-.478m.53-1.887c0 .12-.013.235-.034.347a2.916 2.916 0 0 1-.45-.325c.113-.168.259-.32.43-.445.035.137.054.277.054.424" fill="#2a843b"/><path d="M7.78 14.497l-.003.018a2.897 2.897 0 0 0-.555-.052l-.06.003c.045-.103.1-.2.17-.294.136.122.286.228.449.325m-.02-.77a1.771 1.771 0 0 0-.43.445 2.992 2.992 0 0 1-.698-.86c.178-.184.327-.393.446-.618.337.26.583.621.682 1.033m.054-7.076a.74.74 0 0 0-.159-.056 2.578 2.578 0 0 1-.384-1.207l.047-.009c.228.365.4.798.496 1.272" fill="#2a843b"/><path d="M7.656 6.595a1.013 1.013 0 0 0-.256-.034c-.842 0-1.525 1.072-1.525 2.395 0 .087.003.174.01.262a2.973 2.973 0 0 0-1.375-.33c-.475 0-.92.105-1.313.298a4.192 4.192 0 0 1-.334-1.662c0-1.752 1.01-3.19 2.295-3.336.305.727.992 1.232 1.787 1.232.112 0 .221-.01.327-.032.032.459.172.873.384 1.207m-.434 7.868c.194 0 .38.018.555.052-.09.434-.343.815-.692 1.083a1.589 1.589 0 0 1 .078-1.132l.06-.003m.124-3.116a2.524 2.524 0 0 1-.268 1.347 2.055 2.055 0 0 0-.764-.355 2.779 2.779 0 0 1 .187-1.447c.24.274.53.44.845.455m-.714 1.965c.175.327.414.617.698.86-.068.094-.124.19-.168.294-.321.003-.62.059-.88.152.007-.053.007-.103.007-.155 0-.272-.038-.53-.11-.77a2.53 2.53 0 0 0 .453-.38m.764 2.394a1.721 1.721 0 0 0-.112.33 1.58 1.58 0 0 1-.194-.414c.106.022.21.05.306.084M7.319 5.38l-.047.008-.003-.087z" fill="#2a843b"/><path d="M7.269 5.301l.003.087a1.618 1.618 0 0 1-.327.032c-.795 0-1.482-.505-1.787-1.232.075-.013.15-.016.224-.016.752 0 1.426.437 1.887 1.13m.016 10.735a1.87 1.87 0 0 0-.063.477c0 .044 0 .088.01.131h-.01c-.464 0-.889-.103-1.21-.277a1.5 1.5 0 0 0-.128-.35 2.015 2.015 0 0 0 1.18-.405l.027.01c.044.146.11.287.194.414" fill="#2a843b"/><path d="M7.232 16.645c.018.359.14.693.336.973a2.709 2.709 0 0 1-1.097.222c-.256 0-.502-.031-.724-.09a1.683 1.683 0 0 0 .265-1.382c.321.174.746.277 1.21.277h.01m-.141-1.022l-.028-.01.022-.015z" fill="#2a843b"/><path d="M7.085 15.598l-.022.015a3.008 3.008 0 0 0-1.01-.031 2.61 2.61 0 0 0 .23-.964c.26-.093.559-.15.88-.152a1.589 1.589 0 0 0-.078 1.132m-.149-5.442c.062-.075.124-.146.19-.215-.06.078-.122.15-.188.218l-.002-.003m.002.004c.231.349.378.754.409 1.187-.315-.015-.605-.18-.845-.455.103-.259.246-.499.42-.717l.007-.01.01-.006" fill="#2a843b"/><path d="M6.936 10.156l.002.003-.009.007z" fill="#2a843b"/><path d="M6.936 10.156l-.007.01-.006.009a2.41 2.41 0 0 1-.608.461c-.234-.37-.393-.867-.43-1.418.43.22.794.545 1.05.938m.144 2.538a2.708 2.708 0 0 1-.446.618 2.837 2.837 0 0 1-.318-.973c.283.066.542.19.764.355m-.609 2.86c.21 0 .406.022.593.06a2.013 2.013 0 0 1-1.179.405l-.037-.075a2.15 2.15 0 0 0 .206-.362c.134-.018.274-.028.418-.028" fill="#2a843b"/><path d="M6.633 13.312a2.53 2.53 0 0 1-.452.38c-.175-.61-.552-1.091-1.026-1.3a2.077 2.077 0 0 1 1.16-.053c.047.346.156.674.318.973m.29-3.137a2.821 2.821 0 0 0-.421.717 2.047 2.047 0 0 1-.187-.256 2.41 2.41 0 0 0 .608-.461" fill="#2a843b"/><path d="M6.315 10.636c.059.094.121.181.187.256a2.779 2.779 0 0 0-.187 1.447 2.077 2.077 0 0 0-1.16.053 1.325 1.325 0 0 0-.53-.112c-.468 0-.89.252-1.191.661-.36-.34-.802-.564-1.279-.564-.115 0-.228.012-.337.037a2.515 2.515 0 0 1-.156-.87c0-1.023.624-1.915 1.535-2.358.433 1.01 1.25 1.69 2.185 1.69.33 0 .646-.083.933-.24m-.025 3.827c0 .052 0 .102-.006.155-.474.172-.805.465-.87.811a2.022 2.022 0 0 0-1.114-.452c.01-.062.013-.122.013-.184 0-.19-.035-.396-.097-.605.097.006.193.013.294.013.623 0 1.203-.187 1.67-.509.072.24.11.5.11.77" fill="#2a843b"/><path d="M6.284 14.618c-.016.35-.1.677-.231.964-.14.022-.271.05-.396.09a1.527 1.527 0 0 0-.243-.243c.065-.346.396-.64.87-.81m-.272 1.749a1.683 1.683 0 0 1-.265 1.381c-.658-.174-1.122-.58-1.122-1.054l.003-.05c.405 0 .773-.193 1.063-.505.09.087.197.162.321.228" fill="#2a843b"/><path d="M6.012 16.368a1.395 1.395 0 0 1-.321-.228 1.19 1.19 0 0 0 .1-.121l.037.003.056-.003c.056.109.1.227.128.349m-.857-3.976c.474.209.851.69 1.026 1.3a2.948 2.948 0 0 1-1.671.509c-.1 0-.197-.007-.294-.013h-.003a2.758 2.758 0 0 0-.271-.608 1.91 1.91 0 0 1 1.213-1.188m.898 3.19a2.15 2.15 0 0 1-.206.362 1.503 1.503 0 0 0-.19-.271c.125-.041.256-.07.396-.091m-.169-6.364c.038.551.197 1.047.43 1.418-.286.157-.601.24-.932.24-.935 0-1.752-.68-2.185-1.69a2.966 2.966 0 0 1 1.313-.299c.498 0 .966.119 1.374.33" fill="#2a843b"/><path d="M5.847 15.944l.037.075-.056.003-.037-.003.056-.075" fill="#2a843b"/><path d="M5.847 15.944l-.056.075c-.078 0-.153-.004-.228-.016a.722.722 0 0 1-.13-.253c.071-.03.146-.056.224-.077.075.084.137.174.19.27" fill="#2a843b"/><path d="M5.79 16.019a1.224 1.224 0 0 1-.099.121.77.77 0 0 1-.128-.137c.075.012.15.016.228.016" fill="#2a843b"/><path d="M5.563 16.003a.77.77 0 0 0 .128.137c-.29.312-.658.505-1.063.505.018-.286.209-.548.511-.742.134.05.278.085.424.1m-.149-.573c.09.071.17.152.243.243a1.738 1.738 0 0 0-.225.077.615.615 0 0 1-.018-.32m.333 2.32c-.35.492-.951.816-1.637.816-1.079 0-1.952-.804-1.952-1.799 0-.04 0-.081.006-.122.55 0 1.051-.18 1.429-.474.283.297.642.474 1.032.474h.003l-.003.05c0 .474.464.88 1.122 1.054" fill="#2a843b"/><path d="M5.432 15.75a.722.722 0 0 0 .131.253 1.74 1.74 0 0 1-.424-.1c.09-.056.187-.106.293-.153" fill="#2a843b"/><path d="M5.414 15.43a.615.615 0 0 0 .019.321 2.381 2.381 0 0 0-.294.152 1.972 1.972 0 0 1-.901-.636 1.14 1.14 0 0 0 .062-.29c.428.038.811.203 1.114.452m-.789-3.149c.187 0 .365.04.53.112a1.91 1.91 0 0 0-1.213 1.188 2.791 2.791 0 0 0-.508-.639c.302-.409.723-.661 1.19-.661" fill="#2a843b"/><path d="M5.14 15.903c-.303.194-.494.456-.512.742h-.003c-.39 0-.749-.177-1.032-.474.312-.234.539-.548.645-.904.228.287.54.512.901.636m-.826-1.11c0 .062-.003.122-.013.184a1.865 1.865 0 0 0-.19-.01l-.06.004a1.72 1.72 0 0 1-.205-.82v-.025c.119.028.243.05.368.062h.003c.062.209.097.415.097.605" fill="#2a843b"/><path d="M4.11 14.968c.065 0 .128.003.19.01a1.2 1.2 0 0 1-.062.29 1.469 1.469 0 0 1-.187-.297l.06-.003" fill="#2a843b"/><path d="M4.05 14.97c.05.107.113.204.188.297-.106.356-.333.67-.645.904a2.221 2.221 0 0 1-.518-.926c.284-.168.617-.268.976-.274m-.109-1.391c.118.197.209.406.271.608a2.84 2.84 0 0 1-.368-.062 1.67 1.67 0 0 1 .097-.546" fill="#2a843b"/><path d="M3.942 13.58a1.67 1.67 0 0 0-.097.546 2.825 2.825 0 0 1-.808-.31 2.38 2.38 0 0 1 .397-.875c.199.184.37.405.508.64" fill="#2a843b"/><path d="M3.845 14.15c0 .294.072.571.206.82a1.978 1.978 0 0 0-.976.275 2.764 2.764 0 0 1-.038-1.428c.247.14.518.246.808.309v.025" fill="#2a843b"/><path d="M3.075 15.245c.106.368.287.686.518.926-.378.293-.88.474-1.429.474.04-.592.393-1.107.91-1.4m.36-2.304a2.373 2.373 0 0 0-.397.876c-.564-.318-1-.81-1.219-1.403.11-.025.222-.037.337-.037.477 0 .92.224 1.279.564" fill="#2a843b"/><path d="M3.037 13.817a2.71 2.71 0 0 0-.074.646c0 .277.04.539.112.782-.518.293-.87.808-.91 1.4h-.007C.967 16.645 0 15.815 0 14.793c0-.92.786-2.152 1.818-2.38a2.691 2.691 0 0 0 1.22 1.404" fill="#2a843b"/><g clip-path="url(#a)" fill="#204625" transform="matrix(.03528 0 0 -.03528 -333.994 314.707)"><path d="M9848.44 8498.1c3.27-5.84 5.13-12.47 5.13-19.63 0-22.81-18.92-41.28-42.34-41.28-5.66 0-11.05 1.06-16 3.09.88 3.98 1.42 8.14 1.42 12.38 0 4.86-.63 9.55-1.86 13.97h.53c23.69 0 44.11 12.9 53.12 31.47m5.13 21.56c0-7.69-1.86-15.03-5.13-21.56-7.16 12.81-21.12 21.56-37.21 21.56-5.4 0-10.52-.97-15.21-2.83 15.21 12.02 26.17 28.73 30.32 47.74 16.35-9.37 27.23-25.99 27.23-44.91"/><path d="M9811.23 8519.66c16.09 0 30.05-8.75 37.21-21.56-9.01-18.57-29.43-31.47-53.12-31.47h-.53c-.54 2.21-1.24 4.33-2.13 6.45 2.66 5.83 3.99 12.11 3.99 18.65 0 7.69-1.86 14.94-5.31 21.57 1.59 1.15 3.18 2.3 4.68 3.53 4.69 1.86 9.81 2.83 15.21 2.83m16.97 62.05c0-5.92-.62-11.58-1.86-17.14-8.92 5.12-19.62 8.13-31.02 8.13-22.01 0-41.19-11.14-51.1-27.58-4.06.71-8.39 1.06-12.72 1.06-16.97 0-32.44-5.48-43.94-14.5-2.82 11.67-9.8 21.92-19.35 29.26 5.04 9.9 7.87 20.95 7.87 32.62 0 1.86-.09 3.71-.27 5.57l1.5-.09c22.81 0 41.54 27.75 43.05 63.02 2.74-20.59 18.21-36.33 36.86-36.33 14.93 0 27.84 9.99 33.76 24.58 22.54-15.38 37.22-40.4 37.22-68.6"/><path d="M9826.34 8564.57c-4.15-19.01-15.11-35.72-30.32-47.74-1.85-.61-3.62-1.41-5.39-2.38-8.49 15.64-25.63 27.22-46.41 30.67 9.91 16.44 29.09 27.58 51.1 27.58 11.4 0 22.1-3.01 31.02-8.13m-31.55-97.94c1.23-4.42 1.86-9.11 1.86-13.97 0-4.24-.54-8.4-1.42-12.38-6.98 2.75-13 7.34-17.5 13.09 4.77 3.89 8.75 8.48 11.66 13.52h.1c1.67-.18 3.53-.26 5.3-.26"/><path d="M9794.79 8466.63c-1.77 0-3.63.08-5.3.26 1.23 1.95 2.38 4.07 3.17 6.19.89-2.12 1.59-4.24 2.13-6.45m1.86 25.1c0-6.54-1.33-12.82-3.99-18.65-3.8 9.72-10.43 18.21-18.83 24.66 1.96 3.45 4.34 6.63 7.08 9.37 3.63 1.77 7.07 3.89 10.43 6.19 3.45-6.63 5.31-13.88 5.31-21.57m-1.95 177.14c0-6.63-1.33-13-3.72-18.56-15.11 10.52-33.76 16.61-53.91 16.61-5.66 0-11.23-.44-16.63-1.41l.09 1.41c0 1.33 0 2.57-.17 3.89 3.89-.88 8.04-1.41 12.28-1.41 24.04 0 43.67 15.56 45.35 35.27 10.08-7.69 16.71-20.87 16.71-35.8"/><path d="M9796.02 8516.83c-1.5-1.23-3.09-2.38-4.68-3.53l-.71 1.15c1.77.97 3.54 1.77 5.39 2.38m-3.36-43.75c-.79-2.12-1.94-4.24-3.17-6.19h-.1c-7.07.62-13.79 2.48-19.88 5.21-.35 2.04-.53 4.16-.53 6.37 0 6.98 1.77 13.52 4.85 19.27 8.4-6.45 15.03-14.94 18.83-24.66m-2.03 41.37l.71-1.15c-3.36-2.3-6.8-4.42-10.43-6.19 2.83 2.91 6.1 5.39 9.72 7.34m.35 135.86c-5.92-14.59-18.83-24.58-33.76-24.58-18.65 0-34.12 15.74-36.86 36.33.08 1.15.17 2.3.08 3.45 5.4.97 10.97 1.41 16.63 1.41 20.15 0 38.8-6.09 53.91-16.61"/><path d="M9790.63 8514.45a40.043 40.043 0 0 1-9.72-7.34c-4.07-2.21-8.4-4.07-12.91-5.48-8.75 5.3-19 8.49-30.05 9.01-.62 2.92-.88 5.93-.88 9.02 0 9.28 2.56 17.94 7.15 25.46 20.78-3.45 37.92-15.03 46.41-30.67m-12.9-61.08c4.5-5.75 10.52-10.34 17.5-13.09-6.02-26.16-30.94-45.78-60.82-45.78-22 0-41.37 10.7-52.33 26.87 10.96 5.12 18.66 12.73 20.6 21.56 8.66-3.71 18.48-5.74 28.82-5.74 18.11 0 34.47 6.19 46.23 16.18"/><path d="M9789.39 8466.89c-2.91-5.04-6.89-9.63-11.66-13.52a39.45 39.45 0 0 0-8.22 18.73c6.09-2.73 12.81-4.59 19.88-5.21m-11.22 240.61c0-.98 0-1.95-.18-2.83-5.92 4.59-13.08 7.24-20.77 7.24-19 0-34.65-16.26-37.04-37.3-.97 15.12-5.3 28.82-11.67 39.25 3.63-1.33 7.43-1.95 11.32-1.95 15.91 0 30.05 10.79 38.27 27.23 12.11-6.89 20.07-18.48 20.07-31.64"/><path d="M9777.73 8453.37c-11.76-9.99-28.12-16.18-46.23-16.18-10.34 0-20.16 2.03-28.82 5.74.44 1.51.62 3.01.62 4.6 0 2.48-.44 4.86-1.32 7.16 13.25 5.48 21.91 14.76 21.91 25.19 0 7.61-4.5 14.59-12.02 19.89 7.96-2.12 16.45-3.27 25.2-3.27 2.03 0 3.97.09 5.91.18 5.49-10.7 14.86-19.36 26.53-24.58a39.45 39.45 0 0 1 8.22-18.73m3.18 53.74c-2.74-2.74-5.12-5.92-7.08-9.37-1.85 1.33-3.8 2.65-5.83 3.89 4.51 1.41 8.84 3.27 12.91 5.48"/><path d="M9773.83 8497.74c-3.08-5.75-4.85-12.29-4.85-19.27 0-2.21.18-4.33.53-6.37-11.67 5.22-21.04 13.88-26.53 24.58 8.76.53 17.15 2.21 25.02 4.95 2.03-1.24 3.98-2.56 5.83-3.89m4.16 206.93c-1.68-19.71-21.31-35.27-45.35-35.27-4.24 0-8.39.53-12.28 1.41.08 1.24 0 2.56-.18 3.8 2.39 21.04 18.04 37.3 37.04 37.3 7.69 0 14.85-2.65 20.77-7.24m-11.75 69.48c0-13-3.01-25.02-8.14-35.01-7.25 4.07-16.08 6.45-25.46 6.45-15.73 0-29.52-6.62-37.64-16.79a29.7 29.7 0 0 1-5.93 3.45c-2.74 13.43-7.6 25.72-14.06 36.06 25.55 5.22 44.82 29.26 44.82 57.98l-.09 1.06c3.54 1.68 6.54 4.52 8.75 8.05 21.49-5.48 37.75-30.85 37.75-61.25"/><path d="M9758.1 8739.14c-8.22-16.44-22.36-27.23-38.27-27.23-3.89 0-7.69.62-11.32 1.95-3.8 6.28-8.39 11.4-13.51 14.94 8.12 10.17 21.91 16.79 37.64 16.79 9.38 0 18.21-2.38 25.46-6.45m9.9-237.51c-7.87-2.74-16.26-4.42-25.02-4.95a43.34 43.34 0 0 0-5.03 13.96c11.05-.52 21.3-3.71 30.05-9.01"/><path d="M9742.98 8496.68c-1.94-.09-3.88-.18-5.91-.18-8.75 0-17.24 1.15-25.2 3.27-2.12 1.5-4.5 2.92-7.07 4.07a66.13 66.13 0 0 0 29.61 6.98c1.15 0 2.39 0 3.54-.18a43.34 43.34 0 0 1 5.03-13.96"/><path d="M9731.5 8546.18c4.33 0 8.66-.35 12.72-1.06-4.59-7.52-7.15-16.18-7.15-25.46 0-3.09.26-6.1.88-9.02-1.15.18-2.39.18-3.54.18a66.13 66.13 0 0 1-29.61-6.98c-4.5 2.3-9.63 3.98-15.21 5.13l-1.49.88c.62 3.18.97 6.45.97 9.81 0 4.15-.53 8.13-1.51 12.02 11.5 9.02 26.97 14.5 43.94 14.5m1.14 303.89c0-5.57-1.49-10.61-4.15-14.67-2.83.71-5.74 1.06-8.66 1.06l-.88-.09c-1.95 12.64-7.78 23.87-16.09 32.44.52 1.24 1.06 2.47 1.41 3.8 2.47 1.24 5.13 1.86 7.87 1.86 11.31 0 20.5-10.87 20.5-24.4"/><path d="M9728.49 8835.4c-2.21-3.53-5.21-6.37-8.75-8.05 0 3.1-.26 6.1-.79 9.02l.88.09c2.92 0 5.83-.35 8.66-1.06m-8.13-164.59c.17-1.32.17-2.56.17-3.89l-.09-1.41-.44-.09c-.17 1.15-.17 2.3-.17 3.45l.09 2.03.44-.09"/><path d="M9720.44 8665.51c.09-1.15 0-2.3-.08-3.45-.18 1.06-.36 2.21-.36 3.36l.44.09m-.08 5.3l-.44.09c0 1.24.08 2.47.26 3.71.18-1.24.26-2.56.18-3.8"/><path d="M9720.18 8674.61a25.71 25.71 0 0 1-.26-3.71c-13.18 3.27-23.96 11.32-29.26 21.83.61 4.78.89 9.73.89 14.77 0 5.03-.28 9.9-.8 14.76l1.24 2.21c4.86-4.95 10.43-8.66 16.52-10.61 6.37-10.43 10.7-24.13 11.67-39.25m-.18-9.19c0-1.15.18-2.3.36-3.36-1.51-35.27-20.24-63.02-43.05-63.02l-1.5.09c-.88 12.28-5.04 23.78-11.58 33.67 1.86 1.95 3.63 3.98 5.31 6.19l.08.09c13.08 13.35 30.59 22.89 50.38 26.34"/><path d="M9719.83 8668.87c0-1.15 0-2.3.17-3.45-19.79-3.45-37.3-12.99-50.38-26.34 10.96 14.05 18.57 32.71 21.04 53.65 5.3-10.51 16.08-18.56 29.26-21.83l-.09-2.03m-.09 158.48l.09-1.06c0-28.72-19.27-52.76-44.82-57.98l-1.41 2.21c-.18 1.15-.18 2.39-.18 3.63 0 24.83 10.78 46.22 26.52 56.21 3.44-3.01 7.69-4.77 12.2-4.77 2.65 0 5.31.62 7.6 1.76"/><path d="M9718.95 8836.37c.53-2.92.79-5.92.79-9.02-2.29-1.14-4.95-1.76-7.6-1.76-4.51 0-8.76 1.76-12.2 4.77 5.75 3.8 12.2 5.92 19.01 6.01m-7.08-336.6c7.52-5.3 12.02-12.28 12.02-19.89 0-10.43-8.66-19.71-21.91-25.19-3.19 8.84-12.39 16.36-24.76 20.86 5.22 11.41 14.33 20.95 25.64 27.23 2.92-1.15 5.92-2.12 9.01-3.01"/><path d="M9704.8 8503.84c2.57-1.15 4.95-2.57 7.07-4.07-3.09.89-6.09 1.86-9.01 3.01l1.94 1.06m-9.8 224.96c5.12-3.54 9.71-8.66 13.51-14.94-6.09 1.95-11.66 5.66-16.52 10.61.88 1.5 1.85 2.91 3.01 4.33m7.86 140.01c8.31-8.57 14.14-19.8 16.09-32.44-6.81-.09-13.26-2.21-19.01-6.01-5.13 4.42-8.39 11.58-8.39 19.71 0 1.77.17 3.45.44 5.04 4.6 3.27 8.4 8.04 10.87 13.7m3.44 16.62c0-4.51-.7-8.84-2.03-12.82-1.15-.53-2.2-1.23-3.27-2.03-9.73 9.28-22.54 14.85-36.59 14.85-5.93 0-11.58-.97-16.89-2.83-.17.89-.17 1.86-.17 2.83 0 19.54 13.26 35.36 29.52 35.36 16.26 0 29.43-15.82 29.43-35.36"/><path d="M9704.8 8503.84l-1.94-1.06a86.32 86.32 0 0 0-13.27 6.19c5.58-1.15 10.71-2.83 15.21-5.13m-.53 368.77c-.35-1.33-.89-2.56-1.41-3.8l-1.86 1.77c1.07.8 2.12 1.5 3.27 2.03m-.97-425.08c0-1.59-.18-3.09-.62-4.6-5.04 1.95-9.64 4.6-13.79 7.7 4.69.88 9.1 2.29 13.09 4.06.88-2.3 1.32-4.68 1.32-7.16m-2.3 423.05l1.86-1.77c-2.47-5.66-6.27-10.43-10.87-13.7 1.14 6.54 4.41 12.02 9.01 15.47"/><path d="M9701 8870.58c-4.6-3.45-7.87-8.93-9.01-15.47-4.43-3.18-9.55-5.04-15.12-5.04-15.47 0-28.19 14.32-29.35 32.53 5.31 1.86 10.96 2.83 16.89 2.83 14.05 0 26.86-5.57 36.59-14.85"/><path d="M9691.55 8850.07c0-8.13 3.26-15.29 8.39-19.71-15.74-9.99-26.52-31.38-26.52-56.21 0-1.24 0-2.48.18-3.63-13.08 19.62-32.18 32-53.48 32-2.12 0-4.24-.09-6.37-.44-3.08 7.42-4.85 15.64-4.85 24.21 0 26.35 16.26 48.71 38.62 56.31 1.16-18.21 13.88-32.53 29.35-32.53 5.57 0 10.69 1.86 15.12 5.04-.27-1.59-.44-3.27-.44-5.04m11.31-347.29c-11.31-6.28-20.42-15.82-25.64-27.23-2.73.97-5.65 1.77-8.66 2.39l-.18.71c9.91 7.6 17.06 18.38 19.63 30.67l1.58-.35a86.32 86.32 0 0 1 13.27-6.19M9695 8728.8a33.684 33.684 0 0 1-3.01-4.33l-1.95 1.94c-.17 1.94-.53 3.89-.97 5.84a29.7 29.7 0 0 0 5.93-3.45m6.98-274.11a59.38 59.38 0 0 0-13.09-4.06c-6.1 4.33-11.13 9.63-14.85 15.55.71 3.27 1.85 6.37 3.18 9.37 12.37-4.5 21.57-12.02 24.76-20.86m.7-11.76c-1.94-8.83-9.64-16.44-20.6-21.56-5.56 7.96-9.01 17.41-9.54 27.58 5.75 0 11.22.62 16.35 1.68 4.15-3.1 8.75-5.75 13.79-7.7"/><path d="M9691.99 8724.47l-1.24-2.21c-.27 1.41-.44 2.74-.71 4.15l1.95-1.94m-1.24-2.21c.52-4.86.8-9.73.8-14.76 0-5.04-.28-9.99-.89-14.77-2.21 4.51-3.45 9.55-3.45 14.77 0 5.21 1.24 10.25 3.54 14.76"/><path d="M9690.04 8726.41c.27-1.41.44-2.74.71-4.15a32.45 32.45 0 0 1-3.54-14.76c0-5.22 1.24-10.26 3.45-14.77-2.47-20.94-10.08-39.6-21.04-53.65l-.08-.09c-1.86-1.94-3.63-3.98-5.39-6.1-7.26 11.14-17.6 20.33-29.8 26.61-.18 2.47-.26 4.95-.26 7.42 0 37.48 19.35 67.89 43.22 67.89 2.48 0 4.86-.36 7.26-.97 1.58-2.75 3.53-5.22 5.47-7.43"/><path d="M9690.04 8726.41c-1.94 2.21-3.89 4.68-5.47 7.43 1.49-.36 3.08-.89 4.5-1.59.44-1.95.8-3.9.97-5.84m-.45-217.44l-1.58.35.09.53zm-15.55-42.79c3.72-5.92 8.75-11.22 14.85-15.55a80.723 80.723 0 0 0-16.35-1.68c-.27 1.24-.27 2.47-.27 3.71 0 4.68.63 9.19 1.77 13.52m15.03 53.48c0-3.36-.35-6.63-.97-9.81-4.6 2.74-8.85 5.75-12.73 9.19 3.18 4.77 7.33 9.1 12.19 12.64.98-3.89 1.51-7.87 1.51-12.02"/><path d="M9688.1 8509.85l-.09-.53c-4.95.97-10.25 1.5-15.74 1.5l-1.68-.09c1.24 2.92 2.83 5.66 4.78 8.31 3.88-3.44 8.13-6.45 12.73-9.19m-.54 21.83c-4.86-3.54-9.01-7.87-12.19-12.64-8.05 6.9-14.85 15.12-19.8 24.4 5.04 5.21 9.28 11.14 12.64 17.5 9.55-7.34 16.53-17.59 19.35-29.26m1.51 200.57c-1.42.7-3.01 1.23-4.5 1.59-6.02 9.46-9.99 21.21-10.88 34.2l1.32.27c6.46-10.34 11.32-22.63 14.06-36.06"/><path d="M9684.57 8733.84c-2.4.61-4.78.97-7.26.97-23.87 0-43.22-30.41-43.22-67.89 0-2.47.08-4.95.26-7.42-11.57 6.01-24.83 9.37-38.97 9.37-13.44 0-26.08-3.01-37.22-8.49-6.01 13.88-9.45 29.97-9.45 47.12 0 49.67 28.63 90.42 65.04 94.58 8.67-20.6 28.12-34.92 50.66-34.92 3.18 0 6.27.27 9.28.88.89-12.99 4.86-24.74 10.88-34.2m-12.3-223.02c5.49 0 10.79-.53 15.74-1.5-2.57-12.29-9.72-23.07-19.63-30.67-1.32 4.15-1.94 8.57-1.94 13.08 0 6.72 1.42 13.08 4.15 19l1.68.09m3.54 88.31c.18-1.86.27-3.71.27-5.57 0-11.67-2.83-22.72-7.87-32.62-6.28 4.69-13.62 8.22-21.66 10.08-.44 3.44-.71 7.07-.71 10.69 0 10.7 2.12 20.95 6.02 30.32 6.8-7.78 15.02-12.46 23.95-12.9m-20.24-55.69c4.95-9.28 11.75-17.5 19.8-24.4-1.95-2.65-3.54-5.39-4.78-8.31-9.1-.09-17.59-1.68-24.92-4.33.17 1.51.17 2.92.17 4.42 0 7.69-1.06 15.03-3.09 21.84 4.69 3.09 9.01 6.72 12.82 10.78m21.65-67.89c-1.33-3-2.47-6.1-3.18-9.37-2.38 3.63-4.24 7.6-5.48 11.76 3.01-.62 5.93-1.42 8.66-2.39"/><path d="M9675.01 8768.31l-1.32-.27-.09 2.48z"/><path d="M9673.6 8770.52l.09-2.48c-3.01-.61-6.1-.88-9.28-.88-22.54 0-41.99 14.32-50.66 34.92 2.13.35 4.25.44 6.37.44 21.3 0 40.4-12.38 53.48-32m.44-304.34a52.923 52.923 0 0 1-1.77-13.52c0-1.24 0-2.47.27-3.71h-.27c-13.16 0-25.19 2.92-34.3 7.87-.79 3.44-2.03 6.8-3.62 9.89 12.65.27 24.22 4.51 33.42 11.49l.79-.26c1.24-4.16 3.1-8.13 5.48-11.76"/><path d="M9672.54 8448.95c.53-10.17 3.98-19.62 9.54-27.58-8.66-3.89-19.44-6.28-31.11-6.28-7.24 0-14.23.89-20.51 2.57 5.66 7.95 8.93 17.5 8.93 27.84 0 3.89-.44 7.69-1.42 11.32 9.11-4.95 21.14-7.87 34.3-7.87h.27m-3.98 28.99l-.79.26.61.45z"/><path d="M9668.38 8478.65l-.61-.45a84.527 84.527 0 0 1-16.8 1.68c-4.06 0-8.05-.26-11.84-.79 3.71 8.13 6.1 17.41 6.54 27.31 7.33 2.65 15.82 4.24 24.92 4.33-2.73-5.92-4.15-12.28-4.15-19 0-4.51.62-8.93 1.94-13.08m-4.23 154.24c1.76 2.12 3.53 4.16 5.39 6.1-1.68-2.21-3.45-4.24-5.31-6.19l-.08.09m.08-.09c6.54-9.89 10.7-21.39 11.58-33.67-8.93.44-17.15 5.12-23.95 12.9 2.91 7.34 6.98 14.14 11.92 20.33l.19.27.26.17m-.08.09l.08-.09-.26-.17z"/><path d="M9664.15 8632.89l-.18-.26-.19-.27c-5.21-5.39-11.04-9.81-17.23-13.08-6.62 10.52-11.13 24.57-12.2 40.22 12.2-6.28 22.54-15.47 29.8-26.61m4.06-71.95c-3.36-6.36-7.6-12.29-12.64-17.5a80.361 80.361 0 0 0-9.02 27.58c8.04-1.86 15.38-5.39 21.66-10.08m-17.24-81.06c5.92 0 11.5-.61 16.8-1.68-9.2-6.98-20.77-11.22-33.42-11.49l-1.05 2.13c2.2 3.09 4.15 6.54 5.83 10.25 3.79.53 7.78.79 11.84.79"/><path d="M9655.57 8543.44a71.702 71.702 0 0 0-12.82-10.78c-4.95 17.32-15.65 30.93-29.08 36.86a58.89 58.89 0 0 0 19.09 3.18c4.77 0 9.37-.53 13.79-1.68 1.33-9.81 4.42-19.1 9.02-27.58m8.21 88.92c-4.94-6.19-9.01-12.99-11.92-20.33-1.86 2.12-3.63 4.6-5.31 7.25 6.19 3.27 12.02 7.69 17.23 13.08"/><path d="M9646.55 8619.28c1.68-2.65 3.45-5.13 5.31-7.25-3.9-9.37-6.02-19.62-6.02-30.32 0-3.62.27-7.25.71-10.69-4.42 1.15-9.02 1.68-13.79 1.68a58.89 58.89 0 0 1-19.09-3.18c-4.68 2.03-9.72 3.18-15.02 3.18-15.92 0-29.97-10.35-38.55-26.25-9.19 4.68-19.88 7.42-31.37 7.42l-1.95-.09c-7.69 11.58-12.11 25.19-12.11 39.78 0 28.99 17.68 54.27 43.49 66.82 12.28-28.64 35.45-47.9 61.96-47.9 9.37 0 18.3 2.38 26.43 6.8m-.71-108.46c0-1.5 0-2.91-.17-4.42-13.44-4.86-22.8-13.17-24.66-22.98-8.57 7.07-19.45 11.76-31.56 12.82.26 1.76.35 3.44.35 5.21 0 6.01-1.14 11.85-3.45 17.24 2.92-.27 5.93-.44 9.03-.44 17.67 0 34.11 5.3 47.37 14.41 2.03-6.81 3.09-14.15 3.09-21.84"/><path d="M9645.67 8506.4c-.44-9.9-2.83-19.18-6.54-27.31-3.98-.62-7.69-1.41-11.22-2.57a42.889 42.889 0 0 1-6.9 6.9c1.86 9.81 11.22 18.12 24.66 22.98m-7.7-49.58c.98-3.63 1.42-7.43 1.42-11.32 0-10.34-3.27-19.89-8.93-27.84-18.65 4.95-31.81 16.44-31.81 29.87l.09 1.42c11.48 0 21.91 5.48 30.13 14.32 2.57-2.48 5.57-4.6 9.1-6.45"/><path d="M9637.97 8456.82c-3.53 1.85-6.53 3.97-9.1 6.45.98 1.06 1.95 2.21 2.83 3.44l1.06-.08 1.59.08c1.59-3.09 2.83-6.45 3.62-9.89m-24.3 112.7c13.43-5.93 24.13-19.54 29.08-36.86-13.26-9.11-29.7-14.41-47.37-14.41-3.1 0-6.11.17-9.03.44-1.85 4.86-4.68 9.37-8.21 13.43 4.41 17.42 17.94 31.47 35.53 37.4m25.46-90.43c-1.68-3.71-3.63-7.16-5.83-10.25-1.51 2.74-3.28 5.3-5.39 7.68 3.53 1.16 7.24 1.95 11.22 2.57m-4.78 180.41c1.07-15.65 5.58-29.7 12.2-40.22-8.13-4.42-17.06-6.8-26.43-6.8-26.51 0-49.68 19.26-61.96 47.9 11.14 5.48 23.78 8.49 37.22 8.49 14.14 0 27.4-3.36 38.97-9.37"/><path d="M9633.3 8468.84l1.05-2.13-1.59-.08-1.06.08 1.6 2.13"/><path d="M9633.3 8468.84l-1.6-2.13c-2.21 0-4.33.09-6.45.45a20.369 20.369 0 0 0-3.71 7.16c2.03.88 4.15 1.59 6.37 2.2 2.11-2.38 3.88-4.94 5.39-7.68"/><path d="M9631.7 8466.71c-.88-1.23-1.85-2.38-2.83-3.44-1.41 1.14-2.56 2.47-3.62 3.89 2.12-.36 4.24-.45 6.45-.45"/><path d="M9625.25 8467.16c1.06-1.42 2.21-2.75 3.62-3.89-8.22-8.84-18.65-14.32-30.13-14.32.52 8.13 5.91 15.55 14.49 21.04 3.8-1.42 7.87-2.39 12.02-2.83m-4.24 16.26c2.56-2.03 4.85-4.33 6.9-6.9-2.22-.61-4.34-1.32-6.37-2.2-.62 1.85-.89 3.71-.89 5.56 0 1.24.09 2.39.36 3.54m9.45-65.76c-9.9-13.97-26.96-23.16-46.4-23.16-30.59 0-55.33 22.8-55.33 51 0 1.15 0 2.3.17 3.45 15.56 0 29.79 5.12 40.49 13.43 8.04-8.4 18.2-13.43 29.26-13.43h.09l-.09-1.42c0-13.43 13.16-24.92 31.81-29.87"/><path d="M9621.54 8474.32c.7-2.48 1.94-4.95 3.71-7.16-4.15.44-8.22 1.41-12.02 2.83 2.57 1.59 5.3 3 8.31 4.33"/><path d="M9621.01 8483.42c-.27-1.15-.36-2.3-.36-3.54 0-1.85.27-3.71.89-5.56-3.01-1.33-5.74-2.74-8.31-4.33-10.26 3.53-19.09 9.89-25.55 18.03.98 2.65 1.5 5.39 1.77 8.22 12.11-1.06 22.99-5.75 31.56-12.82m-22.36 89.28c5.3 0 10.34-1.15 15.02-3.18-17.59-5.93-31.12-19.98-35.53-37.4-4.78 5.75-10.88 10.61-18.04 14.33 8.58 15.9 22.63 26.25 38.55 26.25"/><path d="M9613.23 8469.99c-8.58-5.49-13.97-12.91-14.49-21.04h-.09c-11.06 0-21.22 5.03-29.26 13.43 8.84 6.63 15.28 15.56 18.29 25.64 6.46-8.14 15.29-14.5 25.55-18.03m-23.43 31.46c0-1.77-.09-3.45-.35-5.21-1.77.18-3.54.26-5.39.26l-1.68-.08c-3.8 7.07-5.83 14.93-5.83 23.24v.71c3.18-.79 6.44-1.33 9.8-1.68 2.31-5.39 3.45-11.23 3.45-17.24"/><path d="M9584.06 8496.5c1.85 0 3.62-.08 5.39-.26-.27-2.83-.79-5.57-1.77-8.22-2.12 2.65-3.89 5.39-5.3 8.4l1.68.08"/><path d="M9582.38 8496.42c1.41-3.01 3.18-5.75 5.3-8.4-3.01-10.08-9.45-19.01-18.29-25.64-6.54 6.81-11.67 15.82-14.68 26.26 8.05 4.77 17.5 7.6 27.67 7.78m-4.24 35.7c3.53-4.06 6.36-8.57 8.21-13.43-3.36.35-6.62.89-9.8 1.68.09 4.06.61 7.96 1.59 11.75"/><path d="M9578.14 8532.12c-.98-3.79-1.5-7.69-1.59-11.75a80.07 80.07 0 0 0-22.9 8.75c1.5 6.28 3.63 12.11 6.45 17.33 7.16-3.72 13.26-8.58 18.04-14.33"/><path d="M9576.55 8519.66c0-8.31 2.03-16.17 5.83-23.24-10.17-.18-19.62-3.01-27.67-7.78a78.255 78.255 0 0 0-3.18 22.18c0 6.37.71 12.55 2.12 18.3a80.07 80.07 0 0 1 22.9-8.75v-.71m-21.84-31.02c3.01-10.44 8.14-19.45 14.68-26.26-10.7-8.31-24.93-13.43-40.49-13.43 1.15 16.79 11.13 31.38 25.81 39.69m5.39 57.81c-2.82-5.22-4.95-11.05-6.45-17.33-10.87 6.1-20.06 14.59-26.87 24.66l1.95.09c11.49 0 22.18-2.74 31.37-7.42"/><path d="M9553.65 8529.12c-1.41-5.75-2.12-11.93-2.12-18.3 0-7.87 1.15-15.29 3.18-22.18-14.68-8.31-24.66-22.9-25.81-39.69h-.17c-33.77 0-61.18 23.51-61.18 52.5 0 28.37 26.35 51.53 59.23 52.33 6.81-10.07 16-18.56 26.87-24.66"/></g><path d="M7.017 7.952a.424.424 0 0 1-.419.429.424.424 0 0 1-.418-.429c0-.236.187-.428.418-.428.231 0 .419.192.419.428M2.81 14.647c-.163.36-.478.569-.705.467-.226-.103-.279-.477-.116-.837.163-.36.478-.57.705-.467.226.102.278.477.116.837m1-.2c-.043.093-.13.145-.198.115-.067-.03-.086-.13-.044-.224.042-.093.13-.144.196-.114.068.03.087.13.045.223M6.29 2.61c0 .202-.103.365-.23.365s-.23-.163-.23-.364c0-.2.103-.364.23-.364s.23.163.23.364M7.565.65c0 .107-.076.194-.171.194-.095 0-.172-.087-.172-.195 0-.108.077-.195.172-.195.095 0 .171.087.171.195m3.745 13.389c.169.333.148.684-.047.782-.194.098-.488-.093-.657-.427-.17-.334-.148-.684.046-.782.194-.099.49.092.658.427m-.431-3.867s-.258 2.98-4.408 1.539c0 0 1.126 1.618 3.941 1.103 2.815-.516.467-2.642.467-2.642M7.716 8.658s1.814 1.03 3.276-.173c0 0-.722 2.96-3.276.173m-6.049 2.787s.137 2.14 2.843.516c0 0-2.66 2.669-2.843-.516M2.904 6.92s-.097 1.93 1.932 1.796c0 0 .222.638 1.185.547 0 0-.585.608-1.708.008l-1.082-.008S2.51 8.2 2.904 6.92m6.139-3.099s-.306 1.82-1.478 1.572c-1.17-.249-1.222-.595-1.222-.595s.92 1.345 2.557.86c1.637-.486.793-1.63.143-1.837" fill="#204625"/></svg>